<?xml version="1.0" encoding="utf-8"?>
<svg xmlns="http://www.w3.org/2000/svg" fill="none" version="1.1" viewBox="-1 -1 186.252 186.252" x="-1pt" y="-1pt" width="186.252pt" height="186.252pt" stroke-width="0.566929" stroke-miterlimit="10.000000">
 <g transform="matrix(1.000000,0.000000,0.000000,1.000000,18.425197,18.425197)">
  <path d="M1.84252 0L1.84252 -0.0032158A1.84252 1.84252 0 0 0 -1.84252 -1.04389e-15A1.84252 1.84252 0 0 0 1.84252 0.0032158Z" fill="black"/>
  <path d="M38.6929 0L38.6929 -0.0032158A1.84252 1.84252 0 0 0 35.0079 -1.04389e-15A1.84252 1.84252 0 0 0 38.6929 0.0032158Z" fill="black"/>
  <path d="M75.5433 0L75.5433 -0.0032158A1.84252 1.84252 0 0 0 71.8583 -1.04389e-15A1.84252 1.84252 0 0 0 75.5433 0.0032158Z" fill="black"/>
  <path d="M112.394 0L112.394 -0.0032158A1.84252 1.84252 0 0 0 108.709 -1.04389e-15A1.84252 1.84252 0 0 0 112.394 0.0032158Z" fill="black"/>
  <path d="M1.84252 36.8504L1.84252 36.8472A1.84252 1.84252 0 0 0 -1.84252 36.8504A1.84252 1.84252 0 0 0 1.84252 36.8536Z" fill="black"/>
  <path d="M38.6929 36.8504L38.6929 36.8472A1.84252 1.84252 0 0 0 35.0079 36.8504A1.84252 1.84252 0 0 0 38.6929 36.8536Z" fill="black"/>
  <path d="M75.5433 36.8504L75.5433 36.8472A1.84252 1.84252 0 0 0 71.8583 36.8504A1.84252 1.84252 0 0 0 75.5433 36.8536Z" fill="black"/>
  <path d="M112.394 36.8504L112.394 36.8472A1.84252 1.84252 0 0 0 108.709 36.8504A1.84252 1.84252 0 0 0 112.394 36.8536Z" fill="black"/>
  <path d="M1.84252 73.7008L1.84252 73.6976A1.84252 1.84252 0 0 0 -1.84252 73.7008A1.84252 1.84252 0 0 0 1.84252 73.704Z" fill="black"/>
  <g stroke-width="0.801759">
   <path d="M39.6142 73.7008L39.6142 73.696A2.76378 2.76378 0 0 0 34.0866 73.7008A2.76378 2.76378 0 0 0 39.6142 73.7056Z" stroke="#1919e5"/>
  </g>
  <path d="M75.5433 73.7008L75.5433 73.6976A1.84252 1.84252 0 0 0 71.8583 73.7008A1.84252 1.84252 0 0 0 75.5433 73.704Z" fill="black"/>
  <path d="M112.394 73.7008L112.394 73.6976A1.84252 1.84252 0 0 0 108.709 73.7008A1.84252 1.84252 0 0 0 112.394 73.704Z" fill="black"/>
  <path d="M1.84252 110.551L1.84252 110.548A1.84252 1.84252 0 0 0 -1.84252 110.551A1.84252 1.84252 0 0 0 1.84252 110.554Z" fill="black"/>
  <path d="M38.6929 110.551L38.6929 110.548A1.84252 1.84252 0 0 0 35.0079 110.551A1.84252 1.84252 0 0 0 38.6929 110.554Z" fill="black"/>
  <path d="M75.5433 110.551L75.5433 110.548A1.84252 1.84252 0 0 0 71.8583 110.551A1.84252 1.84252 0 0 0 75.5433 110.554Z" fill="black"/>
  <path d="M112.394 110.551L112.394 110.548A1.84252 1.84252 0 0 0 108.709 110.551A1.84252 1.84252 0 0 0 112.394 110.554Z" fill="black"/>
  <g stroke-width="0.801759">
   <path d="M20.2677 0L20.2677 -0.0032158A1.84252 1.84252 0 0 0 16.5827 -1.04389e-15A1.84252 1.84252 0 0 0 20.2677 0.0032158Z" fill="#f00"/>
  </g>
  <path d="M0 0L36.8504 0" stroke="black"/>
  <g stroke-width="0.801759">
   <path d="M1.84252 18.4252L1.84252 18.422A1.84252 1.84252 0 0 0 -1.84252 18.4252A1.84252 1.84252 0 0 0 1.84252 18.4284Z" fill="#f00"/>
  </g>
  <path d="M0 0L0 36.8504" stroke="black"/>
  <g stroke-width="0.801759">
   <path d="M57.1181 0L57.1181 -0.0032158A1.84252 1.84252 0 0 0 53.4331 -1.04389e-15A1.84252 1.84252 0 0 0 57.1181 0.0032158Z" fill="#f00"/>
  </g>
  <path d="M36.8504 0L73.7008 0" stroke="black"/>
  <g stroke-width="0.801759">
   <path d="M38.6929 18.4252L38.6929 18.422A1.84252 1.84252 0 0 0 35.0079 18.4252A1.84252 1.84252 0 0 0 38.6929 18.4284Z" fill="#f00"/>
  </g>
  <path d="M36.8504 0L36.8504 36.8504" stroke="black"/>
  <g stroke-width="0.801759">
   <path d="M93.9685 0L93.9685 -0.0032158A1.84252 1.84252 0 0 0 90.2835 -1.04389e-15A1.84252 1.84252 0 0 0 93.9685 0.0032158Z" fill="#f00"/>
  </g>
  <path d="M73.7008 0L110.551 0" stroke="black"/>
  <g stroke-width="0.801759">
   <path d="M75.5433 18.4252L75.5433 18.422A1.84252 1.84252 0 0 0 71.8583 18.4252A1.84252 1.84252 0 0 0 75.5433 18.4284Z" fill="#f00"/>
  </g>
  <path d="M73.7008 0L73.7008 36.8504" stroke="black"/>
  <g stroke-width="0.801759">
   <path d="M130.819 0L130.819 -0.0032158A1.84252 1.84252 0 0 0 127.134 -1.04389e-15A1.84252 1.84252 0 0 0 130.819 0.0032158Z" fill="#f00"/>
  </g>
  <path d="M110.551 0L147.402 0" stroke="black"/>
  <g stroke-width="0.801759">
   <path d="M112.394 18.4252L112.394 18.422A1.84252 1.84252 0 0 0 108.709 18.4252A1.84252 1.84252 0 0 0 112.394 18.4284Z" fill="#f00"/>
  </g>
  <path d="M110.551 0L110.551 36.8504" stroke="black"/>
  <g stroke-width="0.801759">
   <path d="M20.2677 36.8504L20.2677 36.8472A1.84252 1.84252 0 0 0 16.5827 36.8504A1.84252 1.84252 0 0 0 20.2677 36.8536Z" fill="#f00"/>
  </g>
  <path d="M0 36.8504L36.8504 36.8504" stroke="black"/>
  <g stroke-width="0.801759">
   <path d="M1.84252 55.2756L1.84252 55.2724A1.84252 1.84252 0 0 0 -1.84252 55.2756A1.84252 1.84252 0 0 0 1.84252 55.2788Z" fill="#f00"/>
  </g>
  <path d="M0 36.8504L0 73.7008" stroke="black"/>
  <g stroke-width="0.801759">
   <path d="M57.1181 36.8504L57.1181 36.8472A1.84252 1.84252 0 0 0 53.4331 36.8504A1.84252 1.84252 0 0 0 57.1181 36.8536Z" fill="#f00"/>
  </g>
  <path d="M36.8504 36.8504L73.7008 36.8504" stroke="black"/>
  <g stroke-width="0.801759">
   <path d="M38.6929 55.2756L38.6929 55.2724A1.84252 1.84252 0 0 0 35.0079 55.2756A1.84252 1.84252 0 0 0 38.6929 55.2788Z" fill="#f00"/>
  </g>
  <path d="M36.8504 36.8504L36.8504 73.7008" stroke="black"/>
  <g stroke-width="0.801759">
   <path d="M93.9685 36.8504L93.9685 36.8472A1.84252 1.84252 0 0 0 90.2835 36.8504A1.84252 1.84252 0 0 0 93.9685 36.8536Z" fill="#f00"/>
  </g>
  <path d="M73.7008 36.8504L110.551 36.8504" stroke="black"/>
  <g stroke-width="0.801759">
   <path d="M76.4646 55.2756L76.4646 55.2708A2.76378 2.76378 0 0 0 70.937 55.2756A2.76378 2.76378 0 0 0 76.4646 55.2804Z" stroke="#f00"/>
  </g>
  <path d="M73.7008 36.8504L73.7008 73.7008" stroke="black"/>
  <g stroke-width="0.801759">
   <path d="M130.819 36.8504L130.819 36.8472A1.84252 1.84252 0 0 0 127.134 36.8504A1.84252 1.84252 0 0 0 130.819 36.8536Z" fill="#f00"/>
  </g>
  <path d="M110.551 36.8504L147.402 36.8504" stroke="black"/>
  <g stroke-width="0.801759">
   <path d="M112.394 55.2756L112.394 55.2724A1.84252 1.84252 0 0 0 108.709 55.2756A1.84252 1.84252 0 0 0 112.394 55.2788Z" fill="#f00"/>
  </g>
  <path d="M110.551 36.8504L110.551 73.7008" stroke="black"/>
  <g stroke-width="0.801759">
   <path d="M20.2677 73.7008L20.2677 73.6976A1.84252 1.84252 0 0 0 16.5827 73.7008A1.84252 1.84252 0 0 0 20.2677 73.704Z" fill="#f00"/>
  </g>
  <path d="M0 73.7008L36.8504 73.7008" stroke="black"/>
  <g stroke-width="0.801759">
   <path d="M1.84252 92.126L1.84252 92.1228A1.84252 1.84252 0 0 0 -1.84252 92.126A1.84252 1.84252 0 0 0 1.84252 92.1292Z" fill="#f00"/>
  </g>
  <path d="M0 73.7008L0 110.551" stroke="black"/>
  <g stroke-width="0.801759">
   <path d="M57.1181 73.7008L57.1181 73.6976A1.84252 1.84252 0 0 0 53.4331 73.7008A1.84252 1.84252 0 0 0 57.1181 73.704Z" fill="#f00"/>
  </g>
  <path d="M36.8504 73.7008L73.7008 73.7008" stroke="black"/>
  <g stroke-width="0.801759">
   <path d="M38.6929 92.126L38.6929 92.1228A1.84252 1.84252 0 0 0 35.0079 92.126A1.84252 1.84252 0 0 0 38.6929 92.1292Z" fill="#f00"/>
  </g>
  <path d="M36.8504 73.7008L36.8504 110.551" stroke="black"/>
  <g stroke-width="0.801759">
   <path d="M93.9685 73.7008L93.9685 73.6976A1.84252 1.84252 0 0 0 90.2835 73.7008A1.84252 1.84252 0 0 0 93.9685 73.704Z" fill="#f00"/>
  </g>
  <path d="M73.7008 73.7008L110.551 73.7008" stroke="black"/>
  <g stroke-width="0.801759">
   <path d="M75.5433 92.126L75.5433 92.1228A1.84252 1.84252 0 0 0 71.8583 92.126A1.84252 1.84252 0 0 0 75.5433 92.1292Z" fill="#f00"/>
  </g>
  <path d="M73.7008 73.7008L73.7008 110.551" stroke="black"/>
  <g stroke-width="0.801759">
   <path d="M130.819 73.7008L130.819 73.6976A1.84252 1.84252 0 0 0 127.134 73.7008A1.84252 1.84252 0 0 0 130.819 73.704Z" fill="#f00"/>
  </g>
  <path d="M110.551 73.7008L147.402 73.7008" stroke="black"/>
  <g stroke-width="0.801759">
   <path d="M112.394 92.126L112.394 92.1228A1.84252 1.84252 0 0 0 108.709 92.126A1.84252 1.84252 0 0 0 112.394 92.1292Z" fill="#f00"/>
  </g>
  <path d="M110.551 73.7008L110.551 110.551" stroke="black"/>
  <g stroke-width="0.801759">
   <path d="M20.2677 110.551L20.2677 110.548A1.84252 1.84252 0 0 0 16.5827 110.551A1.84252 1.84252 0 0 0 20.2677 110.554Z" fill="#f00"/>
  </g>
  <path d="M0 110.551L36.8504 110.551" stroke="black"/>
  <g stroke-width="0.801759">
   <path d="M1.84252 128.976L1.84252 128.973A1.84252 1.84252 0 0 0 -1.84252 128.976A1.84252 1.84252 0 0 0 1.84252 128.98Z" fill="#f00"/>
  </g>
  <path d="M0 110.551L0 147.402" stroke="black"/>
  <g stroke-width="0.801759">
   <path d="M57.1181 110.551L57.1181 110.548A1.84252 1.84252 0 0 0 53.4331 110.551A1.84252 1.84252 0 0 0 57.1181 110.554Z" fill="#f00"/>
  </g>
  <path d="M36.8504 110.551L73.7008 110.551" stroke="black"/>
  <g stroke-width="0.801759">
   <path d="M38.6929 128.976L38.6929 128.973A1.84252 1.84252 0 0 0 35.0079 128.976A1.84252 1.84252 0 0 0 38.6929 128.98Z" fill="#f00"/>
  </g>
  <path d="M36.8504 110.551L36.8504 147.402" stroke="black"/>
  <g stroke-width="0.801759">
   <path d="M93.9685 110.551L93.9685 110.548A1.84252 1.84252 0 0 0 90.2835 110.551A1.84252 1.84252 0 0 0 93.9685 110.554Z" fill="#f00"/>
  </g>
  <path d="M73.7008 110.551L110.551 110.551" stroke="black"/>
  <g stroke-width="0.801759">
   <path d="M76.4646 128.976L76.4646 128.972A2.76378 2.76378 0 0 0 70.937 128.976A2.76378 2.76378 0 0 0 76.4646 128.981Z" stroke="#f00"/>
  </g>
  <path d="M73.7008 110.551L73.7008 147.402" stroke="black"/>
  <g stroke-width="0.801759">
   <path d="M130.819 110.551L130.819 110.548A1.84252 1.84252 0 0 0 127.134 110.551A1.84252 1.84252 0 0 0 130.819 110.554Z" fill="#f00"/>
  </g>
  <path d="M110.551 110.551L147.402 110.551" stroke="black"/>
  <g stroke-width="0.801759">
   <path d="M112.394 128.976L112.394 128.973A1.84252 1.84252 0 0 0 108.709 128.976A1.84252 1.84252 0 0 0 112.394 128.98Z" fill="#f00"/>
  </g>
  <path d="M110.551 110.551L110.551 147.402" stroke="black"/>
  <g stroke-width="0.801759">
   <path d="M58.0394 18.4252L58.0394 18.4204A2.76378 2.76378 0 0 0 52.5118 18.4252A2.76378 2.76378 0 0 0 58.0394 18.43Z" stroke="#090"/>
  </g>
  <g stroke-width="1.603518">
   <path d="M110.551 73.7008L142.967 73.7008" stroke="#090"/>
   <g stroke-linecap="butt" stroke-dasharray="none">
    <path d="M141.858 71.4047L147.402 73.7008L141.858 75.9969L142.967 73.7008Z" fill="#090"/>
   </g>
  </g>
  <g stroke-width="1.603518">
   <path d="M36.8504 110.551L4.43462 110.551" stroke="#090"/>
   <g stroke-linecap="butt" stroke-dasharray="none">
    <path d="M5.54328 112.847L0 110.551L5.54328 108.255L4.43462 110.551Z" fill="#090"/>
   </g>
  </g>
  <g stroke-width="1.603518">
   <path d="M73.7008 73.7008L106.117 73.7008" stroke="#090"/>
   <g stroke-linecap="butt" stroke-dasharray="none">
    <path d="M105.008 71.4047L110.551 73.7008L105.008 75.9969L106.117 73.7008Z" fill="#090"/>
   </g>
  </g>
  <g stroke-width="1.603518">
   <path d="M0 110.551L0 78.1354" stroke="#090"/>
   <g stroke-linecap="butt" stroke-dasharray="none">
    <path d="M-2.2961 79.2441L0 73.7008L2.2961 79.2441L0 78.1354Z" fill="#090"/>
   </g>
  </g>
  <g stroke-width="1.603518">
   <path d="M36.8504 147.402L36.8504 114.986" stroke="#090"/>
   <g stroke-linecap="butt" stroke-dasharray="none">
    <path d="M34.5543 116.094L36.8504 110.551L39.1465 116.094L36.8504 114.986Z" fill="#090"/>
   </g>
  </g>
  <g stroke-width="1.603518">
   <path d="M0 36.8504L0 4.43462" stroke="#090"/>
   <g stroke-linecap="butt" stroke-dasharray="none">
    <path d="M-2.2961 5.54328L0 -0L2.2961 5.54328L0 4.43462Z" fill="#090"/>
   </g>
  </g>
  <g stroke-width="1.603518">
   <path d="M110.551 110.551L110.551 142.967" stroke="#090"/>
   <g stroke-linecap="butt" stroke-dasharray="none">
    <path d="M112.847 141.858L110.551 147.402L108.255 141.858L110.551 142.967Z" fill="#090"/>
   </g>
  </g>
  <g stroke-width="1.603518">
   <path d="M110.551 36.8504L142.967 36.8504" stroke="#090"/>
   <g stroke-linecap="butt" stroke-dasharray="none">
    <path d="M141.858 34.5543L147.402 36.8504L141.858 39.1465L142.967 36.8504Z" fill="#090"/>
   </g>
  </g>
  <g stroke-width="1.603518">
   <path d="M73.7008 110.551L41.285 110.551" stroke="#090"/>
   <g stroke-linecap="butt" stroke-dasharray="none">
    <path d="M42.3937 112.847L36.8504 110.551L42.3937 108.255L41.285 110.551Z" fill="#090"/>
   </g>
  </g>
  <g stroke-width="1.603518">
   <path d="M36.8504 36.8504L36.8504 4.43462" stroke="#090"/>
   <g stroke-linecap="butt" stroke-dasharray="none">
    <path d="M34.5543 5.54328L36.8504 -0L39.1465 5.54328L36.8504 4.43462Z" fill="#090"/>
   </g>
  </g>
  <g stroke-width="1.603518">
   <path d="M73.7008 -0L106.117 -0" stroke="#090"/>
   <g stroke-linecap="butt" stroke-dasharray="none">
    <path d="M105.008 -2.2961L110.551 -0L105.008 2.2961L106.117 -0Z" fill="#090"/>
   </g>
  </g>
  <g stroke-width="1.603518">
   <path d="M73.7008 36.8504L106.117 36.8504" stroke="#090"/>
   <g stroke-linecap="butt" stroke-dasharray="none">
    <path d="M105.008 34.5543L110.551 36.8504L105.008 39.1465L106.117 36.8504Z" fill="#090"/>
   </g>
  </g>
  <g stroke-width="1.603518">
   <path d="M0 -0L32.4158 -0" stroke="#090"/>
   <g stroke-linecap="butt" stroke-dasharray="none">
    <path d="M31.3071 -2.2961L36.8504 -0L31.3071 2.2961L32.4158 -0Z" fill="#090"/>
   </g>
  </g>
  <g stroke-width="1.603518">
   <path d="M110.551 0L110.551 32.4158" stroke="#090"/>
   <g stroke-linecap="butt" stroke-dasharray="none">
    <path d="M112.847 31.3071L110.551 36.8504L108.255 31.3071L110.551 32.4158Z" fill="#090"/>
   </g>
  </g>
  <g stroke-width="1.603518">
   <path d="M0 73.7008L32.4158 73.7008" stroke="#090"/>
   <g stroke-linecap="butt" stroke-dasharray="none">
    <path d="M31.3071 71.4047L36.8504 73.7008L31.3071 75.9969L32.4158 73.7008Z" fill="#090"/>
   </g>
  </g>
  <g stroke-width="1.603518">
   <path d="M55.2756 165.827L55.2756 133.411" stroke="#1919e5"/>
   <g stroke-linecap="butt" stroke-dasharray="none">
    <path d="M52.9795 134.52L55.2756 128.976L57.5717 134.52L55.2756 133.411Z" fill="#1919e5"/>
   </g>
  </g>
  <g stroke-width="1.603518">
   <path d="M-18.4252 128.976L13.9906 128.976" stroke="#1919e5"/>
   <g stroke-linecap="butt" stroke-dasharray="none">
    <path d="M12.8819 126.68L18.4252 128.976L12.8819 131.272L13.9906 128.976Z" fill="#1919e5"/>
   </g>
  </g>
  <g stroke-width="1.603518">
   <path d="M128.976 -18.4252L128.976 13.9906" stroke="#1919e5"/>
   <g stroke-linecap="butt" stroke-dasharray="none">
    <path d="M131.272 12.8819L128.976 18.4252L126.68 12.8819L128.976 13.9906Z" fill="#1919e5"/>
   </g>
  </g>
  <g stroke-width="1.603518">
   <path d="M55.2756 18.4252L55.2756 50.841" stroke="#1919e5"/>
   <g stroke-linecap="butt" stroke-dasharray="none">
    <path d="M57.5717 49.7323L55.2756 55.2756L52.9795 49.7323L55.2756 50.841Z" fill="#1919e5"/>
   </g>
  </g>
  <g stroke-width="1.603518">
   <path d="M128.976 92.126L128.976 124.542" stroke="#1919e5"/>
   <g stroke-linecap="butt" stroke-dasharray="none">
    <path d="M131.272 123.433L128.976 128.976L126.68 123.433L128.976 124.542Z" fill="#1919e5"/>
   </g>
  </g>
  <g stroke-width="1.603518">
   <path d="M55.2756 18.4252L87.6914 18.4252" stroke="#1919e5"/>
   <g stroke-linecap="butt" stroke-dasharray="none">
    <path d="M86.5827 16.1291L92.126 18.4252L86.5827 20.7213L87.6914 18.4252Z" fill="#1919e5"/>
   </g>
  </g>
  <g stroke-width="1.603518">
   <path d="M92.126 92.126L92.126 124.542" stroke="#1919e5"/>
   <g stroke-linecap="butt" stroke-dasharray="none">
    <path d="M94.4221 123.433L92.126 128.976L89.8299 123.433L92.126 124.542Z" fill="#1919e5"/>
   </g>
  </g>
  <g stroke-width="1.603518">
   <path d="M128.976 55.2756L96.5606 55.2756" stroke="#1919e5"/>
   <g stroke-linecap="butt" stroke-dasharray="none">
    <path d="M97.6693 57.5717L92.126 55.2756L97.6693 52.9795L96.5606 55.2756Z" fill="#1919e5"/>
   </g>
  </g>
  <g stroke-width="1.603518">
   <path d="M55.2756 55.2756L55.2756 87.6914" stroke="#1919e5"/>
   <g stroke-linecap="butt" stroke-dasharray="none">
    <path d="M57.5717 86.5827L55.2756 92.126L52.9795 86.5827L55.2756 87.6914Z" fill="#1919e5"/>
   </g>
  </g>
  <g stroke-width="1.603518">
   <path d="M18.4252 55.2756L18.4252 22.8598" stroke="#1919e5"/>
   <g stroke-linecap="butt" stroke-dasharray="none">
    <path d="M16.1291 23.9685L18.4252 18.4252L20.7213 23.9685L18.4252 22.8598Z" fill="#1919e5"/>
   </g>
  </g>
  <g stroke-width="1.603518">
   <path d="M55.2756 92.126L22.8598 92.126" stroke="#1919e5"/>
   <g stroke-linecap="butt" stroke-dasharray="none">
    <path d="M23.9685 94.4221L18.4252 92.126L23.9685 89.8299L22.8598 92.126Z" fill="#1919e5"/>
   </g>
  </g>
  <g stroke-width="1.603518">
   <path d="M55.2756 92.126L87.6914 92.126" stroke="#1919e5"/>
   <g stroke-linecap="butt" stroke-dasharray="none">
    <path d="M86.5827 89.8299L92.126 92.126L86.5827 94.4221L87.6914 92.126Z" fill="#1919e5"/>
   </g>
  </g>
  <g stroke-width="1.603518">
   <path d="M92.126 92.126L124.542 92.126" stroke="#1919e5"/>
   <g stroke-linecap="butt" stroke-dasharray="none">
    <path d="M123.433 89.8299L128.976 92.126L123.433 94.4221L124.542 92.126Z" fill="#1919e5"/>
   </g>
  </g>
  <g stroke-width="1.603518">
   <path d="M165.827 55.2756L133.411 55.2756" stroke="#1919e5"/>
   <g stroke-linecap="butt" stroke-dasharray="none">
    <path d="M134.52 57.5717L128.976 55.2756L134.52 52.9795L133.411 55.2756Z" fill="#1919e5"/>
   </g>
  </g>
  <g stroke-width="1.603518">
   <path d="M55.2756 55.2756L22.8598 55.2756" stroke="#1919e5"/>
   <g stroke-linecap="butt" stroke-dasharray="none">
    <path d="M23.9685 57.5717L18.4252 55.2756L23.9685 52.9795L22.8598 55.2756Z" fill="#1919e5"/>
   </g>
  </g>
 </g>
</svg>
