<?xml version="1.0" encoding="utf-8"?>
<svg xmlns="http://www.w3.org/2000/svg" fill="none" version="1.1" viewBox="-1 -1 186.252 149.402" x="-1pt" y="-1pt" width="186.252pt" height="149.402pt" stroke-width="0.566929" stroke-miterlimit="10.000000">
 <g transform="matrix(1.000000,0.000000,0.000000,1.000000,18.425197,-0.000000)">
  <path d="M1.84252 36.8504L1.84252 36.8472A1.84252 1.84252 0 0 0 -1.84252 36.8504A1.84252 1.84252 0 0 0 1.84252 36.8536Z" fill="black"/>
  <path d="M38.6929 36.8504L38.6929 36.8472A1.84252 1.84252 0 0 0 35.0079 36.8504A1.84252 1.84252 0 0 0 38.6929 36.8536Z" fill="black"/>
  <path d="M75.5433 36.8504L75.5433 36.8472A1.84252 1.84252 0 0 0 71.8583 36.8504A1.84252 1.84252 0 0 0 75.5433 36.8536Z" fill="black"/>
  <path d="M112.394 36.8504L112.394 36.8472A1.84252 1.84252 0 0 0 108.709 36.8504A1.84252 1.84252 0 0 0 112.394 36.8536Z" fill="black"/>
  <path d="M149.244 36.8504L149.244 36.8472A1.84252 1.84252 0 0 0 145.559 36.8504A1.84252 1.84252 0 0 0 149.244 36.8536Z" fill="black"/>
  <path d="M1.84252 73.7008L1.84252 73.6976A1.84252 1.84252 0 0 0 -1.84252 73.7008A1.84252 1.84252 0 0 0 1.84252 73.704Z" fill="black"/>
  <path d="M38.6929 73.7008L38.6929 73.6976A1.84252 1.84252 0 0 0 35.0079 73.7008A1.84252 1.84252 0 0 0 38.6929 73.704Z" fill="black"/>
  <path d="M75.5433 73.7008L75.5433 73.6976A1.84252 1.84252 0 0 0 71.8583 73.7008A1.84252 1.84252 0 0 0 75.5433 73.704Z" fill="black"/>
  <path d="M112.394 73.7008L112.394 73.6976A1.84252 1.84252 0 0 0 108.709 73.7008A1.84252 1.84252 0 0 0 112.394 73.704Z" fill="black"/>
  <path d="M149.244 73.7008L149.244 73.6976A1.84252 1.84252 0 0 0 145.559 73.7008A1.84252 1.84252 0 0 0 149.244 73.704Z" fill="black"/>
  <path d="M1.84252 110.551L1.84252 110.548A1.84252 1.84252 0 0 0 -1.84252 110.551A1.84252 1.84252 0 0 0 1.84252 110.554Z" fill="black"/>
  <path d="M38.6929 110.551L38.6929 110.548A1.84252 1.84252 0 0 0 35.0079 110.551A1.84252 1.84252 0 0 0 38.6929 110.554Z" fill="black"/>
  <path d="M75.5433 110.551L75.5433 110.548A1.84252 1.84252 0 0 0 71.8583 110.551A1.84252 1.84252 0 0 0 75.5433 110.554Z" fill="black"/>
  <path d="M112.394 110.551L112.394 110.548A1.84252 1.84252 0 0 0 108.709 110.551A1.84252 1.84252 0 0 0 112.394 110.554Z" fill="black"/>
  <path d="M149.244 110.551L149.244 110.548A1.84252 1.84252 0 0 0 145.559 110.551A1.84252 1.84252 0 0 0 149.244 110.554Z" fill="black"/>
  <g stroke-width="0.801759">
   <path d="M1.84252 18.4252L1.84252 18.422A1.84252 1.84252 0 0 0 -1.84252 18.4252A1.84252 1.84252 0 0 0 1.84252 18.4284Z" fill="#f00"/>
  </g>
  <path d="M0 0L0 36.8504" stroke="black"/>
  <g stroke-width="0.801759">
   <path d="M38.6929 18.4252L38.6929 18.422A1.84252 1.84252 0 0 0 35.0079 18.4252A1.84252 1.84252 0 0 0 38.6929 18.4284Z" fill="#f00"/>
  </g>
  <path d="M36.8504 0L36.8504 36.8504" stroke="black"/>
  <g stroke-width="0.801759">
   <path d="M75.5433 18.4252L75.5433 18.422A1.84252 1.84252 0 0 0 71.8583 18.4252A1.84252 1.84252 0 0 0 75.5433 18.4284Z" fill="#f00"/>
  </g>
  <path d="M73.7008 0L73.7008 36.8504" stroke="black"/>
  <g stroke-width="0.801759">
   <path d="M112.394 18.4252L112.394 18.422A1.84252 1.84252 0 0 0 108.709 18.4252A1.84252 1.84252 0 0 0 112.394 18.4284Z" fill="#f00"/>
  </g>
  <path d="M110.551 0L110.551 36.8504" stroke="black"/>
  <g stroke-width="0.801759">
   <path d="M149.244 18.4252L149.244 18.422A1.84252 1.84252 0 0 0 145.559 18.4252A1.84252 1.84252 0 0 0 149.244 18.4284Z" fill="#f00"/>
  </g>
  <path d="M147.402 0L147.402 36.8504" stroke="black"/>
  <g stroke-width="0.801759">
   <path d="M20.2677 36.8504L20.2677 36.8472A1.84252 1.84252 0 0 0 16.5827 36.8504A1.84252 1.84252 0 0 0 20.2677 36.8536Z" fill="#f00"/>
  </g>
  <path d="M0 36.8504L36.8504 36.8504" stroke="black"/>
  <g stroke-width="0.801759">
   <path d="M1.84252 55.2756L1.84252 55.2724A1.84252 1.84252 0 0 0 -1.84252 55.2756A1.84252 1.84252 0 0 0 1.84252 55.2788Z" fill="#f00"/>
  </g>
  <path d="M0 36.8504L0 73.7008" stroke="black"/>
  <g stroke-width="0.801759">
   <path d="M57.1181 36.8504L57.1181 36.8472A1.84252 1.84252 0 0 0 53.4331 36.8504A1.84252 1.84252 0 0 0 57.1181 36.8536Z" fill="#f00"/>
  </g>
  <path d="M36.8504 36.8504L73.7008 36.8504" stroke="black"/>
  <g stroke-width="0.801759">
   <path d="M38.6929 55.2756L38.6929 55.2724A1.84252 1.84252 0 0 0 35.0079 55.2756A1.84252 1.84252 0 0 0 38.6929 55.2788Z" fill="#f00"/>
  </g>
  <path d="M36.8504 36.8504L36.8504 73.7008" stroke="black"/>
  <g stroke-width="0.801759">
   <path d="M93.9685 36.8504L93.9685 36.8472A1.84252 1.84252 0 0 0 90.2835 36.8504A1.84252 1.84252 0 0 0 93.9685 36.8536Z" fill="#f00"/>
  </g>
  <path d="M73.7008 36.8504L110.551 36.8504" stroke="black"/>
  <g stroke-width="0.801759">
   <path d="M75.5433 55.2756L75.5433 55.2724A1.84252 1.84252 0 0 0 71.8583 55.2756A1.84252 1.84252 0 0 0 75.5433 55.2788Z" fill="#f00"/>
  </g>
  <path d="M73.7008 36.8504L73.7008 73.7008" stroke="black"/>
  <g stroke-width="0.801759">
   <path d="M130.819 36.8504L130.819 36.8472A1.84252 1.84252 0 0 0 127.134 36.8504A1.84252 1.84252 0 0 0 130.819 36.8536Z" fill="#f00"/>
  </g>
  <path d="M110.551 36.8504L147.402 36.8504" stroke="black"/>
  <g stroke-width="0.801759">
   <path d="M112.394 55.2756L112.394 55.2724A1.84252 1.84252 0 0 0 108.709 55.2756A1.84252 1.84252 0 0 0 112.394 55.2788Z" fill="#f00"/>
  </g>
  <path d="M110.551 36.8504L110.551 73.7008" stroke="black"/>
  <g stroke-width="0.801759">
   <path d="M149.244 55.2756L149.244 55.2724A1.84252 1.84252 0 0 0 145.559 55.2756A1.84252 1.84252 0 0 0 149.244 55.2788Z" fill="#f00"/>
  </g>
  <path d="M147.402 36.8504L147.402 73.7008" stroke="black"/>
  <g stroke-width="0.801759">
   <path d="M20.2677 73.7008L20.2677 73.6976A1.84252 1.84252 0 0 0 16.5827 73.7008A1.84252 1.84252 0 0 0 20.2677 73.704Z" fill="#f00"/>
  </g>
  <path d="M0 73.7008L36.8504 73.7008" stroke="black"/>
  <g stroke-width="0.801759">
   <path d="M1.84252 92.126L1.84252 92.1228A1.84252 1.84252 0 0 0 -1.84252 92.126A1.84252 1.84252 0 0 0 1.84252 92.1292Z" fill="#f00"/>
  </g>
  <path d="M0 73.7008L0 110.551" stroke="black"/>
  <g stroke-width="0.801759">
   <path d="M57.1181 73.7008L57.1181 73.6976A1.84252 1.84252 0 0 0 53.4331 73.7008A1.84252 1.84252 0 0 0 57.1181 73.704Z" fill="#f00"/>
  </g>
  <path d="M36.8504 73.7008L73.7008 73.7008" stroke="black"/>
  <g stroke-width="0.801759">
   <path d="M38.6929 92.126L38.6929 92.1228A1.84252 1.84252 0 0 0 35.0079 92.126A1.84252 1.84252 0 0 0 38.6929 92.1292Z" fill="#f00"/>
  </g>
  <path d="M36.8504 73.7008L36.8504 110.551" stroke="black"/>
  <g stroke-width="0.801759">
   <path d="M93.9685 73.7008L93.9685 73.6976A1.84252 1.84252 0 0 0 90.2835 73.7008A1.84252 1.84252 0 0 0 93.9685 73.704Z" fill="#f00"/>
  </g>
  <path d="M73.7008 73.7008L110.551 73.7008" stroke="black"/>
  <g stroke-width="0.801759">
   <path d="M76.4646 92.126L76.4646 92.1212A2.76378 2.76378 0 0 0 70.937 92.126A2.76378 2.76378 0 0 0 76.4646 92.1308Z" stroke="#f00"/>
  </g>
  <path d="M73.7008 73.7008L73.7008 110.551" stroke="black"/>
  <g stroke-width="0.801759">
   <path d="M130.819 73.7008L130.819 73.6976A1.84252 1.84252 0 0 0 127.134 73.7008A1.84252 1.84252 0 0 0 130.819 73.704Z" fill="#f00"/>
  </g>
  <path d="M110.551 73.7008L147.402 73.7008" stroke="black"/>
  <g stroke-width="0.801759">
   <path d="M112.394 92.126L112.394 92.1228A1.84252 1.84252 0 0 0 108.709 92.126A1.84252 1.84252 0 0 0 112.394 92.1292Z" fill="#f00"/>
  </g>
  <path d="M110.551 73.7008L110.551 110.551" stroke="black"/>
  <g stroke-width="0.801759">
   <path d="M149.244 92.126L149.244 92.1228A1.84252 1.84252 0 0 0 145.559 92.126A1.84252 1.84252 0 0 0 149.244 92.1292Z" fill="#f00"/>
  </g>
  <path d="M147.402 73.7008L147.402 110.551" stroke="black"/>
  <g stroke-width="0.801759">
   <path d="M20.2677 110.551L20.2677 110.548A1.84252 1.84252 0 0 0 16.5827 110.551A1.84252 1.84252 0 0 0 20.2677 110.554Z" fill="#f00"/>
  </g>
  <path d="M0 110.551L36.8504 110.551" stroke="black"/>
  <g stroke-width="0.801759">
   <path d="M1.84252 128.976L1.84252 128.973A1.84252 1.84252 0 0 0 -1.84252 128.976A1.84252 1.84252 0 0 0 1.84252 128.98Z" fill="#f00"/>
  </g>
  <path d="M0 110.551L0 147.402" stroke="black"/>
  <g stroke-width="0.801759">
   <path d="M57.1181 110.551L57.1181 110.548A1.84252 1.84252 0 0 0 53.4331 110.551A1.84252 1.84252 0 0 0 57.1181 110.554Z" fill="#f00"/>
  </g>
  <path d="M36.8504 110.551L73.7008 110.551" stroke="black"/>
  <g stroke-width="0.801759">
   <path d="M38.6929 128.976L38.6929 128.973A1.84252 1.84252 0 0 0 35.0079 128.976A1.84252 1.84252 0 0 0 38.6929 128.98Z" fill="#f00"/>
  </g>
  <path d="M36.8504 110.551L36.8504 147.402" stroke="black"/>
  <g stroke-width="0.801759">
   <path d="M93.9685 110.551L93.9685 110.548A1.84252 1.84252 0 0 0 90.2835 110.551A1.84252 1.84252 0 0 0 93.9685 110.554Z" fill="#f00"/>
  </g>
  <path d="M73.7008 110.551L110.551 110.551" stroke="black"/>
  <g stroke-width="0.801759">
   <path d="M75.5433 128.976L75.5433 128.973A1.84252 1.84252 0 0 0 71.8583 128.976A1.84252 1.84252 0 0 0 75.5433 128.98Z" fill="#f00"/>
  </g>
  <path d="M73.7008 110.551L73.7008 147.402" stroke="black"/>
  <g stroke-width="0.801759">
   <path d="M130.819 110.551L130.819 110.548A1.84252 1.84252 0 0 0 127.134 110.551A1.84252 1.84252 0 0 0 130.819 110.554Z" fill="#f00"/>
  </g>
  <path d="M110.551 110.551L147.402 110.551" stroke="black"/>
  <g stroke-width="0.801759">
   <path d="M112.394 128.976L112.394 128.973A1.84252 1.84252 0 0 0 108.709 128.976A1.84252 1.84252 0 0 0 112.394 128.98Z" fill="#f00"/>
  </g>
  <path d="M110.551 110.551L110.551 147.402" stroke="black"/>
  <g stroke-width="0.801759">
   <path d="M149.244 128.976L149.244 128.973A1.84252 1.84252 0 0 0 145.559 128.976A1.84252 1.84252 0 0 0 149.244 128.98Z" fill="#f00"/>
  </g>
  <path d="M147.402 110.551L147.402 147.402" stroke="black"/>
  <g stroke-width="1.603518">
   <path d="M147.402 73.7008L147.402 106.117" stroke="#090"/>
   <g stroke-linecap="butt" stroke-dasharray="none">
    <path d="M149.698 105.008L147.402 110.551L145.105 105.008L147.402 106.117Z" fill="#090"/>
   </g>
  </g>
  <g stroke-width="1.603518">
   <path d="M147.402 36.8504L147.402 4.43462" stroke="#090"/>
   <g stroke-linecap="butt" stroke-dasharray="none">
    <path d="M145.105 5.54328L147.402 -0L149.698 5.54328L147.402 4.43462Z" fill="#090"/>
   </g>
  </g>
  <g stroke-width="1.603518">
   <path d="M73.7008 73.7008L73.7008 41.285" stroke="#090"/>
   <g stroke-linecap="butt" stroke-dasharray="none">
    <path d="M71.4047 42.3937L73.7008 36.8504L75.9969 42.3937L73.7008 41.285Z" fill="#090"/>
   </g>
  </g>
  <g stroke-width="1.603518">
   <path d="M36.8504 36.8504L69.2662 36.8504" stroke="#090"/>
   <g stroke-linecap="butt" stroke-dasharray="none">
    <path d="M68.1575 34.5543L73.7008 36.8504L68.1575 39.1465L69.2662 36.8504Z" fill="#090"/>
   </g>
  </g>
  <g stroke-width="1.603518">
   <path d="M36.8504 110.551L36.8504 142.967" stroke="#090"/>
   <g stroke-linecap="butt" stroke-dasharray="none">
    <path d="M39.1465 141.858L36.8504 147.402L34.5543 141.858L36.8504 142.967Z" fill="#090"/>
   </g>
  </g>
  <g stroke-width="1.603518">
   <path d="M73.7008 110.551L41.285 110.551" stroke="#090"/>
   <g stroke-linecap="butt" stroke-dasharray="none">
    <path d="M42.3937 112.847L36.8504 110.551L42.3937 108.255L41.285 110.551Z" fill="#090"/>
   </g>
  </g>
  <g stroke-width="1.603518">
   <path d="M110.551 73.7008L142.967 73.7008" stroke="#090"/>
   <g stroke-linecap="butt" stroke-dasharray="none">
    <path d="M141.858 71.4047L147.402 73.7008L141.858 75.9969L142.967 73.7008Z" fill="#090"/>
   </g>
  </g>
  <g stroke-width="1.603518">
   <path d="M110.551 110.551L78.1354 110.551" stroke="#090"/>
   <g stroke-linecap="butt" stroke-dasharray="none">
    <path d="M79.2441 112.847L73.7008 110.551L79.2441 108.255L78.1354 110.551Z" fill="#090"/>
   </g>
  </g>
  <g stroke-width="1.603518">
   <path d="M0 110.551L32.4158 110.551" stroke="#090"/>
   <g stroke-linecap="butt" stroke-dasharray="none">
    <path d="M31.3071 108.255L36.8504 110.551L31.3071 112.847L32.4158 110.551Z" fill="#090"/>
   </g>
  </g>
  <g stroke-width="1.603518">
   <path d="M110.551 36.8504L78.1354 36.8504" stroke="#090"/>
   <g stroke-linecap="butt" stroke-dasharray="none">
    <path d="M79.2441 39.1465L73.7008 36.8504L79.2441 34.5543L78.1354 36.8504Z" fill="#090"/>
   </g>
  </g>
  <g stroke-width="1.603518">
   <path d="M0 73.7008L32.4158 73.7008" stroke="#090"/>
   <g stroke-linecap="butt" stroke-dasharray="none">
    <path d="M31.3071 71.4047L36.8504 73.7008L31.3071 75.9969L32.4158 73.7008Z" fill="#090"/>
   </g>
  </g>
  <g stroke-width="1.603518">
   <path d="M36.8504 73.7008L69.2662 73.7008" stroke="#090"/>
   <g stroke-linecap="butt" stroke-dasharray="none">
    <path d="M68.1575 71.4047L73.7008 73.7008L68.1575 75.9969L69.2662 73.7008Z" fill="#090"/>
   </g>
  </g>
  <g stroke-width="1.603518">
   <path d="M73.7008 36.8504L73.7008 4.43462" stroke="#090"/>
   <g stroke-linecap="butt" stroke-dasharray="none">
    <path d="M71.4047 5.54328L73.7008 -0L75.9969 5.54328L73.7008 4.43462Z" fill="#090"/>
   </g>
  </g>
  <g stroke-width="1.603518">
   <path d="M0 36.8504L32.4158 36.8504" stroke="#090"/>
   <g stroke-linecap="butt" stroke-dasharray="none">
    <path d="M31.3071 34.5543L36.8504 36.8504L31.3071 39.1465L32.4158 36.8504Z" fill="#090"/>
   </g>
  </g>
  <g stroke-width="1.603518">
   <path d="M147.402 110.551L147.402 142.967" stroke="#090"/>
   <g stroke-linecap="butt" stroke-dasharray="none">
    <path d="M149.698 141.858L147.402 147.402L145.105 141.858L147.402 142.967Z" fill="#090"/>
   </g>
  </g>
  <g stroke-width="1.603518">
   <path d="M-18.4252 92.126L13.9906 92.126" stroke="#1919e5"/>
   <g stroke-linecap="butt" stroke-dasharray="none">
    <path d="M12.8819 89.8299L18.4252 92.126L12.8819 94.4221L13.9906 92.126Z" fill="#1919e5"/>
   </g>
  </g>
  <g stroke-width="1.603518">
   <path d="M92.126 128.976L59.7102 128.976" stroke="#1919e5"/>
   <g stroke-linecap="butt" stroke-dasharray="none">
    <path d="M60.8189 131.272L55.2756 128.976L60.8189 126.68L59.7102 128.976Z" fill="#1919e5"/>
   </g>
  </g>
  <g stroke-width="1.603518">
   <path d="M128.976 55.2756L96.5606 55.2756" stroke="#1919e5"/>
   <g stroke-linecap="butt" stroke-dasharray="none">
    <path d="M97.6693 57.5717L92.126 55.2756L97.6693 52.9795L96.5606 55.2756Z" fill="#1919e5"/>
   </g>
  </g>
  <g stroke-width="1.603518">
   <path d="M-18.4252 18.4252L13.9906 18.4252" stroke="#1919e5"/>
   <g stroke-linecap="butt" stroke-dasharray="none">
    <path d="M12.8819 16.1291L18.4252 18.4252L12.8819 20.7213L13.9906 18.4252Z" fill="#1919e5"/>
   </g>
  </g>
  <g stroke-width="1.603518">
   <path d="M128.976 18.4252L96.5606 18.4252" stroke="#1919e5"/>
   <g stroke-linecap="butt" stroke-dasharray="none">
    <path d="M97.6693 20.7213L92.126 18.4252L97.6693 16.1291L96.5606 18.4252Z" fill="#1919e5"/>
   </g>
  </g>
  <g stroke-width="1.603518">
   <path d="M18.4252 55.2756L50.841 55.2756" stroke="#1919e5"/>
   <g stroke-linecap="butt" stroke-dasharray="none">
    <path d="M49.7323 52.9795L55.2756 55.2756L49.7323 57.5717L50.841 55.2756Z" fill="#1919e5"/>
   </g>
  </g>
  <g stroke-width="1.603518">
   <path d="M128.976 92.126L128.976 124.542" stroke="#1919e5"/>
   <g stroke-linecap="butt" stroke-dasharray="none">
    <path d="M131.272 123.433L128.976 128.976L126.68 123.433L128.976 124.542Z" fill="#1919e5"/>
   </g>
  </g>
  <g stroke-width="1.603518">
   <path d="M128.976 55.2756L128.976 22.8598" stroke="#1919e5"/>
   <g stroke-linecap="butt" stroke-dasharray="none">
    <path d="M126.68 23.9685L128.976 18.4252L131.272 23.9685L128.976 22.8598Z" fill="#1919e5"/>
   </g>
  </g>
  <g stroke-width="1.603518">
   <path d="M92.126 55.2756L92.126 87.6914" stroke="#1919e5"/>
   <g stroke-linecap="butt" stroke-dasharray="none">
    <path d="M94.4221 86.5827L92.126 92.126L89.8299 86.5827L92.126 87.6914Z" fill="#1919e5"/>
   </g>
  </g>
  <g stroke-width="1.603518">
   <path d="M18.4252 92.126L50.841 92.126" stroke="#1919e5"/>
   <g stroke-linecap="butt" stroke-dasharray="none">
    <path d="M49.7323 89.8299L55.2756 92.126L49.7323 94.4221L50.841 92.126Z" fill="#1919e5"/>
   </g>
  </g>
  <g stroke-width="1.603518">
   <path d="M-18.4252 55.2756L13.9906 55.2756" stroke="#1919e5"/>
   <g stroke-linecap="butt" stroke-dasharray="none">
    <path d="M12.8819 52.9795L18.4252 55.2756L12.8819 57.5717L13.9906 55.2756Z" fill="#1919e5"/>
   </g>
  </g>
  <g stroke-width="1.603518">
   <path d="M128.976 128.976L96.5606 128.976" stroke="#1919e5"/>
   <g stroke-linecap="butt" stroke-dasharray="none">
    <path d="M97.6693 131.272L92.126 128.976L97.6693 126.68L96.5606 128.976Z" fill="#1919e5"/>
   </g>
  </g>
  <g stroke-width="1.603518">
   <path d="M92.126 92.126L124.542 92.126" stroke="#1919e5"/>
   <g stroke-linecap="butt" stroke-dasharray="none">
    <path d="M123.433 89.8299L128.976 92.126L123.433 94.4221L124.542 92.126Z" fill="#1919e5"/>
   </g>
  </g>
  <g stroke-width="1.603518">
   <path d="M18.4252 18.4252L50.841 18.4252" stroke="#1919e5"/>
   <g stroke-linecap="butt" stroke-dasharray="none">
    <path d="M49.7323 16.1291L55.2756 18.4252L49.7323 20.7213L50.841 18.4252Z" fill="#1919e5"/>
   </g>
  </g>
  <g stroke-width="1.603518">
   <path d="M165.827 55.2756L133.411 55.2756" stroke="#1919e5"/>
   <g stroke-linecap="butt" stroke-dasharray="none">
    <path d="M134.52 57.5717L128.976 55.2756L134.52 52.9795L133.411 55.2756Z" fill="#1919e5"/>
   </g>
  </g>
  <g stroke-width="1.603518">
   <path d="M-18.4252 128.976L13.9906 128.976" stroke="#1919e5"/>
   <g stroke-linecap="butt" stroke-dasharray="none">
    <path d="M12.8819 126.68L18.4252 128.976L12.8819 131.272L13.9906 128.976Z" fill="#1919e5"/>
   </g>
  </g>
 </g>
</svg>
