<?xml version="1.0" encoding="utf-8"?>
<svg xmlns="http://www.w3.org/2000/svg" height="64.4768pt" width="93.8277pt" version="1.1" fill="none" stroke-miterlimit="10.000000" y="24.4545pt" x="-17.5561pt" viewBox="-17.5561 24.4545 93.8277 64.4768" stroke-width="0.566929">
 <g>
  <path fill="#d8d8d8" d="M5.66929 53.8583L5.66929 31.1811L51.0236 31.1811L51.0236 53.8583"/>
 </g>
 <g>
  <path fill="#d8d8d8" d="M5.66929 59.5276L5.66929 82.2047L51.0236 82.2047L51.0236 59.5276"/>
 </g>
 <path stroke="black" d="M0 56.6929L0 28.3465"/>
 <g transform="matrix(1.000000,0.000000,0.000000,1.000000,9.921260,28.346457)">
  <path fill="black" d="M-8.1991 1.39755M-6.79437 -0.903824C-6.50545 -0.903824 -5.76822 -0.92375 -5.27009 -1.13297C-4.5727 -1.43184 -4.52289 -2.01964 -4.52289 -2.15912C-4.52289 -2.59747 -4.90147 -3.00594 -5.58889 -3.00594C-6.69474 -3.00594 -8.1991 -2.03957 -8.1991 -0.296103C-8.1991 0.720086 -7.61131 1.50713 -6.63497 1.50713C-5.21031 1.50713 -4.37345 0.451095 -4.37345 0.331543C-4.37345 0.271767 -4.43323 0.202029 -4.493 0.202029C-4.54281 0.202029 -4.56274 0.221954 -4.62252 0.301655C-5.40956 1.28796 -6.49549 1.28796 -6.61504 1.28796C-7.39213 1.28796 -7.48179 0.451095 -7.48179 0.13229C-7.48179 0.0127385 -7.47183 -0.296103 -7.32239 -0.903824ZM-7.32239 -0.903824M-7.26262 -1.123C-6.87407 -2.63732 -5.84792 -2.78676 -5.58889 -2.78676C-5.12065 -2.78676 -4.85166 -2.49785 -4.85166 -2.15912C-4.85166 -1.123 -6.44568 -1.123 -6.85415 -1.123ZM-6.85415 -1.123"/>
  <path fill="black" d="M-3.65588 2.89193M-0.42001 0.667269C-0.42001 -0.0998545 -0.51067 -0.650789 -0.831467 -1.13896C-1.04766 -1.45975 -1.48003 -1.73871 -2.03794 -1.73871C-3.65588 -1.73871 -3.65588 0.165152 -3.65588 0.667269C-3.65588 1.16939 -3.65588 3.0314 -2.03794 3.0314C-0.42001 3.0314 -0.42001 1.16939 -0.42001 0.667269ZM-0.42001 0.667269M-2.03794 2.83614C-2.35874 2.83614 -2.78414 2.64784 -2.92362 2.07599C-3.02125 1.66453 -3.02125 1.09267 -3.02125 0.576609C-3.02125 0.0675178 -3.02125 -0.462495 -2.91665 -0.846056C-2.7702 -1.39699 -2.32387 -1.54344 -2.03794 -1.54344C-1.66135 -1.54344 -1.29871 -1.3133 -1.17319 -0.908821C-1.0616 -0.532233 -1.05463 -0.0301161 -1.05463 0.576609C-1.05463 1.09267 -1.05463 1.60874 -1.14529 2.04809C-1.28477 2.68271 -1.75899 2.83614 -2.03794 2.83614ZM-2.03794 2.83614M0.312244 2.89193M3.54811 0.667269C3.54811 -0.0998545 3.45745 -0.650789 3.13665 -1.13896C2.92046 -1.45975 2.48809 -1.73871 1.93018 -1.73871C0.312244 -1.73871 0.312244 0.165152 0.312244 0.667269C0.312244 1.16939 0.312244 3.0314 1.93018 3.0314C3.54811 3.0314 3.54811 1.16939 3.54811 0.667269ZM3.54811 0.667269M1.93018 2.83614C1.60938 2.83614 1.18398 2.64784 1.0445 2.07599C0.946865 1.66453 0.946865 1.09267 0.946865 0.576609C0.946865 0.0675178 0.946865 -0.462495 1.05147 -0.846056C1.19792 -1.39699 1.64425 -1.54344 1.93018 -1.54344C2.30677 -1.54344 2.66941 -1.3133 2.79493 -0.908821C2.90652 -0.532233 2.91349 -0.0301161 2.91349 0.576609C2.91349 1.09267 2.91349 1.60874 2.82283 2.04809C2.68335 2.68271 2.20913 2.83614 1.93018 2.83614ZM1.93018 2.83614"/>
  <path fill="black" d="M4.25173 2.89193M7.64799 0.360419C7.64799 -0.183541 7.32022 -0.190515 7.2993 -0.190515C7.11798 -0.190515 6.92271 -0.00222068 6.92271 0.179099C6.92271 0.297655 6.99245 0.353446 7.04127 0.395289C7.15983 0.492923 7.2993 0.674243 7.2993 0.953197C7.2993 1.26702 6.83903 2.7664 6.00914 2.7664C5.44426 2.7664 5.44426 2.26428 5.44426 2.14572C5.44426 1.82493 5.56979 1.43439 5.82782 0.785824C5.88361 0.639373 5.92545 0.534766 5.92545 0.41621C5.92545 0.0535701 5.61861 -0.183541 5.26294 -0.183541C4.56555 -0.183541 4.25173 0.771876 4.25173 0.883458C4.25173 0.974118 4.34936 0.974118 4.37029 0.974118C4.46792 0.974118 4.47489 0.939249 4.49582 0.862536C4.66319 0.290681 4.96306 0.011727 5.24202 0.011727C5.36057 0.011727 5.41636 0.0884393 5.41636 0.255812C5.41636 0.41621 5.36057 0.562661 5.29083 0.72306C4.99096 1.49716 4.91425 1.79703 4.91425 2.04809C4.91425 2.7385 5.45821 2.96166 5.98822 2.96166C7.15983 2.96166 7.64799 0.932275 7.64799 0.360419ZM7.64799 0.360419"/>
 </g>
 <path stroke="black" d="M56.6929 56.6929L56.6929 28.3465"/>
 <g transform="matrix(1.000000,0.000000,0.000000,1.000000,66.614173,28.346457)">
  <path fill="black" d="M-8.1991 1.39755M-6.79437 -0.903824C-6.50545 -0.903824 -5.76822 -0.92375 -5.27009 -1.13297C-4.5727 -1.43184 -4.52289 -2.01964 -4.52289 -2.15912C-4.52289 -2.59747 -4.90147 -3.00594 -5.58889 -3.00594C-6.69474 -3.00594 -8.1991 -2.03957 -8.1991 -0.296103C-8.1991 0.720086 -7.61131 1.50713 -6.63497 1.50713C-5.21031 1.50713 -4.37345 0.451095 -4.37345 0.331543C-4.37345 0.271767 -4.43323 0.202029 -4.493 0.202029C-4.54281 0.202029 -4.56274 0.221954 -4.62252 0.301655C-5.40956 1.28796 -6.49549 1.28796 -6.61504 1.28796C-7.39213 1.28796 -7.48179 0.451095 -7.48179 0.13229C-7.48179 0.0127385 -7.47183 -0.296103 -7.32239 -0.903824ZM-7.32239 -0.903824M-7.26262 -1.123C-6.87407 -2.63732 -5.84792 -2.78676 -5.58889 -2.78676C-5.12065 -2.78676 -4.85166 -2.49785 -4.85166 -2.15912C-4.85166 -1.123 -6.44568 -1.123 -6.85415 -1.123ZM-6.85415 -1.123"/>
  <path fill="black" d="M-3.65588 2.89193M-0.42001 0.667269C-0.42001 -0.0998545 -0.51067 -0.650789 -0.831467 -1.13896C-1.04766 -1.45975 -1.48003 -1.73871 -2.03794 -1.73871C-3.65588 -1.73871 -3.65588 0.165152 -3.65588 0.667269C-3.65588 1.16939 -3.65588 3.0314 -2.03794 3.0314C-0.42001 3.0314 -0.42001 1.16939 -0.42001 0.667269ZM-0.42001 0.667269M-2.03794 2.83614C-2.35874 2.83614 -2.78414 2.64784 -2.92362 2.07599C-3.02125 1.66453 -3.02125 1.09267 -3.02125 0.576609C-3.02125 0.0675178 -3.02125 -0.462495 -2.91665 -0.846056C-2.7702 -1.39699 -2.32387 -1.54344 -2.03794 -1.54344C-1.66135 -1.54344 -1.29871 -1.3133 -1.17319 -0.908821C-1.0616 -0.532233 -1.05463 -0.0301161 -1.05463 0.576609C-1.05463 1.09267 -1.05463 1.60874 -1.14529 2.04809C-1.28477 2.68271 -1.75899 2.83614 -2.03794 2.83614ZM-2.03794 2.83614M0.709754 2.89193M2.28584 -1.54344C2.28584 -1.73173 2.2719 -1.73871 2.07663 -1.73871C1.6303 -1.29936 0.995682 -1.29238 0.709754 -1.29238L0.709754 -1.04132C0.877126 -1.04132 1.3374 -1.04132 1.72096 -1.23659L1.72096 2.32007C1.72096 2.55021 1.72096 2.64087 1.02358 2.64087L0.758571 2.64087L0.758571 2.89193C0.8841 2.88495 1.74188 2.86403 1.99992 2.86403C2.21611 2.86403 3.09481 2.88495 3.24823 2.89193L3.24823 2.64087L2.98323 2.64087C2.28584 2.64087 2.28584 2.55021 2.28584 2.32007ZM2.28584 2.32007"/>
  <path fill="black" d="M4.25173 2.89193M7.64799 0.360419C7.64799 -0.183541 7.32022 -0.190515 7.2993 -0.190515C7.11798 -0.190515 6.92271 -0.00222068 6.92271 0.179099C6.92271 0.297655 6.99245 0.353446 7.04127 0.395289C7.15983 0.492923 7.2993 0.674243 7.2993 0.953197C7.2993 1.26702 6.83903 2.7664 6.00914 2.7664C5.44426 2.7664 5.44426 2.26428 5.44426 2.14572C5.44426 1.82493 5.56979 1.43439 5.82782 0.785824C5.88361 0.639373 5.92545 0.534766 5.92545 0.41621C5.92545 0.0535701 5.61861 -0.183541 5.26294 -0.183541C4.56555 -0.183541 4.25173 0.771876 4.25173 0.883458C4.25173 0.974118 4.34936 0.974118 4.37029 0.974118C4.46792 0.974118 4.47489 0.939249 4.49582 0.862536C4.66319 0.290681 4.96306 0.011727 5.24202 0.011727C5.36057 0.011727 5.41636 0.0884393 5.41636 0.255812C5.41636 0.41621 5.36057 0.562661 5.29083 0.72306C4.99096 1.49716 4.91425 1.79703 4.91425 2.04809C4.91425 2.7385 5.45821 2.96166 5.98822 2.96166C7.15983 2.96166 7.64799 0.932275 7.64799 0.360419ZM7.64799 0.360419"/>
 </g>
 <path stroke="black" d="M0 56.6929L56.6929 56.6929"/>
 <g transform="matrix(1.000000,0.000000,0.000000,1.000000,38.267717,56.692913)">
  <path fill="black" d="M-8.41359 1.39755M-7.00885 -0.903824C-6.71994 -0.903824 -5.9827 -0.92375 -5.48457 -1.13297C-4.78718 -1.43184 -4.73737 -2.01964 -4.73737 -2.15912C-4.73737 -2.59747 -5.11595 -3.00594 -5.80337 -3.00594C-6.90923 -3.00594 -8.41359 -2.03957 -8.41359 -0.296103C-8.41359 0.720086 -7.82579 1.50713 -6.84945 1.50713C-5.42479 1.50713 -4.58793 0.451095 -4.58793 0.331543C-4.58793 0.271767 -4.64771 0.202029 -4.70748 0.202029C-4.7573 0.202029 -4.77722 0.221954 -4.837 0.301655C-5.62405 1.28796 -6.70997 1.28796 -6.82953 1.28796C-7.60661 1.28796 -7.69628 0.451095 -7.69628 0.13229C-7.69628 0.0127385 -7.68631 -0.296103 -7.53687 -0.903824ZM-7.53687 -0.903824M-7.4771 -1.123C-7.08855 -2.63732 -6.0624 -2.78676 -5.80337 -2.78676C-5.33513 -2.78676 -5.06614 -2.49785 -5.06614 -2.15912C-5.06614 -1.123 -6.66016 -1.123 -7.06863 -1.123ZM-7.06863 -1.123"/>
  <path fill="black" d="M-3.47285 2.89193M-1.89676 -1.54344C-1.89676 -1.73173 -1.91071 -1.73871 -2.10597 -1.73871C-2.5523 -1.29936 -3.18692 -1.29238 -3.47285 -1.29238L-3.47285 -1.04132C-3.30548 -1.04132 -2.8452 -1.04132 -2.46164 -1.23659L-2.46164 2.32007C-2.46164 2.55021 -2.46164 2.64087 -3.15902 2.64087L-3.42403 2.64087L-3.42403 2.89193C-3.2985 2.88495 -2.44072 2.86403 -2.18269 2.86403C-1.9665 2.86403 -1.08779 2.88495 -0.934367 2.89193L-0.934367 2.64087L-1.19937 2.64087C-1.89676 2.64087 -1.89676 2.55021 -1.89676 2.32007ZM-1.89676 2.32007M0.0977625 2.89193M3.33363 0.667269C3.33363 -0.0998545 3.24297 -0.650789 2.92217 -1.13896C2.70598 -1.45975 2.2736 -1.73871 1.7157 -1.73871C0.0977625 -1.73871 0.0977625 0.165152 0.0977625 0.667269C0.0977625 1.16939 0.0977625 3.0314 1.7157 3.0314C3.33363 3.0314 3.33363 1.16939 3.33363 0.667269ZM3.33363 0.667269M1.7157 2.83614C1.3949 2.83614 0.969494 2.64784 0.830017 2.07599C0.732383 1.66453 0.732383 1.09267 0.732383 0.576609C0.732383 0.0675178 0.732383 -0.462495 0.83699 -0.846056C0.983441 -1.39699 1.42977 -1.54344 1.7157 -1.54344C2.09228 -1.54344 2.45492 -1.3133 2.58045 -0.908821C2.69203 -0.532233 2.69901 -0.0301161 2.69901 0.576609C2.69901 1.09267 2.69901 1.60874 2.60835 2.04809C2.46887 2.68271 1.99465 2.83614 1.7157 2.83614ZM1.7157 2.83614"/>
  <path fill="black" d="M4.23252 2.89193M5.89229 -1.73871C5.89927 -1.75266 5.92019 -1.84332 5.92019 -1.85029C5.92019 -1.88516 5.89229 -1.94792 5.80861 -1.94792C5.66913 -1.94792 5.0903 -1.89213 4.91595 -1.87819C4.86016 -1.87121 4.76253 -1.86424 4.76253 -1.71779C4.76253 -1.62015 4.86016 -1.62015 4.94385 -1.62015C5.27859 -1.62015 5.27859 -1.57134 5.27859 -1.51555C5.27859 -1.46673 5.26465 -1.42489 5.2507 -1.36212L4.26739 2.58508C4.23252 2.71061 4.23252 2.72455 4.23252 2.7385C4.23252 2.84311 4.3162 2.96166 4.46963 2.96166C4.54634 2.96166 4.67884 2.9268 4.75556 2.78034C4.77648 2.7385 4.83924 2.48744 4.87411 2.34099L5.03451 1.72032C5.05543 1.61571 5.12517 1.35071 5.14609 1.2461C5.21583 0.981092 5.21583 0.974118 5.35531 0.750955C5.57847 0.409236 5.92716 0.011727 6.47112 0.011727C6.86166 0.011727 6.88258 0.332524 6.88258 0.499896C6.88258 0.918327 6.5827 1.69242 6.47112 1.98533C6.39441 2.18059 6.36651 2.24336 6.36651 2.36191C6.36651 2.73153 6.67336 2.96166 7.02903 2.96166C7.72641 2.96166 8.03326 1.99927 8.03326 1.89467C8.03326 1.80401 7.9426 1.80401 7.92168 1.80401C7.82405 1.80401 7.81707 1.84585 7.78918 1.92256C7.62878 2.48047 7.32193 2.7664 7.04995 2.7664C6.9035 2.7664 6.87561 2.66876 6.87561 2.52231C6.87561 2.36191 6.91047 2.27125 7.036 1.95743C7.11969 1.74124 7.40562 1.00201 7.40562 0.611478C7.40562 0.499896 7.40562 0.206995 7.14759 0.00475317C7.02903 -0.0859069 6.82679 -0.183541 6.49902 -0.183541C5.98993 -0.183541 5.62031 0.0954132 5.36228 0.395289ZM5.36228 0.395289"/>
 </g>
 <path stroke="black" d="M0 56.6929L0 85.0394"/>
 <g transform="matrix(1.000000,0.000000,0.000000,1.000000,9.921260,85.039370)">
  <path fill="black" d="M-8.1991 1.39755M-6.79437 -0.903824C-6.50545 -0.903824 -5.76822 -0.92375 -5.27009 -1.13297C-4.5727 -1.43184 -4.52289 -2.01964 -4.52289 -2.15912C-4.52289 -2.59747 -4.90147 -3.00594 -5.58889 -3.00594C-6.69474 -3.00594 -8.1991 -2.03957 -8.1991 -0.296103C-8.1991 0.720086 -7.61131 1.50713 -6.63497 1.50713C-5.21031 1.50713 -4.37345 0.451095 -4.37345 0.331543C-4.37345 0.271767 -4.43323 0.202029 -4.493 0.202029C-4.54281 0.202029 -4.56274 0.221954 -4.62252 0.301655C-5.40956 1.28796 -6.49549 1.28796 -6.61504 1.28796C-7.39213 1.28796 -7.48179 0.451095 -7.48179 0.13229C-7.48179 0.0127385 -7.47183 -0.296103 -7.32239 -0.903824ZM-7.32239 -0.903824M-7.26262 -1.123C-6.87407 -2.63732 -5.84792 -2.78676 -5.58889 -2.78676C-5.12065 -2.78676 -4.85166 -2.49785 -4.85166 -2.15912C-4.85166 -1.123 -6.44568 -1.123 -6.85415 -1.123ZM-6.85415 -1.123"/>
  <path fill="black" d="M-3.25837 2.89193M-1.68228 -1.54344C-1.68228 -1.73173 -1.69622 -1.73871 -1.89149 -1.73871C-2.33782 -1.29936 -2.97244 -1.29238 -3.25837 -1.29238L-3.25837 -1.04132C-3.09099 -1.04132 -2.63072 -1.04132 -2.24716 -1.23659L-2.24716 2.32007C-2.24716 2.55021 -2.24716 2.64087 -2.94454 2.64087L-3.20955 2.64087L-3.20955 2.89193C-3.08402 2.88495 -2.22624 2.86403 -1.9682 2.86403C-1.75201 2.86403 -0.87331 2.88495 -0.719885 2.89193L-0.719885 2.64087L-0.984891 2.64087C-1.68228 2.64087 -1.68228 2.55021 -1.68228 2.32007ZM-1.68228 2.32007M0.312244 2.89193M3.54811 0.667269C3.54811 -0.0998545 3.45745 -0.650789 3.13665 -1.13896C2.92046 -1.45975 2.48809 -1.73871 1.93018 -1.73871C0.312244 -1.73871 0.312244 0.165152 0.312244 0.667269C0.312244 1.16939 0.312244 3.0314 1.93018 3.0314C3.54811 3.0314 3.54811 1.16939 3.54811 0.667269ZM3.54811 0.667269M1.93018 2.83614C1.60938 2.83614 1.18398 2.64784 1.0445 2.07599C0.946865 1.66453 0.946865 1.09267 0.946865 0.576609C0.946865 0.0675178 0.946865 -0.462495 1.05147 -0.846056C1.19792 -1.39699 1.64425 -1.54344 1.93018 -1.54344C2.30677 -1.54344 2.66941 -1.3133 2.79493 -0.908821C2.90652 -0.532233 2.91349 -0.0301161 2.91349 0.576609C2.91349 1.09267 2.91349 1.60874 2.82283 2.04809C2.68335 2.68271 2.20913 2.83614 1.93018 2.83614ZM1.93018 2.83614"/>
  <path fill="black" d="M4.25173 2.89193M7.64799 0.360419C7.64799 -0.183541 7.32022 -0.190515 7.2993 -0.190515C7.11798 -0.190515 6.92271 -0.00222068 6.92271 0.179099C6.92271 0.297655 6.99245 0.353446 7.04127 0.395289C7.15983 0.492923 7.2993 0.674243 7.2993 0.953197C7.2993 1.26702 6.83903 2.7664 6.00914 2.7664C5.44426 2.7664 5.44426 2.26428 5.44426 2.14572C5.44426 1.82493 5.56979 1.43439 5.82782 0.785824C5.88361 0.639373 5.92545 0.534766 5.92545 0.41621C5.92545 0.0535701 5.61861 -0.183541 5.26294 -0.183541C4.56555 -0.183541 4.25173 0.771876 4.25173 0.883458C4.25173 0.974118 4.34936 0.974118 4.37029 0.974118C4.46792 0.974118 4.47489 0.939249 4.49582 0.862536C4.66319 0.290681 4.96306 0.011727 5.24202 0.011727C5.36057 0.011727 5.41636 0.0884393 5.41636 0.255812C5.41636 0.41621 5.36057 0.562661 5.29083 0.72306C4.99096 1.49716 4.91425 1.79703 4.91425 2.04809C4.91425 2.7385 5.45821 2.96166 5.98822 2.96166C7.15983 2.96166 7.64799 0.932275 7.64799 0.360419ZM7.64799 0.360419"/>
 </g>
 <path stroke="black" d="M56.6929 56.6929L56.6929 85.0394"/>
 <g transform="matrix(1.000000,0.000000,0.000000,1.000000,66.614173,85.039370)">
  <path fill="black" d="M-8.1991 1.39755M-6.79437 -0.903824C-6.50545 -0.903824 -5.76822 -0.92375 -5.27009 -1.13297C-4.5727 -1.43184 -4.52289 -2.01964 -4.52289 -2.15912C-4.52289 -2.59747 -4.90147 -3.00594 -5.58889 -3.00594C-6.69474 -3.00594 -8.1991 -2.03957 -8.1991 -0.296103C-8.1991 0.720086 -7.61131 1.50713 -6.63497 1.50713C-5.21031 1.50713 -4.37345 0.451095 -4.37345 0.331543C-4.37345 0.271767 -4.43323 0.202029 -4.493 0.202029C-4.54281 0.202029 -4.56274 0.221954 -4.62252 0.301655C-5.40956 1.28796 -6.49549 1.28796 -6.61504 1.28796C-7.39213 1.28796 -7.48179 0.451095 -7.48179 0.13229C-7.48179 0.0127385 -7.47183 -0.296103 -7.32239 -0.903824ZM-7.32239 -0.903824M-7.26262 -1.123C-6.87407 -2.63732 -5.84792 -2.78676 -5.58889 -2.78676C-5.12065 -2.78676 -4.85166 -2.49785 -4.85166 -2.15912C-4.85166 -1.123 -6.44568 -1.123 -6.85415 -1.123ZM-6.85415 -1.123"/>
  <path fill="black" d="M-3.25837 2.89193M-1.68228 -1.54344C-1.68228 -1.73173 -1.69622 -1.73871 -1.89149 -1.73871C-2.33782 -1.29936 -2.97244 -1.29238 -3.25837 -1.29238L-3.25837 -1.04132C-3.09099 -1.04132 -2.63072 -1.04132 -2.24716 -1.23659L-2.24716 2.32007C-2.24716 2.55021 -2.24716 2.64087 -2.94454 2.64087L-3.20955 2.64087L-3.20955 2.89193C-3.08402 2.88495 -2.22624 2.86403 -1.9682 2.86403C-1.75201 2.86403 -0.87331 2.88495 -0.719885 2.89193L-0.719885 2.64087L-0.984891 2.64087C-1.68228 2.64087 -1.68228 2.55021 -1.68228 2.32007ZM-1.68228 2.32007M0.709754 2.89193M2.28584 -1.54344C2.28584 -1.73173 2.2719 -1.73871 2.07663 -1.73871C1.6303 -1.29936 0.995682 -1.29238 0.709754 -1.29238L0.709754 -1.04132C0.877126 -1.04132 1.3374 -1.04132 1.72096 -1.23659L1.72096 2.32007C1.72096 2.55021 1.72096 2.64087 1.02358 2.64087L0.758571 2.64087L0.758571 2.89193C0.8841 2.88495 1.74188 2.86403 1.99992 2.86403C2.21611 2.86403 3.09481 2.88495 3.24823 2.89193L3.24823 2.64087L2.98323 2.64087C2.28584 2.64087 2.28584 2.55021 2.28584 2.32007ZM2.28584 2.32007"/>
  <path fill="black" d="M4.25173 2.89193M7.64799 0.360419C7.64799 -0.183541 7.32022 -0.190515 7.2993 -0.190515C7.11798 -0.190515 6.92271 -0.00222068 6.92271 0.179099C6.92271 0.297655 6.99245 0.353446 7.04127 0.395289C7.15983 0.492923 7.2993 0.674243 7.2993 0.953197C7.2993 1.26702 6.83903 2.7664 6.00914 2.7664C5.44426 2.7664 5.44426 2.26428 5.44426 2.14572C5.44426 1.82493 5.56979 1.43439 5.82782 0.785824C5.88361 0.639373 5.92545 0.534766 5.92545 0.41621C5.92545 0.0535701 5.61861 -0.183541 5.26294 -0.183541C4.56555 -0.183541 4.25173 0.771876 4.25173 0.883458C4.25173 0.974118 4.34936 0.974118 4.37029 0.974118C4.46792 0.974118 4.47489 0.939249 4.49582 0.862536C4.66319 0.290681 4.96306 0.011727 5.24202 0.011727C5.36057 0.011727 5.41636 0.0884393 5.41636 0.255812C5.41636 0.41621 5.36057 0.562661 5.29083 0.72306C4.99096 1.49716 4.91425 1.79703 4.91425 2.04809C4.91425 2.7385 5.45821 2.96166 5.98822 2.96166C7.15983 2.96166 7.64799 0.932275 7.64799 0.360419ZM7.64799 0.360419"/>
 </g>
 <g>
  <path fill="#fff" d="M3.9685 56.6929L3.9685 56.686A3.9685 3.9685 0 0 0 -3.9685 56.6929A3.9685 3.9685 0 0 0 3.9685 56.6998Z"/>
 </g>
 <path fill="black" d="M1.98425 56.6929L1.98425 56.6895A1.98425 1.98425 0 0 0 -1.98425 56.6929A1.98425 1.98425 0 0 0 1.98425 56.6964Z"/>
 <g transform="matrix(1.000000,0.000000,0.000000,1.000000,-9.921260,56.692913)">
  <path fill="black" d="M-6.34595 1.39755M-1.97235 -2.30856C-1.97235 -2.84654 -2.23138 -3.00594 -2.4107 -3.00594C-2.65977 -3.00594 -2.89887 -2.74691 -2.89887 -2.52773C-2.89887 -2.39822 -2.84906 -2.33844 -2.73947 -2.22886C-2.53026 -2.0296 -2.40074 -1.77057 -2.40074 -1.41192C-2.40074 -0.993488 -3.00846 1.28796 -4.17409 1.28796C-4.68219 1.28796 -4.91133 0.939264 -4.91133 0.421207C-4.91133 -0.136701 -4.64234 -0.863974 -4.33349 -1.69087C-4.26376 -1.86024 -4.21394 -1.99971 -4.21394 -2.189C-4.21394 -2.63732 -4.53275 -3.00594 -5.03088 -3.00594C-5.96737 -3.00594 -6.34595 -1.56136 -6.34595 -1.47169C-6.34595 -1.37207 -6.24632 -1.37207 -6.2264 -1.37207C-6.12677 -1.37207 -6.11681 -1.39199 -6.06699 -1.5514C-5.77808 -2.55762 -5.34968 -2.78676 -5.06077 -2.78676C-4.98107 -2.78676 -4.8117 -2.78676 -4.8117 -2.46796C-4.8117 -2.21889 -4.91133 -1.9499 -4.98107 -1.77057C-5.41942 -0.614908 -5.54894 -0.156626 -5.54894 0.271767C-5.54894 1.34773 -4.67222 1.50713 -4.21394 1.50713C-2.54022 1.50713 -1.97235 -1.7905 -1.97235 -2.30856ZM-1.97235 -2.30856"/>
  <path fill="black" d="M-1.04559 2.89193M0.530495 -1.54344C0.530495 -1.73173 0.516548 -1.73871 0.32128 -1.73871C-0.125046 -1.29936 -0.759667 -1.29238 -1.04559 -1.29238L-1.04559 -1.04132C-0.878222 -1.04132 -0.417948 -1.04132 -0.0343863 -1.23659L-0.0343863 2.32007C-0.0343863 2.55021 -0.0343863 2.64087 -0.731771 2.64087L-0.996777 2.64087L-0.996777 2.89193C-0.871248 2.88495 -0.0134648 2.86403 0.244568 2.86403C0.460757 2.86403 1.33946 2.88495 1.49289 2.89193L1.49289 2.64087L1.22788 2.64087C0.530495 2.64087 0.530495 2.55021 0.530495 2.32007ZM0.530495 2.32007M2.52502 2.89193M5.76088 0.667269C5.76088 -0.0998545 5.67022 -0.650789 5.34942 -1.13896C5.13324 -1.45975 4.70086 -1.73871 4.14295 -1.73871C2.52502 -1.73871 2.52502 0.165152 2.52502 0.667269C2.52502 1.16939 2.52502 3.0314 4.14295 3.0314C5.76088 3.0314 5.76088 1.16939 5.76088 0.667269ZM5.76088 0.667269M4.14295 2.83614C3.82215 2.83614 3.39675 2.64784 3.25727 2.07599C3.15964 1.66453 3.15964 1.09267 3.15964 0.576609C3.15964 0.0675178 3.15964 -0.462495 3.26424 -0.846056C3.41069 -1.39699 3.85702 -1.54344 4.14295 -1.54344C4.51954 -1.54344 4.88218 -1.3133 5.00771 -0.908821C5.11929 -0.532233 5.12626 -0.0301161 5.12626 0.576609C5.12626 1.09267 5.12626 1.60874 5.0356 2.04809C4.89612 2.68271 4.4219 2.83614 4.14295 2.83614ZM4.14295 2.83614"/>
 </g>
 <g>
  <path fill="#fff" d="M60.6614 56.6929L60.6614 56.686A3.9685 3.9685 0 0 0 52.7244 56.6929A3.9685 3.9685 0 0 0 60.6614 56.6998Z"/>
 </g>
 <path fill="black" d="M58.6772 56.6929L58.6772 56.6895A1.98425 1.98425 0 0 0 54.7087 56.6929A1.98425 1.98425 0 0 0 58.6772 56.6964Z"/>
 <g transform="matrix(1.000000,0.000000,0.000000,1.000000,66.614173,56.692913)">
  <path fill="black" d="M-6.34595 1.39755M-1.97235 -2.30856C-1.97235 -2.84654 -2.23138 -3.00594 -2.4107 -3.00594C-2.65977 -3.00594 -2.89887 -2.74691 -2.89887 -2.52773C-2.89887 -2.39822 -2.84906 -2.33844 -2.73947 -2.22886C-2.53026 -2.0296 -2.40074 -1.77057 -2.40074 -1.41192C-2.40074 -0.993488 -3.00846 1.28796 -4.17409 1.28796C-4.68219 1.28796 -4.91133 0.939264 -4.91133 0.421207C-4.91133 -0.136701 -4.64234 -0.863974 -4.33349 -1.69087C-4.26376 -1.86024 -4.21394 -1.99971 -4.21394 -2.189C-4.21394 -2.63732 -4.53275 -3.00594 -5.03088 -3.00594C-5.96737 -3.00594 -6.34595 -1.56136 -6.34595 -1.47169C-6.34595 -1.37207 -6.24632 -1.37207 -6.2264 -1.37207C-6.12677 -1.37207 -6.11681 -1.39199 -6.06699 -1.5514C-5.77808 -2.55762 -5.34968 -2.78676 -5.06077 -2.78676C-4.98107 -2.78676 -4.8117 -2.78676 -4.8117 -2.46796C-4.8117 -2.21889 -4.91133 -1.9499 -4.98107 -1.77057C-5.41942 -0.614908 -5.54894 -0.156626 -5.54894 0.271767C-5.54894 1.34773 -4.67222 1.50713 -4.21394 1.50713C-2.54022 1.50713 -1.97235 -1.7905 -1.97235 -2.30856ZM-1.97235 -2.30856"/>
  <path fill="black" d="M-1.04559 2.89193M0.530495 -1.54344C0.530495 -1.73173 0.516548 -1.73871 0.32128 -1.73871C-0.125046 -1.29936 -0.759667 -1.29238 -1.04559 -1.29238L-1.04559 -1.04132C-0.878222 -1.04132 -0.417948 -1.04132 -0.0343863 -1.23659L-0.0343863 2.32007C-0.0343863 2.55021 -0.0343863 2.64087 -0.731771 2.64087L-0.996777 2.64087L-0.996777 2.89193C-0.871248 2.88495 -0.0134648 2.86403 0.244568 2.86403C0.460757 2.86403 1.33946 2.88495 1.49289 2.89193L1.49289 2.64087L1.22788 2.64087C0.530495 2.64087 0.530495 2.55021 0.530495 2.32007ZM0.530495 2.32007M2.92253 2.89193M4.49861 -1.54344C4.49861 -1.73173 4.48467 -1.73871 4.2894 -1.73871C3.84307 -1.29936 3.20845 -1.29238 2.92253 -1.29238L2.92253 -1.04132C3.0899 -1.04132 3.55017 -1.04132 3.93373 -1.23659L3.93373 2.32007C3.93373 2.55021 3.93373 2.64087 3.23635 2.64087L2.97134 2.64087L2.97134 2.89193C3.09687 2.88495 3.95465 2.86403 4.21269 2.86403C4.42888 2.86403 5.30758 2.88495 5.46101 2.89193L5.46101 2.64087L5.196 2.64087C4.49861 2.64087 4.49861 2.55021 4.49861 2.32007ZM4.49861 2.32007"/>
 </g>
</svg>
