<?xml version="1.0" encoding="utf-8"?>
<svg xmlns="http://www.w3.org/2000/svg" fill="none" version="1.1" stroke-miterlimit="10.000000" x="-21.8525pt" width="100.398pt" viewBox="-21.8525 -61.6614 100.398 66.6299" y="-61.6614pt" stroke-width="0.566929" height="66.6299pt">
 <g>
  <path fill="#d8d8d8" d="M5.66929 -5.66929L51.0236 -51.0236L5.66929 -51.0236L51.0236 -5.66929"/>
 </g>
 <g stroke-width="0.801759">
  <path d="M30.3307 -28.3465L30.3307 -28.3499A1.98425 1.98425 0 0 0 26.3622 -28.3465A1.98425 1.98425 0 0 0 30.3307 -28.343Z" stroke="#ff1919"/>
 </g>
 <g>
  <path fill="#d8d8d8" d="M5.66929 -5.66929L51.0236 -51.0236L5.66929 -51.0236L51.0236 -5.66929"/>
 </g>
 <g stroke-width="0.801759">
  <path d="M30.3307 -28.3465L30.3307 -28.3499A1.98425 1.98425 0 0 0 26.3622 -28.3465A1.98425 1.98425 0 0 0 30.3307 -28.343Z" stroke="#ff1919"/>
 </g>
 <g>
  <path fill="#d8d8d8" d="M5.66929 -5.66929L51.0236 -51.0236L5.66929 -51.0236L51.0236 -5.66929"/>
 </g>
 <g stroke-width="1.603518">
  <path d="M0 -28.3465L23.9118 -28.3465" stroke="#f36b08"/>
  <g stroke-linecap="butt" stroke-dasharray="none">
   <path fill="#f36b08" d="M22.8032 -30.6426L28.3465 -28.3465L22.8032 -26.0504L23.9118 -28.3465Z"/>
  </g>
 </g>
 <g>
  <path fill="#d8d8d8" d="M5.66929 -5.66929L51.0236 -51.0236L5.66929 -51.0236L51.0236 -5.66929"/>
 </g>
 <g stroke-width="1.603518">
  <path d="M56.6929 -28.3465L32.7811 -28.3465" stroke="#f36b08"/>
  <g stroke-linecap="butt" stroke-dasharray="none">
   <path fill="#f36b08" d="M33.8897 -26.0504L28.3465 -28.3465L33.8897 -30.6426L32.7811 -28.3465Z"/>
  </g>
 </g>
 <path d="M0 -0L0 -56.6929" stroke="black"/>
 <g stroke-width="1.603518">
  <path d="M56.6929 -0L32.7811 -0" stroke="#f36b08"/>
  <g stroke-linecap="butt" stroke-dasharray="none">
   <path fill="#f36b08" d="M33.8897 2.2961L28.3465 -0L33.8897 -2.2961L32.7811 -0Z"/>
  </g>
 </g>
 <path d="M56.6929 -0L0 -0" stroke="black"/>
 <g stroke-width="1.603518">
  <path d="M0 -0L0 -23.9118" stroke="#f36b08"/>
  <g stroke-linecap="butt" stroke-dasharray="none">
   <path fill="#f36b08" d="M-2.2961 -22.8032L0 -28.3465L2.2961 -22.8032L0 -23.9118Z"/>
  </g>
 </g>
 <path d="M0 -0L0 -56.6929" stroke="black"/>
 <g stroke-width="1.603518">
  <path d="M56.6929 -56.6929L32.7811 -56.6929" stroke="#f36b08"/>
  <g stroke-linecap="butt" stroke-dasharray="none">
   <path fill="#f36b08" d="M33.8897 -54.3968L28.3465 -56.6929L33.8897 -58.989L32.7811 -56.6929Z"/>
  </g>
 </g>
 <path d="M56.6929 -56.6929L0 -56.6929" stroke="black"/>
 <g stroke-width="0.801759">
  <path d="M58.6772 -28.3465L58.6772 -28.3499A1.98425 1.98425 0 0 0 54.7087 -28.3465A1.98425 1.98425 0 0 0 58.6772 -28.343Z" stroke="#ff1919"/>
 </g>
 <path d="M56.6929 -0L56.6929 -56.6929" stroke="black"/>
 <g stroke-width="0.801759">
  <path d="M30.3307 -0L30.3307 -0.00346317A1.98425 1.98425 0 0 0 26.3622 -1.12419e-15A1.98425 1.98425 0 0 0 30.3307 0.00346317Z" stroke="#ff1919"/>
 </g>
 <path d="M0 -0L56.6929 -0" stroke="black"/>
 <path d="M56.6929 -0L56.6929 -56.6929" stroke="black"/>
 <g stroke-width="0.801759">
  <path d="M30.3307 -56.6929L30.3307 -56.6964A1.98425 1.98425 0 0 0 26.3622 -56.6929A1.98425 1.98425 0 0 0 30.3307 -56.6895Z" stroke="#ff1919"/>
 </g>
 <path d="M0 -56.6929L56.6929 -56.6929" stroke="black"/>
 <g>
  <path fill="#fff" d="M3.9685 -0L3.9685 -0.00692634A3.9685 3.9685 0 0 0 -3.9685 -2.24837e-15A3.9685 3.9685 0 0 0 3.9685 0.00692634Z"/>
 </g>
 <path fill="black" d="M1.98425 -0L1.98425 -0.00346317A1.98425 1.98425 0 0 0 -1.98425 -1.12419e-15A1.98425 1.98425 0 0 0 1.98425 0.00346317Z"/>
 <g transform="matrix(1.000000,0.000000,0.000000,1.000000,-9.921260,-0.000000)">
  <path fill="black" d="M-10.6424 0.373584M-6.26875 -3.33252C-6.26875 -3.8705 -6.52778 -4.0299 -6.70711 -4.0299C-6.95617 -4.0299 -7.19528 -3.77087 -7.19528 -3.5517C-7.19528 -3.42218 -7.14546 -3.36241 -7.03587 -3.25282C-6.82666 -3.05356 -6.69715 -2.79454 -6.69715 -2.43588C-6.69715 -2.01745 -7.30487 0.263995 -8.4705 0.263995C-8.97859 0.263995 -9.20773 -0.0846976 -9.20773 -0.602755C-9.20773 -1.16066 -8.93874 -1.88794 -8.6299 -2.71483C-8.56016 -2.8842 -8.51035 -3.02368 -8.51035 -3.21297C-8.51035 -3.66129 -8.82915 -4.0299 -9.32728 -4.0299C-10.2638 -4.0299 -10.6424 -2.58532 -10.6424 -2.49566C-10.6424 -2.39603 -10.5427 -2.39603 -10.5228 -2.39603C-10.4232 -2.39603 -10.4132 -2.41596 -10.3634 -2.57536C-10.0745 -3.58158 -9.64609 -3.81073 -9.35717 -3.81073C-9.27747 -3.81073 -9.1081 -3.81073 -9.1081 -3.49192C-9.1081 -3.24285 -9.20773 -2.97386 -9.27747 -2.79454C-9.71583 -1.63887 -9.84534 -1.18059 -9.84534 -0.752195C-9.84534 0.323771 -8.96863 0.483173 -8.51035 0.483173C-6.83662 0.483173 -6.26875 -2.81446 -6.26875 -3.33252ZM-6.26875 -3.33252"/>
  <path fill="black" d="M-5.30015 2.17241M-3.62643 -3.05798C-4.95146 -2.12348 -5.30015 -0.645024 -5.30015 0.421975C-5.30015 1.40529 -5.00725 2.93256 -3.62643 3.9089C-3.57064 3.9089 -3.48695 3.9089 -3.48695 3.82521C-3.48695 3.78337 -3.50788 3.76942 -3.55669 3.7206C-4.48421 2.88374 -4.82593 1.69819 -4.82593 0.428949C-4.82593 -1.45399 -4.10763 -2.37454 -3.53577 -2.8906C-3.50788 -2.9185 -3.48695 -2.93942 -3.48695 -2.97429C-3.48695 -3.05798 -3.57064 -3.05798 -3.62643 -3.05798ZM-3.62643 -3.05798M-2.62917 2.17241M0.606694 -0.0522468C0.606694 -0.81937 0.516034 -1.3703 0.195237 -1.85847C-0.0209519 -2.17927 -0.453331 -2.45822 -1.01124 -2.45822C-2.62917 -2.45822 -2.62917 -0.554364 -2.62917 -0.0522468C-2.62917 0.44987 -2.62917 2.31189 -1.01124 2.31189C0.606694 2.31189 0.606694 0.44987 0.606694 -0.0522468ZM0.606694 -0.0522468M-1.01124 2.11662C-1.33204 2.11662 -1.75744 1.92833 -1.89692 1.35647C-1.99455 0.945013 -1.99455 0.373158 -1.99455 -0.142907C-1.99455 -0.651998 -1.99455 -1.18201 -1.88994 -1.56557C-1.74349 -2.11651 -1.29717 -2.26296 -1.01124 -2.26296C-0.634651 -2.26296 -0.27201 -2.03282 -0.146481 -1.62834C-0.0348996 -1.25175 -0.0279258 -0.749632 -0.0279258 -0.142907C-0.0279258 0.373158 -0.0279258 0.889223 -0.118586 1.32858C-0.258063 1.9632 -0.732284 2.11662 -1.01124 2.11662ZM-1.01124 2.11662"/>
  <path fill="black" d="M1.7635 2.17241M2.45391 2.06083C2.45391 2.44439 2.38417 2.89072 1.90995 3.33704C1.88206 3.36494 1.86114 3.38586 1.86114 3.42073C1.86114 3.46955 1.91693 3.51836 1.95877 3.51836C2.0564 3.51836 2.64918 2.96046 2.64918 2.13057C2.64918 1.69819 2.48181 1.37042 2.16101 1.37042C1.93087 1.37042 1.7635 1.55174 1.7635 1.76793C1.7635 1.99109 1.9239 2.17241 2.16798 2.17241C2.33536 2.17241 2.44694 2.06083 2.45391 2.06083ZM2.45391 2.06083"/>
  <path fill="black" d="M3.7112 2.17241M6.94706 -0.0522468C6.94706 -0.81937 6.8564 -1.3703 6.53561 -1.85847C6.31942 -2.17927 5.88704 -2.45822 5.32913 -2.45822C3.7112 -2.45822 3.7112 -0.554364 3.7112 -0.0522468C3.7112 0.44987 3.7112 2.31189 5.32913 2.31189C6.94706 2.31189 6.94706 0.44987 6.94706 -0.0522468ZM6.94706 -0.0522468M5.32913 2.11662C5.00833 2.11662 4.58293 1.92833 4.44345 1.35647C4.34582 0.945013 4.34582 0.373158 4.34582 -0.142907C4.34582 -0.651998 4.34582 -1.18201 4.45043 -1.56557C4.59688 -2.11651 5.0432 -2.26296 5.32913 -2.26296C5.70572 -2.26296 6.06836 -2.03282 6.19389 -1.62834C6.30547 -1.25175 6.31244 -0.749632 6.31244 -0.142907C6.31244 0.373158 6.31244 0.889223 6.22178 1.32858C6.08231 1.9632 5.60808 2.11662 5.32913 2.11662ZM5.32913 2.11662M7.81182 2.17241M7.94432 -3.05798C7.89551 -3.05798 7.81182 -3.05798 7.81182 -2.97429C7.81182 -2.93942 7.83274 -2.9185 7.87458 -2.86968C8.47434 -2.31875 9.14383 -1.37728 9.14383 0.421975C9.14383 1.87951 8.69053 2.98138 7.93735 3.66481C7.81879 3.78337 7.81182 3.79034 7.81182 3.82521C7.81182 3.86008 7.83274 3.9089 7.90248 3.9089C7.98617 3.9089 8.64868 3.44862 9.10896 2.57689C9.41581 1.99806 9.61805 1.24489 9.61805 0.428949C9.61805 -0.554364 9.32515 -2.08164 7.94432 -3.05798ZM7.94432 -3.05798"/>
 </g>
 <g>
  <path fill="#fff" d="M3.9685 -56.6929L3.9685 -56.6998A3.9685 3.9685 0 0 0 -3.9685 -56.6929A3.9685 3.9685 0 0 0 3.9685 -56.686Z"/>
 </g>
 <g stroke-width="0.801759">
  <path d="M3.9685 -56.6929L3.9685 -56.6998A3.9685 3.9685 0 0 0 -3.9685 -56.6929A3.9685 3.9685 0 0 0 3.9685 -56.686Z" stroke="#ff1919"/>
 </g>
 <path fill="black" d="M1.98425 -56.6929L1.98425 -56.6964A1.98425 1.98425 0 0 0 -1.98425 -56.6929A1.98425 1.98425 0 0 0 1.98425 -56.6895Z"/>
 <g transform="matrix(1.000000,0.000000,0.000000,1.000000,-9.921260,-56.692913)">
  <path fill="black" d="M-10.6424 0.373584M-6.26875 -3.33252C-6.26875 -3.8705 -6.52778 -4.0299 -6.70711 -4.0299C-6.95617 -4.0299 -7.19528 -3.77087 -7.19528 -3.5517C-7.19528 -3.42218 -7.14546 -3.36241 -7.03587 -3.25282C-6.82666 -3.05356 -6.69715 -2.79454 -6.69715 -2.43588C-6.69715 -2.01745 -7.30487 0.263995 -8.4705 0.263995C-8.97859 0.263995 -9.20773 -0.0846976 -9.20773 -0.602755C-9.20773 -1.16066 -8.93874 -1.88794 -8.6299 -2.71483C-8.56016 -2.8842 -8.51035 -3.02368 -8.51035 -3.21297C-8.51035 -3.66129 -8.82915 -4.0299 -9.32728 -4.0299C-10.2638 -4.0299 -10.6424 -2.58532 -10.6424 -2.49566C-10.6424 -2.39603 -10.5427 -2.39603 -10.5228 -2.39603C-10.4232 -2.39603 -10.4132 -2.41596 -10.3634 -2.57536C-10.0745 -3.58158 -9.64609 -3.81073 -9.35717 -3.81073C-9.27747 -3.81073 -9.1081 -3.81073 -9.1081 -3.49192C-9.1081 -3.24285 -9.20773 -2.97386 -9.27747 -2.79454C-9.71583 -1.63887 -9.84534 -1.18059 -9.84534 -0.752195C-9.84534 0.323771 -8.96863 0.483173 -8.51035 0.483173C-6.83662 0.483173 -6.26875 -2.81446 -6.26875 -3.33252ZM-6.26875 -3.33252"/>
  <path fill="black" d="M-5.30015 2.17241M-3.62643 -3.05798C-4.95146 -2.12348 -5.30015 -0.645024 -5.30015 0.421975C-5.30015 1.40529 -5.00725 2.93256 -3.62643 3.9089C-3.57064 3.9089 -3.48695 3.9089 -3.48695 3.82521C-3.48695 3.78337 -3.50788 3.76942 -3.55669 3.7206C-4.48421 2.88374 -4.82593 1.69819 -4.82593 0.428949C-4.82593 -1.45399 -4.10763 -2.37454 -3.53577 -2.8906C-3.50788 -2.9185 -3.48695 -2.93942 -3.48695 -2.97429C-3.48695 -3.05798 -3.57064 -3.05798 -3.62643 -3.05798ZM-3.62643 -3.05798M-2.62917 2.17241M0.606694 -0.0522468C0.606694 -0.81937 0.516034 -1.3703 0.195237 -1.85847C-0.0209519 -2.17927 -0.453331 -2.45822 -1.01124 -2.45822C-2.62917 -2.45822 -2.62917 -0.554364 -2.62917 -0.0522468C-2.62917 0.44987 -2.62917 2.31189 -1.01124 2.31189C0.606694 2.31189 0.606694 0.44987 0.606694 -0.0522468ZM0.606694 -0.0522468M-1.01124 2.11662C-1.33204 2.11662 -1.75744 1.92833 -1.89692 1.35647C-1.99455 0.945013 -1.99455 0.373158 -1.99455 -0.142907C-1.99455 -0.651998 -1.99455 -1.18201 -1.88994 -1.56557C-1.74349 -2.11651 -1.29717 -2.26296 -1.01124 -2.26296C-0.634651 -2.26296 -0.27201 -2.03282 -0.146481 -1.62834C-0.0348996 -1.25175 -0.0279258 -0.749632 -0.0279258 -0.142907C-0.0279258 0.373158 -0.0279258 0.889223 -0.118586 1.32858C-0.258063 1.9632 -0.732284 2.11662 -1.01124 2.11662ZM-1.01124 2.11662"/>
  <path fill="black" d="M1.7635 2.17241M2.45391 2.06083C2.45391 2.44439 2.38417 2.89072 1.90995 3.33704C1.88206 3.36494 1.86114 3.38586 1.86114 3.42073C1.86114 3.46955 1.91693 3.51836 1.95877 3.51836C2.0564 3.51836 2.64918 2.96046 2.64918 2.13057C2.64918 1.69819 2.48181 1.37042 2.16101 1.37042C1.93087 1.37042 1.7635 1.55174 1.7635 1.76793C1.7635 1.99109 1.9239 2.17241 2.16798 2.17241C2.33536 2.17241 2.44694 2.06083 2.45391 2.06083ZM2.45391 2.06083"/>
  <path fill="black" d="M4.10871 2.17241M5.6848 -2.26296C5.6848 -2.45125 5.67085 -2.45822 5.47558 -2.45822C5.02925 -2.01887 4.39463 -2.0119 4.10871 -2.0119L4.10871 -1.76084C4.27608 -1.76084 4.73635 -1.76084 5.11991 -1.95611L5.11991 1.60056C5.11991 1.83069 5.11991 1.92135 4.42253 1.92135L4.15752 1.92135L4.15752 2.17241C4.28305 2.16544 5.14084 2.14452 5.39887 2.14452C5.61506 2.14452 6.49376 2.16544 6.64719 2.17241L6.64719 1.92135L6.38218 1.92135C5.6848 1.92135 5.6848 1.83069 5.6848 1.60056ZM5.6848 1.60056M7.81182 2.17241M7.94432 -3.05798C7.89551 -3.05798 7.81182 -3.05798 7.81182 -2.97429C7.81182 -2.93942 7.83274 -2.9185 7.87458 -2.86968C8.47434 -2.31875 9.14383 -1.37728 9.14383 0.421975C9.14383 1.87951 8.69053 2.98138 7.93735 3.66481C7.81879 3.78337 7.81182 3.79034 7.81182 3.82521C7.81182 3.86008 7.83274 3.9089 7.90248 3.9089C7.98617 3.9089 8.64868 3.44862 9.10896 2.57689C9.41581 1.99806 9.61805 1.24489 9.61805 0.428949C9.61805 -0.554364 9.32515 -2.08164 7.94432 -3.05798ZM7.94432 -3.05798"/>
 </g>
 <g>
  <path fill="#fff" d="M60.6614 -0L60.6614 -0.00692634A3.9685 3.9685 0 0 0 52.7244 -2.24837e-15A3.9685 3.9685 0 0 0 60.6614 0.00692634Z"/>
 </g>
 <path fill="black" d="M58.6772 -0L58.6772 -0.00346317A1.98425 1.98425 0 0 0 54.7087 -1.12419e-15A1.98425 1.98425 0 0 0 58.6772 0.00346317Z"/>
 <g transform="matrix(1.000000,0.000000,0.000000,1.000000,66.614173,-0.000000)">
  <path fill="black" d="M-10.6424 0.373584M-6.26875 -3.33252C-6.26875 -3.8705 -6.52778 -4.0299 -6.70711 -4.0299C-6.95617 -4.0299 -7.19528 -3.77087 -7.19528 -3.5517C-7.19528 -3.42218 -7.14546 -3.36241 -7.03587 -3.25282C-6.82666 -3.05356 -6.69715 -2.79454 -6.69715 -2.43588C-6.69715 -2.01745 -7.30487 0.263995 -8.4705 0.263995C-8.97859 0.263995 -9.20773 -0.0846976 -9.20773 -0.602755C-9.20773 -1.16066 -8.93874 -1.88794 -8.6299 -2.71483C-8.56016 -2.8842 -8.51035 -3.02368 -8.51035 -3.21297C-8.51035 -3.66129 -8.82915 -4.0299 -9.32728 -4.0299C-10.2638 -4.0299 -10.6424 -2.58532 -10.6424 -2.49566C-10.6424 -2.39603 -10.5427 -2.39603 -10.5228 -2.39603C-10.4232 -2.39603 -10.4132 -2.41596 -10.3634 -2.57536C-10.0745 -3.58158 -9.64609 -3.81073 -9.35717 -3.81073C-9.27747 -3.81073 -9.1081 -3.81073 -9.1081 -3.49192C-9.1081 -3.24285 -9.20773 -2.97386 -9.27747 -2.79454C-9.71583 -1.63887 -9.84534 -1.18059 -9.84534 -0.752195C-9.84534 0.323771 -8.96863 0.483173 -8.51035 0.483173C-6.83662 0.483173 -6.26875 -2.81446 -6.26875 -3.33252ZM-6.26875 -3.33252"/>
  <path fill="black" d="M-5.30015 2.17241M-3.62643 -3.05798C-4.95146 -2.12348 -5.30015 -0.645024 -5.30015 0.421975C-5.30015 1.40529 -5.00725 2.93256 -3.62643 3.9089C-3.57064 3.9089 -3.48695 3.9089 -3.48695 3.82521C-3.48695 3.78337 -3.50788 3.76942 -3.55669 3.7206C-4.48421 2.88374 -4.82593 1.69819 -4.82593 0.428949C-4.82593 -1.45399 -4.10763 -2.37454 -3.53577 -2.8906C-3.50788 -2.9185 -3.48695 -2.93942 -3.48695 -2.97429C-3.48695 -3.05798 -3.57064 -3.05798 -3.62643 -3.05798ZM-3.62643 -3.05798M-2.23166 2.17241M-0.655572 -2.26296C-0.655572 -2.45125 -0.66952 -2.45822 -0.864788 -2.45822C-1.31111 -2.01887 -1.94573 -2.0119 -2.23166 -2.0119L-2.23166 -1.76084C-2.06429 -1.76084 -1.60402 -1.76084 -1.22045 -1.95611L-1.22045 1.60056C-1.22045 1.83069 -1.22045 1.92135 -1.91784 1.92135L-2.18284 1.92135L-2.18284 2.17241C-2.05732 2.16544 -1.19953 2.14452 -0.9415 2.14452C-0.725311 2.14452 0.153394 2.16544 0.306819 2.17241L0.306819 1.92135L0.0418127 1.92135C-0.655572 1.92135 -0.655572 1.83069 -0.655572 1.60056ZM-0.655572 1.60056"/>
  <path fill="black" d="M1.7635 2.17241M2.45391 2.06083C2.45391 2.44439 2.38417 2.89072 1.90995 3.33704C1.88206 3.36494 1.86114 3.38586 1.86114 3.42073C1.86114 3.46955 1.91693 3.51836 1.95877 3.51836C2.0564 3.51836 2.64918 2.96046 2.64918 2.13057C2.64918 1.69819 2.48181 1.37042 2.16101 1.37042C1.93087 1.37042 1.7635 1.55174 1.7635 1.76793C1.7635 1.99109 1.9239 2.17241 2.16798 2.17241C2.33536 2.17241 2.44694 2.06083 2.45391 2.06083ZM2.45391 2.06083"/>
  <path fill="black" d="M3.7112 2.17241M6.94706 -0.0522468C6.94706 -0.81937 6.8564 -1.3703 6.53561 -1.85847C6.31942 -2.17927 5.88704 -2.45822 5.32913 -2.45822C3.7112 -2.45822 3.7112 -0.554364 3.7112 -0.0522468C3.7112 0.44987 3.7112 2.31189 5.32913 2.31189C6.94706 2.31189 6.94706 0.44987 6.94706 -0.0522468ZM6.94706 -0.0522468M5.32913 2.11662C5.00833 2.11662 4.58293 1.92833 4.44345 1.35647C4.34582 0.945013 4.34582 0.373158 4.34582 -0.142907C4.34582 -0.651998 4.34582 -1.18201 4.45043 -1.56557C4.59688 -2.11651 5.0432 -2.26296 5.32913 -2.26296C5.70572 -2.26296 6.06836 -2.03282 6.19389 -1.62834C6.30547 -1.25175 6.31244 -0.749632 6.31244 -0.142907C6.31244 0.373158 6.31244 0.889223 6.22178 1.32858C6.08231 1.9632 5.60808 2.11662 5.32913 2.11662ZM5.32913 2.11662M7.81182 2.17241M7.94432 -3.05798C7.89551 -3.05798 7.81182 -3.05798 7.81182 -2.97429C7.81182 -2.93942 7.83274 -2.9185 7.87458 -2.86968C8.47434 -2.31875 9.14383 -1.37728 9.14383 0.421975C9.14383 1.87951 8.69053 2.98138 7.93735 3.66481C7.81879 3.78337 7.81182 3.79034 7.81182 3.82521C7.81182 3.86008 7.83274 3.9089 7.90248 3.9089C7.98617 3.9089 8.64868 3.44862 9.10896 2.57689C9.41581 1.99806 9.61805 1.24489 9.61805 0.428949C9.61805 -0.554364 9.32515 -2.08164 7.94432 -3.05798ZM7.94432 -3.05798"/>
 </g>
 <g>
  <path fill="#fff" d="M60.6614 -56.6929L60.6614 -56.6998A3.9685 3.9685 0 0 0 52.7244 -56.6929A3.9685 3.9685 0 0 0 60.6614 -56.686Z"/>
 </g>
 <path fill="black" d="M58.6772 -56.6929L58.6772 -56.6964A1.98425 1.98425 0 0 0 54.7087 -56.6929A1.98425 1.98425 0 0 0 58.6772 -56.6895Z"/>
 <g transform="matrix(1.000000,0.000000,0.000000,1.000000,66.614173,-56.692913)">
  <path fill="black" d="M-10.6424 0.373584M-6.26875 -3.33252C-6.26875 -3.8705 -6.52778 -4.0299 -6.70711 -4.0299C-6.95617 -4.0299 -7.19528 -3.77087 -7.19528 -3.5517C-7.19528 -3.42218 -7.14546 -3.36241 -7.03587 -3.25282C-6.82666 -3.05356 -6.69715 -2.79454 -6.69715 -2.43588C-6.69715 -2.01745 -7.30487 0.263995 -8.4705 0.263995C-8.97859 0.263995 -9.20773 -0.0846976 -9.20773 -0.602755C-9.20773 -1.16066 -8.93874 -1.88794 -8.6299 -2.71483C-8.56016 -2.8842 -8.51035 -3.02368 -8.51035 -3.21297C-8.51035 -3.66129 -8.82915 -4.0299 -9.32728 -4.0299C-10.2638 -4.0299 -10.6424 -2.58532 -10.6424 -2.49566C-10.6424 -2.39603 -10.5427 -2.39603 -10.5228 -2.39603C-10.4232 -2.39603 -10.4132 -2.41596 -10.3634 -2.57536C-10.0745 -3.58158 -9.64609 -3.81073 -9.35717 -3.81073C-9.27747 -3.81073 -9.1081 -3.81073 -9.1081 -3.49192C-9.1081 -3.24285 -9.20773 -2.97386 -9.27747 -2.79454C-9.71583 -1.63887 -9.84534 -1.18059 -9.84534 -0.752195C-9.84534 0.323771 -8.96863 0.483173 -8.51035 0.483173C-6.83662 0.483173 -6.26875 -2.81446 -6.26875 -3.33252ZM-6.26875 -3.33252"/>
  <path fill="black" d="M-5.30015 2.17241M-3.62643 -3.05798C-4.95146 -2.12348 -5.30015 -0.645024 -5.30015 0.421975C-5.30015 1.40529 -5.00725 2.93256 -3.62643 3.9089C-3.57064 3.9089 -3.48695 3.9089 -3.48695 3.82521C-3.48695 3.78337 -3.50788 3.76942 -3.55669 3.7206C-4.48421 2.88374 -4.82593 1.69819 -4.82593 0.428949C-4.82593 -1.45399 -4.10763 -2.37454 -3.53577 -2.8906C-3.50788 -2.9185 -3.48695 -2.93942 -3.48695 -2.97429C-3.48695 -3.05798 -3.57064 -3.05798 -3.62643 -3.05798ZM-3.62643 -3.05798M-2.23166 2.17241M-0.655572 -2.26296C-0.655572 -2.45125 -0.66952 -2.45822 -0.864788 -2.45822C-1.31111 -2.01887 -1.94573 -2.0119 -2.23166 -2.0119L-2.23166 -1.76084C-2.06429 -1.76084 -1.60402 -1.76084 -1.22045 -1.95611L-1.22045 1.60056C-1.22045 1.83069 -1.22045 1.92135 -1.91784 1.92135L-2.18284 1.92135L-2.18284 2.17241C-2.05732 2.16544 -1.19953 2.14452 -0.9415 2.14452C-0.725311 2.14452 0.153394 2.16544 0.306819 2.17241L0.306819 1.92135L0.0418127 1.92135C-0.655572 1.92135 -0.655572 1.83069 -0.655572 1.60056ZM-0.655572 1.60056"/>
  <path fill="black" d="M1.7635 2.17241M2.45391 2.06083C2.45391 2.44439 2.38417 2.89072 1.90995 3.33704C1.88206 3.36494 1.86114 3.38586 1.86114 3.42073C1.86114 3.46955 1.91693 3.51836 1.95877 3.51836C2.0564 3.51836 2.64918 2.96046 2.64918 2.13057C2.64918 1.69819 2.48181 1.37042 2.16101 1.37042C1.93087 1.37042 1.7635 1.55174 1.7635 1.76793C1.7635 1.99109 1.9239 2.17241 2.16798 2.17241C2.33536 2.17241 2.44694 2.06083 2.45391 2.06083ZM2.45391 2.06083"/>
  <path fill="black" d="M4.10871 2.17241M5.6848 -2.26296C5.6848 -2.45125 5.67085 -2.45822 5.47558 -2.45822C5.02925 -2.01887 4.39463 -2.0119 4.10871 -2.0119L4.10871 -1.76084C4.27608 -1.76084 4.73635 -1.76084 5.11991 -1.95611L5.11991 1.60056C5.11991 1.83069 5.11991 1.92135 4.42253 1.92135L4.15752 1.92135L4.15752 2.17241C4.28305 2.16544 5.14084 2.14452 5.39887 2.14452C5.61506 2.14452 6.49376 2.16544 6.64719 2.17241L6.64719 1.92135L6.38218 1.92135C5.6848 1.92135 5.6848 1.83069 5.6848 1.60056ZM5.6848 1.60056M7.81182 2.17241M7.94432 -3.05798C7.89551 -3.05798 7.81182 -3.05798 7.81182 -2.97429C7.81182 -2.93942 7.83274 -2.9185 7.87458 -2.86968C8.47434 -2.31875 9.14383 -1.37728 9.14383 0.421975C9.14383 1.87951 8.69053 2.98138 7.93735 3.66481C7.81879 3.78337 7.81182 3.79034 7.81182 3.82521C7.81182 3.86008 7.83274 3.9089 7.90248 3.9089C7.98617 3.9089 8.64868 3.44862 9.10896 2.57689C9.41581 1.99806 9.61805 1.24489 9.61805 0.428949C9.61805 -0.554364 9.32515 -2.08164 7.94432 -3.05798ZM7.94432 -3.05798"/>
 </g>
</svg>
