<?xml version="1.0" encoding="utf-8"?>
<svg xmlns="http://www.w3.org/2000/svg" width="179.17pt" x="-107.266pt" y="-128.344pt" viewBox="-107.266 -128.344 179.17 140.23" height="140.23pt" version="1.1" stroke-width="0.566929" fill="none" stroke-miterlimit="10.000000">
 <g>
  <path stroke="#a5a5a5" d="M-85.0394 -0L56.6929 -0"/>
 </g>
 <g transform="matrix(1.000000,0.000000,0.000000,1.000000,-93.543307,-0.000000)">
  <path d="M-12.4542 2.65671M-7.89127 -1.43794L-8.72813 -3.4205C-8.75802 -3.5002 -8.77794 -3.54005 -8.77794 -3.55002C-8.77794 -3.60979 -8.60858 -3.79908 -8.19015 -3.83893C-8.09052 -3.84889 -7.99089 -3.85886 -7.99089 -4.02822C-7.99089 -4.14777 -8.11044 -4.14777 -8.14033 -4.14777C-8.5488 -4.14777 -8.97719 -4.11789 -9.39563 -4.11789C-9.64469 -4.11789 -10.2624 -4.14777 -10.5114 -4.14777C-10.5712 -4.14777 -10.6908 -4.14777 -10.6908 -3.94852C-10.6908 -3.83893 -10.5911 -3.83893 -10.4616 -3.83893C-9.86387 -3.83893 -9.80409 -3.73931 -9.71443 -3.52013L-8.53884 -0.740551L-10.641 1.52097L-10.7705 1.63056C-11.2586 2.15858 -11.7269 2.31798 -12.235 2.34787C-12.3645 2.35783 -12.4542 2.35783 -12.4542 2.54712C-12.4542 2.55708 -12.4542 2.65671 -12.3246 2.65671C-12.0258 2.65671 -11.697 2.62682 -11.3882 2.62682C-11.0195 2.62682 -10.631 2.65671 -10.2723 2.65671C-10.2126 2.65671 -10.093 2.65671 -10.093 2.45746C-10.093 2.35783 -10.1926 2.34787 -10.2126 2.34787C-10.3022 2.3379 -10.6111 2.31798 -10.6111 2.03903C-10.6111 1.87962 -10.4616 1.72022 -10.3421 1.59071L-9.32589 0.514741L-8.42925 -0.461597L-7.42302 1.91947C-7.38317 2.02906 -7.37321 2.03903 -7.37321 2.05895C-7.37321 2.13865 -7.5625 2.30802 -7.95104 2.34787C-8.06063 2.35783 -8.1503 2.36779 -8.1503 2.53716C-8.1503 2.65671 -8.04071 2.65671 -8.00086 2.65671C-7.7219 2.65671 -7.02452 2.62682 -6.74556 2.62682C-6.4965 2.62682 -5.88878 2.65671 -5.63971 2.65671C-5.56997 2.65671 -5.45042 2.65671 -5.45042 2.46742C-5.45042 2.34787 -5.55005 2.34787 -5.62975 2.34787C-6.29724 2.3379 -6.31717 2.30802 -6.48653 1.90951C-6.87508 0.982986 -7.54257 -0.571186 -7.77171 -1.16894C-7.09426 -1.86633 -6.04818 -3.05188 -5.72937 -3.33084C-5.44046 -3.56994 -5.06188 -3.80904 -4.46412 -3.83893C-4.3346 -3.84889 -4.24494 -3.84889 -4.24494 -4.03819C-4.24494 -4.04815 -4.24494 -4.14777 -4.37445 -4.14777C-4.67333 -4.14777 -5.0021 -4.11789 -5.31094 -4.11789C-5.67956 -4.11789 -6.05814 -4.14777 -6.4168 -4.14777C-6.47657 -4.14777 -6.60609 -4.14777 -6.60609 -3.94852C-6.60609 -3.87878 -6.55627 -3.84889 -6.48653 -3.83893C-6.39687 -3.82897 -6.08803 -3.80904 -6.08803 -3.53009C-6.08803 -3.39061 -6.19762 -3.2611 -6.27732 -3.17144ZM-6.27732 -3.17144" fill="black"/>
  <path d="M-4.10673 4.15109M-0.870864 1.92643C-0.870864 1.15931 -0.961524 0.608375 -1.28232 0.120206C-1.49851 -0.200591 -1.93089 -0.479545 -2.4888 -0.479545C-4.10673 -0.479545 -4.10673 1.42432 -4.10673 1.92643C-4.10673 2.42855 -4.10673 4.29057 -2.4888 4.29057C-0.870864 4.29057 -0.870864 2.42855 -0.870864 1.92643ZM-0.870864 1.92643M-2.4888 4.0953C-2.80959 4.0953 -3.235 3.90701 -3.37448 3.33515C-3.47211 2.92369 -3.47211 2.35184 -3.47211 1.83577C-3.47211 1.32668 -3.47211 0.796669 -3.3675 0.413107C-3.22105 -0.137827 -2.77472 -0.284277 -2.4888 -0.284277C-2.11221 -0.284277 -1.74957 -0.0541405 -1.62404 0.350343C-1.51246 0.726931 -1.50548 1.22905 -1.50548 1.83577C-1.50548 2.35184 -1.50548 2.8679 -1.59614 3.30725C-1.73562 3.94187 -2.20984 4.0953 -2.4888 4.0953ZM-2.4888 4.0953" fill="black"/>
 </g>
 <g>
  <path stroke="#a5a5a5" d="M-85.0394 -56.6929L56.6929 -56.6929"/>
 </g>
 <g transform="matrix(1.000000,0.000000,0.000000,1.000000,-93.543307,-56.692913)">
  <path d="M-12.4542 2.65671M-7.89127 -1.43794L-8.72813 -3.4205C-8.75802 -3.5002 -8.77794 -3.54005 -8.77794 -3.55002C-8.77794 -3.60979 -8.60858 -3.79908 -8.19015 -3.83893C-8.09052 -3.84889 -7.99089 -3.85886 -7.99089 -4.02822C-7.99089 -4.14777 -8.11044 -4.14777 -8.14033 -4.14777C-8.5488 -4.14777 -8.97719 -4.11789 -9.39563 -4.11789C-9.64469 -4.11789 -10.2624 -4.14777 -10.5114 -4.14777C-10.5712 -4.14777 -10.6908 -4.14777 -10.6908 -3.94852C-10.6908 -3.83893 -10.5911 -3.83893 -10.4616 -3.83893C-9.86387 -3.83893 -9.80409 -3.73931 -9.71443 -3.52013L-8.53884 -0.740551L-10.641 1.52097L-10.7705 1.63056C-11.2586 2.15858 -11.7269 2.31798 -12.235 2.34787C-12.3645 2.35783 -12.4542 2.35783 -12.4542 2.54712C-12.4542 2.55708 -12.4542 2.65671 -12.3246 2.65671C-12.0258 2.65671 -11.697 2.62682 -11.3882 2.62682C-11.0195 2.62682 -10.631 2.65671 -10.2723 2.65671C-10.2126 2.65671 -10.093 2.65671 -10.093 2.45746C-10.093 2.35783 -10.1926 2.34787 -10.2126 2.34787C-10.3022 2.3379 -10.6111 2.31798 -10.6111 2.03903C-10.6111 1.87962 -10.4616 1.72022 -10.3421 1.59071L-9.32589 0.514741L-8.42925 -0.461597L-7.42302 1.91947C-7.38317 2.02906 -7.37321 2.03903 -7.37321 2.05895C-7.37321 2.13865 -7.5625 2.30802 -7.95104 2.34787C-8.06063 2.35783 -8.1503 2.36779 -8.1503 2.53716C-8.1503 2.65671 -8.04071 2.65671 -8.00086 2.65671C-7.7219 2.65671 -7.02452 2.62682 -6.74556 2.62682C-6.4965 2.62682 -5.88878 2.65671 -5.63971 2.65671C-5.56997 2.65671 -5.45042 2.65671 -5.45042 2.46742C-5.45042 2.34787 -5.55005 2.34787 -5.62975 2.34787C-6.29724 2.3379 -6.31717 2.30802 -6.48653 1.90951C-6.87508 0.982986 -7.54257 -0.571186 -7.77171 -1.16894C-7.09426 -1.86633 -6.04818 -3.05188 -5.72937 -3.33084C-5.44046 -3.56994 -5.06188 -3.80904 -4.46412 -3.83893C-4.3346 -3.84889 -4.24494 -3.84889 -4.24494 -4.03819C-4.24494 -4.04815 -4.24494 -4.14777 -4.37445 -4.14777C-4.67333 -4.14777 -5.0021 -4.11789 -5.31094 -4.11789C-5.67956 -4.11789 -6.05814 -4.14777 -6.4168 -4.14777C-6.47657 -4.14777 -6.60609 -4.14777 -6.60609 -3.94852C-6.60609 -3.87878 -6.55627 -3.84889 -6.48653 -3.83893C-6.39687 -3.82897 -6.08803 -3.80904 -6.08803 -3.53009C-6.08803 -3.39061 -6.19762 -3.2611 -6.27732 -3.17144ZM-6.27732 -3.17144" fill="black"/>
  <path d="M-3.70922 4.15109M-2.13313 -0.284277C-2.13313 -0.472571 -2.14708 -0.479545 -2.34235 -0.479545C-2.78867 -0.0401928 -3.42329 -0.0332189 -3.70922 -0.0332189L-3.70922 0.21784C-3.54185 0.21784 -3.08157 0.21784 -2.69801 0.0225718L-2.69801 3.57923C-2.69801 3.80937 -2.69801 3.90003 -3.3954 3.90003L-3.6604 3.90003L-3.6604 4.15109C-3.53487 4.14412 -2.67709 4.12319 -2.41906 4.12319C-2.20287 4.12319 -1.32416 4.14412 -1.17074 4.15109L-1.17074 3.90003L-1.43575 3.90003C-2.13313 3.90003 -2.13313 3.80937 -2.13313 3.57923ZM-2.13313 3.57923" fill="black"/>
 </g>
 <g>
  <path stroke="#a5a5a5" d="M-85.0394 -113.386L56.6929 -113.386"/>
 </g>
 <g transform="matrix(1.000000,0.000000,0.000000,1.000000,-93.543307,-113.385827)">
  <path d="M-12.4542 2.65671M-7.89127 -1.43794L-8.72813 -3.4205C-8.75802 -3.5002 -8.77794 -3.54005 -8.77794 -3.55002C-8.77794 -3.60979 -8.60858 -3.79908 -8.19015 -3.83893C-8.09052 -3.84889 -7.99089 -3.85886 -7.99089 -4.02822C-7.99089 -4.14777 -8.11044 -4.14777 -8.14033 -4.14777C-8.5488 -4.14777 -8.97719 -4.11789 -9.39563 -4.11789C-9.64469 -4.11789 -10.2624 -4.14777 -10.5114 -4.14777C-10.5712 -4.14777 -10.6908 -4.14777 -10.6908 -3.94852C-10.6908 -3.83893 -10.5911 -3.83893 -10.4616 -3.83893C-9.86387 -3.83893 -9.80409 -3.73931 -9.71443 -3.52013L-8.53884 -0.740551L-10.641 1.52097L-10.7705 1.63056C-11.2586 2.15858 -11.7269 2.31798 -12.235 2.34787C-12.3645 2.35783 -12.4542 2.35783 -12.4542 2.54712C-12.4542 2.55708 -12.4542 2.65671 -12.3246 2.65671C-12.0258 2.65671 -11.697 2.62682 -11.3882 2.62682C-11.0195 2.62682 -10.631 2.65671 -10.2723 2.65671C-10.2126 2.65671 -10.093 2.65671 -10.093 2.45746C-10.093 2.35783 -10.1926 2.34787 -10.2126 2.34787C-10.3022 2.3379 -10.6111 2.31798 -10.6111 2.03903C-10.6111 1.87962 -10.4616 1.72022 -10.3421 1.59071L-9.32589 0.514741L-8.42925 -0.461597L-7.42302 1.91947C-7.38317 2.02906 -7.37321 2.03903 -7.37321 2.05895C-7.37321 2.13865 -7.5625 2.30802 -7.95104 2.34787C-8.06063 2.35783 -8.1503 2.36779 -8.1503 2.53716C-8.1503 2.65671 -8.04071 2.65671 -8.00086 2.65671C-7.7219 2.65671 -7.02452 2.62682 -6.74556 2.62682C-6.4965 2.62682 -5.88878 2.65671 -5.63971 2.65671C-5.56997 2.65671 -5.45042 2.65671 -5.45042 2.46742C-5.45042 2.34787 -5.55005 2.34787 -5.62975 2.34787C-6.29724 2.3379 -6.31717 2.30802 -6.48653 1.90951C-6.87508 0.982986 -7.54257 -0.571186 -7.77171 -1.16894C-7.09426 -1.86633 -6.04818 -3.05188 -5.72937 -3.33084C-5.44046 -3.56994 -5.06188 -3.80904 -4.46412 -3.83893C-4.3346 -3.84889 -4.24494 -3.84889 -4.24494 -4.03819C-4.24494 -4.04815 -4.24494 -4.14777 -4.37445 -4.14777C-4.67333 -4.14777 -5.0021 -4.11789 -5.31094 -4.11789C-5.67956 -4.11789 -6.05814 -4.14777 -6.4168 -4.14777C-6.47657 -4.14777 -6.60609 -4.14777 -6.60609 -3.94852C-6.60609 -3.87878 -6.55627 -3.84889 -6.48653 -3.83893C-6.39687 -3.82897 -6.08803 -3.80904 -6.08803 -3.53009C-6.08803 -3.39061 -6.19762 -3.2611 -6.27732 -3.17144ZM-6.27732 -3.17144" fill="black"/>
  <path d="M-4.03002 4.15109M-0.947576 2.88185L-1.18469 2.88185C-1.20561 3.03527 -1.27535 3.44673 -1.36601 3.51647C-1.4218 3.55831 -1.95878 3.55831 -2.05642 3.55831L-3.33961 3.55831C-2.60735 2.90974 -2.36327 2.71448 -1.94484 2.38671C-1.42877 1.97525 -0.947576 1.54287 -0.947576 0.880355C-0.947576 0.0365195 -1.6868 -0.479545 -2.57946 -0.479545C-3.44421 -0.479545 -4.03002 0.12718 -4.03002 0.768774C-4.03002 1.12444 -3.73014 1.15931 -3.6604 1.15931C-3.49303 1.15931 -3.29079 1.04075 -3.29079 0.789695C-3.29079 0.664166 -3.33961 0.420081 -3.70225 0.420081C-3.48606 -0.075062 -3.01184 -0.228487 -2.68406 -0.228487C-1.98668 -0.228487 -1.62404 0.315473 -1.62404 0.880355C-1.62404 1.48708 -2.05642 1.96828 -2.27958 2.21933L-3.96028 3.87911C-4.03002 3.94187 -4.03002 3.95582 -4.03002 4.15109L-1.15679 4.15109ZM-1.15679 4.15109" fill="black"/>
 </g>
 <g stroke-width="0.801759">
  <path stroke="#090" d="M-28.3465 -56.6929L-49.0404 -15.305"/>
  <g stroke-linecap="butt" stroke-dasharray="none">
   <path d="M-46.4909 -15.2698L-51.0236 -11.3386L-50.5983 -17.3235L-49.0404 -15.305Z" fill="#090"/>
  </g>
 </g>
 <g stroke-width="0.801759">
  <path stroke="#090" d="M-28.3465 -56.6929L-56.6929 -0"/>
 </g>
 <g stroke-width="0.801759">
  <path stroke="#090" d="M28.3465 -56.6929L-13.8721 -14.4743"/>
  <g stroke-linecap="butt" stroke-dasharray="none">
   <path d="M-11.4646 -13.6347L-17.0079 -11.3386L-14.7118 -16.8819L-13.8721 -14.4743Z" fill="#090"/>
  </g>
 </g>
 <g stroke-width="0.801759">
  <path stroke="#090" d="M28.3465 -56.6929L-28.3465 -0"/>
 </g>
 <g stroke-width="0.801759">
  <path stroke="#090" d="M-56.6929 -56.6929L-35.999 -15.305"/>
  <g stroke-linecap="butt" stroke-dasharray="none">
   <path d="M-34.4411 -17.3235L-34.0157 -11.3386L-38.5485 -15.2698L-35.999 -15.305Z" fill="#090"/>
  </g>
 </g>
 <g stroke-width="0.801759">
  <path stroke="#090" d="M-56.6929 -56.6929L-28.3465 -0"/>
 </g>
 <g stroke-width="0.801759">
  <path stroke="#090" d="M56.6929 -56.6929L14.4743 -14.4743"/>
  <g stroke-linecap="butt" stroke-dasharray="none">
   <path d="M16.8819 -13.6347L11.3386 -11.3386L13.6347 -16.8819L14.4743 -14.4743Z" fill="#090"/>
  </g>
 </g>
 <g stroke-width="0.801759">
  <path stroke="#090" d="M56.6929 -56.6929L0 -0"/>
 </g>
 <g stroke-width="0.801759">
  <path stroke="#090" d="M0 -56.6929L0 -15.7732"/>
  <g stroke-linecap="butt" stroke-dasharray="none">
   <path d="M2.2961 -16.8819L0 -11.3386L-2.2961 -16.8819L0 -15.7732Z" fill="#090"/>
  </g>
 </g>
 <g stroke-width="0.801759">
  <path stroke="#090" d="M0 -56.6929L0 -0"/>
 </g>
 <g stroke-width="0.801759">
  <path stroke="#090" d="M-28.3465 -56.6929L13.8721 -14.4743"/>
  <g stroke-linecap="butt" stroke-dasharray="none">
   <path d="M14.7118 -16.8819L17.0079 -11.3386L11.4646 -13.6347L13.8721 -14.4743Z" fill="#090"/>
  </g>
 </g>
 <g stroke-width="0.801759">
  <path stroke="#090" d="M-28.3465 -56.6929L28.3465 -0"/>
 </g>
 <g stroke-width="0.801759">
  <path stroke="#090" d="M56.6929 -56.6929L35.999 -15.305"/>
  <g stroke-linecap="butt" stroke-dasharray="none">
   <path d="M38.5485 -15.2698L34.0157 -11.3386L34.4411 -17.3235L35.999 -15.305Z" fill="#090"/>
  </g>
 </g>
 <g stroke-width="0.801759">
  <path stroke="#090" d="M56.6929 -56.6929L28.3465 -0"/>
 </g>
 <g stroke-width="0.801759">
  <path stroke="#090" d="M-85.0394 -56.6929L-20.6977 -13.7985"/>
  <g stroke-linecap="butt" stroke-dasharray="none">
   <path d="M-20.3465 -16.3239L-17.0079 -11.3386L-22.8938 -12.503L-20.6977 -13.7985Z" fill="#090"/>
  </g>
 </g>
 <g stroke-width="0.801759">
  <path stroke="#090" d="M-85.0394 -56.6929L0 -0"/>
 </g>
 <g stroke-width="0.801759">
  <path stroke="#090" d="M-56.6929 -56.6929L-56.6929 -15.7732"/>
  <g stroke-linecap="butt" stroke-dasharray="none">
   <path d="M-54.3968 -16.8819L-56.6929 -11.3386L-58.989 -16.8819L-56.6929 -15.7732Z" fill="#090"/>
  </g>
 </g>
 <g stroke-width="0.801759">
  <path stroke="#090" d="M-56.6929 -56.6929L-56.6929 -0"/>
 </g>
 <g stroke-width="0.801759">
  <path stroke="#f36b08" d="M-56.6929 -0L-77.3869 -41.3879"/>
  <g stroke-linecap="butt" stroke-dasharray="none">
   <path d="M-78.9447 -39.3694L-79.3701 -45.3543L-74.8374 -41.4231L-77.3869 -41.3879Z" fill="#f36b08"/>
  </g>
 </g>
 <g stroke-width="0.801759">
  <path stroke="#f36b08" d="M-56.6929 -0L-85.0394 -56.6929"/>
 </g>
 <g stroke-width="0.801759">
  <path stroke="#f36b08" d="M-28.3465 -0L-7.65251 -41.3879"/>
  <g stroke-linecap="butt" stroke-dasharray="none">
   <path d="M-10.202 -41.4231L-5.66929 -45.3543L-6.09463 -39.3694L-7.65251 -41.3879Z" fill="#f36b08"/>
  </g>
 </g>
 <g stroke-width="0.801759">
  <path stroke="#f36b08" d="M-28.3465 -0L0 -56.6929"/>
 </g>
 <g stroke-width="0.801759">
  <path stroke="#f36b08" d="M28.3465 -0L28.3465 -40.9197"/>
  <g stroke-linecap="butt" stroke-dasharray="none">
   <path d="M26.0504 -39.8111L28.3465 -45.3543L30.6426 -39.8111L28.3465 -40.9197Z" fill="#f36b08"/>
  </g>
 </g>
 <g stroke-width="0.801759">
  <path stroke="#f36b08" d="M28.3465 -0L28.3465 -56.6929"/>
 </g>
 <g stroke-width="0.801759">
  <path stroke="#090" d="M0 -113.386L-20.6939 -71.9979"/>
  <g stroke-linecap="butt" stroke-dasharray="none">
   <path d="M-18.1444 -71.9627L-22.6772 -68.0315L-22.2518 -74.0164L-20.6939 -71.9979Z" fill="#090"/>
  </g>
 </g>
 <g stroke-width="0.801759">
  <path stroke="#090" d="M0 -113.386L-28.3465 -56.6929"/>
 </g>
 <g stroke-width="0.801759">
  <path stroke="#090" d="M-28.3465 -113.386L-7.65251 -71.9979"/>
  <g stroke-linecap="butt" stroke-dasharray="none">
   <path d="M-6.09463 -74.0164L-5.66929 -68.0315L-10.202 -71.9627L-7.65251 -71.9979Z" fill="#090"/>
  </g>
 </g>
 <g stroke-width="0.801759">
  <path stroke="#090" d="M-28.3465 -113.386L0 -56.6929"/>
 </g>
 <g stroke-width="0.801759">
  <path stroke="#090" d="M28.3465 -113.386L28.3465 -72.4661"/>
  <g stroke-linecap="butt" stroke-dasharray="none">
   <path d="M30.6426 -73.5748L28.3465 -68.0315L26.0504 -73.5748L28.3465 -72.4661Z" fill="#090"/>
  </g>
 </g>
 <g stroke-width="0.801759">
  <path stroke="#090" d="M28.3465 -113.386L28.3465 -56.6929"/>
 </g>
 <g stroke-width="0.801759">
  <path stroke="#090" d="M28.3465 -113.386L7.65251 -71.9979"/>
  <g stroke-linecap="butt" stroke-dasharray="none">
   <path d="M10.202 -71.9627L5.66929 -68.0315L6.09463 -74.0164L7.65251 -71.9979Z" fill="#090"/>
  </g>
 </g>
 <g stroke-width="0.801759">
  <path stroke="#090" d="M28.3465 -113.386L0 -56.6929"/>
 </g>
 <g stroke-width="0.801759">
  <path stroke="#090" d="M0 -113.386L20.6939 -71.9979"/>
  <g stroke-linecap="butt" stroke-dasharray="none">
   <path d="M22.2518 -74.0164L22.6772 -68.0315L18.1444 -71.9627L20.6939 -71.9979Z" fill="#090"/>
  </g>
 </g>
 <g stroke-width="0.801759">
  <path stroke="#090" d="M0 -113.386L28.3465 -56.6929"/>
 </g>
 <g stroke-width="0.801759">
  <path stroke="#090" d="M-28.3465 -113.386L-70.565 -71.1672"/>
  <g stroke-linecap="butt" stroke-dasharray="none">
   <path d="M-68.1575 -70.3276L-73.7008 -68.0315L-71.4047 -73.5748L-70.565 -71.1672Z" fill="#090"/>
  </g>
 </g>
 <g stroke-width="0.801759">
  <path stroke="#090" d="M-28.3465 -113.386L-85.0394 -56.6929"/>
 </g>
 <g stroke-width="0.801759">
  <path stroke="#090" d="M-56.6929 -113.386L-77.3869 -71.9979"/>
  <g stroke-linecap="butt" stroke-dasharray="none">
   <path d="M-74.8374 -71.9627L-79.3701 -68.0315L-78.9447 -74.0164L-77.3869 -71.9979Z" fill="#090"/>
  </g>
 </g>
 <g stroke-width="0.801759">
  <path stroke="#090" d="M-56.6929 -113.386L-85.0394 -56.6929"/>
 </g>
 <g stroke-width="0.801759">
  <path stroke="#090" d="M-56.6929 -113.386L30.0493 -70.0147"/>
  <g stroke-linecap="butt" stroke-dasharray="none">
   <path d="M30.0845 -72.5642L34.0157 -68.0315L28.0308 -68.4568L30.0493 -70.0147Z" fill="#090"/>
  </g>
 </g>
 <g stroke-width="0.801759">
  <path stroke="#090" d="M-56.6929 -113.386L56.6929 -56.6929"/>
 </g>
 <g stroke-width="0.801759">
  <path stroke="#090" d="M0 -113.386L-42.2186 -71.1672"/>
  <g stroke-linecap="butt" stroke-dasharray="none">
   <path d="M-39.8111 -70.3276L-45.3543 -68.0315L-43.0582 -73.5748L-42.2186 -71.1672Z" fill="#090"/>
  </g>
 </g>
 <g stroke-width="0.801759">
  <path stroke="#090" d="M0 -113.386L-56.6929 -56.6929"/>
 </g>
 <g stroke-width="0.801759">
  <path stroke="#f36b08" d="M-28.3465 -56.6929L-49.0404 -98.0808"/>
  <g stroke-linecap="butt" stroke-dasharray="none">
   <path d="M-50.5983 -96.0623L-51.0236 -102.047L-46.4909 -98.116L-49.0404 -98.0808Z" fill="#f36b08"/>
  </g>
 </g>
 <g stroke-width="0.801759">
  <path stroke="#f36b08" d="M-28.3465 -56.6929L-56.6929 -113.386"/>
 </g>
 <g stroke-width="0.801759">
  <path stroke="#f36b08" d="M56.6929 -56.6929L35.999 -98.0808"/>
  <g stroke-linecap="butt" stroke-dasharray="none">
   <path d="M34.4411 -96.0623L34.0157 -102.047L38.5485 -98.116L35.999 -98.0808Z" fill="#f36b08"/>
  </g>
 </g>
 <g stroke-width="0.801759">
  <path stroke="#f36b08" d="M56.6929 -56.6929L28.3465 -113.386"/>
 </g>
 <g stroke-width="0.801759">
  <path stroke="#f36b08" d="M-56.6929 -56.6929L-35.999 -98.0808"/>
  <g stroke-linecap="butt" stroke-dasharray="none">
   <path d="M-38.5485 -98.116L-34.0157 -102.047L-34.4411 -96.0623L-35.999 -98.0808Z" fill="#f36b08"/>
  </g>
 </g>
 <g stroke-width="0.801759">
  <path stroke="#f36b08" d="M-56.6929 -56.6929L-28.3465 -113.386"/>
 </g>
 <g>
  <path d="M3.40157 -113.386L3.40157 -113.392A3.40157 3.40157 0 0 0 -3.40157 -113.386A3.40157 3.40157 0 0 0 3.40157 -113.38Z" fill="#fff"/>
 </g>
 <g stroke-width="0.801759">
  <path stroke="#ff1919" d="M3.40157 -113.386L3.40157 -113.392A3.40157 3.40157 0 0 0 -3.40157 -113.386A3.40157 3.40157 0 0 0 3.40157 -113.38Z"/>
 </g>
 <path d="M1.70079 -113.386L1.70078 -113.389A1.70079 1.70079 0 0 0 -1.70079 -113.386A1.70079 1.70079 0 0 0 1.70078 -113.383Z" fill="black"/>
 <g transform="matrix(1.000000,0.000000,0.000000,1.000000,0.000000,-118.488189)">
  <path d="M-4.14545 -1.93718M-1.01718 -5.92223L-0.160393 -5.92223C0.03886 -5.92223 0.138486 -5.92223 0.138486 -6.12149C0.138486 -6.23108 0.03886 -6.23108 -0.130505 -6.23108L-0.957404 -6.23108L-0.748189 -7.36682C-0.708338 -7.57603 -0.568861 -8.28338 -0.509085 -8.40293C-0.419421 -8.59222 -0.250057 -8.74166 -0.0408411 -8.74166C-0.000990548 -8.74166 0.258038 -8.74166 0.447328 -8.56233C0.00897209 -8.52248 -0.0906543 -8.17379 -0.0906543 -8.02435C-0.0906543 -7.79521 0.0886732 -7.67566 0.277963 -7.67566C0.536992 -7.67566 0.825909 -7.89484 0.825909 -8.27342C0.825909 -8.7317 0.367627 -8.96084 -0.0408411 -8.96084C-0.379571 -8.96084 -1.00722 -8.78151 -1.3061 -7.79521C-1.36587 -7.586 -1.39576 -7.48637 -1.63486 -6.23108L-2.32229 -6.23108C-2.51158 -6.23108 -2.62116 -6.23108 -2.62116 -6.04179C-2.62116 -5.92223 -2.5315 -5.92223 -2.34221 -5.92223L-1.68468 -5.92223L-2.43187 -1.98699C-2.6112 -1.02062 -2.78057 -0.114015 -3.29862 -0.114015C-3.33847 -0.114015 -3.58754 -0.114015 -3.77683 -0.293343C-3.31855 -0.323231 -3.22889 -0.681886 -3.22889 -0.831325C-3.22889 -1.06047 -3.40821 -1.18002 -3.5975 -1.18002C-3.85653 -1.18002 -4.14545 -0.96084 -4.14545 -0.582259C-4.14545 -0.13394 -3.70709 0.105163 -3.29862 0.105163C-2.75068 0.105163 -2.35217 -0.482633 -2.17285 -0.861213C-1.85404 -1.48886 -1.6249 -2.69434 -1.61494 -2.76408ZM-1.61494 -2.76408" fill="black"/>
  <path d="M0.580687 -0.442798M2.10796 -2.77206C2.65192 -2.77206 3.04246 -2.39547 3.04246 -1.64927C3.04246 -0.784516 2.54034 -0.526484 2.13586 -0.526484C1.8569 -0.526484 1.2432 -0.603196 0.950301 -1.01465C1.27807 -1.0286 1.35478 -1.25874 1.35478 -1.40519C1.35478 -1.62835 1.18741 -1.78875 0.971222 -1.78875C0.775955 -1.78875 0.580687 -1.67019 0.580687 -1.38427C0.580687 -0.728725 1.30597 -0.303321 2.1498 -0.303321C3.11917 -0.303321 3.78866 -0.951888 3.78866 -1.64927C3.78866 -2.19323 3.34233 -2.73719 2.57521 -2.89759C3.30746 -3.1626 3.57247 -3.68564 3.57247 -4.11104C3.57247 -4.66198 2.93785 -5.07343 2.16375 -5.07343C1.38965 -5.07343 0.796876 -4.69684 0.796876 -4.13894C0.796876 -3.90183 0.950301 -3.76932 1.15952 -3.76932C1.37571 -3.76932 1.51518 -3.92972 1.51518 -4.12499C1.51518 -4.32723 1.37571 -4.47368 1.15952 -4.48763C1.4036 -4.79448 1.8848 -4.87119 2.14283 -4.87119C2.45665 -4.87119 2.896 -4.71777 2.896 -4.11104C2.896 -3.81814 2.79837 -3.49734 2.61705 -3.28115C2.38691 -3.01615 2.19165 -3.0022 1.84295 -2.98128C1.66861 -2.96733 1.65466 -2.96733 1.61979 -2.96036C1.60584 -2.96036 1.55005 -2.94641 1.55005 -2.8697C1.55005 -2.77206 1.61282 -2.77206 1.73137 -2.77206ZM1.73137 -2.77206" fill="black"/>
 </g>
 <g>
  <path d="M-24.9449 -56.6929L-24.9449 -56.6989A3.40157 3.40157 0 0 0 -31.748 -56.6929A3.40157 3.40157 0 0 0 -24.9449 -56.687Z" fill="#fff"/>
 </g>
 <path d="M-26.6457 -56.6929L-26.6457 -56.6959A1.70079 1.70079 0 0 0 -30.0472 -56.6929A1.70079 1.70079 0 0 0 -26.6457 -56.6899Z" fill="black"/>
 <g transform="matrix(1.000000,0.000000,0.000000,1.000000,-23.244094,-54.992126)">
  <path d="M0.458281 4.28946M1.86301 1.98809C2.15193 1.98809 2.88917 1.96816 3.3873 1.75895C4.08468 1.46007 4.1345 0.872271 4.1345 0.732794C4.1345 0.294438 3.75592 -0.11403 3.06849 -0.11403C1.96264 -0.11403 0.458281 0.852346 0.458281 2.59581C0.458281 3.612 1.04608 4.39905 2.02242 4.39905C3.44707 4.39905 4.28394 3.34301 4.28394 3.22345C4.28394 3.16368 4.22416 3.09394 4.16438 3.09394C4.11457 3.09394 4.09465 3.11386 4.03487 3.19357C3.24782 4.17987 2.16189 4.17987 2.04234 4.17987C1.26526 4.17987 1.17559 3.34301 1.17559 3.0242C1.17559 2.90465 1.18555 2.59581 1.33499 1.98809ZM1.33499 1.98809M1.39477 1.76891C1.78331 0.254587 2.80946 0.105148 3.06849 0.105148C3.53674 0.105148 3.80573 0.394064 3.80573 0.732794C3.80573 1.76891 2.21171 1.76891 1.80324 1.76891ZM1.80324 1.76891" fill="black"/>
  <path d="M5.01546 5.78384M6.54273 3.45457C7.08669 3.45457 7.47723 3.83116 7.47723 4.57736C7.47723 5.44212 6.97511 5.70015 6.57063 5.70015C6.29167 5.70015 5.67797 5.62344 5.38507 5.21198C5.71284 5.19803 5.78955 4.9679 5.78955 4.82145C5.78955 4.59828 5.62218 4.43788 5.40599 4.43788C5.21073 4.43788 5.01546 4.55644 5.01546 4.84237C5.01546 5.49791 5.74074 5.92331 6.58457 5.92331C7.55394 5.92331 8.22343 5.27475 8.22343 4.57736C8.22343 4.0334 7.7771 3.48944 7.00998 3.32904C7.74223 3.06404 8.00724 2.541 8.00724 2.11559C8.00724 1.56466 7.37262 1.1532 6.59852 1.1532C5.82442 1.1532 5.23165 1.52979 5.23165 2.0877C5.23165 2.32481 5.38507 2.45731 5.59429 2.45731C5.81048 2.45731 5.94995 2.29691 5.94995 2.10165C5.94995 1.8994 5.81048 1.75295 5.59429 1.73901C5.83837 1.43216 6.31957 1.35544 6.5776 1.35544C6.89142 1.35544 7.33077 1.50887 7.33077 2.11559C7.33077 2.40849 7.23314 2.72929 7.05182 2.94548C6.82168 3.21049 6.62642 3.22444 6.27772 3.24536C6.10338 3.2593 6.08943 3.2593 6.05456 3.26628C6.04061 3.26628 5.98482 3.28023 5.98482 3.35694C5.98482 3.45457 6.04759 3.45457 6.16614 3.45457ZM6.16614 3.45457" fill="black"/>
 </g>
 <g>
  <path d="M-53.2913 -56.6929L-53.2913 -56.6989A3.40157 3.40157 0 0 0 -60.0945 -56.6929A3.40157 3.40157 0 0 0 -53.2913 -56.687Z" fill="#fff"/>
 </g>
 <path d="M-54.9921 -56.6929L-54.9921 -56.6959A1.70079 1.70079 0 0 0 -58.3937 -56.6929A1.70079 1.70079 0 0 0 -54.9921 -56.6899Z" fill="black"/>
 <g transform="matrix(1.000000,0.000000,0.000000,1.000000,-51.590551,-54.992126)">
  <path d="M0.458281 4.28946M1.86301 1.98809C2.15193 1.98809 2.88917 1.96816 3.3873 1.75895C4.08468 1.46007 4.1345 0.872271 4.1345 0.732794C4.1345 0.294438 3.75592 -0.11403 3.06849 -0.11403C1.96264 -0.11403 0.458281 0.852346 0.458281 2.59581C0.458281 3.612 1.04608 4.39905 2.02242 4.39905C3.44707 4.39905 4.28394 3.34301 4.28394 3.22345C4.28394 3.16368 4.22416 3.09394 4.16438 3.09394C4.11457 3.09394 4.09465 3.11386 4.03487 3.19357C3.24782 4.17987 2.16189 4.17987 2.04234 4.17987C1.26526 4.17987 1.17559 3.34301 1.17559 3.0242C1.17559 2.90465 1.18555 2.59581 1.33499 1.98809ZM1.33499 1.98809M1.39477 1.76891C1.78331 0.254587 2.80946 0.105148 3.06849 0.105148C3.53674 0.105148 3.80573 0.394064 3.80573 0.732794C3.80573 1.76891 2.21171 1.76891 1.80324 1.76891ZM1.80324 1.76891" fill="black"/>
  <path d="M5.07822 5.78384M8.16066 4.5146L7.92355 4.5146C7.90263 4.66802 7.83289 5.07948 7.74223 5.14922C7.68644 5.19106 7.14945 5.19106 7.05182 5.19106L5.76863 5.19106C6.50089 4.54249 6.74497 4.34722 7.1634 4.01945C7.67947 3.608 8.16066 3.17562 8.16066 2.5131C8.16066 1.66927 7.42143 1.1532 6.52878 1.1532C5.66403 1.1532 5.07822 1.75993 5.07822 2.40152C5.07822 2.75719 5.3781 2.79206 5.44784 2.79206C5.61521 2.79206 5.81745 2.6735 5.81745 2.42244C5.81745 2.29691 5.76863 2.05283 5.40599 2.05283C5.62218 1.55769 6.0964 1.40426 6.42417 1.40426C7.12156 1.40426 7.4842 1.94822 7.4842 2.5131C7.4842 3.11983 7.05182 3.60102 6.82866 3.85208L5.14796 5.51186C5.07822 5.57462 5.07822 5.58857 5.07822 5.78384L7.95145 5.78384ZM7.95145 5.78384" fill="black"/>
 </g>
 <g>
  <path d="M31.748 -113.386L31.748 -113.392A3.40157 3.40157 0 0 0 24.9449 -113.386A3.40157 3.40157 0 0 0 31.748 -113.38Z" fill="#fff"/>
 </g>
 <path d="M30.0472 -113.386L30.0472 -113.389A1.70079 1.70079 0 0 0 26.6457 -113.386A1.70079 1.70079 0 0 0 30.0472 -113.383Z" fill="black"/>
 <g transform="matrix(1.000000,0.000000,0.000000,1.000000,28.346457,-118.488189)">
  <path d="M-4.14545 -1.93718M-1.01718 -5.92223L-0.160393 -5.92223C0.03886 -5.92223 0.138486 -5.92223 0.138486 -6.12149C0.138486 -6.23108 0.03886 -6.23108 -0.130505 -6.23108L-0.957404 -6.23108L-0.748189 -7.36682C-0.708338 -7.57603 -0.568861 -8.28338 -0.509085 -8.40293C-0.419421 -8.59222 -0.250057 -8.74166 -0.0408411 -8.74166C-0.000990548 -8.74166 0.258038 -8.74166 0.447328 -8.56233C0.00897209 -8.52248 -0.0906543 -8.17379 -0.0906543 -8.02435C-0.0906543 -7.79521 0.0886732 -7.67566 0.277963 -7.67566C0.536992 -7.67566 0.825909 -7.89484 0.825909 -8.27342C0.825909 -8.7317 0.367627 -8.96084 -0.0408411 -8.96084C-0.379571 -8.96084 -1.00722 -8.78151 -1.3061 -7.79521C-1.36587 -7.586 -1.39576 -7.48637 -1.63486 -6.23108L-2.32229 -6.23108C-2.51158 -6.23108 -2.62116 -6.23108 -2.62116 -6.04179C-2.62116 -5.92223 -2.5315 -5.92223 -2.34221 -5.92223L-1.68468 -5.92223L-2.43187 -1.98699C-2.6112 -1.02062 -2.78057 -0.114015 -3.29862 -0.114015C-3.33847 -0.114015 -3.58754 -0.114015 -3.77683 -0.293343C-3.31855 -0.323231 -3.22889 -0.681886 -3.22889 -0.831325C-3.22889 -1.06047 -3.40821 -1.18002 -3.5975 -1.18002C-3.85653 -1.18002 -4.14545 -0.96084 -4.14545 -0.582259C-4.14545 -0.13394 -3.70709 0.105163 -3.29862 0.105163C-2.75068 0.105163 -2.35217 -0.482633 -2.17285 -0.861213C-1.85404 -1.48886 -1.6249 -2.69434 -1.61494 -2.76408ZM-1.61494 -2.76408" fill="black"/>
  <path d="M0.476079 -0.442798M3.89326 -1.58651L3.89326 -1.83757L3.11917 -1.83757L3.11917 -4.9479C3.11917 -5.09435 3.11917 -5.14317 2.96574 -5.14317C2.88206 -5.14317 2.85416 -5.14317 2.78442 -5.04554L0.476079 -1.83757L0.476079 -1.58651L2.52639 -1.58651L2.52639 -1.01465C2.52639 -0.777542 2.52639 -0.693856 1.96151 -0.693856L1.77321 -0.693856L1.77321 -0.442798C2.12191 -0.456745 2.56823 -0.470693 2.81929 -0.470693C3.07732 -0.470693 3.52365 -0.456745 3.87234 -0.442798L3.87234 -0.693856L3.68405 -0.693856C3.11917 -0.693856 3.11917 -0.777542 3.11917 -1.01465L3.11917 -1.58651ZM3.11917 -1.58651M2.57521 -4.39L2.57521 -1.83757L0.734112 -1.83757ZM0.734112 -1.83757" fill="black"/>
 </g>
 <g>
  <path d="M-53.2913 -113.386L-53.2913 -113.392A3.40157 3.40157 0 0 0 -60.0945 -113.386A3.40157 3.40157 0 0 0 -53.2913 -113.38Z" fill="#fff"/>
 </g>
 <path d="M-54.9921 -113.386L-54.9921 -113.389A1.70079 1.70079 0 0 0 -58.3937 -113.386A1.70079 1.70079 0 0 0 -54.9921 -113.383Z" fill="black"/>
 <g transform="matrix(1.000000,0.000000,0.000000,1.000000,-56.692913,-118.488189)">
  <path d="M-4.14545 -1.93718M-1.01718 -5.92223L-0.160393 -5.92223C0.03886 -5.92223 0.138486 -5.92223 0.138486 -6.12149C0.138486 -6.23108 0.03886 -6.23108 -0.130505 -6.23108L-0.957404 -6.23108L-0.748189 -7.36682C-0.708338 -7.57603 -0.568861 -8.28338 -0.509085 -8.40293C-0.419421 -8.59222 -0.250057 -8.74166 -0.0408411 -8.74166C-0.000990548 -8.74166 0.258038 -8.74166 0.447328 -8.56233C0.00897209 -8.52248 -0.0906543 -8.17379 -0.0906543 -8.02435C-0.0906543 -7.79521 0.0886732 -7.67566 0.277963 -7.67566C0.536992 -7.67566 0.825909 -7.89484 0.825909 -8.27342C0.825909 -8.7317 0.367627 -8.96084 -0.0408411 -8.96084C-0.379571 -8.96084 -1.00722 -8.78151 -1.3061 -7.79521C-1.36587 -7.586 -1.39576 -7.48637 -1.63486 -6.23108L-2.32229 -6.23108C-2.51158 -6.23108 -2.62116 -6.23108 -2.62116 -6.04179C-2.62116 -5.92223 -2.5315 -5.92223 -2.34221 -5.92223L-1.68468 -5.92223L-2.43187 -1.98699C-2.6112 -1.02062 -2.78057 -0.114015 -3.29862 -0.114015C-3.33847 -0.114015 -3.58754 -0.114015 -3.77683 -0.293343C-3.31855 -0.323231 -3.22889 -0.681886 -3.22889 -0.831325C-3.22889 -1.06047 -3.40821 -1.18002 -3.5975 -1.18002C-3.85653 -1.18002 -4.14545 -0.96084 -4.14545 -0.582259C-4.14545 -0.13394 -3.70709 0.105163 -3.29862 0.105163C-2.75068 0.105163 -2.35217 -0.482633 -2.17285 -0.861213C-1.85404 -1.48886 -1.6249 -2.69434 -1.61494 -2.76408ZM-1.61494 -2.76408" fill="black"/>
  <path d="M0.964249 -0.442798M2.54034 -4.87816C2.54034 -5.06646 2.52639 -5.07343 2.33112 -5.07343C1.8848 -4.63408 1.25018 -4.62711 0.964249 -4.62711L0.964249 -4.37605C1.13162 -4.37605 1.59189 -4.37605 1.97546 -4.57132L1.97546 -1.01465C1.97546 -0.784516 1.97546 -0.693856 1.27807 -0.693856L1.01307 -0.693856L1.01307 -0.442798C1.13859 -0.449771 1.99638 -0.470693 2.25441 -0.470693C2.4706 -0.470693 3.3493 -0.449771 3.50273 -0.442798L3.50273 -0.693856L3.23772 -0.693856C2.54034 -0.693856 2.54034 -0.784516 2.54034 -1.01465ZM2.54034 -1.01465" fill="black"/>
 </g>
 <g>
  <path d="M60.0945 -56.6929L60.0945 -56.6989A3.40157 3.40157 0 0 0 53.2913 -56.6929A3.40157 3.40157 0 0 0 60.0945 -56.687Z" fill="#fff"/>
 </g>
 <path d="M58.3937 -56.6929L58.3937 -56.6959A1.70079 1.70079 0 0 0 54.9921 -56.6929A1.70079 1.70079 0 0 0 58.3937 -56.6899Z" fill="black"/>
 <g transform="matrix(1.000000,0.000000,0.000000,1.000000,61.795276,-54.992126)">
  <path d="M0.458281 4.28946M1.86301 1.98809C2.15193 1.98809 2.88917 1.96816 3.3873 1.75895C4.08468 1.46007 4.1345 0.872271 4.1345 0.732794C4.1345 0.294438 3.75592 -0.11403 3.06849 -0.11403C1.96264 -0.11403 0.458281 0.852346 0.458281 2.59581C0.458281 3.612 1.04608 4.39905 2.02242 4.39905C3.44707 4.39905 4.28394 3.34301 4.28394 3.22345C4.28394 3.16368 4.22416 3.09394 4.16438 3.09394C4.11457 3.09394 4.09465 3.11386 4.03487 3.19357C3.24782 4.17987 2.16189 4.17987 2.04234 4.17987C1.26526 4.17987 1.17559 3.34301 1.17559 3.0242C1.17559 2.90465 1.18555 2.59581 1.33499 1.98809ZM1.33499 1.98809M1.39477 1.76891C1.78331 0.254587 2.80946 0.105148 3.06849 0.105148C3.53674 0.105148 3.80573 0.394064 3.80573 0.732794C3.80573 1.76891 2.21171 1.76891 1.80324 1.76891ZM1.80324 1.76891" fill="black"/>
  <path d="M5.01546 5.78384M5.68495 3.50339C5.68495 2.93153 5.73376 2.41547 5.99877 1.99006C6.23588 1.61348 6.61247 1.35544 7.05879 1.35544C7.26801 1.35544 7.54696 1.41123 7.68644 1.59953C7.51209 1.61348 7.36564 1.73203 7.36564 1.93427C7.36564 2.10862 7.4842 2.26204 7.69341 2.26204C7.90263 2.26204 8.02816 2.12257 8.02816 1.92033C8.02816 1.51584 7.73526 1.1532 7.04485 1.1532C6.04061 1.1532 5.01546 2.07375 5.01546 3.57313C5.01546 5.37935 5.86627 5.92331 6.63339 5.92331C7.4842 5.92331 8.22343 5.27475 8.22343 4.36117C8.22343 3.47549 7.51907 2.81995 6.70313 2.81995C6.14522 2.81995 5.83837 3.18957 5.68495 3.50339ZM5.68495 3.50339M6.63339 5.70015C6.2847 5.70015 6.01272 5.49791 5.86627 5.19106C5.76166 4.98184 5.70587 4.63315 5.70587 4.21472C5.70587 3.53826 6.11035 3.01522 6.66826 3.01522C6.98906 3.01522 7.20525 3.14075 7.37959 3.39878C7.54696 3.66379 7.55394 3.95669 7.55394 4.36117C7.55394 4.75868 7.55394 5.05158 7.36564 5.32356C7.19827 5.56765 6.97511 5.70015 6.63339 5.70015ZM6.63339 5.70015" fill="black"/>
 </g>
 <g>
  <path d="M-53.2913 -0L-53.2913 -0.00593686A3.40157 3.40157 0 0 0 -60.0945 -1.92718e-15A3.40157 3.40157 0 0 0 -53.2913 0.00593686Z" fill="#fff"/>
 </g>
 <path d="M-54.9921 -0L-54.9921 -0.00296843A1.70079 1.70079 0 0 0 -58.3937 -9.63588e-16A1.70079 1.70079 0 0 0 -54.9921 0.00296843Z" fill="black"/>
 <g transform="matrix(1.000000,0.000000,0.000000,1.000000,-56.692913,5.102362)">
  <path d="M-4.36032 4.28946M0.0132785 0.583354C0.0132785 0.0453718 -0.24575 -0.11403 -0.425078 -0.11403C-0.674144 -0.11403 -0.913247 0.144998 -0.913247 0.364176C-0.913247 0.493691 -0.863434 0.553466 -0.753845 0.663056C-0.544629 0.862308 -0.415115 1.12134 -0.415115 1.47999C-0.415115 1.89842 -1.02284 4.17987 -2.18847 4.17987C-2.69656 4.17987 -2.9257 3.83118 -2.9257 3.31312C-2.9257 2.75521 -2.65671 2.02794 -2.34787 1.20104C-2.27813 1.03167 -2.22832 0.892196 -2.22832 0.702906C-2.22832 0.254587 -2.54712 -0.11403 -3.04525 -0.11403C-3.98174 -0.11403 -4.36032 1.33055 -4.36032 1.42022C-4.36032 1.51984 -4.26069 1.51984 -4.24077 1.51984C-4.14114 1.51984 -4.13118 1.49992 -4.08137 1.34052C-3.79245 0.334288 -3.36406 0.105148 -3.07514 0.105148C-2.99544 0.105148 -2.82607 0.105148 -2.82607 0.423952C-2.82607 0.673018 -2.9257 0.942009 -2.99544 1.12134C-3.4338 2.277 -3.56331 2.73528 -3.56331 3.16368C-3.56331 4.23964 -2.6866 4.39905 -2.22832 4.39905C-0.554592 4.39905 0.0132785 1.10141 0.0132785 0.583354ZM0.0132785 0.583354" fill="black"/>
  <path d="M0.940032 5.78384M2.51612 1.34847C2.51612 1.16018 2.50217 1.1532 2.30691 1.1532C1.86058 1.59255 1.22596 1.59953 0.940032 1.59953L0.940032 1.85059C1.1074 1.85059 1.56768 1.85059 1.95124 1.65532L1.95124 5.21198C1.95124 5.44212 1.95124 5.53278 1.25386 5.53278L0.988849 5.53278L0.988849 5.78384C1.11438 5.77686 1.97216 5.75594 2.23019 5.75594C2.44638 5.75594 3.32509 5.77686 3.47851 5.78384L3.47851 5.53278L3.21351 5.53278C2.51612 5.53278 2.51612 5.44212 2.51612 5.21198ZM2.51612 5.21198" fill="black"/>
 </g>
 <g>
  <path d="M3.40157 -56.6929L3.40157 -56.6989A3.40157 3.40157 0 0 0 -3.40157 -56.6929A3.40157 3.40157 0 0 0 3.40157 -56.687Z" fill="#fff"/>
 </g>
 <path d="M1.70079 -56.6929L1.70078 -56.6959A1.70079 1.70079 0 0 0 -1.70079 -56.6929A1.70079 1.70079 0 0 0 1.70078 -56.6899Z" fill="black"/>
 <g transform="matrix(1.000000,0.000000,0.000000,1.000000,5.102362,-54.992126)">
  <path d="M0.458281 4.28946M1.86301 1.98809C2.15193 1.98809 2.88917 1.96816 3.3873 1.75895C4.08468 1.46007 4.1345 0.872271 4.1345 0.732794C4.1345 0.294438 3.75592 -0.11403 3.06849 -0.11403C1.96264 -0.11403 0.458281 0.852346 0.458281 2.59581C0.458281 3.612 1.04608 4.39905 2.02242 4.39905C3.44707 4.39905 4.28394 3.34301 4.28394 3.22345C4.28394 3.16368 4.22416 3.09394 4.16438 3.09394C4.11457 3.09394 4.09465 3.11386 4.03487 3.19357C3.24782 4.17987 2.16189 4.17987 2.04234 4.17987C1.26526 4.17987 1.17559 3.34301 1.17559 3.0242C1.17559 2.90465 1.18555 2.59581 1.33499 1.98809ZM1.33499 1.98809M1.39477 1.76891C1.78331 0.254587 2.80946 0.105148 3.06849 0.105148C3.53674 0.105148 3.80573 0.394064 3.80573 0.732794C3.80573 1.76891 2.21171 1.76891 1.80324 1.76891ZM1.80324 1.76891" fill="black"/>
  <path d="M4.91085 5.78384M8.32804 4.64013L8.32804 4.38907L7.55394 4.38907L7.55394 1.27873C7.55394 1.13228 7.55394 1.08346 7.40051 1.08346C7.31683 1.08346 7.28893 1.08346 7.21919 1.1811L4.91085 4.38907L4.91085 4.64013L6.96116 4.64013L6.96116 5.21198C6.96116 5.44909 6.96116 5.53278 6.39628 5.53278L6.20799 5.53278L6.20799 5.78384C6.55668 5.76989 7.003 5.75594 7.25406 5.75594C7.51209 5.75594 7.95842 5.76989 8.30711 5.78384L8.30711 5.53278L8.11882 5.53278C7.55394 5.53278 7.55394 5.44909 7.55394 5.21198L7.55394 4.64013ZM7.55394 4.64013M7.00998 1.83664L7.00998 4.38907L5.16888 4.38907ZM5.16888 4.38907" fill="black"/>
 </g>
 <g>
  <path d="M-24.9449 -0L-24.9449 -0.00593686A3.40157 3.40157 0 0 0 -31.748 -1.92718e-15A3.40157 3.40157 0 0 0 -24.9449 0.00593686Z" fill="#fff"/>
 </g>
 <path d="M-26.6457 -0L-26.6457 -0.00296843A1.70079 1.70079 0 0 0 -30.0472 -9.63588e-16A1.70079 1.70079 0 0 0 -26.6457 0.00296843Z" fill="black"/>
 <g transform="matrix(1.000000,0.000000,0.000000,1.000000,-28.346457,5.102362)">
  <path d="M-4.36032 4.28946M0.0132785 0.583354C0.0132785 0.0453718 -0.24575 -0.11403 -0.425078 -0.11403C-0.674144 -0.11403 -0.913247 0.144998 -0.913247 0.364176C-0.913247 0.493691 -0.863434 0.553466 -0.753845 0.663056C-0.544629 0.862308 -0.415115 1.12134 -0.415115 1.47999C-0.415115 1.89842 -1.02284 4.17987 -2.18847 4.17987C-2.69656 4.17987 -2.9257 3.83118 -2.9257 3.31312C-2.9257 2.75521 -2.65671 2.02794 -2.34787 1.20104C-2.27813 1.03167 -2.22832 0.892196 -2.22832 0.702906C-2.22832 0.254587 -2.54712 -0.11403 -3.04525 -0.11403C-3.98174 -0.11403 -4.36032 1.33055 -4.36032 1.42022C-4.36032 1.51984 -4.26069 1.51984 -4.24077 1.51984C-4.14114 1.51984 -4.13118 1.49992 -4.08137 1.34052C-3.79245 0.334288 -3.36406 0.105148 -3.07514 0.105148C-2.99544 0.105148 -2.82607 0.105148 -2.82607 0.423952C-2.82607 0.673018 -2.9257 0.942009 -2.99544 1.12134C-3.4338 2.277 -3.56331 2.73528 -3.56331 3.16368C-3.56331 4.23964 -2.6866 4.39905 -2.22832 4.39905C-0.554592 4.39905 0.0132785 1.10141 0.0132785 0.583354ZM0.0132785 0.583354" fill="black"/>
  <path d="M0.619235 5.78384M3.70168 4.5146L3.46457 4.5146C3.44364 4.66802 3.37391 5.07948 3.28325 5.14922C3.22745 5.19106 2.69047 5.19106 2.59283 5.19106L1.30965 5.19106C2.0419 4.54249 2.28598 4.34722 2.70442 4.01945C3.22048 3.608 3.70168 3.17562 3.70168 2.5131C3.70168 1.66927 2.96245 1.1532 2.0698 1.1532C1.20504 1.1532 0.619235 1.75993 0.619235 2.40152C0.619235 2.75719 0.919111 2.79206 0.988849 2.79206C1.15622 2.79206 1.35846 2.6735 1.35846 2.42244C1.35846 2.29691 1.30965 2.05283 0.947006 2.05283C1.1632 1.55769 1.63742 1.40426 1.96519 1.40426C2.66257 1.40426 3.02521 1.94822 3.02521 2.5131C3.02521 3.11983 2.59283 3.60102 2.36967 3.85208L0.688974 5.51186C0.619235 5.57462 0.619235 5.58857 0.619235 5.78384L3.49246 5.78384ZM3.49246 5.78384" fill="black"/>
 </g>
 <g>
  <path d="M3.40157 -0L3.40157 -0.00593686A3.40157 3.40157 0 0 0 -3.40157 -1.92718e-15A3.40157 3.40157 0 0 0 3.40157 0.00593686Z" fill="#fff"/>
 </g>
 <g stroke-width="0.801759">
  <path stroke="#ff1919" d="M3.40157 -0L3.40157 -0.00593686A3.40157 3.40157 0 0 0 -3.40157 -1.92718e-15A3.40157 3.40157 0 0 0 3.40157 0.00593686Z"/>
 </g>
 <path d="M1.70079 -0L1.70078 -0.00296843A1.70079 1.70079 0 0 0 -1.70079 -9.63588e-16A1.70079 1.70079 0 0 0 1.70078 0.00296843Z" fill="black"/>
 <g transform="matrix(1.000000,0.000000,0.000000,1.000000,0.000000,5.102362)">
  <path d="M-4.36032 4.28946M0.0132785 0.583354C0.0132785 0.0453718 -0.24575 -0.11403 -0.425078 -0.11403C-0.674144 -0.11403 -0.913247 0.144998 -0.913247 0.364176C-0.913247 0.493691 -0.863434 0.553466 -0.753845 0.663056C-0.544629 0.862308 -0.415115 1.12134 -0.415115 1.47999C-0.415115 1.89842 -1.02284 4.17987 -2.18847 4.17987C-2.69656 4.17987 -2.9257 3.83118 -2.9257 3.31312C-2.9257 2.75521 -2.65671 2.02794 -2.34787 1.20104C-2.27813 1.03167 -2.22832 0.892196 -2.22832 0.702906C-2.22832 0.254587 -2.54712 -0.11403 -3.04525 -0.11403C-3.98174 -0.11403 -4.36032 1.33055 -4.36032 1.42022C-4.36032 1.51984 -4.26069 1.51984 -4.24077 1.51984C-4.14114 1.51984 -4.13118 1.49992 -4.08137 1.34052C-3.79245 0.334288 -3.36406 0.105148 -3.07514 0.105148C-2.99544 0.105148 -2.82607 0.105148 -2.82607 0.423952C-2.82607 0.673018 -2.9257 0.942009 -2.99544 1.12134C-3.4338 2.277 -3.56331 2.73528 -3.56331 3.16368C-3.56331 4.23964 -2.6866 4.39905 -2.22832 4.39905C-0.554592 4.39905 0.0132785 1.10141 0.0132785 0.583354ZM0.0132785 0.583354" fill="black"/>
  <path d="M0.55647 5.78384M2.08374 3.45457C2.6277 3.45457 3.01824 3.83116 3.01824 4.57736C3.01824 5.44212 2.51612 5.70015 2.11164 5.70015C1.83268 5.70015 1.21899 5.62344 0.926084 5.21198C1.25386 5.19803 1.33057 4.9679 1.33057 4.82145C1.33057 4.59828 1.1632 4.43788 0.947006 4.43788C0.751738 4.43788 0.55647 4.55644 0.55647 4.84237C0.55647 5.49791 1.28175 5.92331 2.12559 5.92331C3.09495 5.92331 3.76444 5.27475 3.76444 4.57736C3.76444 4.0334 3.31811 3.48944 2.55099 3.32904C3.28325 3.06404 3.54825 2.541 3.54825 2.11559C3.54825 1.56466 2.91363 1.1532 2.13953 1.1532C1.36544 1.1532 0.77266 1.52979 0.77266 2.0877C0.77266 2.32481 0.926084 2.45731 1.1353 2.45731C1.35149 2.45731 1.49097 2.29691 1.49097 2.10165C1.49097 1.8994 1.35149 1.75295 1.1353 1.73901C1.37938 1.43216 1.86058 1.35544 2.11861 1.35544C2.43244 1.35544 2.87179 1.50887 2.87179 2.11559C2.87179 2.40849 2.77415 2.72929 2.59283 2.94548C2.3627 3.21049 2.16743 3.22444 1.81874 3.24536C1.64439 3.2593 1.63044 3.2593 1.59557 3.26628C1.58163 3.26628 1.52584 3.28023 1.52584 3.35694C1.52584 3.45457 1.5886 3.45457 1.70716 3.45457ZM1.70716 3.45457" fill="black"/>
 </g>
 <g>
  <path d="M-24.9449 -113.386L-24.9449 -113.392A3.40157 3.40157 0 0 0 -31.748 -113.386A3.40157 3.40157 0 0 0 -24.9449 -113.38Z" fill="#fff"/>
 </g>
 <path d="M-26.6457 -113.386L-26.6457 -113.389A1.70079 1.70079 0 0 0 -30.0472 -113.386A1.70079 1.70079 0 0 0 -26.6457 -113.383Z" fill="black"/>
 <g transform="matrix(1.000000,0.000000,0.000000,1.000000,-28.346457,-118.488189)">
  <path d="M-4.14545 -1.93718M-1.01718 -5.92223L-0.160393 -5.92223C0.03886 -5.92223 0.138486 -5.92223 0.138486 -6.12149C0.138486 -6.23108 0.03886 -6.23108 -0.130505 -6.23108L-0.957404 -6.23108L-0.748189 -7.36682C-0.708338 -7.57603 -0.568861 -8.28338 -0.509085 -8.40293C-0.419421 -8.59222 -0.250057 -8.74166 -0.0408411 -8.74166C-0.000990548 -8.74166 0.258038 -8.74166 0.447328 -8.56233C0.00897209 -8.52248 -0.0906543 -8.17379 -0.0906543 -8.02435C-0.0906543 -7.79521 0.0886732 -7.67566 0.277963 -7.67566C0.536992 -7.67566 0.825909 -7.89484 0.825909 -8.27342C0.825909 -8.7317 0.367627 -8.96084 -0.0408411 -8.96084C-0.379571 -8.96084 -1.00722 -8.78151 -1.3061 -7.79521C-1.36587 -7.586 -1.39576 -7.48637 -1.63486 -6.23108L-2.32229 -6.23108C-2.51158 -6.23108 -2.62116 -6.23108 -2.62116 -6.04179C-2.62116 -5.92223 -2.5315 -5.92223 -2.34221 -5.92223L-1.68468 -5.92223L-2.43187 -1.98699C-2.6112 -1.02062 -2.78057 -0.114015 -3.29862 -0.114015C-3.33847 -0.114015 -3.58754 -0.114015 -3.77683 -0.293343C-3.31855 -0.323231 -3.22889 -0.681886 -3.22889 -0.831325C-3.22889 -1.06047 -3.40821 -1.18002 -3.5975 -1.18002C-3.85653 -1.18002 -4.14545 -0.96084 -4.14545 -0.582259C-4.14545 -0.13394 -3.70709 0.105163 -3.29862 0.105163C-2.75068 0.105163 -2.35217 -0.482633 -2.17285 -0.861213C-1.85404 -1.48886 -1.6249 -2.69434 -1.61494 -2.76408ZM-1.61494 -2.76408" fill="black"/>
  <path d="M0.643452 -0.442798M3.72589 -1.71204L3.48878 -1.71204C3.46786 -1.55861 3.39812 -1.14716 3.30746 -1.07742C3.25167 -1.03557 2.71468 -1.03557 2.61705 -1.03557L1.33386 -1.03557C2.06612 -1.68414 2.3102 -1.87941 2.72863 -2.20718C3.2447 -2.61864 3.72589 -3.05102 3.72589 -3.71353C3.72589 -4.55737 2.98666 -5.07343 2.09401 -5.07343C1.22925 -5.07343 0.643452 -4.46671 0.643452 -3.82511C0.643452 -3.46945 0.943327 -3.43458 1.01307 -3.43458C1.18044 -3.43458 1.38268 -3.55313 1.38268 -3.80419C1.38268 -3.92972 1.33386 -4.17381 0.971222 -4.17381C1.18741 -4.66895 1.66163 -4.82237 1.9894 -4.82237C2.68679 -4.82237 3.04943 -4.27841 3.04943 -3.71353C3.04943 -3.10681 2.61705 -2.62561 2.39389 -2.37455L0.71319 -0.714778C0.643452 -0.652013 0.643452 -0.638065 0.643452 -0.442798L3.51668 -0.442798ZM3.51668 -0.442798" fill="black"/>
 </g>
 <g>
  <path d="M31.748 -56.6929L31.748 -56.6989A3.40157 3.40157 0 0 0 24.9449 -56.6929A3.40157 3.40157 0 0 0 31.748 -56.687Z" fill="#fff"/>
 </g>
 <path d="M30.0472 -56.6929L30.0472 -56.6959A1.70079 1.70079 0 0 0 26.6457 -56.6929A1.70079 1.70079 0 0 0 30.0472 -56.6899Z" fill="black"/>
 <g transform="matrix(1.000000,0.000000,0.000000,1.000000,33.448819,-54.992126)">
  <path d="M0.458281 4.28946M1.86301 1.98809C2.15193 1.98809 2.88917 1.96816 3.3873 1.75895C4.08468 1.46007 4.1345 0.872271 4.1345 0.732794C4.1345 0.294438 3.75592 -0.11403 3.06849 -0.11403C1.96264 -0.11403 0.458281 0.852346 0.458281 2.59581C0.458281 3.612 1.04608 4.39905 2.02242 4.39905C3.44707 4.39905 4.28394 3.34301 4.28394 3.22345C4.28394 3.16368 4.22416 3.09394 4.16438 3.09394C4.11457 3.09394 4.09465 3.11386 4.03487 3.19357C3.24782 4.17987 2.16189 4.17987 2.04234 4.17987C1.26526 4.17987 1.17559 3.34301 1.17559 3.0242C1.17559 2.90465 1.18555 2.59581 1.33499 1.98809ZM1.33499 1.98809M1.39477 1.76891C1.78331 0.254587 2.80946 0.105148 3.06849 0.105148C3.53674 0.105148 3.80573 0.394064 3.80573 0.732794C3.80573 1.76891 2.21171 1.76891 1.80324 1.76891ZM1.80324 1.76891" fill="black"/>
  <path d="M5.07822 5.78384M5.71982 1.89243C6.07548 1.98309 6.2847 1.98309 6.39628 1.98309C7.31683 1.98309 7.86079 1.35544 7.86079 1.25084C7.86079 1.17412 7.81197 1.1532 7.7771 1.1532C7.76315 1.1532 7.74921 1.1532 7.72131 1.17412C7.55394 1.23689 7.18432 1.37637 6.66826 1.37637C6.47299 1.37637 6.10338 1.36242 5.65008 1.18807C5.58034 1.1532 5.56639 1.1532 5.55942 1.1532C5.46876 1.1532 5.46876 1.22991 5.46876 1.3415L5.46876 3.39878C5.46876 3.51734 5.46876 3.60102 5.58034 3.60102C5.6431 3.60102 5.65008 3.58708 5.71982 3.50339C6.01969 3.11983 6.4451 3.06404 6.68918 3.06404C7.10761 3.06404 7.29591 3.39878 7.33077 3.45457C7.4563 3.68471 7.49815 3.94972 7.49815 4.3542C7.49815 4.56341 7.49815 4.97487 7.28893 5.28172C7.11459 5.53278 6.81471 5.70015 6.47299 5.70015C6.01969 5.70015 5.55244 5.44909 5.3781 4.98882C5.6431 5.00974 5.77561 4.83539 5.77561 4.6471C5.77561 4.34722 5.51757 4.29143 5.42691 4.29143C5.41297 4.29143 5.07822 4.29143 5.07822 4.66802C5.07822 5.29567 5.65008 5.92331 6.48694 5.92331C7.37959 5.92331 8.16066 5.2608 8.16066 4.38209C8.16066 3.59405 7.56091 2.86877 6.69615 2.86877C6.38931 2.86877 6.02667 2.94548 5.71982 3.21049ZM5.71982 3.21049" fill="black"/>
 </g>
 <g>
  <path d="M31.748 -0L31.748 -0.00593686A3.40157 3.40157 0 0 0 24.9449 -1.92718e-15A3.40157 3.40157 0 0 0 31.748 0.00593686Z" fill="#fff"/>
 </g>
 <path d="M30.0472 -0L30.0472 -0.00296843A1.70079 1.70079 0 0 0 26.6457 -9.63588e-16A1.70079 1.70079 0 0 0 30.0472 0.00296843Z" fill="black"/>
 <g transform="matrix(1.000000,0.000000,0.000000,1.000000,28.346457,5.102362)">
  <path d="M-4.36032 4.28946M0.0132785 0.583354C0.0132785 0.0453718 -0.24575 -0.11403 -0.425078 -0.11403C-0.674144 -0.11403 -0.913247 0.144998 -0.913247 0.364176C-0.913247 0.493691 -0.863434 0.553466 -0.753845 0.663056C-0.544629 0.862308 -0.415115 1.12134 -0.415115 1.47999C-0.415115 1.89842 -1.02284 4.17987 -2.18847 4.17987C-2.69656 4.17987 -2.9257 3.83118 -2.9257 3.31312C-2.9257 2.75521 -2.65671 2.02794 -2.34787 1.20104C-2.27813 1.03167 -2.22832 0.892196 -2.22832 0.702906C-2.22832 0.254587 -2.54712 -0.11403 -3.04525 -0.11403C-3.98174 -0.11403 -4.36032 1.33055 -4.36032 1.42022C-4.36032 1.51984 -4.26069 1.51984 -4.24077 1.51984C-4.14114 1.51984 -4.13118 1.49992 -4.08137 1.34052C-3.79245 0.334288 -3.36406 0.105148 -3.07514 0.105148C-2.99544 0.105148 -2.82607 0.105148 -2.82607 0.423952C-2.82607 0.673018 -2.9257 0.942009 -2.99544 1.12134C-3.4338 2.277 -3.56331 2.73528 -3.56331 3.16368C-3.56331 4.23964 -2.6866 4.39905 -2.22832 4.39905C-0.554592 4.39905 0.0132785 1.10141 0.0132785 0.583354ZM0.0132785 0.583354" fill="black"/>
  <path d="M0.451863 5.78384M3.86905 4.64013L3.86905 4.38907L3.09495 4.38907L3.09495 1.27873C3.09495 1.13228 3.09495 1.08346 2.94153 1.08346C2.85784 1.08346 2.82994 1.08346 2.76021 1.1811L0.451863 4.38907L0.451863 4.64013L2.50217 4.64013L2.50217 5.21198C2.50217 5.44909 2.50217 5.53278 1.93729 5.53278L1.749 5.53278L1.749 5.78384C2.09769 5.76989 2.54402 5.75594 2.79508 5.75594C3.05311 5.75594 3.49943 5.76989 3.84813 5.78384L3.84813 5.53278L3.65983 5.53278C3.09495 5.53278 3.09495 5.44909 3.09495 5.21198L3.09495 4.64013ZM3.09495 4.64013M2.55099 1.83664L2.55099 4.38907L0.709895 4.38907ZM0.709895 4.38907" fill="black"/>
 </g>
 <g>
  <path d="M-81.6378 -56.6929L-81.6378 -56.6989A3.40157 3.40157 0 0 0 -88.4409 -56.6929A3.40157 3.40157 0 0 0 -81.6378 -56.687Z" fill="#fff"/>
 </g>
 <path d="M-83.3386 -56.6929L-83.3386 -56.6959A1.70079 1.70079 0 0 0 -86.7402 -56.6929A1.70079 1.70079 0 0 0 -83.3386 -56.6899Z" fill="black"/>
 <g transform="matrix(1.000000,0.000000,0.000000,1.000000,-79.937008,-54.992126)">
  <path d="M0.458281 4.28946M1.86301 1.98809C2.15193 1.98809 2.88917 1.96816 3.3873 1.75895C4.08468 1.46007 4.1345 0.872271 4.1345 0.732794C4.1345 0.294438 3.75592 -0.11403 3.06849 -0.11403C1.96264 -0.11403 0.458281 0.852346 0.458281 2.59581C0.458281 3.612 1.04608 4.39905 2.02242 4.39905C3.44707 4.39905 4.28394 3.34301 4.28394 3.22345C4.28394 3.16368 4.22416 3.09394 4.16438 3.09394C4.11457 3.09394 4.09465 3.11386 4.03487 3.19357C3.24782 4.17987 2.16189 4.17987 2.04234 4.17987C1.26526 4.17987 1.17559 3.34301 1.17559 3.0242C1.17559 2.90465 1.18555 2.59581 1.33499 1.98809ZM1.33499 1.98809M1.39477 1.76891C1.78331 0.254587 2.80946 0.105148 3.06849 0.105148C3.53674 0.105148 3.80573 0.394064 3.80573 0.732794C3.80573 1.76891 2.21171 1.76891 1.80324 1.76891ZM1.80324 1.76891" fill="black"/>
  <path d="M5.39902 5.78384M6.97511 1.34847C6.97511 1.16018 6.96116 1.1532 6.76589 1.1532C6.31957 1.59255 5.68495 1.59953 5.39902 1.59953L5.39902 1.85059C5.56639 1.85059 6.02667 1.85059 6.41023 1.65532L6.41023 5.21198C6.41023 5.44212 6.41023 5.53278 5.71284 5.53278L5.44784 5.53278L5.44784 5.78384C5.57337 5.77686 6.43115 5.75594 6.68918 5.75594C6.90537 5.75594 7.78407 5.77686 7.9375 5.78384L7.9375 5.53278L7.67249 5.53278C6.97511 5.53278 6.97511 5.44212 6.97511 5.21198ZM6.97511 5.21198" fill="black"/>
 </g>
</svg>
