<?xml version="1.0" encoding="utf-8"?>
<svg xmlns="http://www.w3.org/2000/svg" y="-68.5791pt" version="1.1" fill="none" stroke-miterlimit="10.000000" width="197.86pt" x="-121.44pt" stroke-width="0.566929" viewBox="-121.44 -68.5791 197.86 80.4653" height="80.4653pt">
 <g>
  <path stroke="#a5a5a5" d="M-99.2126 -0L70.8661 -0"/>
 </g>
 <g transform="matrix(1.000000,0.000000,0.000000,1.000000,-107.716535,-0.000000)">
  <path fill="black" d="M-12.4542 2.65671M-7.89127 -1.43794L-8.72813 -3.4205C-8.75802 -3.5002 -8.77794 -3.54005 -8.77794 -3.55002C-8.77794 -3.60979 -8.60858 -3.79908 -8.19015 -3.83893C-8.09052 -3.84889 -7.99089 -3.85886 -7.99089 -4.02822C-7.99089 -4.14777 -8.11044 -4.14777 -8.14033 -4.14777C-8.5488 -4.14777 -8.97719 -4.11789 -9.39563 -4.11789C-9.64469 -4.11789 -10.2624 -4.14777 -10.5114 -4.14777C-10.5712 -4.14777 -10.6908 -4.14777 -10.6908 -3.94852C-10.6908 -3.83893 -10.5911 -3.83893 -10.4616 -3.83893C-9.86387 -3.83893 -9.80409 -3.73931 -9.71443 -3.52013L-8.53884 -0.740551L-10.641 1.52097L-10.7705 1.63056C-11.2586 2.15858 -11.7269 2.31798 -12.235 2.34787C-12.3645 2.35783 -12.4542 2.35783 -12.4542 2.54712C-12.4542 2.55708 -12.4542 2.65671 -12.3246 2.65671C-12.0258 2.65671 -11.697 2.62682 -11.3882 2.62682C-11.0195 2.62682 -10.631 2.65671 -10.2723 2.65671C-10.2126 2.65671 -10.093 2.65671 -10.093 2.45746C-10.093 2.35783 -10.1926 2.34787 -10.2126 2.34787C-10.3022 2.3379 -10.6111 2.31798 -10.6111 2.03903C-10.6111 1.87962 -10.4616 1.72022 -10.3421 1.59071L-9.32589 0.514741L-8.42925 -0.461597L-7.42302 1.91947C-7.38317 2.02906 -7.37321 2.03903 -7.37321 2.05895C-7.37321 2.13865 -7.5625 2.30802 -7.95104 2.34787C-8.06063 2.35783 -8.1503 2.36779 -8.1503 2.53716C-8.1503 2.65671 -8.04071 2.65671 -8.00086 2.65671C-7.7219 2.65671 -7.02452 2.62682 -6.74556 2.62682C-6.4965 2.62682 -5.88878 2.65671 -5.63971 2.65671C-5.56997 2.65671 -5.45042 2.65671 -5.45042 2.46742C-5.45042 2.34787 -5.55005 2.34787 -5.62975 2.34787C-6.29724 2.3379 -6.31717 2.30802 -6.48653 1.90951C-6.87508 0.982986 -7.54257 -0.571186 -7.77171 -1.16894C-7.09426 -1.86633 -6.04818 -3.05188 -5.72937 -3.33084C-5.44046 -3.56994 -5.06188 -3.80904 -4.46412 -3.83893C-4.3346 -3.84889 -4.24494 -3.84889 -4.24494 -4.03819C-4.24494 -4.04815 -4.24494 -4.14777 -4.37445 -4.14777C-4.67333 -4.14777 -5.0021 -4.11789 -5.31094 -4.11789C-5.67956 -4.11789 -6.05814 -4.14777 -6.4168 -4.14777C-6.47657 -4.14777 -6.60609 -4.14777 -6.60609 -3.94852C-6.60609 -3.87878 -6.55627 -3.84889 -6.48653 -3.83893C-6.39687 -3.82897 -6.08803 -3.80904 -6.08803 -3.53009C-6.08803 -3.39061 -6.19762 -3.2611 -6.27732 -3.17144ZM-6.27732 -3.17144"/>
  <path fill="black" d="M-4.10673 4.15109M-0.870864 1.92643C-0.870864 1.15931 -0.961524 0.608375 -1.28232 0.120206C-1.49851 -0.200591 -1.93089 -0.479545 -2.4888 -0.479545C-4.10673 -0.479545 -4.10673 1.42432 -4.10673 1.92643C-4.10673 2.42855 -4.10673 4.29057 -2.4888 4.29057C-0.870864 4.29057 -0.870864 2.42855 -0.870864 1.92643ZM-0.870864 1.92643M-2.4888 4.0953C-2.80959 4.0953 -3.235 3.90701 -3.37448 3.33515C-3.47211 2.92369 -3.47211 2.35184 -3.47211 1.83577C-3.47211 1.32668 -3.47211 0.796669 -3.3675 0.413107C-3.22105 -0.137827 -2.77472 -0.284277 -2.4888 -0.284277C-2.11221 -0.284277 -1.74957 -0.0541405 -1.62404 0.350343C-1.51246 0.726931 -1.50548 1.22905 -1.50548 1.83577C-1.50548 2.35184 -1.50548 2.8679 -1.59614 3.30725C-1.73562 3.94187 -2.20984 4.0953 -2.4888 4.0953ZM-2.4888 4.0953"/>
 </g>
 <g>
  <path stroke="#a5a5a5" d="M-99.2126 -56.6929L70.8661 -56.6929"/>
 </g>
 <g transform="matrix(1.000000,0.000000,0.000000,1.000000,-107.716535,-56.692913)">
  <path fill="black" d="M-12.4542 2.65671M-7.89127 -1.43794L-8.72813 -3.4205C-8.75802 -3.5002 -8.77794 -3.54005 -8.77794 -3.55002C-8.77794 -3.60979 -8.60858 -3.79908 -8.19015 -3.83893C-8.09052 -3.84889 -7.99089 -3.85886 -7.99089 -4.02822C-7.99089 -4.14777 -8.11044 -4.14777 -8.14033 -4.14777C-8.5488 -4.14777 -8.97719 -4.11789 -9.39563 -4.11789C-9.64469 -4.11789 -10.2624 -4.14777 -10.5114 -4.14777C-10.5712 -4.14777 -10.6908 -4.14777 -10.6908 -3.94852C-10.6908 -3.83893 -10.5911 -3.83893 -10.4616 -3.83893C-9.86387 -3.83893 -9.80409 -3.73931 -9.71443 -3.52013L-8.53884 -0.740551L-10.641 1.52097L-10.7705 1.63056C-11.2586 2.15858 -11.7269 2.31798 -12.235 2.34787C-12.3645 2.35783 -12.4542 2.35783 -12.4542 2.54712C-12.4542 2.55708 -12.4542 2.65671 -12.3246 2.65671C-12.0258 2.65671 -11.697 2.62682 -11.3882 2.62682C-11.0195 2.62682 -10.631 2.65671 -10.2723 2.65671C-10.2126 2.65671 -10.093 2.65671 -10.093 2.45746C-10.093 2.35783 -10.1926 2.34787 -10.2126 2.34787C-10.3022 2.3379 -10.6111 2.31798 -10.6111 2.03903C-10.6111 1.87962 -10.4616 1.72022 -10.3421 1.59071L-9.32589 0.514741L-8.42925 -0.461597L-7.42302 1.91947C-7.38317 2.02906 -7.37321 2.03903 -7.37321 2.05895C-7.37321 2.13865 -7.5625 2.30802 -7.95104 2.34787C-8.06063 2.35783 -8.1503 2.36779 -8.1503 2.53716C-8.1503 2.65671 -8.04071 2.65671 -8.00086 2.65671C-7.7219 2.65671 -7.02452 2.62682 -6.74556 2.62682C-6.4965 2.62682 -5.88878 2.65671 -5.63971 2.65671C-5.56997 2.65671 -5.45042 2.65671 -5.45042 2.46742C-5.45042 2.34787 -5.55005 2.34787 -5.62975 2.34787C-6.29724 2.3379 -6.31717 2.30802 -6.48653 1.90951C-6.87508 0.982986 -7.54257 -0.571186 -7.77171 -1.16894C-7.09426 -1.86633 -6.04818 -3.05188 -5.72937 -3.33084C-5.44046 -3.56994 -5.06188 -3.80904 -4.46412 -3.83893C-4.3346 -3.84889 -4.24494 -3.84889 -4.24494 -4.03819C-4.24494 -4.04815 -4.24494 -4.14777 -4.37445 -4.14777C-4.67333 -4.14777 -5.0021 -4.11789 -5.31094 -4.11789C-5.67956 -4.11789 -6.05814 -4.14777 -6.4168 -4.14777C-6.47657 -4.14777 -6.60609 -4.14777 -6.60609 -3.94852C-6.60609 -3.87878 -6.55627 -3.84889 -6.48653 -3.83893C-6.39687 -3.82897 -6.08803 -3.80904 -6.08803 -3.53009C-6.08803 -3.39061 -6.19762 -3.2611 -6.27732 -3.17144ZM-6.27732 -3.17144"/>
  <path fill="black" d="M-3.70922 4.15109M-2.13313 -0.284277C-2.13313 -0.472571 -2.14708 -0.479545 -2.34235 -0.479545C-2.78867 -0.0401928 -3.42329 -0.0332189 -3.70922 -0.0332189L-3.70922 0.21784C-3.54185 0.21784 -3.08157 0.21784 -2.69801 0.0225718L-2.69801 3.57923C-2.69801 3.80937 -2.69801 3.90003 -3.3954 3.90003L-3.6604 3.90003L-3.6604 4.15109C-3.53487 4.14412 -2.67709 4.12319 -2.41906 4.12319C-2.20287 4.12319 -1.32416 4.14412 -1.17074 4.15109L-1.17074 3.90003L-1.43575 3.90003C-2.13313 3.90003 -2.13313 3.80937 -2.13313 3.57923ZM-2.13313 3.57923"/>
 </g>
 <g stroke-width="0.801759">
  <path stroke="#090" d="M-70.8661 -56.6929L-81.1292 -15.6408"/>
  <g stroke-linecap="butt" stroke-dasharray="none">
   <path fill="#090" d="M-78.6327 -16.1595L-82.2047 -11.3386L-83.0878 -17.2732L-81.1292 -15.6408Z"/>
  </g>
 </g>
 <g stroke-width="0.801759">
  <path stroke="#090" d="M-70.8661 -56.6929L-85.0394 -0"/>
 </g>
 <g stroke-width="0.801759">
  <path stroke="#090" d="M-99.2126 -56.6929L-67.8576 -14.8863"/>
  <g stroke-linecap="butt" stroke-dasharray="none">
   <path fill="#090" d="M-66.6859 -17.1509L-65.1969 -11.3386L-70.3597 -14.3955L-67.8576 -14.8863Z"/>
  </g>
 </g>
 <g stroke-width="0.801759">
  <path stroke="#090" d="M-99.2126 -56.6929L-56.6929 -0"/>
 </g>
 <g stroke-width="0.801759">
  <path stroke="#090" d="M-14.1732 -56.6929L-24.4363 -15.6408"/>
  <g stroke-linecap="butt" stroke-dasharray="none">
   <path fill="#090" d="M-21.9398 -16.1595L-25.5118 -11.3386L-26.3949 -17.2732L-24.4363 -15.6408Z"/>
  </g>
 </g>
 <g stroke-width="0.801759">
  <path stroke="#090" d="M-14.1732 -56.6929L-28.3465 -0"/>
 </g>
 <g stroke-width="0.801759">
  <path stroke="#090" d="M14.1732 -56.6929L-17.1817 -14.8863"/>
  <g stroke-linecap="butt" stroke-dasharray="none">
   <path fill="#090" d="M-14.6797 -14.3955L-19.8425 -11.3386L-18.3534 -17.1509L-17.1817 -14.8863Z"/>
  </g>
 </g>
 <g stroke-width="0.801759">
  <path stroke="#090" d="M14.1732 -56.6929L-28.3465 -0"/>
 </g>
 <g stroke-width="0.801759">
  <path stroke="#090" d="M-42.5197 -56.6929L-11.1647 -14.8863"/>
  <g stroke-linecap="butt" stroke-dasharray="none">
   <path fill="#090" d="M-9.99302 -17.1509L-8.50394 -11.3386L-13.6668 -14.3955L-11.1647 -14.8863Z"/>
  </g>
 </g>
 <g stroke-width="0.801759">
  <path stroke="#090" d="M-42.5197 -56.6929L0 -0"/>
 </g>
 <g stroke-width="0.801759">
  <path stroke="#090" d="M-70.8661 -56.6929L-39.5112 -14.8863"/>
  <g stroke-linecap="butt" stroke-dasharray="none">
   <path fill="#090" d="M-38.3395 -17.1509L-36.8504 -11.3386L-42.0132 -14.3955L-39.5112 -14.8863Z"/>
  </g>
 </g>
 <g stroke-width="0.801759">
  <path stroke="#090" d="M-70.8661 -56.6929L-28.3465 -0"/>
 </g>
 <g stroke-width="0.801759">
  <path stroke="#090" d="M14.1732 -56.6929L24.4363 -15.6408"/>
  <g stroke-linecap="butt" stroke-dasharray="none">
   <path fill="#090" d="M26.3949 -17.2732L25.5118 -11.3386L21.9398 -16.1595L24.4363 -15.6408Z"/>
  </g>
 </g>
 <g stroke-width="0.801759">
  <path stroke="#090" d="M14.1732 -56.6929L28.3465 -0"/>
 </g>
 <g stroke-width="0.801759">
  <path stroke="#090" d="M-99.2126 -56.6929L-88.9496 -15.6408"/>
  <g stroke-linecap="butt" stroke-dasharray="none">
   <path fill="#090" d="M-86.9909 -17.2732L-87.874 -11.3386L-91.446 -16.1595L-88.9496 -15.6408Z"/>
  </g>
 </g>
 <g stroke-width="0.801759">
  <path stroke="#090" d="M-99.2126 -56.6929L-85.0394 -0"/>
 </g>
 <g stroke-width="0.801759">
  <path stroke="#090" d="M42.5197 -56.6929L52.7827 -15.6408"/>
  <g stroke-linecap="butt" stroke-dasharray="none">
   <path fill="#090" d="M54.7414 -17.2732L53.8583 -11.3386L50.2863 -16.1595L52.7827 -15.6408Z"/>
  </g>
 </g>
 <g stroke-width="0.801759">
  <path stroke="#090" d="M42.5197 -56.6929L56.6929 -0"/>
 </g>
 <g stroke-width="0.801759">
  <path stroke="#090" d="M-14.1732 -56.6929L-3.9102 -15.6408"/>
  <g stroke-linecap="butt" stroke-dasharray="none">
   <path fill="#090" d="M-1.95154 -17.2732L-2.83465 -11.3386L-6.40663 -16.1595L-3.9102 -15.6408Z"/>
  </g>
 </g>
 <g stroke-width="0.801759">
  <path stroke="#090" d="M-14.1732 -56.6929L0 -0"/>
 </g>
 <g stroke-width="0.801759">
  <path stroke="#090" d="M70.8661 -56.6929L60.6031 -15.6408"/>
  <g stroke-linecap="butt" stroke-dasharray="none">
   <path fill="#090" d="M63.0995 -16.1595L59.5276 -11.3386L58.6445 -17.2732L60.6031 -15.6408Z"/>
  </g>
 </g>
 <g stroke-width="0.801759">
  <path stroke="#090" d="M70.8661 -56.6929L56.6929 -0"/>
 </g>
 <g stroke-width="0.801759">
  <path stroke="#f36b08" d="M-56.6929 -0L-46.4299 -41.0521"/>
  <g stroke-linecap="butt" stroke-dasharray="none">
   <path fill="#f36b08" d="M-48.9263 -40.5334L-45.3543 -45.3543L-44.4712 -39.4197L-46.4299 -41.0521Z"/>
  </g>
 </g>
 <g stroke-width="0.801759">
  <path stroke="#f36b08" d="M-56.6929 -0L-42.5197 -56.6929"/>
 </g>
 <g stroke-width="0.801759">
  <path stroke="#f36b08" d="M0 -0L31.355 -41.8066"/>
  <g stroke-linecap="butt" stroke-dasharray="none">
   <path fill="#f36b08" d="M28.8529 -42.2974L34.0157 -45.3543L32.5267 -39.542L31.355 -41.8066Z"/>
  </g>
 </g>
 <g stroke-width="0.801759">
  <path stroke="#f36b08" d="M0 -0L42.5197 -56.6929"/>
 </g>
 <g stroke-width="0.801759">
  <path stroke="#f36b08" d="M28.3465 -0L59.7014 -41.8066"/>
  <g stroke-linecap="butt" stroke-dasharray="none">
   <path fill="#f36b08" d="M57.1994 -42.2974L62.3622 -45.3543L60.8731 -39.542L59.7014 -41.8066Z"/>
  </g>
 </g>
 <g stroke-width="0.801759">
  <path stroke="#f36b08" d="M28.3465 -0L70.8661 -56.6929"/>
 </g>
 <g>
  <path fill="#fff" d="M-39.1181 -56.6929L-39.1181 -56.6989A3.40157 3.40157 0 0 0 -45.9213 -56.6929A3.40157 3.40157 0 0 0 -39.1181 -56.687Z"/>
 </g>
 <path fill="black" d="M-40.8189 -56.6929L-40.8189 -56.6959A1.70079 1.70079 0 0 0 -44.2205 -56.6929A1.70079 1.70079 0 0 0 -40.8189 -56.6899Z"/>
 <g transform="matrix(1.000000,0.000000,0.000000,1.000000,-42.519685,-61.795276)">
  <path fill="black" d="M-4.09584 -1.49438M-2.69111 -3.79575C-2.40219 -3.79575 -1.66495 -3.81568 -1.16682 -4.02489C-0.469437 -4.32377 -0.419624 -4.91157 -0.419624 -5.05104C-0.419624 -5.4894 -0.798204 -5.89787 -1.48563 -5.89787C-2.59148 -5.89787 -4.09584 -4.93149 -4.09584 -3.18803C-4.09584 -2.17184 -3.50804 -1.38479 -2.5317 -1.38479C-1.10705 -1.38479 -0.270184 -2.44083 -0.270184 -2.56038C-0.270184 -2.62016 -0.32996 -2.6899 -0.389736 -2.6899C-0.439549 -2.6899 -0.459474 -2.66997 -0.51925 -2.59027C-1.3063 -1.60397 -2.39223 -1.60397 -2.51178 -1.60397C-3.28886 -1.60397 -3.37853 -2.44083 -3.37853 -2.75964C-3.37853 -2.87919 -3.36857 -3.18803 -3.21913 -3.79575ZM-3.21913 -3.79575M-3.15935 -4.01493C-2.77081 -5.52925 -1.74466 -5.67869 -1.48563 -5.67869C-1.01738 -5.67869 -0.748391 -5.38977 -0.748391 -5.05104C-0.748391 -4.01493 -2.34241 -4.01493 -2.75088 -4.01493ZM-2.75088 -4.01493"/>
  <path fill="black" d="M0.461338 -0M1.98861 -2.32927C2.53257 -2.32927 2.92311 -1.95268 2.92311 -1.20648C2.92311 -0.341719 2.42099 -0.0836862 2.01651 -0.0836862C1.73755 -0.0836862 1.12385 -0.160399 0.830952 -0.571856C1.15872 -0.585803 1.23543 -0.81594 1.23543 -0.962391C1.23543 -1.18555 1.06806 -1.34595 0.851873 -1.34595C0.656605 -1.34595 0.461338 -1.2274 0.461338 -0.941469C0.461338 -0.285928 1.18662 0.139477 2.03045 0.139477C2.99982 0.139477 3.66931 -0.509091 3.66931 -1.20648C3.66931 -1.75044 3.22298 -2.2944 2.45586 -2.45479C3.18811 -2.7198 3.45312 -3.24284 3.45312 -3.66824C3.45312 -4.21918 2.8185 -4.63064 2.0444 -4.63064C1.2703 -4.63064 0.677527 -4.25405 0.677527 -3.69614C0.677527 -3.45903 0.830952 -3.32653 1.04017 -3.32653C1.25636 -3.32653 1.39583 -3.48692 1.39583 -3.68219C1.39583 -3.88443 1.25636 -4.03088 1.04017 -4.04483C1.28425 -4.35168 1.76545 -4.42839 2.02348 -4.42839C2.3373 -4.42839 2.77666 -4.27497 2.77666 -3.66824C2.77666 -3.37534 2.67902 -3.05455 2.4977 -2.83836C2.26756 -2.57335 2.0723 -2.5594 1.7236 -2.53848C1.54926 -2.52453 1.53531 -2.52453 1.50044 -2.51756C1.48649 -2.51756 1.4307 -2.50361 1.4307 -2.4269C1.4307 -2.32927 1.49347 -2.32927 1.61202 -2.32927ZM1.61202 -2.32927"/>
 </g>
 <g>
  <path fill="#fff" d="M45.9213 -56.6929L45.9213 -56.6989A3.40157 3.40157 0 0 0 39.1181 -56.6929A3.40157 3.40157 0 0 0 45.9213 -56.687Z"/>
 </g>
 <path fill="black" d="M44.2205 -56.6929L44.2205 -56.6959A1.70079 1.70079 0 0 0 40.8189 -56.6929A1.70079 1.70079 0 0 0 44.2205 -56.6899Z"/>
 <g transform="matrix(1.000000,0.000000,0.000000,1.000000,42.519685,-61.795276)">
  <path fill="black" d="M-4.09584 -1.49438M-2.69111 -3.79575C-2.40219 -3.79575 -1.66495 -3.81568 -1.16682 -4.02489C-0.469437 -4.32377 -0.419624 -4.91157 -0.419624 -5.05104C-0.419624 -5.4894 -0.798204 -5.89787 -1.48563 -5.89787C-2.59148 -5.89787 -4.09584 -4.93149 -4.09584 -3.18803C-4.09584 -2.17184 -3.50804 -1.38479 -2.5317 -1.38479C-1.10705 -1.38479 -0.270184 -2.44083 -0.270184 -2.56038C-0.270184 -2.62016 -0.32996 -2.6899 -0.389736 -2.6899C-0.439549 -2.6899 -0.459474 -2.66997 -0.51925 -2.59027C-1.3063 -1.60397 -2.39223 -1.60397 -2.51178 -1.60397C-3.28886 -1.60397 -3.37853 -2.44083 -3.37853 -2.75964C-3.37853 -2.87919 -3.36857 -3.18803 -3.21913 -3.79575ZM-3.21913 -3.79575M-3.15935 -4.01493C-2.77081 -5.52925 -1.74466 -5.67869 -1.48563 -5.67869C-1.01738 -5.67869 -0.748391 -5.38977 -0.748391 -5.05104C-0.748391 -4.01493 -2.34241 -4.01493 -2.75088 -4.01493ZM-2.75088 -4.01493"/>
  <path fill="black" d="M0.461338 -0M1.13083 -2.28045C1.13083 -2.8523 1.17964 -3.36837 1.44465 -3.79377C1.68176 -4.17036 2.05835 -4.42839 2.50468 -4.42839C2.71389 -4.42839 2.99284 -4.3726 3.13232 -4.18431C2.95798 -4.17036 2.81152 -4.05181 2.81152 -3.84956C2.81152 -3.67522 2.93008 -3.52179 3.1393 -3.52179C3.34851 -3.52179 3.47404 -3.66127 3.47404 -3.86351C3.47404 -4.268 3.18114 -4.63064 2.49073 -4.63064C1.48649 -4.63064 0.461338 -3.71009 0.461338 -2.21071C0.461338 -0.404483 1.31215 0.139477 2.07927 0.139477C2.93008 0.139477 3.66931 -0.509091 3.66931 -1.42267C3.66931 -2.30834 2.96495 -2.96389 2.14901 -2.96389C1.5911 -2.96389 1.28425 -2.59427 1.13083 -2.28045ZM1.13083 -2.28045M2.07927 -0.0836862C1.73058 -0.0836862 1.4586 -0.285928 1.31215 -0.592777C1.20754 -0.801993 1.15175 -1.15068 1.15175 -1.56912C1.15175 -2.24558 1.55623 -2.76862 2.11414 -2.76862C2.43494 -2.76862 2.65113 -2.64309 2.82547 -2.38506C2.99284 -2.12005 2.99982 -1.82715 2.99982 -1.42267C2.99982 -1.02516 2.99982 -0.732254 2.81152 -0.460274C2.64415 -0.216189 2.42099 -0.0836862 2.07927 -0.0836862ZM2.07927 -0.0836862"/>
 </g>
 <g>
  <path fill="#fff" d="M-81.6378 -0L-81.6378 -0.00593686A3.40157 3.40157 0 0 0 -88.4409 -1.92718e-15A3.40157 3.40157 0 0 0 -81.6378 0.00593686Z"/>
 </g>
 <g stroke-width="0.801759">
  <path stroke="#ff1919" d="M-81.6378 -0L-81.6378 -0.00593686A3.40157 3.40157 0 0 0 -88.4409 -1.92718e-15A3.40157 3.40157 0 0 0 -81.6378 0.00593686Z"/>
 </g>
 <path fill="black" d="M-83.3386 -0L-83.3386 -0.00296843A1.70079 1.70079 0 0 0 -86.7402 -9.63588e-16A1.70079 1.70079 0 0 0 -83.3386 0.00296843Z"/>
 <g transform="matrix(1.000000,0.000000,0.000000,1.000000,-85.039370,5.102362)">
  <path fill="black" d="M-4.36032 4.28946M0.0132785 0.583354C0.0132785 0.0453718 -0.24575 -0.11403 -0.425078 -0.11403C-0.674144 -0.11403 -0.913247 0.144998 -0.913247 0.364176C-0.913247 0.493691 -0.863434 0.553466 -0.753845 0.663056C-0.544629 0.862308 -0.415115 1.12134 -0.415115 1.47999C-0.415115 1.89842 -1.02284 4.17987 -2.18847 4.17987C-2.69656 4.17987 -2.9257 3.83118 -2.9257 3.31312C-2.9257 2.75521 -2.65671 2.02794 -2.34787 1.20104C-2.27813 1.03167 -2.22832 0.892196 -2.22832 0.702906C-2.22832 0.254587 -2.54712 -0.11403 -3.04525 -0.11403C-3.98174 -0.11403 -4.36032 1.33055 -4.36032 1.42022C-4.36032 1.51984 -4.26069 1.51984 -4.24077 1.51984C-4.14114 1.51984 -4.13118 1.49992 -4.08137 1.34052C-3.79245 0.334288 -3.36406 0.105148 -3.07514 0.105148C-2.99544 0.105148 -2.82607 0.105148 -2.82607 0.423952C-2.82607 0.673018 -2.9257 0.942009 -2.99544 1.12134C-3.4338 2.277 -3.56331 2.73528 -3.56331 3.16368C-3.56331 4.23964 -2.6866 4.39905 -2.22832 4.39905C-0.554592 4.39905 0.0132785 1.10141 0.0132785 0.583354ZM0.0132785 0.583354"/>
  <path fill="black" d="M0.940032 5.78384M2.51612 1.34847C2.51612 1.16018 2.50217 1.1532 2.30691 1.1532C1.86058 1.59255 1.22596 1.59953 0.940032 1.59953L0.940032 1.85059C1.1074 1.85059 1.56768 1.85059 1.95124 1.65532L1.95124 5.21198C1.95124 5.44212 1.95124 5.53278 1.25386 5.53278L0.988849 5.53278L0.988849 5.78384C1.11438 5.77686 1.97216 5.75594 2.23019 5.75594C2.44638 5.75594 3.32509 5.77686 3.47851 5.78384L3.47851 5.53278L3.21351 5.53278C2.51612 5.53278 2.51612 5.44212 2.51612 5.21198ZM2.51612 5.21198"/>
 </g>
 <g>
  <path fill="#fff" d="M17.5748 -56.6929L17.5748 -56.6989A3.40157 3.40157 0 0 0 10.7717 -56.6929A3.40157 3.40157 0 0 0 17.5748 -56.687Z"/>
 </g>
 <g stroke-width="0.801759">
  <path stroke="#ff1919" d="M17.5748 -56.6929L17.5748 -56.6989A3.40157 3.40157 0 0 0 10.7717 -56.6929A3.40157 3.40157 0 0 0 17.5748 -56.687Z"/>
 </g>
 <path fill="black" d="M15.874 -56.6929L15.874 -56.6959A1.70079 1.70079 0 0 0 12.4724 -56.6929A1.70079 1.70079 0 0 0 15.874 -56.6899Z"/>
 <g transform="matrix(1.000000,0.000000,0.000000,1.000000,14.173228,-61.795276)">
  <path fill="black" d="M-4.09584 -1.49438M-2.69111 -3.79575C-2.40219 -3.79575 -1.66495 -3.81568 -1.16682 -4.02489C-0.469437 -4.32377 -0.419624 -4.91157 -0.419624 -5.05104C-0.419624 -5.4894 -0.798204 -5.89787 -1.48563 -5.89787C-2.59148 -5.89787 -4.09584 -4.93149 -4.09584 -3.18803C-4.09584 -2.17184 -3.50804 -1.38479 -2.5317 -1.38479C-1.10705 -1.38479 -0.270184 -2.44083 -0.270184 -2.56038C-0.270184 -2.62016 -0.32996 -2.6899 -0.389736 -2.6899C-0.439549 -2.6899 -0.459474 -2.66997 -0.51925 -2.59027C-1.3063 -1.60397 -2.39223 -1.60397 -2.51178 -1.60397C-3.28886 -1.60397 -3.37853 -2.44083 -3.37853 -2.75964C-3.37853 -2.87919 -3.36857 -3.18803 -3.21913 -3.79575ZM-3.21913 -3.79575M-3.15935 -4.01493C-2.77081 -5.52925 -1.74466 -5.67869 -1.48563 -5.67869C-1.01738 -5.67869 -0.748391 -5.38977 -0.748391 -5.05104C-0.748391 -4.01493 -2.34241 -4.01493 -2.75088 -4.01493ZM-2.75088 -4.01493"/>
  <path fill="black" d="M0.524102 -0M1.1657 -3.89141C1.52136 -3.80075 1.73058 -3.80075 1.84216 -3.80075C2.76271 -3.80075 3.30667 -4.42839 3.30667 -4.533C3.30667 -4.60971 3.25785 -4.63064 3.22298 -4.63064C3.20903 -4.63064 3.19509 -4.63064 3.16719 -4.60971C2.99982 -4.54695 2.6302 -4.40747 2.11414 -4.40747C1.91887 -4.40747 1.54926 -4.42142 1.09596 -4.59577C1.02622 -4.63064 1.01227 -4.63064 1.0053 -4.63064C0.914638 -4.63064 0.914638 -4.55392 0.914638 -4.44234L0.914638 -2.38506C0.914638 -2.2665 0.914638 -2.18281 1.02622 -2.18281C1.08898 -2.18281 1.09596 -2.19676 1.1657 -2.28045C1.46557 -2.66401 1.89098 -2.7198 2.13506 -2.7198C2.55349 -2.7198 2.74179 -2.38506 2.77666 -2.32927C2.90218 -2.09913 2.94403 -1.83412 2.94403 -1.42964C2.94403 -1.22042 2.94403 -0.808966 2.73481 -0.502117C2.56047 -0.251059 2.26059 -0.0836862 1.91887 -0.0836862C1.46557 -0.0836862 0.998324 -0.334745 0.823978 -0.795019C1.08898 -0.774097 1.22149 -0.948443 1.22149 -1.13674C1.22149 -1.43661 0.963455 -1.4924 0.872795 -1.4924C0.858847 -1.4924 0.524102 -1.4924 0.524102 -1.11582C0.524102 -0.488169 1.09596 0.139477 1.93282 0.139477C2.82547 0.139477 3.60654 -0.523039 3.60654 -1.40174C3.60654 -2.18979 3.00679 -2.91507 2.14204 -2.91507C1.83519 -2.91507 1.47255 -2.83836 1.1657 -2.57335ZM1.1657 -2.57335"/>
 </g>
 <g>
  <path fill="#fff" d="M-53.2913 -0L-53.2913 -0.00593686A3.40157 3.40157 0 0 0 -60.0945 -1.92718e-15A3.40157 3.40157 0 0 0 -53.2913 0.00593686Z"/>
 </g>
 <path fill="black" d="M-54.9921 -0L-54.9921 -0.00296843A1.70079 1.70079 0 0 0 -58.3937 -9.63588e-16A1.70079 1.70079 0 0 0 -54.9921 0.00296843Z"/>
 <g transform="matrix(1.000000,0.000000,0.000000,1.000000,-56.692913,5.102362)">
  <path fill="black" d="M-4.36032 4.28946M0.0132785 0.583354C0.0132785 0.0453718 -0.24575 -0.11403 -0.425078 -0.11403C-0.674144 -0.11403 -0.913247 0.144998 -0.913247 0.364176C-0.913247 0.493691 -0.863434 0.553466 -0.753845 0.663056C-0.544629 0.862308 -0.415115 1.12134 -0.415115 1.47999C-0.415115 1.89842 -1.02284 4.17987 -2.18847 4.17987C-2.69656 4.17987 -2.9257 3.83118 -2.9257 3.31312C-2.9257 2.75521 -2.65671 2.02794 -2.34787 1.20104C-2.27813 1.03167 -2.22832 0.892196 -2.22832 0.702906C-2.22832 0.254587 -2.54712 -0.11403 -3.04525 -0.11403C-3.98174 -0.11403 -4.36032 1.33055 -4.36032 1.42022C-4.36032 1.51984 -4.26069 1.51984 -4.24077 1.51984C-4.14114 1.51984 -4.13118 1.49992 -4.08137 1.34052C-3.79245 0.334288 -3.36406 0.105148 -3.07514 0.105148C-2.99544 0.105148 -2.82607 0.105148 -2.82607 0.423952C-2.82607 0.673018 -2.9257 0.942009 -2.99544 1.12134C-3.4338 2.277 -3.56331 2.73528 -3.56331 3.16368C-3.56331 4.23964 -2.6866 4.39905 -2.22832 4.39905C-0.554592 4.39905 0.0132785 1.10141 0.0132785 0.583354ZM0.0132785 0.583354"/>
  <path fill="black" d="M0.619235 5.78384M3.70168 4.5146L3.46457 4.5146C3.44364 4.66802 3.37391 5.07948 3.28325 5.14922C3.22745 5.19106 2.69047 5.19106 2.59283 5.19106L1.30965 5.19106C2.0419 4.54249 2.28598 4.34722 2.70442 4.01945C3.22048 3.608 3.70168 3.17562 3.70168 2.5131C3.70168 1.66927 2.96245 1.1532 2.0698 1.1532C1.20504 1.1532 0.619235 1.75993 0.619235 2.40152C0.619235 2.75719 0.919111 2.79206 0.988849 2.79206C1.15622 2.79206 1.35846 2.6735 1.35846 2.42244C1.35846 2.29691 1.30965 2.05283 0.947006 2.05283C1.1632 1.55769 1.63742 1.40426 1.96519 1.40426C2.66257 1.40426 3.02521 1.94822 3.02521 2.5131C3.02521 3.11983 2.59283 3.60102 2.36967 3.85208L0.688974 5.51186C0.619235 5.57462 0.619235 5.58857 0.619235 5.78384L3.49246 5.78384ZM3.49246 5.78384"/>
 </g>
 <g>
  <path fill="#fff" d="M-24.9449 -0L-24.9449 -0.00593686A3.40157 3.40157 0 0 0 -31.748 -1.92718e-15A3.40157 3.40157 0 0 0 -24.9449 0.00593686Z"/>
 </g>
 <g stroke-width="0.801759">
  <path stroke="#ff1919" d="M-24.9449 -0L-24.9449 -0.00593686A3.40157 3.40157 0 0 0 -31.748 -1.92718e-15A3.40157 3.40157 0 0 0 -24.9449 0.00593686Z"/>
 </g>
 <path fill="black" d="M-26.6457 -0L-26.6457 -0.00296843A1.70079 1.70079 0 0 0 -30.0472 -9.63588e-16A1.70079 1.70079 0 0 0 -26.6457 0.00296843Z"/>
 <g transform="matrix(1.000000,0.000000,0.000000,1.000000,-28.346457,5.102362)">
  <path fill="black" d="M-4.36032 4.28946M0.0132785 0.583354C0.0132785 0.0453718 -0.24575 -0.11403 -0.425078 -0.11403C-0.674144 -0.11403 -0.913247 0.144998 -0.913247 0.364176C-0.913247 0.493691 -0.863434 0.553466 -0.753845 0.663056C-0.544629 0.862308 -0.415115 1.12134 -0.415115 1.47999C-0.415115 1.89842 -1.02284 4.17987 -2.18847 4.17987C-2.69656 4.17987 -2.9257 3.83118 -2.9257 3.31312C-2.9257 2.75521 -2.65671 2.02794 -2.34787 1.20104C-2.27813 1.03167 -2.22832 0.892196 -2.22832 0.702906C-2.22832 0.254587 -2.54712 -0.11403 -3.04525 -0.11403C-3.98174 -0.11403 -4.36032 1.33055 -4.36032 1.42022C-4.36032 1.51984 -4.26069 1.51984 -4.24077 1.51984C-4.14114 1.51984 -4.13118 1.49992 -4.08137 1.34052C-3.79245 0.334288 -3.36406 0.105148 -3.07514 0.105148C-2.99544 0.105148 -2.82607 0.105148 -2.82607 0.423952C-2.82607 0.673018 -2.9257 0.942009 -2.99544 1.12134C-3.4338 2.277 -3.56331 2.73528 -3.56331 3.16368C-3.56331 4.23964 -2.6866 4.39905 -2.22832 4.39905C-0.554592 4.39905 0.0132785 1.10141 0.0132785 0.583354ZM0.0132785 0.583354"/>
  <path fill="black" d="M0.55647 5.78384M2.08374 3.45457C2.6277 3.45457 3.01824 3.83116 3.01824 4.57736C3.01824 5.44212 2.51612 5.70015 2.11164 5.70015C1.83268 5.70015 1.21899 5.62344 0.926084 5.21198C1.25386 5.19803 1.33057 4.9679 1.33057 4.82145C1.33057 4.59828 1.1632 4.43788 0.947006 4.43788C0.751738 4.43788 0.55647 4.55644 0.55647 4.84237C0.55647 5.49791 1.28175 5.92331 2.12559 5.92331C3.09495 5.92331 3.76444 5.27475 3.76444 4.57736C3.76444 4.0334 3.31811 3.48944 2.55099 3.32904C3.28325 3.06404 3.54825 2.541 3.54825 2.11559C3.54825 1.56466 2.91363 1.1532 2.13953 1.1532C1.36544 1.1532 0.77266 1.52979 0.77266 2.0877C0.77266 2.32481 0.926084 2.45731 1.1353 2.45731C1.35149 2.45731 1.49097 2.29691 1.49097 2.10165C1.49097 1.8994 1.35149 1.75295 1.1353 1.73901C1.37938 1.43216 1.86058 1.35544 2.11861 1.35544C2.43244 1.35544 2.87179 1.50887 2.87179 2.11559C2.87179 2.40849 2.77415 2.72929 2.59283 2.94548C2.3627 3.21049 2.16743 3.22444 1.81874 3.24536C1.64439 3.2593 1.63044 3.2593 1.59557 3.26628C1.58163 3.26628 1.52584 3.28023 1.52584 3.35694C1.52584 3.45457 1.5886 3.45457 1.70716 3.45457ZM1.70716 3.45457"/>
 </g>
 <g>
  <path fill="#fff" d="M74.2677 -56.6929L74.2677 -56.6989A3.40157 3.40157 0 0 0 67.4646 -56.6929A3.40157 3.40157 0 0 0 74.2677 -56.687Z"/>
 </g>
 <path fill="black" d="M72.5669 -56.6929L72.5669 -56.6959A1.70079 1.70079 0 0 0 69.1654 -56.6929A1.70079 1.70079 0 0 0 72.5669 -56.6899Z"/>
 <g transform="matrix(1.000000,0.000000,0.000000,1.000000,70.866142,-61.795276)">
  <path fill="black" d="M-4.09584 -1.49438M-2.69111 -3.79575C-2.40219 -3.79575 -1.66495 -3.81568 -1.16682 -4.02489C-0.469437 -4.32377 -0.419624 -4.91157 -0.419624 -5.05104C-0.419624 -5.4894 -0.798204 -5.89787 -1.48563 -5.89787C-2.59148 -5.89787 -4.09584 -4.93149 -4.09584 -3.18803C-4.09584 -2.17184 -3.50804 -1.38479 -2.5317 -1.38479C-1.10705 -1.38479 -0.270184 -2.44083 -0.270184 -2.56038C-0.270184 -2.62016 -0.32996 -2.6899 -0.389736 -2.6899C-0.439549 -2.6899 -0.459474 -2.66997 -0.51925 -2.59027C-1.3063 -1.60397 -2.39223 -1.60397 -2.51178 -1.60397C-3.28886 -1.60397 -3.37853 -2.44083 -3.37853 -2.75964C-3.37853 -2.87919 -3.36857 -3.18803 -3.21913 -3.79575ZM-3.21913 -3.79575M-3.15935 -4.01493C-2.77081 -5.52925 -1.74466 -5.67869 -1.48563 -5.67869C-1.01738 -5.67869 -0.748391 -5.38977 -0.748391 -5.05104C-0.748391 -4.01493 -2.34241 -4.01493 -2.75088 -4.01493ZM-2.75088 -4.01493"/>
  <path fill="black" d="M0.572919 -0M3.81576 -4.2122C3.8855 -4.29589 3.8855 -4.30984 3.8855 -4.49116L2.05835 -4.49116C1.7794 -4.49116 1.70268 -4.49813 1.45162 -4.51905C1.08898 -4.54695 1.07504 -4.59577 1.05411 -4.71432L0.817004 -4.71432L0.572919 -3.22192L0.81003 -3.22192C0.823978 -3.32653 0.893716 -3.7868 1.0053 -3.85654C1.06109 -3.89838 1.62597 -3.89838 1.73058 -3.89838L3.25088 -3.89838C3.02771 -3.60548 2.67205 -3.1731 2.5256 -2.97783C1.61202 -1.77833 1.52834 -0.669489 1.52834 -0.258032C1.52834 -0.18132 1.52834 0.139477 1.85611 0.139477C2.19085 0.139477 2.19085 -0.174346 2.19085 -0.265006L2.19085 -0.54396C2.19085 -1.89689 2.46981 -2.51756 2.76968 -2.89415ZM2.76968 -2.89415"/>
 </g>
 <g>
  <path fill="#fff" d="M3.40157 -0L3.40157 -0.00593686A3.40157 3.40157 0 0 0 -3.40157 -1.92718e-15A3.40157 3.40157 0 0 0 3.40157 0.00593686Z"/>
 </g>
 <path fill="black" d="M1.70079 -0L1.70078 -0.00296843A1.70079 1.70079 0 0 0 -1.70079 -9.63588e-16A1.70079 1.70079 0 0 0 1.70078 0.00296843Z"/>
 <g transform="matrix(1.000000,0.000000,0.000000,1.000000,0.000000,5.102362)">
  <path fill="black" d="M-4.36032 4.28946M0.0132785 0.583354C0.0132785 0.0453718 -0.24575 -0.11403 -0.425078 -0.11403C-0.674144 -0.11403 -0.913247 0.144998 -0.913247 0.364176C-0.913247 0.493691 -0.863434 0.553466 -0.753845 0.663056C-0.544629 0.862308 -0.415115 1.12134 -0.415115 1.47999C-0.415115 1.89842 -1.02284 4.17987 -2.18847 4.17987C-2.69656 4.17987 -2.9257 3.83118 -2.9257 3.31312C-2.9257 2.75521 -2.65671 2.02794 -2.34787 1.20104C-2.27813 1.03167 -2.22832 0.892196 -2.22832 0.702906C-2.22832 0.254587 -2.54712 -0.11403 -3.04525 -0.11403C-3.98174 -0.11403 -4.36032 1.33055 -4.36032 1.42022C-4.36032 1.51984 -4.26069 1.51984 -4.24077 1.51984C-4.14114 1.51984 -4.13118 1.49992 -4.08137 1.34052C-3.79245 0.334288 -3.36406 0.105148 -3.07514 0.105148C-2.99544 0.105148 -2.82607 0.105148 -2.82607 0.423952C-2.82607 0.673018 -2.9257 0.942009 -2.99544 1.12134C-3.4338 2.277 -3.56331 2.73528 -3.56331 3.16368C-3.56331 4.23964 -2.6866 4.39905 -2.22832 4.39905C-0.554592 4.39905 0.0132785 1.10141 0.0132785 0.583354ZM0.0132785 0.583354"/>
  <path fill="black" d="M0.451863 5.78384M3.86905 4.64013L3.86905 4.38907L3.09495 4.38907L3.09495 1.27873C3.09495 1.13228 3.09495 1.08346 2.94153 1.08346C2.85784 1.08346 2.82994 1.08346 2.76021 1.1811L0.451863 4.38907L0.451863 4.64013L2.50217 4.64013L2.50217 5.21198C2.50217 5.44909 2.50217 5.53278 1.93729 5.53278L1.749 5.53278L1.749 5.78384C2.09769 5.76989 2.54402 5.75594 2.79508 5.75594C3.05311 5.75594 3.49943 5.76989 3.84813 5.78384L3.84813 5.53278L3.65983 5.53278C3.09495 5.53278 3.09495 5.44909 3.09495 5.21198L3.09495 4.64013ZM3.09495 4.64013M2.55099 1.83664L2.55099 4.38907L0.709895 4.38907ZM0.709895 4.38907"/>
 </g>
 <g>
  <path fill="#fff" d="M31.748 -0L31.748 -0.00593686A3.40157 3.40157 0 0 0 24.9449 -1.92718e-15A3.40157 3.40157 0 0 0 31.748 0.00593686Z"/>
 </g>
 <path fill="black" d="M30.0472 -0L30.0472 -0.00296843A1.70079 1.70079 0 0 0 26.6457 -9.63588e-16A1.70079 1.70079 0 0 0 30.0472 0.00296843Z"/>
 <g transform="matrix(1.000000,0.000000,0.000000,1.000000,28.346457,5.102362)">
  <path fill="black" d="M-4.36032 4.28946M0.0132785 0.583354C0.0132785 0.0453718 -0.24575 -0.11403 -0.425078 -0.11403C-0.674144 -0.11403 -0.913247 0.144998 -0.913247 0.364176C-0.913247 0.493691 -0.863434 0.553466 -0.753845 0.663056C-0.544629 0.862308 -0.415115 1.12134 -0.415115 1.47999C-0.415115 1.89842 -1.02284 4.17987 -2.18847 4.17987C-2.69656 4.17987 -2.9257 3.83118 -2.9257 3.31312C-2.9257 2.75521 -2.65671 2.02794 -2.34787 1.20104C-2.27813 1.03167 -2.22832 0.892196 -2.22832 0.702906C-2.22832 0.254587 -2.54712 -0.11403 -3.04525 -0.11403C-3.98174 -0.11403 -4.36032 1.33055 -4.36032 1.42022C-4.36032 1.51984 -4.26069 1.51984 -4.24077 1.51984C-4.14114 1.51984 -4.13118 1.49992 -4.08137 1.34052C-3.79245 0.334288 -3.36406 0.105148 -3.07514 0.105148C-2.99544 0.105148 -2.82607 0.105148 -2.82607 0.423952C-2.82607 0.673018 -2.9257 0.942009 -2.99544 1.12134C-3.4338 2.277 -3.56331 2.73528 -3.56331 3.16368C-3.56331 4.23964 -2.6866 4.39905 -2.22832 4.39905C-0.554592 4.39905 0.0132785 1.10141 0.0132785 0.583354ZM0.0132785 0.583354"/>
  <path fill="black" d="M0.619235 5.78384M1.26083 1.89243C1.6165 1.98309 1.82571 1.98309 1.93729 1.98309C2.85784 1.98309 3.4018 1.35544 3.4018 1.25084C3.4018 1.17412 3.35298 1.1532 3.31811 1.1532C3.30417 1.1532 3.29022 1.1532 3.26232 1.17412C3.09495 1.23689 2.72534 1.37637 2.20927 1.37637C2.014 1.37637 1.64439 1.36242 1.19109 1.18807C1.12135 1.1532 1.1074 1.1532 1.10043 1.1532C1.00977 1.1532 1.00977 1.22991 1.00977 1.3415L1.00977 3.39878C1.00977 3.51734 1.00977 3.60102 1.12135 3.60102C1.18412 3.60102 1.19109 3.58708 1.26083 3.50339C1.5607 3.11983 1.98611 3.06404 2.23019 3.06404C2.64862 3.06404 2.83692 3.39878 2.87179 3.45457C2.99732 3.68471 3.03916 3.94972 3.03916 4.3542C3.03916 4.56341 3.03916 4.97487 2.82994 5.28172C2.6556 5.53278 2.35572 5.70015 2.014 5.70015C1.5607 5.70015 1.09346 5.44909 0.919111 4.98882C1.18412 5.00974 1.31662 4.83539 1.31662 4.6471C1.31662 4.34722 1.05859 4.29143 0.967928 4.29143C0.95398 4.29143 0.619235 4.29143 0.619235 4.66802C0.619235 5.29567 1.19109 5.92331 2.02795 5.92331C2.9206 5.92331 3.70168 5.2608 3.70168 4.38209C3.70168 3.59405 3.10193 2.86877 2.23717 2.86877C1.93032 2.86877 1.56768 2.94548 1.26083 3.21049ZM1.26083 3.21049"/>
 </g>
 <g>
  <path fill="#fff" d="M60.0945 -0L60.0945 -0.00593686A3.40157 3.40157 0 0 0 53.2913 -1.92718e-15A3.40157 3.40157 0 0 0 60.0945 0.00593686Z"/>
 </g>
 <g stroke-width="0.801759">
  <path stroke="#ff1919" d="M60.0945 -0L60.0945 -0.00593686A3.40157 3.40157 0 0 0 53.2913 -1.92718e-15A3.40157 3.40157 0 0 0 60.0945 0.00593686Z"/>
 </g>
 <path fill="black" d="M58.3937 -0L58.3937 -0.00296843A1.70079 1.70079 0 0 0 54.9921 -9.63588e-16A1.70079 1.70079 0 0 0 58.3937 0.00296843Z"/>
 <g transform="matrix(1.000000,0.000000,0.000000,1.000000,56.692913,5.102362)">
  <path fill="black" d="M-4.36032 4.28946M0.0132785 0.583354C0.0132785 0.0453718 -0.24575 -0.11403 -0.425078 -0.11403C-0.674144 -0.11403 -0.913247 0.144998 -0.913247 0.364176C-0.913247 0.493691 -0.863434 0.553466 -0.753845 0.663056C-0.544629 0.862308 -0.415115 1.12134 -0.415115 1.47999C-0.415115 1.89842 -1.02284 4.17987 -2.18847 4.17987C-2.69656 4.17987 -2.9257 3.83118 -2.9257 3.31312C-2.9257 2.75521 -2.65671 2.02794 -2.34787 1.20104C-2.27813 1.03167 -2.22832 0.892196 -2.22832 0.702906C-2.22832 0.254587 -2.54712 -0.11403 -3.04525 -0.11403C-3.98174 -0.11403 -4.36032 1.33055 -4.36032 1.42022C-4.36032 1.51984 -4.26069 1.51984 -4.24077 1.51984C-4.14114 1.51984 -4.13118 1.49992 -4.08137 1.34052C-3.79245 0.334288 -3.36406 0.105148 -3.07514 0.105148C-2.99544 0.105148 -2.82607 0.105148 -2.82607 0.423952C-2.82607 0.673018 -2.9257 0.942009 -2.99544 1.12134C-3.4338 2.277 -3.56331 2.73528 -3.56331 3.16368C-3.56331 4.23964 -2.6866 4.39905 -2.22832 4.39905C-0.554592 4.39905 0.0132785 1.10141 0.0132785 0.583354ZM0.0132785 0.583354"/>
  <path fill="black" d="M0.55647 5.78384M1.22596 3.50339C1.22596 2.93153 1.27478 2.41547 1.53978 1.99006C1.77689 1.61348 2.15348 1.35544 2.59981 1.35544C2.80902 1.35544 3.08798 1.41123 3.22745 1.59953C3.05311 1.61348 2.90666 1.73203 2.90666 1.93427C2.90666 2.10862 3.02521 2.26204 3.23443 2.26204C3.44364 2.26204 3.56917 2.12257 3.56917 1.92033C3.56917 1.51584 3.27627 1.1532 2.58586 1.1532C1.58163 1.1532 0.55647 2.07375 0.55647 3.57313C0.55647 5.37935 1.40728 5.92331 2.1744 5.92331C3.02521 5.92331 3.76444 5.27475 3.76444 4.36117C3.76444 3.47549 3.06008 2.81995 2.24414 2.81995C1.68623 2.81995 1.37938 3.18957 1.22596 3.50339ZM1.22596 3.50339M2.1744 5.70015C1.82571 5.70015 1.55373 5.49791 1.40728 5.19106C1.30267 4.98184 1.24688 4.63315 1.24688 4.21472C1.24688 3.53826 1.65136 3.01522 2.20927 3.01522C2.53007 3.01522 2.74626 3.14075 2.9206 3.39878C3.08798 3.66379 3.09495 3.95669 3.09495 4.36117C3.09495 4.75868 3.09495 5.05158 2.90666 5.32356C2.73928 5.56765 2.51612 5.70015 2.1744 5.70015ZM2.1744 5.70015"/>
 </g>
 <g>
  <path fill="#fff" d="M-95.811 -56.6929L-95.811 -56.6989A3.40157 3.40157 0 0 0 -102.614 -56.6929A3.40157 3.40157 0 0 0 -95.811 -56.687Z"/>
 </g>
 <g stroke-width="0.801759">
  <path stroke="#ff1919" d="M-95.811 -56.6929L-95.811 -56.6989A3.40157 3.40157 0 0 0 -102.614 -56.6929A3.40157 3.40157 0 0 0 -95.811 -56.687Z"/>
 </g>
 <path fill="black" d="M-97.5118 -56.6929L-97.5118 -56.6959A1.70079 1.70079 0 0 0 -100.913 -56.6929A1.70079 1.70079 0 0 0 -97.5118 -56.6899Z"/>
 <g transform="matrix(1.000000,0.000000,0.000000,1.000000,-99.212598,-61.795276)">
  <path fill="black" d="M-4.09584 -1.49438M-2.69111 -3.79575C-2.40219 -3.79575 -1.66495 -3.81568 -1.16682 -4.02489C-0.469437 -4.32377 -0.419624 -4.91157 -0.419624 -5.05104C-0.419624 -5.4894 -0.798204 -5.89787 -1.48563 -5.89787C-2.59148 -5.89787 -4.09584 -4.93149 -4.09584 -3.18803C-4.09584 -2.17184 -3.50804 -1.38479 -2.5317 -1.38479C-1.10705 -1.38479 -0.270184 -2.44083 -0.270184 -2.56038C-0.270184 -2.62016 -0.32996 -2.6899 -0.389736 -2.6899C-0.439549 -2.6899 -0.459474 -2.66997 -0.51925 -2.59027C-1.3063 -1.60397 -2.39223 -1.60397 -2.51178 -1.60397C-3.28886 -1.60397 -3.37853 -2.44083 -3.37853 -2.75964C-3.37853 -2.87919 -3.36857 -3.18803 -3.21913 -3.79575ZM-3.21913 -3.79575M-3.15935 -4.01493C-2.77081 -5.52925 -1.74466 -5.67869 -1.48563 -5.67869C-1.01738 -5.67869 -0.748391 -5.38977 -0.748391 -5.05104C-0.748391 -4.01493 -2.34241 -4.01493 -2.75088 -4.01493ZM-2.75088 -4.01493"/>
  <path fill="black" d="M0.844899 -0M2.42099 -4.43537C2.42099 -4.62366 2.40704 -4.63064 2.21177 -4.63064C1.76545 -4.19128 1.13083 -4.18431 0.844899 -4.18431L0.844899 -3.93325C1.01227 -3.93325 1.47255 -3.93325 1.85611 -4.12852L1.85611 -0.571856C1.85611 -0.341719 1.85611 -0.251059 1.15872 -0.251059L0.893716 -0.251059L0.893716 -0C1.01925 -0.00697385 1.87703 -0.0278954 2.13506 -0.0278954C2.35125 -0.0278954 3.22996 -0.00697385 3.38338 -0L3.38338 -0.251059L3.11837 -0.251059C2.42099 -0.251059 2.42099 -0.341719 2.42099 -0.571856ZM2.42099 -0.571856"/>
 </g>
 <g>
  <path fill="#fff" d="M-10.7717 -56.6929L-10.7717 -56.6989A3.40157 3.40157 0 0 0 -17.5748 -56.6929A3.40157 3.40157 0 0 0 -10.7717 -56.687Z"/>
 </g>
 <g stroke-width="0.801759">
  <path stroke="#ff1919" d="M-10.7717 -56.6929L-10.7717 -56.6989A3.40157 3.40157 0 0 0 -17.5748 -56.6929A3.40157 3.40157 0 0 0 -10.7717 -56.687Z"/>
 </g>
 <path fill="black" d="M-12.4724 -56.6929L-12.4724 -56.6959A1.70079 1.70079 0 0 0 -15.874 -56.6929A1.70079 1.70079 0 0 0 -12.4724 -56.6899Z"/>
 <g transform="matrix(1.000000,0.000000,0.000000,1.000000,-14.173228,-61.795276)">
  <path fill="black" d="M-4.09584 -1.49438M-2.69111 -3.79575C-2.40219 -3.79575 -1.66495 -3.81568 -1.16682 -4.02489C-0.469437 -4.32377 -0.419624 -4.91157 -0.419624 -5.05104C-0.419624 -5.4894 -0.798204 -5.89787 -1.48563 -5.89787C-2.59148 -5.89787 -4.09584 -4.93149 -4.09584 -3.18803C-4.09584 -2.17184 -3.50804 -1.38479 -2.5317 -1.38479C-1.10705 -1.38479 -0.270184 -2.44083 -0.270184 -2.56038C-0.270184 -2.62016 -0.32996 -2.6899 -0.389736 -2.6899C-0.439549 -2.6899 -0.459474 -2.66997 -0.51925 -2.59027C-1.3063 -1.60397 -2.39223 -1.60397 -2.51178 -1.60397C-3.28886 -1.60397 -3.37853 -2.44083 -3.37853 -2.75964C-3.37853 -2.87919 -3.36857 -3.18803 -3.21913 -3.79575ZM-3.21913 -3.79575M-3.15935 -4.01493C-2.77081 -5.52925 -1.74466 -5.67869 -1.48563 -5.67869C-1.01738 -5.67869 -0.748391 -5.38977 -0.748391 -5.05104C-0.748391 -4.01493 -2.34241 -4.01493 -2.75088 -4.01493ZM-2.75088 -4.01493"/>
  <path fill="black" d="M0.35673 -0M3.77392 -1.14371L3.77392 -1.39477L2.99982 -1.39477L2.99982 -4.50511C2.99982 -4.65156 2.99982 -4.70037 2.84639 -4.70037C2.76271 -4.70037 2.73481 -4.70037 2.66507 -4.60274L0.35673 -1.39477L0.35673 -1.14371L2.40704 -1.14371L2.40704 -0.571856C2.40704 -0.334745 2.40704 -0.251059 1.84216 -0.251059L1.65387 -0.251059L1.65387 -0C2.00256 -0.0139477 2.44888 -0.0278954 2.69994 -0.0278954C2.95798 -0.0278954 3.4043 -0.0139477 3.75299 -0L3.75299 -0.251059L3.5647 -0.251059C2.99982 -0.251059 2.99982 -0.334745 2.99982 -0.571856L2.99982 -1.14371ZM2.99982 -1.14371M2.45586 -3.9472L2.45586 -1.39477L0.614762 -1.39477ZM0.614762 -1.39477"/>
 </g>
 <g>
  <path fill="#fff" d="M-67.4646 -56.6929L-67.4646 -56.6989A3.40157 3.40157 0 0 0 -74.2677 -56.6929A3.40157 3.40157 0 0 0 -67.4646 -56.687Z"/>
 </g>
 <g stroke-width="0.801759">
  <path stroke="#ff1919" d="M-67.4646 -56.6929L-67.4646 -56.6989A3.40157 3.40157 0 0 0 -74.2677 -56.6929A3.40157 3.40157 0 0 0 -67.4646 -56.687Z"/>
 </g>
 <path fill="black" d="M-69.1654 -56.6929L-69.1654 -56.6959A1.70079 1.70079 0 0 0 -72.5669 -56.6929A1.70079 1.70079 0 0 0 -69.1654 -56.6899Z"/>
 <g transform="matrix(1.000000,0.000000,0.000000,1.000000,-70.866142,-61.795276)">
  <path fill="black" d="M-4.09584 -1.49438M-2.69111 -3.79575C-2.40219 -3.79575 -1.66495 -3.81568 -1.16682 -4.02489C-0.469437 -4.32377 -0.419624 -4.91157 -0.419624 -5.05104C-0.419624 -5.4894 -0.798204 -5.89787 -1.48563 -5.89787C-2.59148 -5.89787 -4.09584 -4.93149 -4.09584 -3.18803C-4.09584 -2.17184 -3.50804 -1.38479 -2.5317 -1.38479C-1.10705 -1.38479 -0.270184 -2.44083 -0.270184 -2.56038C-0.270184 -2.62016 -0.32996 -2.6899 -0.389736 -2.6899C-0.439549 -2.6899 -0.459474 -2.66997 -0.51925 -2.59027C-1.3063 -1.60397 -2.39223 -1.60397 -2.51178 -1.60397C-3.28886 -1.60397 -3.37853 -2.44083 -3.37853 -2.75964C-3.37853 -2.87919 -3.36857 -3.18803 -3.21913 -3.79575ZM-3.21913 -3.79575M-3.15935 -4.01493C-2.77081 -5.52925 -1.74466 -5.67869 -1.48563 -5.67869C-1.01738 -5.67869 -0.748391 -5.38977 -0.748391 -5.05104C-0.748391 -4.01493 -2.34241 -4.01493 -2.75088 -4.01493ZM-2.75088 -4.01493"/>
  <path fill="black" d="M0.524102 -0M3.60654 -1.26924L3.36943 -1.26924C3.34851 -1.11582 3.27877 -0.704359 3.18811 -0.63462C3.13232 -0.592777 2.59534 -0.592777 2.4977 -0.592777L1.21451 -0.592777C1.94677 -1.24134 2.19085 -1.43661 2.60928 -1.76438C3.12535 -2.17584 3.60654 -2.60822 3.60654 -3.27073C3.60654 -4.11457 2.86732 -4.63064 1.97466 -4.63064C1.10991 -4.63064 0.524102 -4.02391 0.524102 -3.38232C0.524102 -3.02665 0.823978 -2.99178 0.893716 -2.99178C1.06109 -2.99178 1.26333 -3.11034 1.26333 -3.36139C1.26333 -3.48692 1.21451 -3.73101 0.851873 -3.73101C1.06806 -4.22615 1.54228 -4.37958 1.87006 -4.37958C2.56744 -4.37958 2.93008 -3.83562 2.93008 -3.27073C2.93008 -2.66401 2.4977 -2.18281 2.27454 -1.93176L0.593841 -0.27198C0.524102 -0.209215 0.524102 -0.195268 0.524102 -0L3.39733 -0ZM3.39733 -0"/>
 </g>
</svg>
