<?xml version="1.0" encoding="utf-8"?>
<svg xmlns="http://www.w3.org/2000/svg" width="123.323pt" stroke-miterlimit="10.000000" x="-4.9685pt" height="66.6299pt" version="1.1" fill="none" viewBox="-4.9685 -4.9685 123.323 66.6299" stroke-width="0.566929" y="-4.9685pt">
 <g stroke-width="1.603518">
  <path stroke="#f36b08" d="M0 56.6929L0 29.9464"/>
  <g stroke-linecap="butt" stroke-dasharray="none">
   <path fill="#f36b08" d="M-2.2961 31.0551L0 25.5118L2.2961 31.0551L0 29.9464Z"/>
  </g>
 </g>
 <g stroke-width="1.603518">
  <path stroke="#f36b08" d="M0 56.6929L0 28.3465"/>
 </g>
 <path stroke="black" d="M0 56.6929L0 -0"/>
 <g stroke-width="1.603518">
  <path stroke="#f36b08" d="M56.6929 -0L29.9464 -0"/>
  <g stroke-linecap="butt" stroke-dasharray="none">
   <path fill="#f36b08" d="M31.0551 2.2961L25.5118 -0L31.0551 -2.2961L29.9464 -0Z"/>
  </g>
 </g>
 <g stroke-width="1.603518">
  <path stroke="#f36b08" d="M56.6929 -0L28.3465 -0"/>
 </g>
 <path stroke="black" d="M56.6929 -0L0 -0"/>
 <g stroke-width="1.603518">
  <path stroke="#f36b08" d="M56.6929 56.6929L29.9464 56.6929"/>
  <g stroke-linecap="butt" stroke-dasharray="none">
   <path fill="#f36b08" d="M31.0551 58.989L25.5118 56.6929L31.0551 54.3968L29.9464 56.6929Z"/>
  </g>
 </g>
 <g stroke-width="1.603518">
  <path stroke="#f36b08" d="M56.6929 56.6929L28.3465 56.6929"/>
 </g>
 <path stroke="black" d="M56.6929 56.6929L0 56.6929"/>
 <g stroke-width="0.801759">
  <path stroke="#ff1919" d="M58.6772 28.3465L58.6772 28.343A1.98425 1.98425 0 0 0 54.7087 28.3465A1.98425 1.98425 0 0 0 58.6772 28.3499Z"/>
 </g>
 <path stroke="black" d="M56.6929 -0L56.6929 56.6929"/>
 <g stroke-width="0.801759">
  <path stroke="#ff1919" d="M87.0236 -0L87.0236 -0.00346317A1.98425 1.98425 0 0 0 83.0551 -1.12419e-15A1.98425 1.98425 0 0 0 87.0236 0.00346317Z"/>
 </g>
 <path stroke="black" d="M56.6929 -0L113.386 -0"/>
 <g stroke-width="1.603518">
  <path stroke="#f36b08" d="M113.386 56.6929L86.6393 56.6929"/>
  <g stroke-linecap="butt" stroke-dasharray="none">
   <path fill="#f36b08" d="M87.748 58.989L82.2047 56.6929L87.748 54.3968L86.6393 56.6929Z"/>
  </g>
 </g>
 <g stroke-width="1.603518">
  <path stroke="#f36b08" d="M113.386 56.6929L85.0394 56.6929"/>
 </g>
 <path stroke="black" d="M113.386 56.6929L56.6929 56.6929"/>
 <g stroke-width="1.603518">
  <path stroke="#f36b08" d="M113.386 -0L113.386 26.7465"/>
  <g stroke-linecap="butt" stroke-dasharray="none">
   <path fill="#f36b08" d="M115.682 25.6378L113.386 31.1811L111.09 25.6378L113.386 26.7465Z"/>
  </g>
 </g>
 <g stroke-width="1.603518">
  <path stroke="#f36b08" d="M113.386 -0L113.386 28.3465"/>
 </g>
 <path stroke="black" d="M113.386 -0L113.386 56.6929"/>
 <g>
  <path fill="#fff" d="M3.9685 -0L3.9685 -0.00692634A3.9685 3.9685 0 0 0 -3.9685 -2.24837e-15A3.9685 3.9685 0 0 0 3.9685 0.00692634Z"/>
 </g>
 <g stroke-width="0.801759">
  <path stroke="#ff1919" d="M3.9685 -0L3.9685 -0.00692634A3.9685 3.9685 0 0 0 -3.9685 -2.24837e-15A3.9685 3.9685 0 0 0 3.9685 0.00692634Z"/>
 </g>
 <path fill="black" d="M1.98425 -0L1.98425 -0.00346317A1.98425 1.98425 0 0 0 -1.98425 -1.12419e-15A1.98425 1.98425 0 0 0 1.98425 0.00346317Z"/>
 <g>
  <path fill="#fff" d="M3.9685 56.6929L3.9685 56.686A3.9685 3.9685 0 0 0 -3.9685 56.6929A3.9685 3.9685 0 0 0 3.9685 56.6998Z"/>
 </g>
 <path fill="black" d="M1.98425 56.6929L1.98425 56.6895A1.98425 1.98425 0 0 0 -1.98425 56.6929A1.98425 1.98425 0 0 0 1.98425 56.6964Z"/>
 <g>
  <path fill="#fff" d="M60.6614 -0L60.6614 -0.00692634A3.9685 3.9685 0 0 0 52.7244 -2.24837e-15A3.9685 3.9685 0 0 0 60.6614 0.00692634Z"/>
 </g>
 <path fill="black" d="M58.6772 -0L58.6772 -0.00346317A1.98425 1.98425 0 0 0 54.7087 -1.12419e-15A1.98425 1.98425 0 0 0 58.6772 0.00346317Z"/>
 <g>
  <path fill="#fff" d="M60.6614 56.6929L60.6614 56.686A3.9685 3.9685 0 0 0 52.7244 56.6929A3.9685 3.9685 0 0 0 60.6614 56.6998Z"/>
 </g>
 <path fill="black" d="M58.6772 56.6929L58.6772 56.6895A1.98425 1.98425 0 0 0 54.7087 56.6929A1.98425 1.98425 0 0 0 58.6772 56.6964Z"/>
 <g>
  <path fill="#fff" d="M117.354 -0L117.354 -0.00692634A3.9685 3.9685 0 0 0 109.417 -2.24837e-15A3.9685 3.9685 0 0 0 117.354 0.00692634Z"/>
 </g>
 <path fill="black" d="M115.37 -0L115.37 -0.00346317A1.98425 1.98425 0 0 0 111.402 -1.12419e-15A1.98425 1.98425 0 0 0 115.37 0.00346317Z"/>
 <g>
  <path fill="#fff" d="M117.354 56.6929L117.354 56.686A3.9685 3.9685 0 0 0 109.417 56.6929A3.9685 3.9685 0 0 0 117.354 56.6998Z"/>
 </g>
 <path fill="black" d="M115.37 56.6929L115.37 56.6895A1.98425 1.98425 0 0 0 111.402 56.6929A1.98425 1.98425 0 0 0 115.37 56.6964Z"/>
</svg>
