<?xml version="1.0" encoding="utf-8"?>
<svg xmlns="http://www.w3.org/2000/svg" viewBox="-27.9674 -71.53 112.628 86.3672" height="86.3672pt" x="-27.9674pt" version="1.1" stroke-width="0.566929" fill="none" width="112.628pt" stroke-miterlimit="10.000000" y="-71.53pt">
 <g>
  <path fill="#d8d8d8" d="M5.66929 -5.66929L51.0236 -51.0236L5.66929 -51.0236L51.0236 -5.66929"/>
 </g>
 <g stroke-width="0.801759">
  <path stroke="#ff1919" d="M30.3307 -28.3465L30.3307 -28.3499A1.98425 1.98425 0 0 0 26.3622 -28.3465A1.98425 1.98425 0 0 0 30.3307 -28.343Z"/>
 </g>
 <g>
  <path fill="#d8d8d8" d="M5.66929 -5.66929L51.0236 -51.0236L5.66929 -51.0236L51.0236 -5.66929"/>
 </g>
 <g stroke-width="1.603518">
  <path stroke="#f36b08" d="M28.3465 -56.6929L28.3465 -32.7811"/>
  <g stroke-dasharray="none" stroke-linecap="butt">
   <path fill="#f36b08" d="M30.6426 -33.8897L28.3465 -28.3465L26.0504 -33.8897L28.3465 -32.7811Z"/>
  </g>
 </g>
 <g>
  <path fill="#d8d8d8" d="M5.66929 -5.66929L51.0236 -51.0236L5.66929 -51.0236L51.0236 -5.66929"/>
 </g>
 <g stroke-width="1.603518">
  <path stroke="#f36b08" d="M28.3465 -56.6929L28.3465 -32.7811"/>
  <g stroke-dasharray="none" stroke-linecap="butt">
   <path fill="#f36b08" d="M30.6426 -33.8897L28.3465 -28.3465L26.0504 -33.8897L28.3465 -32.7811Z"/>
  </g>
 </g>
 <g>
  <path fill="#d8d8d8" d="M5.66929 -5.66929L51.0236 -51.0236L5.66929 -51.0236L51.0236 -5.66929"/>
 </g>
 <g stroke-width="1.603518">
  <path stroke="#f36b08" d="M56.6929 -28.3465L32.7811 -28.3465"/>
  <g stroke-dasharray="none" stroke-linecap="butt">
   <path fill="#f36b08" d="M33.8897 -26.0504L28.3465 -28.3465L33.8897 -30.6426L32.7811 -28.3465Z"/>
  </g>
 </g>
 <g stroke-width="1.603518">
  <path stroke="#f36b08" d="M0 -56.6929L0 -32.7811"/>
  <g stroke-dasharray="none" stroke-linecap="butt">
   <path fill="#f36b08" d="M2.2961 -33.8897L0 -28.3465L-2.2961 -33.8897L0 -32.7811Z"/>
  </g>
 </g>
 <path stroke="black" d="M0 -56.6929L0 -0"/>
 <g transform="matrix(1.000000,0.000000,0.000000,1.000000,-9.921260,-18.425197)">
  <path fill="black" d="M-16.5878 0.373584M-15.1831 -1.92779C-14.8942 -1.92779 -14.1569 -1.94771 -13.6588 -2.15693C-12.9614 -2.45581 -12.9116 -3.0436 -12.9116 -3.18308C-12.9116 -3.62143 -13.2902 -4.0299 -13.9776 -4.0299C-15.0835 -4.0299 -16.5878 -3.06353 -16.5878 -1.32007C-16.5878 -0.303876 -16 0.483173 -15.0237 0.483173C-13.599 0.483173 -12.7622 -0.572867 -12.7622 -0.692419C-12.7622 -0.752195 -12.8219 -0.821933 -12.8817 -0.821933C-12.9315 -0.821933 -12.9515 -0.802008 -13.0112 -0.722307C-13.7983 0.263995 -14.8842 0.263995 -15.0038 0.263995C-15.7809 0.263995 -15.8705 -0.572867 -15.8705 -0.891671C-15.8705 -1.01122 -15.8606 -1.32007 -15.7111 -1.92779ZM-15.7111 -1.92779M-15.6513 -2.14696C-15.2628 -3.66129 -14.2366 -3.81073 -13.9776 -3.81073C-13.5094 -3.81073 -13.2404 -3.52181 -13.2404 -3.18308C-13.2404 -2.14696 -14.8344 -2.14696 -15.2429 -2.14696ZM-15.2429 -2.14696"/>
  <path fill="black" d="M-11.6052 2.17241M-9.93152 -3.05798C-11.2566 -2.12348 -11.6052 -0.645024 -11.6052 0.421975C-11.6052 1.40529 -11.3123 2.93256 -9.93152 3.9089C-9.87573 3.9089 -9.79205 3.9089 -9.79205 3.82521C-9.79205 3.78337 -9.81297 3.76942 -9.86178 3.7206C-10.7893 2.88374 -11.131 1.69819 -11.131 0.428949C-11.131 -1.45399 -10.4127 -2.37454 -9.84086 -2.8906C-9.81297 -2.9185 -9.79205 -2.93942 -9.79205 -2.97429C-9.79205 -3.05798 -9.87573 -3.05798 -9.93152 -3.05798ZM-9.93152 -3.05798M-8.93426 2.17241M-5.6984 -0.0522468C-5.6984 -0.81937 -5.78906 -1.3703 -6.10985 -1.85847C-6.32604 -2.17927 -6.75842 -2.45822 -7.31633 -2.45822C-8.93426 -2.45822 -8.93426 -0.554364 -8.93426 -0.0522468C-8.93426 0.44987 -8.93426 2.31189 -7.31633 2.31189C-5.6984 2.31189 -5.6984 0.44987 -5.6984 -0.0522468ZM-5.6984 -0.0522468M-7.31633 2.11662C-7.63713 2.11662 -8.06253 1.92833 -8.20201 1.35647C-8.29964 0.945013 -8.29964 0.373158 -8.29964 -0.142907C-8.29964 -0.651998 -8.29964 -1.18201 -8.19503 -1.56557C-8.04858 -2.11651 -7.60226 -2.26296 -7.31633 -2.26296C-6.93974 -2.26296 -6.5771 -2.03282 -6.45157 -1.62834C-6.33999 -1.25175 -6.33302 -0.749632 -6.33302 -0.142907C-6.33302 0.373158 -6.33302 0.889223 -6.42368 1.32858C-6.56315 1.9632 -7.03738 2.11662 -7.31633 2.11662ZM-7.31633 2.11662"/>
  <path fill="black" d="M-4.54159 2.17241M-3.85118 2.06083C-3.85118 2.44439 -3.92092 2.89072 -4.39514 3.33704C-4.42303 3.36494 -4.44396 3.38586 -4.44396 3.42073C-4.44396 3.46955 -4.38817 3.51836 -4.34632 3.51836C-4.24869 3.51836 -3.65591 2.96046 -3.65591 2.13057C-3.65591 1.69819 -3.82328 1.37042 -4.14408 1.37042C-4.37422 1.37042 -4.54159 1.55174 -4.54159 1.76793C-4.54159 1.99109 -4.38119 2.17241 -4.13711 2.17241C-3.96973 2.17241 -3.85815 2.06083 -3.85118 2.06083ZM-3.85118 2.06083"/>
  <path fill="black" d="M-2.59389 2.17241M0.641972 -0.0522468C0.641972 -0.81937 0.551312 -1.3703 0.230515 -1.85847C0.0143254 -2.17927 -0.418053 -2.45822 -0.975961 -2.45822C-2.59389 -2.45822 -2.59389 -0.554364 -2.59389 -0.0522468C-2.59389 0.44987 -2.59389 2.31189 -0.975961 2.31189C0.641972 2.31189 0.641972 0.44987 0.641972 -0.0522468ZM0.641972 -0.0522468M-0.975961 2.11662C-1.29676 2.11662 -1.72216 1.92833 -1.86164 1.35647C-1.95927 0.945013 -1.95927 0.373158 -1.95927 -0.142907C-1.95927 -0.651998 -1.95927 -1.18201 -1.85467 -1.56557C-1.70822 -2.11651 -1.26189 -2.26296 -0.975961 -2.26296C-0.599373 -2.26296 -0.236733 -2.03282 -0.111204 -1.62834C0.000377734 -1.25175 0.00735158 -0.749632 0.00735158 -0.142907C0.00735158 0.373158 0.00735158 0.889223 -0.0833084 1.32858C-0.222785 1.9632 -0.697007 2.11662 -0.975961 2.11662ZM-0.975961 2.11662"/>
  <path fill="black" d="M1.79577 2.17241M2.48619 2.06083C2.48619 2.44439 2.41645 2.89072 1.94223 3.33704C1.91433 3.36494 1.89341 3.38586 1.89341 3.42073C1.89341 3.46955 1.9492 3.51836 1.99104 3.51836C2.08868 3.51836 2.68145 2.96046 2.68145 2.13057C2.68145 1.69819 2.51408 1.37042 2.19328 1.37042C1.96315 1.37042 1.79577 1.55174 1.79577 1.76793C1.79577 1.99109 1.95617 2.17241 2.20026 2.17241C2.36763 2.17241 2.47921 2.06083 2.48619 2.06083ZM2.48619 2.06083"/>
  <path fill="black" d="M3.84409 0.179898M5.17411 -2.13642C5.17909 -2.1414 5.22392 -2.23604 5.22392 -2.31076C5.22392 -2.49009 5.06452 -2.60466 4.91508 -2.60466C4.71084 -2.60466 4.65605 -2.45024 4.63114 -2.37552L3.86402 -0.218608C3.84409 -0.158832 3.84409 -0.143888 3.84409 -0.138907C3.84409 -0.0592055 4.05331 -0.00939227 4.05829 -0.00939227C4.10312 -0.00939227 4.11308 -0.0342989 4.14297 -0.0940747ZM4.14297 -0.0940747"/>
  <path fill="black" d="M6.59864 2.17241M8.25842 -2.45822C8.26539 -2.47217 8.28631 -2.56283 8.28631 -2.56981C8.28631 -2.60468 8.25842 -2.66744 8.17473 -2.66744C8.03526 -2.66744 7.45643 -2.61165 7.28208 -2.5977C7.22629 -2.59073 7.12866 -2.58375 7.12866 -2.4373C7.12866 -2.33967 7.22629 -2.33967 7.30998 -2.33967C7.64472 -2.33967 7.64472 -2.29085 7.64472 -2.23506C7.64472 -2.18624 7.63077 -2.1444 7.61683 -2.08164L6.63351 1.86556C6.59864 1.99109 6.59864 2.00504 6.59864 2.01899C6.59864 2.12359 6.68233 2.24215 6.83575 2.24215C6.91247 2.24215 7.04497 2.20728 7.12168 2.06083C7.1426 2.01899 7.20537 1.76793 7.24024 1.62148L7.40064 1.0008C7.42156 0.896197 7.4913 0.63119 7.51222 0.526583C7.58196 0.261576 7.58196 0.254602 7.72143 0.0314394C7.9446 -0.310279 8.29329 -0.707789 8.83725 -0.707789C9.22778 -0.707789 9.24871 -0.386992 9.24871 -0.219619C9.24871 0.198812 8.94883 0.972909 8.83725 1.26581C8.76054 1.46108 8.73264 1.52384 8.73264 1.6424C8.73264 2.01201 9.03949 2.24215 9.39516 2.24215C10.0925 2.24215 10.3994 1.27976 10.3994 1.17515C10.3994 1.08449 10.3087 1.08449 10.2878 1.08449C10.1902 1.08449 10.1832 1.12633 10.1553 1.20305C9.99491 1.76095 9.68806 2.04688 9.41608 2.04688C9.26963 2.04688 9.24173 1.94925 9.24173 1.8028C9.24173 1.6424 9.2766 1.55174 9.40213 1.23792C9.48582 1.02173 9.77174 0.282498 9.77174 -0.108038C9.77174 -0.219619 9.77174 -0.512521 9.51371 -0.714762C9.39516 -0.805422 9.19292 -0.903056 8.86514 -0.903056C8.35605 -0.903056 7.98644 -0.624102 7.72841 -0.324227ZM7.72841 -0.324227"/>
  <path fill="black" d="M11.2031 0.179898M12.5331 -2.13642C12.5381 -2.1414 12.583 -2.23604 12.583 -2.31076C12.583 -2.49009 12.4235 -2.60466 12.2741 -2.60466C12.0699 -2.60466 12.0151 -2.45024 11.9902 -2.37552L11.223 -0.218608C11.2031 -0.158832 11.2031 -0.143888 11.2031 -0.138907C11.2031 -0.0592055 11.4123 -0.00939227 11.4173 -0.00939227C11.4622 -0.00939227 11.4721 -0.0342989 11.502 -0.0940747ZM11.502 -0.0940747"/>
  <path fill="black" d="M13.9298 2.17241M14.0623 -3.05798C14.0135 -3.05798 13.9298 -3.05798 13.9298 -2.97429C13.9298 -2.93942 13.9507 -2.9185 13.9925 -2.86968C14.5923 -2.31875 15.2618 -1.37728 15.2618 0.421975C15.2618 1.87951 14.8085 2.98138 14.0553 3.66481C13.9368 3.78337 13.9298 3.79034 13.9298 3.82521C13.9298 3.86008 13.9507 3.9089 14.0204 3.9089C14.1041 3.9089 14.7666 3.44862 15.2269 2.57689C15.5338 1.99806 15.736 1.24489 15.736 0.428949C15.736 -0.554364 15.4431 -2.08164 14.0623 -3.05798ZM14.0623 -3.05798"/>
 </g>
 <g stroke-width="1.603518">
  <path stroke="#f36b08" d="M0 -0L23.9118 -0"/>
  <g stroke-dasharray="none" stroke-linecap="butt">
   <path fill="#f36b08" d="M22.8032 -2.2961L28.3465 -0L22.8032 2.2961L23.9118 -0Z"/>
  </g>
 </g>
 <path stroke="black" d="M0 -0L56.6929 -0"/>
 <g transform="matrix(1.000000,0.000000,0.000000,1.000000,18.425197,9.921260)">
  <path fill="black" d="M-16.3733 0.373584M-14.9686 -1.92779C-14.6797 -1.92779 -13.9425 -1.94771 -13.4443 -2.15693C-12.7469 -2.45581 -12.6971 -3.0436 -12.6971 -3.18308C-12.6971 -3.62143 -13.0757 -4.0299 -13.7631 -4.0299C-14.869 -4.0299 -16.3733 -3.06353 -16.3733 -1.32007C-16.3733 -0.303876 -15.7855 0.483173 -14.8092 0.483173C-13.3846 0.483173 -12.5477 -0.572867 -12.5477 -0.692419C-12.5477 -0.752195 -12.6075 -0.821933 -12.6672 -0.821933C-12.7171 -0.821933 -12.737 -0.802008 -12.7968 -0.722307C-13.5838 0.263995 -14.6697 0.263995 -14.7893 0.263995C-15.5664 0.263995 -15.656 -0.572867 -15.656 -0.891671C-15.656 -1.01122 -15.6461 -1.32007 -15.4966 -1.92779ZM-15.4966 -1.92779M-15.4369 -2.14696C-15.0483 -3.66129 -14.0222 -3.81073 -13.7631 -3.81073C-13.2949 -3.81073 -13.0259 -3.52181 -13.0259 -3.18308C-13.0259 -2.14696 -14.6199 -2.14696 -15.0284 -2.14696ZM-15.0284 -2.14696"/>
  <path fill="black" d="M-11.3908 2.17241M-9.71704 -3.05798C-11.0421 -2.12348 -11.3908 -0.645024 -11.3908 0.421975C-11.3908 1.40529 -11.0979 2.93256 -9.71704 3.9089C-9.66125 3.9089 -9.57756 3.9089 -9.57756 3.82521C-9.57756 3.78337 -9.59849 3.76942 -9.6473 3.7206C-10.5748 2.88374 -10.9165 1.69819 -10.9165 0.428949C-10.9165 -1.45399 -10.1982 -2.37454 -9.62638 -2.8906C-9.59849 -2.9185 -9.57756 -2.93942 -9.57756 -2.97429C-9.57756 -3.05798 -9.66125 -3.05798 -9.71704 -3.05798ZM-9.71704 -3.05798M-8.71978 2.17241M-5.48391 -0.0522468C-5.48391 -0.81937 -5.57457 -1.3703 -5.89537 -1.85847C-6.11156 -2.17927 -6.54394 -2.45822 -7.10185 -2.45822C-8.71978 -2.45822 -8.71978 -0.554364 -8.71978 -0.0522468C-8.71978 0.44987 -8.71978 2.31189 -7.10185 2.31189C-5.48391 2.31189 -5.48391 0.44987 -5.48391 -0.0522468ZM-5.48391 -0.0522468M-7.10185 2.11662C-7.42264 2.11662 -7.84805 1.92833 -7.98753 1.35647C-8.08516 0.945013 -8.08516 0.373158 -8.08516 -0.142907C-8.08516 -0.651998 -8.08516 -1.18201 -7.98055 -1.56557C-7.8341 -2.11651 -7.38778 -2.26296 -7.10185 -2.26296C-6.72526 -2.26296 -6.36262 -2.03282 -6.23709 -1.62834C-6.12551 -1.25175 -6.11854 -0.749632 -6.11854 -0.142907C-6.11854 0.373158 -6.11854 0.889223 -6.2092 1.32858C-6.34867 1.9632 -6.82289 2.11662 -7.10185 2.11662ZM-7.10185 2.11662"/>
  <path fill="black" d="M-4.32711 2.17241M-3.6367 2.06083C-3.6367 2.44439 -3.70644 2.89072 -4.18066 3.33704C-4.20855 3.36494 -4.22947 3.38586 -4.22947 3.42073C-4.22947 3.46955 -4.17368 3.51836 -4.13184 3.51836C-4.03421 3.51836 -3.44143 2.96046 -3.44143 2.13057C-3.44143 1.69819 -3.6088 1.37042 -3.9296 1.37042C-4.15974 1.37042 -4.32711 1.55174 -4.32711 1.76793C-4.32711 1.99109 -4.16671 2.17241 -3.92262 2.17241C-3.75525 2.17241 -3.64367 2.06083 -3.6367 2.06083ZM-3.6367 2.06083"/>
  <path fill="black" d="M-2.37941 2.17241M0.856454 -0.0522468C0.856454 -0.81937 0.765794 -1.3703 0.444997 -1.85847C0.228807 -2.17927 -0.203571 -2.45822 -0.761479 -2.45822C-2.37941 -2.45822 -2.37941 -0.554364 -2.37941 -0.0522468C-2.37941 0.44987 -2.37941 2.31189 -0.761479 2.31189C0.856454 2.31189 0.856454 0.44987 0.856454 -0.0522468ZM0.856454 -0.0522468M-0.761479 2.11662C-1.08228 2.11662 -1.50768 1.92833 -1.64716 1.35647C-1.74479 0.945013 -1.74479 0.373158 -1.74479 -0.142907C-1.74479 -0.651998 -1.74479 -1.18201 -1.64018 -1.56557C-1.49373 -2.11651 -1.04741 -2.26296 -0.761479 -2.26296C-0.384891 -2.26296 -0.0222512 -2.03282 0.103278 -1.62834C0.21486 -1.25175 0.221834 -0.749632 0.221834 -0.142907C0.221834 0.373158 0.221834 0.889223 0.131174 1.32858C-0.00830346 1.9632 -0.482525 2.11662 -0.761479 2.11662ZM-0.761479 2.11662"/>
  <path fill="black" d="M2.01026 2.17241M2.70067 2.06083C2.70067 2.44439 2.63093 2.89072 2.15671 3.33704C2.12881 3.36494 2.10789 3.38586 2.10789 3.42073C2.10789 3.46955 2.16368 3.51836 2.20552 3.51836C2.30316 3.51836 2.89594 2.96046 2.89594 2.13057C2.89594 1.69819 2.72856 1.37042 2.40777 1.37042C2.17763 1.37042 2.01026 1.55174 2.01026 1.76793C2.01026 1.99109 2.17066 2.17241 2.41474 2.17241C2.58211 2.17241 2.69369 2.06083 2.70067 2.06083ZM2.70067 2.06083"/>
  <path fill="black" d="M4.05858 0.179898M5.38859 -2.13642C5.39357 -2.1414 5.4384 -2.23604 5.4384 -2.31076C5.4384 -2.49009 5.279 -2.60466 5.12956 -2.60466C4.92533 -2.60466 4.87053 -2.45024 4.84562 -2.37552L4.0785 -0.218608C4.05858 -0.158832 4.05858 -0.143888 4.05858 -0.138907C4.05858 -0.0592055 4.26779 -0.00939227 4.27277 -0.00939227C4.3176 -0.00939227 4.32757 -0.0342989 4.35745 -0.0940747ZM4.35745 -0.0940747"/>
  <path fill="black" d="M6.61786 2.17241M10.0141 -0.359096C10.0141 -0.903056 9.68635 -0.91003 9.66543 -0.91003C9.48411 -0.91003 9.28884 -0.721736 9.28884 -0.540416C9.28884 -0.421861 9.35858 -0.36607 9.4074 -0.324227C9.52595 -0.226593 9.66543 -0.045273 9.66543 0.233681C9.66543 0.547504 9.20516 2.04688 8.37527 2.04688C7.81039 2.04688 7.81039 1.54476 7.81039 1.42621C7.81039 1.10541 7.93592 0.714876 8.19395 0.0663086C8.24974 -0.0801422 8.29158 -0.18475 8.29158 -0.303305C8.29158 -0.665945 7.98473 -0.903056 7.62907 -0.903056C6.93168 -0.903056 6.61786 0.0523609 6.61786 0.163942C6.61786 0.254602 6.71549 0.254602 6.73641 0.254602C6.83405 0.254602 6.84102 0.219733 6.86194 0.143021C7.02931 -0.428835 7.32919 -0.707789 7.60814 -0.707789C7.7267 -0.707789 7.78249 -0.631076 7.78249 -0.463704C7.78249 -0.303305 7.7267 -0.156855 7.65696 0.00354396C7.35709 0.777641 7.28037 1.07752 7.28037 1.32858C7.28037 2.01899 7.82433 2.24215 8.35435 2.24215C9.52595 2.24215 10.0141 0.212759 10.0141 -0.359096ZM10.0141 -0.359096"/>
  <path fill="black" d="M10.9887 0.179898M12.3187 -2.13642C12.3237 -2.1414 12.3685 -2.23604 12.3685 -2.31076C12.3685 -2.49009 12.2091 -2.60466 12.0596 -2.60466C11.8554 -2.60466 11.8006 -2.45024 11.7757 -2.37552L11.0086 -0.218608C10.9887 -0.158832 10.9887 -0.143888 10.9887 -0.138907C10.9887 -0.0592055 11.1979 -0.00939227 11.2029 -0.00939227C11.2477 -0.00939227 11.2576 -0.0342989 11.2875 -0.0940747ZM11.2875 -0.0940747"/>
  <path fill="black" d="M13.7153 2.17241M13.8478 -3.05798C13.799 -3.05798 13.7153 -3.05798 13.7153 -2.97429C13.7153 -2.93942 13.7362 -2.9185 13.7781 -2.86968C14.3778 -2.31875 15.0473 -1.37728 15.0473 0.421975C15.0473 1.87951 14.594 2.98138 13.8408 3.66481C13.7223 3.78337 13.7153 3.79034 13.7153 3.82521C13.7153 3.86008 13.7362 3.9089 13.806 3.9089C13.8897 3.9089 14.5522 3.44862 15.0124 2.57689C15.3193 1.99806 15.5215 1.24489 15.5215 0.428949C15.5215 -0.554364 15.2286 -2.08164 13.8478 -3.05798ZM13.8478 -3.05798"/>
 </g>
 <g stroke-width="0.801759">
  <path stroke="#ff1919" d="M1.98425 -28.3465L1.98425 -28.3499A1.98425 1.98425 0 0 0 -1.98425 -28.3465A1.98425 1.98425 0 0 0 1.98425 -28.343Z"/>
 </g>
 <path stroke="black" d="M0 -0L0 -56.6929"/>
 <g transform="matrix(1.000000,0.000000,0.000000,1.000000,-9.921260,-28.346457)">
  <path fill="black" d="M-16.5878 0.373584M-15.1831 -1.92779C-14.8942 -1.92779 -14.1569 -1.94771 -13.6588 -2.15693C-12.9614 -2.45581 -12.9116 -3.0436 -12.9116 -3.18308C-12.9116 -3.62143 -13.2902 -4.0299 -13.9776 -4.0299C-15.0835 -4.0299 -16.5878 -3.06353 -16.5878 -1.32007C-16.5878 -0.303876 -16 0.483173 -15.0237 0.483173C-13.599 0.483173 -12.7622 -0.572867 -12.7622 -0.692419C-12.7622 -0.752195 -12.8219 -0.821933 -12.8817 -0.821933C-12.9315 -0.821933 -12.9515 -0.802008 -13.0112 -0.722307C-13.7983 0.263995 -14.8842 0.263995 -15.0038 0.263995C-15.7809 0.263995 -15.8705 -0.572867 -15.8705 -0.891671C-15.8705 -1.01122 -15.8606 -1.32007 -15.7111 -1.92779ZM-15.7111 -1.92779M-15.6513 -2.14696C-15.2628 -3.66129 -14.2366 -3.81073 -13.9776 -3.81073C-13.5094 -3.81073 -13.2404 -3.52181 -13.2404 -3.18308C-13.2404 -2.14696 -14.8344 -2.14696 -15.2429 -2.14696ZM-15.2429 -2.14696"/>
  <path fill="black" d="M-11.6052 2.17241M-9.93152 -3.05798C-11.2566 -2.12348 -11.6052 -0.645024 -11.6052 0.421975C-11.6052 1.40529 -11.3123 2.93256 -9.93152 3.9089C-9.87573 3.9089 -9.79205 3.9089 -9.79205 3.82521C-9.79205 3.78337 -9.81297 3.76942 -9.86178 3.7206C-10.7893 2.88374 -11.131 1.69819 -11.131 0.428949C-11.131 -1.45399 -10.4127 -2.37454 -9.84086 -2.8906C-9.81297 -2.9185 -9.79205 -2.93942 -9.79205 -2.97429C-9.79205 -3.05798 -9.87573 -3.05798 -9.93152 -3.05798ZM-9.93152 -3.05798M-8.93426 2.17241M-5.6984 -0.0522468C-5.6984 -0.81937 -5.78906 -1.3703 -6.10985 -1.85847C-6.32604 -2.17927 -6.75842 -2.45822 -7.31633 -2.45822C-8.93426 -2.45822 -8.93426 -0.554364 -8.93426 -0.0522468C-8.93426 0.44987 -8.93426 2.31189 -7.31633 2.31189C-5.6984 2.31189 -5.6984 0.44987 -5.6984 -0.0522468ZM-5.6984 -0.0522468M-7.31633 2.11662C-7.63713 2.11662 -8.06253 1.92833 -8.20201 1.35647C-8.29964 0.945013 -8.29964 0.373158 -8.29964 -0.142907C-8.29964 -0.651998 -8.29964 -1.18201 -8.19503 -1.56557C-8.04858 -2.11651 -7.60226 -2.26296 -7.31633 -2.26296C-6.93974 -2.26296 -6.5771 -2.03282 -6.45157 -1.62834C-6.33999 -1.25175 -6.33302 -0.749632 -6.33302 -0.142907C-6.33302 0.373158 -6.33302 0.889223 -6.42368 1.32858C-6.56315 1.9632 -7.03738 2.11662 -7.31633 2.11662ZM-7.31633 2.11662"/>
  <path fill="black" d="M-4.54159 2.17241M-3.85118 2.06083C-3.85118 2.44439 -3.92092 2.89072 -4.39514 3.33704C-4.42303 3.36494 -4.44396 3.38586 -4.44396 3.42073C-4.44396 3.46955 -4.38817 3.51836 -4.34632 3.51836C-4.24869 3.51836 -3.65591 2.96046 -3.65591 2.13057C-3.65591 1.69819 -3.82328 1.37042 -4.14408 1.37042C-4.37422 1.37042 -4.54159 1.55174 -4.54159 1.76793C-4.54159 1.99109 -4.38119 2.17241 -4.13711 2.17241C-3.96973 2.17241 -3.85815 2.06083 -3.85118 2.06083ZM-3.85118 2.06083"/>
  <path fill="black" d="M-2.19638 2.17241M-0.620295 -2.26296C-0.620295 -2.45125 -0.634242 -2.45822 -0.82951 -2.45822C-1.27584 -2.01887 -1.91046 -2.0119 -2.19638 -2.0119L-2.19638 -1.76084C-2.02901 -1.76084 -1.56874 -1.76084 -1.18518 -1.95611L-1.18518 1.60056C-1.18518 1.83069 -1.18518 1.92135 -1.88256 1.92135L-2.14757 1.92135L-2.14757 2.17241C-2.02204 2.16544 -1.16425 2.14452 -0.906223 2.14452C-0.690033 2.14452 0.188672 2.16544 0.342096 2.17241L0.342096 1.92135L0.0770901 1.92135C-0.620295 1.92135 -0.620295 1.83069 -0.620295 1.60056ZM-0.620295 1.60056"/>
  <path fill="black" d="M1.79577 2.17241M2.48619 2.06083C2.48619 2.44439 2.41645 2.89072 1.94223 3.33704C1.91433 3.36494 1.89341 3.38586 1.89341 3.42073C1.89341 3.46955 1.9492 3.51836 1.99104 3.51836C2.08868 3.51836 2.68145 2.96046 2.68145 2.13057C2.68145 1.69819 2.51408 1.37042 2.19328 1.37042C1.96315 1.37042 1.79577 1.55174 1.79577 1.76793C1.79577 1.99109 1.95617 2.17241 2.20026 2.17241C2.36763 2.17241 2.47921 2.06083 2.48619 2.06083ZM2.48619 2.06083"/>
  <path fill="black" d="M3.84409 0.179898M5.17411 -2.13642C5.17909 -2.1414 5.22392 -2.23604 5.22392 -2.31076C5.22392 -2.49009 5.06452 -2.60466 4.91508 -2.60466C4.71084 -2.60466 4.65605 -2.45024 4.63114 -2.37552L3.86402 -0.218608C3.84409 -0.158832 3.84409 -0.143888 3.84409 -0.138907C3.84409 -0.0592055 4.05331 -0.00939227 4.05829 -0.00939227C4.10312 -0.00939227 4.11308 -0.0342989 4.14297 -0.0940747ZM4.14297 -0.0940747"/>
  <path fill="black" d="M6.59864 2.17241M8.25842 -2.45822C8.26539 -2.47217 8.28631 -2.56283 8.28631 -2.56981C8.28631 -2.60468 8.25842 -2.66744 8.17473 -2.66744C8.03526 -2.66744 7.45643 -2.61165 7.28208 -2.5977C7.22629 -2.59073 7.12866 -2.58375 7.12866 -2.4373C7.12866 -2.33967 7.22629 -2.33967 7.30998 -2.33967C7.64472 -2.33967 7.64472 -2.29085 7.64472 -2.23506C7.64472 -2.18624 7.63077 -2.1444 7.61683 -2.08164L6.63351 1.86556C6.59864 1.99109 6.59864 2.00504 6.59864 2.01899C6.59864 2.12359 6.68233 2.24215 6.83575 2.24215C6.91247 2.24215 7.04497 2.20728 7.12168 2.06083C7.1426 2.01899 7.20537 1.76793 7.24024 1.62148L7.40064 1.0008C7.42156 0.896197 7.4913 0.63119 7.51222 0.526583C7.58196 0.261576 7.58196 0.254602 7.72143 0.0314394C7.9446 -0.310279 8.29329 -0.707789 8.83725 -0.707789C9.22778 -0.707789 9.24871 -0.386992 9.24871 -0.219619C9.24871 0.198812 8.94883 0.972909 8.83725 1.26581C8.76054 1.46108 8.73264 1.52384 8.73264 1.6424C8.73264 2.01201 9.03949 2.24215 9.39516 2.24215C10.0925 2.24215 10.3994 1.27976 10.3994 1.17515C10.3994 1.08449 10.3087 1.08449 10.2878 1.08449C10.1902 1.08449 10.1832 1.12633 10.1553 1.20305C9.99491 1.76095 9.68806 2.04688 9.41608 2.04688C9.26963 2.04688 9.24173 1.94925 9.24173 1.8028C9.24173 1.6424 9.2766 1.55174 9.40213 1.23792C9.48582 1.02173 9.77174 0.282498 9.77174 -0.108038C9.77174 -0.219619 9.77174 -0.512521 9.51371 -0.714762C9.39516 -0.805422 9.19292 -0.903056 8.86514 -0.903056C8.35605 -0.903056 7.98644 -0.624102 7.72841 -0.324227ZM7.72841 -0.324227"/>
  <path fill="black" d="M11.2031 0.179898M12.5331 -2.13642C12.5381 -2.1414 12.583 -2.23604 12.583 -2.31076C12.583 -2.49009 12.4235 -2.60466 12.2741 -2.60466C12.0699 -2.60466 12.0151 -2.45024 11.9902 -2.37552L11.223 -0.218608C11.2031 -0.158832 11.2031 -0.143888 11.2031 -0.138907C11.2031 -0.0592055 11.4123 -0.00939227 11.4173 -0.00939227C11.4622 -0.00939227 11.4721 -0.0342989 11.502 -0.0940747ZM11.502 -0.0940747"/>
  <path fill="black" d="M13.9298 2.17241M14.0623 -3.05798C14.0135 -3.05798 13.9298 -3.05798 13.9298 -2.97429C13.9298 -2.93942 13.9507 -2.9185 13.9925 -2.86968C14.5923 -2.31875 15.2618 -1.37728 15.2618 0.421975C15.2618 1.87951 14.8085 2.98138 14.0553 3.66481C13.9368 3.78337 13.9298 3.79034 13.9298 3.82521C13.9298 3.86008 13.9507 3.9089 14.0204 3.9089C14.1041 3.9089 14.7666 3.44862 15.2269 2.57689C15.5338 1.99806 15.736 1.24489 15.736 0.428949C15.736 -0.554364 15.4431 -2.08164 14.0623 -3.05798ZM14.0623 -3.05798"/>
 </g>
 <path stroke="black" d="M0 -56.6929L56.6929 -56.6929"/>
 <g transform="matrix(1.000000,0.000000,0.000000,1.000000,18.425197,-66.614173)">
  <path fill="black" d="M-16.3733 0.373584M-14.9686 -1.92779C-14.6797 -1.92779 -13.9425 -1.94771 -13.4443 -2.15693C-12.7469 -2.45581 -12.6971 -3.0436 -12.6971 -3.18308C-12.6971 -3.62143 -13.0757 -4.0299 -13.7631 -4.0299C-14.869 -4.0299 -16.3733 -3.06353 -16.3733 -1.32007C-16.3733 -0.303876 -15.7855 0.483173 -14.8092 0.483173C-13.3846 0.483173 -12.5477 -0.572867 -12.5477 -0.692419C-12.5477 -0.752195 -12.6075 -0.821933 -12.6672 -0.821933C-12.7171 -0.821933 -12.737 -0.802008 -12.7968 -0.722307C-13.5838 0.263995 -14.6697 0.263995 -14.7893 0.263995C-15.5664 0.263995 -15.656 -0.572867 -15.656 -0.891671C-15.656 -1.01122 -15.6461 -1.32007 -15.4966 -1.92779ZM-15.4966 -1.92779M-15.4369 -2.14696C-15.0483 -3.66129 -14.0222 -3.81073 -13.7631 -3.81073C-13.2949 -3.81073 -13.0259 -3.52181 -13.0259 -3.18308C-13.0259 -2.14696 -14.6199 -2.14696 -15.0284 -2.14696ZM-15.0284 -2.14696"/>
  <path fill="black" d="M-11.3908 2.17241M-9.71704 -3.05798C-11.0421 -2.12348 -11.3908 -0.645024 -11.3908 0.421975C-11.3908 1.40529 -11.0979 2.93256 -9.71704 3.9089C-9.66125 3.9089 -9.57756 3.9089 -9.57756 3.82521C-9.57756 3.78337 -9.59849 3.76942 -9.6473 3.7206C-10.5748 2.88374 -10.9165 1.69819 -10.9165 0.428949C-10.9165 -1.45399 -10.1982 -2.37454 -9.62638 -2.8906C-9.59849 -2.9185 -9.57756 -2.93942 -9.57756 -2.97429C-9.57756 -3.05798 -9.66125 -3.05798 -9.71704 -3.05798ZM-9.71704 -3.05798M-8.71978 2.17241M-5.48391 -0.0522468C-5.48391 -0.81937 -5.57457 -1.3703 -5.89537 -1.85847C-6.11156 -2.17927 -6.54394 -2.45822 -7.10185 -2.45822C-8.71978 -2.45822 -8.71978 -0.554364 -8.71978 -0.0522468C-8.71978 0.44987 -8.71978 2.31189 -7.10185 2.31189C-5.48391 2.31189 -5.48391 0.44987 -5.48391 -0.0522468ZM-5.48391 -0.0522468M-7.10185 2.11662C-7.42264 2.11662 -7.84805 1.92833 -7.98753 1.35647C-8.08516 0.945013 -8.08516 0.373158 -8.08516 -0.142907C-8.08516 -0.651998 -8.08516 -1.18201 -7.98055 -1.56557C-7.8341 -2.11651 -7.38778 -2.26296 -7.10185 -2.26296C-6.72526 -2.26296 -6.36262 -2.03282 -6.23709 -1.62834C-6.12551 -1.25175 -6.11854 -0.749632 -6.11854 -0.142907C-6.11854 0.373158 -6.11854 0.889223 -6.2092 1.32858C-6.34867 1.9632 -6.82289 2.11662 -7.10185 2.11662ZM-7.10185 2.11662"/>
  <path fill="black" d="M-4.32711 2.17241M-3.6367 2.06083C-3.6367 2.44439 -3.70644 2.89072 -4.18066 3.33704C-4.20855 3.36494 -4.22947 3.38586 -4.22947 3.42073C-4.22947 3.46955 -4.17368 3.51836 -4.13184 3.51836C-4.03421 3.51836 -3.44143 2.96046 -3.44143 2.13057C-3.44143 1.69819 -3.6088 1.37042 -3.9296 1.37042C-4.15974 1.37042 -4.32711 1.55174 -4.32711 1.76793C-4.32711 1.99109 -4.16671 2.17241 -3.92262 2.17241C-3.75525 2.17241 -3.64367 2.06083 -3.6367 2.06083ZM-3.6367 2.06083"/>
  <path fill="black" d="M-1.9819 2.17241M-0.405813 -2.26296C-0.405813 -2.45125 -0.41976 -2.45822 -0.615028 -2.45822C-1.06135 -2.01887 -1.69597 -2.0119 -1.9819 -2.0119L-1.9819 -1.76084C-1.81453 -1.76084 -1.35426 -1.76084 -0.970694 -1.95611L-0.970694 1.60056C-0.970694 1.83069 -0.970694 1.92135 -1.66808 1.92135L-1.93309 1.92135L-1.93309 2.17241C-1.80756 2.16544 -0.949773 2.14452 -0.691741 2.14452C-0.475551 2.14452 0.403154 2.16544 0.556578 2.17241L0.556578 1.92135L0.291572 1.92135C-0.405813 1.92135 -0.405813 1.83069 -0.405813 1.60056ZM-0.405813 1.60056"/>
  <path fill="black" d="M2.01026 2.17241M2.70067 2.06083C2.70067 2.44439 2.63093 2.89072 2.15671 3.33704C2.12881 3.36494 2.10789 3.38586 2.10789 3.42073C2.10789 3.46955 2.16368 3.51836 2.20552 3.51836C2.30316 3.51836 2.89594 2.96046 2.89594 2.13057C2.89594 1.69819 2.72856 1.37042 2.40777 1.37042C2.17763 1.37042 2.01026 1.55174 2.01026 1.76793C2.01026 1.99109 2.17066 2.17241 2.41474 2.17241C2.58211 2.17241 2.69369 2.06083 2.70067 2.06083ZM2.70067 2.06083"/>
  <path fill="black" d="M4.05858 0.179898M5.38859 -2.13642C5.39357 -2.1414 5.4384 -2.23604 5.4384 -2.31076C5.4384 -2.49009 5.279 -2.60466 5.12956 -2.60466C4.92533 -2.60466 4.87053 -2.45024 4.84562 -2.37552L4.0785 -0.218608C4.05858 -0.158832 4.05858 -0.143888 4.05858 -0.138907C4.05858 -0.0592055 4.26779 -0.00939227 4.27277 -0.00939227C4.3176 -0.00939227 4.32757 -0.0342989 4.35745 -0.0940747ZM4.35745 -0.0940747"/>
  <path fill="black" d="M6.61786 2.17241M10.0141 -0.359096C10.0141 -0.903056 9.68635 -0.91003 9.66543 -0.91003C9.48411 -0.91003 9.28884 -0.721736 9.28884 -0.540416C9.28884 -0.421861 9.35858 -0.36607 9.4074 -0.324227C9.52595 -0.226593 9.66543 -0.045273 9.66543 0.233681C9.66543 0.547504 9.20516 2.04688 8.37527 2.04688C7.81039 2.04688 7.81039 1.54476 7.81039 1.42621C7.81039 1.10541 7.93592 0.714876 8.19395 0.0663086C8.24974 -0.0801422 8.29158 -0.18475 8.29158 -0.303305C8.29158 -0.665945 7.98473 -0.903056 7.62907 -0.903056C6.93168 -0.903056 6.61786 0.0523609 6.61786 0.163942C6.61786 0.254602 6.71549 0.254602 6.73641 0.254602C6.83405 0.254602 6.84102 0.219733 6.86194 0.143021C7.02931 -0.428835 7.32919 -0.707789 7.60814 -0.707789C7.7267 -0.707789 7.78249 -0.631076 7.78249 -0.463704C7.78249 -0.303305 7.7267 -0.156855 7.65696 0.00354396C7.35709 0.777641 7.28037 1.07752 7.28037 1.32858C7.28037 2.01899 7.82433 2.24215 8.35435 2.24215C9.52595 2.24215 10.0141 0.212759 10.0141 -0.359096ZM10.0141 -0.359096"/>
  <path fill="black" d="M10.9887 0.179898M12.3187 -2.13642C12.3237 -2.1414 12.3685 -2.23604 12.3685 -2.31076C12.3685 -2.49009 12.2091 -2.60466 12.0596 -2.60466C11.8554 -2.60466 11.8006 -2.45024 11.7757 -2.37552L11.0086 -0.218608C10.9887 -0.158832 10.9887 -0.143888 10.9887 -0.138907C10.9887 -0.0592055 11.1979 -0.00939227 11.2029 -0.00939227C11.2477 -0.00939227 11.2576 -0.0342989 11.2875 -0.0940747ZM11.2875 -0.0940747"/>
  <path fill="black" d="M13.7153 2.17241M13.8478 -3.05798C13.799 -3.05798 13.7153 -3.05798 13.7153 -2.97429C13.7153 -2.93942 13.7362 -2.9185 13.7781 -2.86968C14.3778 -2.31875 15.0473 -1.37728 15.0473 0.421975C15.0473 1.87951 14.594 2.98138 13.8408 3.66481C13.7223 3.78337 13.7153 3.79034 13.7153 3.82521C13.7153 3.86008 13.7362 3.9089 13.806 3.9089C13.8897 3.9089 14.5522 3.44862 15.0124 2.57689C15.3193 1.99806 15.5215 1.24489 15.5215 0.428949C15.5215 -0.554364 15.2286 -2.08164 13.8478 -3.05798ZM13.8478 -3.05798"/>
 </g>
 <g stroke-width="1.603518">
  <path stroke="#f36b08" d="M56.6929 -0L56.6929 -23.9118"/>
  <g stroke-dasharray="none" stroke-linecap="butt">
   <path fill="#f36b08" d="M54.3968 -22.8032L56.6929 -28.3465L58.989 -22.8032L56.6929 -23.9118Z"/>
  </g>
 </g>
 <path stroke="black" d="M56.6929 -0L56.6929 -56.6929"/>
 <g transform="matrix(1.000000,0.000000,0.000000,1.000000,66.614173,-18.425197)">
  <path fill="black" d="M-16.5878 0.373584M-15.1831 -1.92779C-14.8942 -1.92779 -14.1569 -1.94771 -13.6588 -2.15693C-12.9614 -2.45581 -12.9116 -3.0436 -12.9116 -3.18308C-12.9116 -3.62143 -13.2902 -4.0299 -13.9776 -4.0299C-15.0835 -4.0299 -16.5878 -3.06353 -16.5878 -1.32007C-16.5878 -0.303876 -16 0.483173 -15.0237 0.483173C-13.599 0.483173 -12.7622 -0.572867 -12.7622 -0.692419C-12.7622 -0.752195 -12.8219 -0.821933 -12.8817 -0.821933C-12.9315 -0.821933 -12.9515 -0.802008 -13.0112 -0.722307C-13.7983 0.263995 -14.8842 0.263995 -15.0038 0.263995C-15.7809 0.263995 -15.8705 -0.572867 -15.8705 -0.891671C-15.8705 -1.01122 -15.8606 -1.32007 -15.7111 -1.92779ZM-15.7111 -1.92779M-15.6513 -2.14696C-15.2628 -3.66129 -14.2366 -3.81073 -13.9776 -3.81073C-13.5094 -3.81073 -13.2404 -3.52181 -13.2404 -3.18308C-13.2404 -2.14696 -14.8344 -2.14696 -15.2429 -2.14696ZM-15.2429 -2.14696"/>
  <path fill="black" d="M-11.6052 2.17241M-9.93152 -3.05798C-11.2566 -2.12348 -11.6052 -0.645024 -11.6052 0.421975C-11.6052 1.40529 -11.3123 2.93256 -9.93152 3.9089C-9.87573 3.9089 -9.79205 3.9089 -9.79205 3.82521C-9.79205 3.78337 -9.81297 3.76942 -9.86178 3.7206C-10.7893 2.88374 -11.131 1.69819 -11.131 0.428949C-11.131 -1.45399 -10.4127 -2.37454 -9.84086 -2.8906C-9.81297 -2.9185 -9.79205 -2.93942 -9.79205 -2.97429C-9.79205 -3.05798 -9.87573 -3.05798 -9.93152 -3.05798ZM-9.93152 -3.05798M-8.53675 2.17241M-6.96066 -2.26296C-6.96066 -2.45125 -6.97461 -2.45822 -7.16988 -2.45822C-7.61621 -2.01887 -8.25083 -2.0119 -8.53675 -2.0119L-8.53675 -1.76084C-8.36938 -1.76084 -7.90911 -1.76084 -7.52555 -1.95611L-7.52555 1.60056C-7.52555 1.83069 -7.52555 1.92135 -8.22293 1.92135L-8.48794 1.92135L-8.48794 2.17241C-8.36241 2.16544 -7.50462 2.14452 -7.24659 2.14452C-7.0304 2.14452 -6.1517 2.16544 -5.99827 2.17241L-5.99827 1.92135L-6.26328 1.92135C-6.96066 1.92135 -6.96066 1.83069 -6.96066 1.60056ZM-6.96066 1.60056"/>
  <path fill="black" d="M-4.54159 2.17241M-3.85118 2.06083C-3.85118 2.44439 -3.92092 2.89072 -4.39514 3.33704C-4.42303 3.36494 -4.44396 3.38586 -4.44396 3.42073C-4.44396 3.46955 -4.38817 3.51836 -4.34632 3.51836C-4.24869 3.51836 -3.65591 2.96046 -3.65591 2.13057C-3.65591 1.69819 -3.82328 1.37042 -4.14408 1.37042C-4.37422 1.37042 -4.54159 1.55174 -4.54159 1.76793C-4.54159 1.99109 -4.38119 2.17241 -4.13711 2.17241C-3.96973 2.17241 -3.85815 2.06083 -3.85118 2.06083ZM-3.85118 2.06083"/>
  <path fill="black" d="M-2.59389 2.17241M0.641972 -0.0522468C0.641972 -0.81937 0.551312 -1.3703 0.230515 -1.85847C0.0143254 -2.17927 -0.418053 -2.45822 -0.975961 -2.45822C-2.59389 -2.45822 -2.59389 -0.554364 -2.59389 -0.0522468C-2.59389 0.44987 -2.59389 2.31189 -0.975961 2.31189C0.641972 2.31189 0.641972 0.44987 0.641972 -0.0522468ZM0.641972 -0.0522468M-0.975961 2.11662C-1.29676 2.11662 -1.72216 1.92833 -1.86164 1.35647C-1.95927 0.945013 -1.95927 0.373158 -1.95927 -0.142907C-1.95927 -0.651998 -1.95927 -1.18201 -1.85467 -1.56557C-1.70822 -2.11651 -1.26189 -2.26296 -0.975961 -2.26296C-0.599373 -2.26296 -0.236733 -2.03282 -0.111204 -1.62834C0.000377734 -1.25175 0.00735158 -0.749632 0.00735158 -0.142907C0.00735158 0.373158 0.00735158 0.889223 -0.0833084 1.32858C-0.222785 1.9632 -0.697007 2.11662 -0.975961 2.11662ZM-0.975961 2.11662"/>
  <path fill="black" d="M1.79577 2.17241M2.48619 2.06083C2.48619 2.44439 2.41645 2.89072 1.94223 3.33704C1.91433 3.36494 1.89341 3.38586 1.89341 3.42073C1.89341 3.46955 1.9492 3.51836 1.99104 3.51836C2.08868 3.51836 2.68145 2.96046 2.68145 2.13057C2.68145 1.69819 2.51408 1.37042 2.19328 1.37042C1.96315 1.37042 1.79577 1.55174 1.79577 1.76793C1.79577 1.99109 1.95617 2.17241 2.20026 2.17241C2.36763 2.17241 2.47921 2.06083 2.48619 2.06083ZM2.48619 2.06083"/>
  <path fill="black" d="M3.84409 0.179898M5.17411 -2.13642C5.17909 -2.1414 5.22392 -2.23604 5.22392 -2.31076C5.22392 -2.49009 5.06452 -2.60466 4.91508 -2.60466C4.71084 -2.60466 4.65605 -2.45024 4.63114 -2.37552L3.86402 -0.218608C3.84409 -0.158832 3.84409 -0.143888 3.84409 -0.138907C3.84409 -0.0592055 4.05331 -0.00939227 4.05829 -0.00939227C4.10312 -0.00939227 4.11308 -0.0342989 4.14297 -0.0940747ZM4.14297 -0.0940747"/>
  <path fill="black" d="M6.59864 2.17241M8.25842 -2.45822C8.26539 -2.47217 8.28631 -2.56283 8.28631 -2.56981C8.28631 -2.60468 8.25842 -2.66744 8.17473 -2.66744C8.03526 -2.66744 7.45643 -2.61165 7.28208 -2.5977C7.22629 -2.59073 7.12866 -2.58375 7.12866 -2.4373C7.12866 -2.33967 7.22629 -2.33967 7.30998 -2.33967C7.64472 -2.33967 7.64472 -2.29085 7.64472 -2.23506C7.64472 -2.18624 7.63077 -2.1444 7.61683 -2.08164L6.63351 1.86556C6.59864 1.99109 6.59864 2.00504 6.59864 2.01899C6.59864 2.12359 6.68233 2.24215 6.83575 2.24215C6.91247 2.24215 7.04497 2.20728 7.12168 2.06083C7.1426 2.01899 7.20537 1.76793 7.24024 1.62148L7.40064 1.0008C7.42156 0.896197 7.4913 0.63119 7.51222 0.526583C7.58196 0.261576 7.58196 0.254602 7.72143 0.0314394C7.9446 -0.310279 8.29329 -0.707789 8.83725 -0.707789C9.22778 -0.707789 9.24871 -0.386992 9.24871 -0.219619C9.24871 0.198812 8.94883 0.972909 8.83725 1.26581C8.76054 1.46108 8.73264 1.52384 8.73264 1.6424C8.73264 2.01201 9.03949 2.24215 9.39516 2.24215C10.0925 2.24215 10.3994 1.27976 10.3994 1.17515C10.3994 1.08449 10.3087 1.08449 10.2878 1.08449C10.1902 1.08449 10.1832 1.12633 10.1553 1.20305C9.99491 1.76095 9.68806 2.04688 9.41608 2.04688C9.26963 2.04688 9.24173 1.94925 9.24173 1.8028C9.24173 1.6424 9.2766 1.55174 9.40213 1.23792C9.48582 1.02173 9.77174 0.282498 9.77174 -0.108038C9.77174 -0.219619 9.77174 -0.512521 9.51371 -0.714762C9.39516 -0.805422 9.19292 -0.903056 8.86514 -0.903056C8.35605 -0.903056 7.98644 -0.624102 7.72841 -0.324227ZM7.72841 -0.324227"/>
  <path fill="black" d="M11.2031 0.179898M12.5331 -2.13642C12.5381 -2.1414 12.583 -2.23604 12.583 -2.31076C12.583 -2.49009 12.4235 -2.60466 12.2741 -2.60466C12.0699 -2.60466 12.0151 -2.45024 11.9902 -2.37552L11.223 -0.218608C11.2031 -0.158832 11.2031 -0.143888 11.2031 -0.138907C11.2031 -0.0592055 11.4123 -0.00939227 11.4173 -0.00939227C11.4622 -0.00939227 11.4721 -0.0342989 11.502 -0.0940747ZM11.502 -0.0940747"/>
  <path fill="black" d="M13.9298 2.17241M14.0623 -3.05798C14.0135 -3.05798 13.9298 -3.05798 13.9298 -2.97429C13.9298 -2.93942 13.9507 -2.9185 13.9925 -2.86968C14.5923 -2.31875 15.2618 -1.37728 15.2618 0.421975C15.2618 1.87951 14.8085 2.98138 14.0553 3.66481C13.9368 3.78337 13.9298 3.79034 13.9298 3.82521C13.9298 3.86008 13.9507 3.9089 14.0204 3.9089C14.1041 3.9089 14.7666 3.44862 15.2269 2.57689C15.5338 1.99806 15.736 1.24489 15.736 0.428949C15.736 -0.554364 15.4431 -2.08164 14.0623 -3.05798ZM14.0623 -3.05798"/>
 </g>
 <g stroke-width="0.801759">
  <path stroke="#ff1919" d="M30.3307 -0L30.3307 -0.00346317A1.98425 1.98425 0 0 0 26.3622 -1.12419e-15A1.98425 1.98425 0 0 0 30.3307 0.00346317Z"/>
 </g>
 <path stroke="black" d="M0 -0L56.6929 -0"/>
 <g transform="matrix(1.000000,0.000000,0.000000,1.000000,38.267717,9.921260)">
  <path fill="black" d="M-16.3733 0.373584M-14.9686 -1.92779C-14.6797 -1.92779 -13.9425 -1.94771 -13.4443 -2.15693C-12.7469 -2.45581 -12.6971 -3.0436 -12.6971 -3.18308C-12.6971 -3.62143 -13.0757 -4.0299 -13.7631 -4.0299C-14.869 -4.0299 -16.3733 -3.06353 -16.3733 -1.32007C-16.3733 -0.303876 -15.7855 0.483173 -14.8092 0.483173C-13.3846 0.483173 -12.5477 -0.572867 -12.5477 -0.692419C-12.5477 -0.752195 -12.6075 -0.821933 -12.6672 -0.821933C-12.7171 -0.821933 -12.737 -0.802008 -12.7968 -0.722307C-13.5838 0.263995 -14.6697 0.263995 -14.7893 0.263995C-15.5664 0.263995 -15.656 -0.572867 -15.656 -0.891671C-15.656 -1.01122 -15.6461 -1.32007 -15.4966 -1.92779ZM-15.4966 -1.92779M-15.4369 -2.14696C-15.0483 -3.66129 -14.0222 -3.81073 -13.7631 -3.81073C-13.2949 -3.81073 -13.0259 -3.52181 -13.0259 -3.18308C-13.0259 -2.14696 -14.6199 -2.14696 -15.0284 -2.14696ZM-15.0284 -2.14696"/>
  <path fill="black" d="M-11.3908 2.17241M-9.71704 -3.05798C-11.0421 -2.12348 -11.3908 -0.645024 -11.3908 0.421975C-11.3908 1.40529 -11.0979 2.93256 -9.71704 3.9089C-9.66125 3.9089 -9.57756 3.9089 -9.57756 3.82521C-9.57756 3.78337 -9.59849 3.76942 -9.6473 3.7206C-10.5748 2.88374 -10.9165 1.69819 -10.9165 0.428949C-10.9165 -1.45399 -10.1982 -2.37454 -9.62638 -2.8906C-9.59849 -2.9185 -9.57756 -2.93942 -9.57756 -2.97429C-9.57756 -3.05798 -9.66125 -3.05798 -9.71704 -3.05798ZM-9.71704 -3.05798M-8.32227 2.17241M-6.74618 -2.26296C-6.74618 -2.45125 -6.76013 -2.45822 -6.9554 -2.45822C-7.40172 -2.01887 -8.03634 -2.0119 -8.32227 -2.0119L-8.32227 -1.76084C-8.1549 -1.76084 -7.69462 -1.76084 -7.31106 -1.95611L-7.31106 1.60056C-7.31106 1.83069 -7.31106 1.92135 -8.00845 1.92135L-8.27345 1.92135L-8.27345 2.17241C-8.14792 2.16544 -7.29014 2.14452 -7.03211 2.14452C-6.81592 2.14452 -5.93722 2.16544 -5.78379 2.17241L-5.78379 1.92135L-6.0488 1.92135C-6.74618 1.92135 -6.74618 1.83069 -6.74618 1.60056ZM-6.74618 1.60056"/>
  <path fill="black" d="M-4.32711 2.17241M-3.6367 2.06083C-3.6367 2.44439 -3.70644 2.89072 -4.18066 3.33704C-4.20855 3.36494 -4.22947 3.38586 -4.22947 3.42073C-4.22947 3.46955 -4.17368 3.51836 -4.13184 3.51836C-4.03421 3.51836 -3.44143 2.96046 -3.44143 2.13057C-3.44143 1.69819 -3.6088 1.37042 -3.9296 1.37042C-4.15974 1.37042 -4.32711 1.55174 -4.32711 1.76793C-4.32711 1.99109 -4.16671 2.17241 -3.92262 2.17241C-3.75525 2.17241 -3.64367 2.06083 -3.6367 2.06083ZM-3.6367 2.06083"/>
  <path fill="black" d="M-2.37941 2.17241M0.856454 -0.0522468C0.856454 -0.81937 0.765794 -1.3703 0.444997 -1.85847C0.228807 -2.17927 -0.203571 -2.45822 -0.761479 -2.45822C-2.37941 -2.45822 -2.37941 -0.554364 -2.37941 -0.0522468C-2.37941 0.44987 -2.37941 2.31189 -0.761479 2.31189C0.856454 2.31189 0.856454 0.44987 0.856454 -0.0522468ZM0.856454 -0.0522468M-0.761479 2.11662C-1.08228 2.11662 -1.50768 1.92833 -1.64716 1.35647C-1.74479 0.945013 -1.74479 0.373158 -1.74479 -0.142907C-1.74479 -0.651998 -1.74479 -1.18201 -1.64018 -1.56557C-1.49373 -2.11651 -1.04741 -2.26296 -0.761479 -2.26296C-0.384891 -2.26296 -0.0222512 -2.03282 0.103278 -1.62834C0.21486 -1.25175 0.221834 -0.749632 0.221834 -0.142907C0.221834 0.373158 0.221834 0.889223 0.131174 1.32858C-0.00830346 1.9632 -0.482525 2.11662 -0.761479 2.11662ZM-0.761479 2.11662"/>
  <path fill="black" d="M2.01026 2.17241M2.70067 2.06083C2.70067 2.44439 2.63093 2.89072 2.15671 3.33704C2.12881 3.36494 2.10789 3.38586 2.10789 3.42073C2.10789 3.46955 2.16368 3.51836 2.20552 3.51836C2.30316 3.51836 2.89594 2.96046 2.89594 2.13057C2.89594 1.69819 2.72856 1.37042 2.40777 1.37042C2.17763 1.37042 2.01026 1.55174 2.01026 1.76793C2.01026 1.99109 2.17066 2.17241 2.41474 2.17241C2.58211 2.17241 2.69369 2.06083 2.70067 2.06083ZM2.70067 2.06083"/>
  <path fill="black" d="M4.05858 0.179898M5.38859 -2.13642C5.39357 -2.1414 5.4384 -2.23604 5.4384 -2.31076C5.4384 -2.49009 5.279 -2.60466 5.12956 -2.60466C4.92533 -2.60466 4.87053 -2.45024 4.84562 -2.37552L4.0785 -0.218608C4.05858 -0.158832 4.05858 -0.143888 4.05858 -0.138907C4.05858 -0.0592055 4.26779 -0.00939227 4.27277 -0.00939227C4.3176 -0.00939227 4.32757 -0.0342989 4.35745 -0.0940747ZM4.35745 -0.0940747"/>
  <path fill="black" d="M6.61786 2.17241M10.0141 -0.359096C10.0141 -0.903056 9.68635 -0.91003 9.66543 -0.91003C9.48411 -0.91003 9.28884 -0.721736 9.28884 -0.540416C9.28884 -0.421861 9.35858 -0.36607 9.4074 -0.324227C9.52595 -0.226593 9.66543 -0.045273 9.66543 0.233681C9.66543 0.547504 9.20516 2.04688 8.37527 2.04688C7.81039 2.04688 7.81039 1.54476 7.81039 1.42621C7.81039 1.10541 7.93592 0.714876 8.19395 0.0663086C8.24974 -0.0801422 8.29158 -0.18475 8.29158 -0.303305C8.29158 -0.665945 7.98473 -0.903056 7.62907 -0.903056C6.93168 -0.903056 6.61786 0.0523609 6.61786 0.163942C6.61786 0.254602 6.71549 0.254602 6.73641 0.254602C6.83405 0.254602 6.84102 0.219733 6.86194 0.143021C7.02931 -0.428835 7.32919 -0.707789 7.60814 -0.707789C7.7267 -0.707789 7.78249 -0.631076 7.78249 -0.463704C7.78249 -0.303305 7.7267 -0.156855 7.65696 0.00354396C7.35709 0.777641 7.28037 1.07752 7.28037 1.32858C7.28037 2.01899 7.82433 2.24215 8.35435 2.24215C9.52595 2.24215 10.0141 0.212759 10.0141 -0.359096ZM10.0141 -0.359096"/>
  <path fill="black" d="M10.9887 0.179898M12.3187 -2.13642C12.3237 -2.1414 12.3685 -2.23604 12.3685 -2.31076C12.3685 -2.49009 12.2091 -2.60466 12.0596 -2.60466C11.8554 -2.60466 11.8006 -2.45024 11.7757 -2.37552L11.0086 -0.218608C10.9887 -0.158832 10.9887 -0.143888 10.9887 -0.138907C10.9887 -0.0592055 11.1979 -0.00939227 11.2029 -0.00939227C11.2477 -0.00939227 11.2576 -0.0342989 11.2875 -0.0940747ZM11.2875 -0.0940747"/>
  <path fill="black" d="M13.7153 2.17241M13.8478 -3.05798C13.799 -3.05798 13.7153 -3.05798 13.7153 -2.97429C13.7153 -2.93942 13.7362 -2.9185 13.7781 -2.86968C14.3778 -2.31875 15.0473 -1.37728 15.0473 0.421975C15.0473 1.87951 14.594 2.98138 13.8408 3.66481C13.7223 3.78337 13.7153 3.79034 13.7153 3.82521C13.7153 3.86008 13.7362 3.9089 13.806 3.9089C13.8897 3.9089 14.5522 3.44862 15.0124 2.57689C15.3193 1.99806 15.5215 1.24489 15.5215 0.428949C15.5215 -0.554364 15.2286 -2.08164 13.8478 -3.05798ZM13.8478 -3.05798"/>
 </g>
 <path stroke="black" d="M56.6929 -0L56.6929 -56.6929"/>
 <g transform="matrix(1.000000,0.000000,0.000000,1.000000,66.614173,-28.346457)">
  <path fill="black" d="M-16.5878 0.373584M-15.1831 -1.92779C-14.8942 -1.92779 -14.1569 -1.94771 -13.6588 -2.15693C-12.9614 -2.45581 -12.9116 -3.0436 -12.9116 -3.18308C-12.9116 -3.62143 -13.2902 -4.0299 -13.9776 -4.0299C-15.0835 -4.0299 -16.5878 -3.06353 -16.5878 -1.32007C-16.5878 -0.303876 -16 0.483173 -15.0237 0.483173C-13.599 0.483173 -12.7622 -0.572867 -12.7622 -0.692419C-12.7622 -0.752195 -12.8219 -0.821933 -12.8817 -0.821933C-12.9315 -0.821933 -12.9515 -0.802008 -13.0112 -0.722307C-13.7983 0.263995 -14.8842 0.263995 -15.0038 0.263995C-15.7809 0.263995 -15.8705 -0.572867 -15.8705 -0.891671C-15.8705 -1.01122 -15.8606 -1.32007 -15.7111 -1.92779ZM-15.7111 -1.92779M-15.6513 -2.14696C-15.2628 -3.66129 -14.2366 -3.81073 -13.9776 -3.81073C-13.5094 -3.81073 -13.2404 -3.52181 -13.2404 -3.18308C-13.2404 -2.14696 -14.8344 -2.14696 -15.2429 -2.14696ZM-15.2429 -2.14696"/>
  <path fill="black" d="M-11.6052 2.17241M-9.93152 -3.05798C-11.2566 -2.12348 -11.6052 -0.645024 -11.6052 0.421975C-11.6052 1.40529 -11.3123 2.93256 -9.93152 3.9089C-9.87573 3.9089 -9.79205 3.9089 -9.79205 3.82521C-9.79205 3.78337 -9.81297 3.76942 -9.86178 3.7206C-10.7893 2.88374 -11.131 1.69819 -11.131 0.428949C-11.131 -1.45399 -10.4127 -2.37454 -9.84086 -2.8906C-9.81297 -2.9185 -9.79205 -2.93942 -9.79205 -2.97429C-9.79205 -3.05798 -9.87573 -3.05798 -9.93152 -3.05798ZM-9.93152 -3.05798M-8.53675 2.17241M-6.96066 -2.26296C-6.96066 -2.45125 -6.97461 -2.45822 -7.16988 -2.45822C-7.61621 -2.01887 -8.25083 -2.0119 -8.53675 -2.0119L-8.53675 -1.76084C-8.36938 -1.76084 -7.90911 -1.76084 -7.52555 -1.95611L-7.52555 1.60056C-7.52555 1.83069 -7.52555 1.92135 -8.22293 1.92135L-8.48794 1.92135L-8.48794 2.17241C-8.36241 2.16544 -7.50462 2.14452 -7.24659 2.14452C-7.0304 2.14452 -6.1517 2.16544 -5.99827 2.17241L-5.99827 1.92135L-6.26328 1.92135C-6.96066 1.92135 -6.96066 1.83069 -6.96066 1.60056ZM-6.96066 1.60056"/>
  <path fill="black" d="M-4.54159 2.17241M-3.85118 2.06083C-3.85118 2.44439 -3.92092 2.89072 -4.39514 3.33704C-4.42303 3.36494 -4.44396 3.38586 -4.44396 3.42073C-4.44396 3.46955 -4.38817 3.51836 -4.34632 3.51836C-4.24869 3.51836 -3.65591 2.96046 -3.65591 2.13057C-3.65591 1.69819 -3.82328 1.37042 -4.14408 1.37042C-4.37422 1.37042 -4.54159 1.55174 -4.54159 1.76793C-4.54159 1.99109 -4.38119 2.17241 -4.13711 2.17241C-3.96973 2.17241 -3.85815 2.06083 -3.85118 2.06083ZM-3.85118 2.06083"/>
  <path fill="black" d="M-2.19638 2.17241M-0.620295 -2.26296C-0.620295 -2.45125 -0.634242 -2.45822 -0.82951 -2.45822C-1.27584 -2.01887 -1.91046 -2.0119 -2.19638 -2.0119L-2.19638 -1.76084C-2.02901 -1.76084 -1.56874 -1.76084 -1.18518 -1.95611L-1.18518 1.60056C-1.18518 1.83069 -1.18518 1.92135 -1.88256 1.92135L-2.14757 1.92135L-2.14757 2.17241C-2.02204 2.16544 -1.16425 2.14452 -0.906223 2.14452C-0.690033 2.14452 0.188672 2.16544 0.342096 2.17241L0.342096 1.92135L0.0770901 1.92135C-0.620295 1.92135 -0.620295 1.83069 -0.620295 1.60056ZM-0.620295 1.60056"/>
  <path fill="black" d="M1.79577 2.17241M2.48619 2.06083C2.48619 2.44439 2.41645 2.89072 1.94223 3.33704C1.91433 3.36494 1.89341 3.38586 1.89341 3.42073C1.89341 3.46955 1.9492 3.51836 1.99104 3.51836C2.08868 3.51836 2.68145 2.96046 2.68145 2.13057C2.68145 1.69819 2.51408 1.37042 2.19328 1.37042C1.96315 1.37042 1.79577 1.55174 1.79577 1.76793C1.79577 1.99109 1.95617 2.17241 2.20026 2.17241C2.36763 2.17241 2.47921 2.06083 2.48619 2.06083ZM2.48619 2.06083"/>
  <path fill="black" d="M3.84409 0.179898M5.17411 -2.13642C5.17909 -2.1414 5.22392 -2.23604 5.22392 -2.31076C5.22392 -2.49009 5.06452 -2.60466 4.91508 -2.60466C4.71084 -2.60466 4.65605 -2.45024 4.63114 -2.37552L3.86402 -0.218608C3.84409 -0.158832 3.84409 -0.143888 3.84409 -0.138907C3.84409 -0.0592055 4.05331 -0.00939227 4.05829 -0.00939227C4.10312 -0.00939227 4.11308 -0.0342989 4.14297 -0.0940747ZM4.14297 -0.0940747"/>
  <path fill="black" d="M6.59864 2.17241M8.25842 -2.45822C8.26539 -2.47217 8.28631 -2.56283 8.28631 -2.56981C8.28631 -2.60468 8.25842 -2.66744 8.17473 -2.66744C8.03526 -2.66744 7.45643 -2.61165 7.28208 -2.5977C7.22629 -2.59073 7.12866 -2.58375 7.12866 -2.4373C7.12866 -2.33967 7.22629 -2.33967 7.30998 -2.33967C7.64472 -2.33967 7.64472 -2.29085 7.64472 -2.23506C7.64472 -2.18624 7.63077 -2.1444 7.61683 -2.08164L6.63351 1.86556C6.59864 1.99109 6.59864 2.00504 6.59864 2.01899C6.59864 2.12359 6.68233 2.24215 6.83575 2.24215C6.91247 2.24215 7.04497 2.20728 7.12168 2.06083C7.1426 2.01899 7.20537 1.76793 7.24024 1.62148L7.40064 1.0008C7.42156 0.896197 7.4913 0.63119 7.51222 0.526583C7.58196 0.261576 7.58196 0.254602 7.72143 0.0314394C7.9446 -0.310279 8.29329 -0.707789 8.83725 -0.707789C9.22778 -0.707789 9.24871 -0.386992 9.24871 -0.219619C9.24871 0.198812 8.94883 0.972909 8.83725 1.26581C8.76054 1.46108 8.73264 1.52384 8.73264 1.6424C8.73264 2.01201 9.03949 2.24215 9.39516 2.24215C10.0925 2.24215 10.3994 1.27976 10.3994 1.17515C10.3994 1.08449 10.3087 1.08449 10.2878 1.08449C10.1902 1.08449 10.1832 1.12633 10.1553 1.20305C9.99491 1.76095 9.68806 2.04688 9.41608 2.04688C9.26963 2.04688 9.24173 1.94925 9.24173 1.8028C9.24173 1.6424 9.2766 1.55174 9.40213 1.23792C9.48582 1.02173 9.77174 0.282498 9.77174 -0.108038C9.77174 -0.219619 9.77174 -0.512521 9.51371 -0.714762C9.39516 -0.805422 9.19292 -0.903056 8.86514 -0.903056C8.35605 -0.903056 7.98644 -0.624102 7.72841 -0.324227ZM7.72841 -0.324227"/>
  <path fill="black" d="M11.2031 0.179898M12.5331 -2.13642C12.5381 -2.1414 12.583 -2.23604 12.583 -2.31076C12.583 -2.49009 12.4235 -2.60466 12.2741 -2.60466C12.0699 -2.60466 12.0151 -2.45024 11.9902 -2.37552L11.223 -0.218608C11.2031 -0.158832 11.2031 -0.143888 11.2031 -0.138907C11.2031 -0.0592055 11.4123 -0.00939227 11.4173 -0.00939227C11.4622 -0.00939227 11.4721 -0.0342989 11.502 -0.0940747ZM11.502 -0.0940747"/>
  <path fill="black" d="M13.9298 2.17241M14.0623 -3.05798C14.0135 -3.05798 13.9298 -3.05798 13.9298 -2.97429C13.9298 -2.93942 13.9507 -2.9185 13.9925 -2.86968C14.5923 -2.31875 15.2618 -1.37728 15.2618 0.421975C15.2618 1.87951 14.8085 2.98138 14.0553 3.66481C13.9368 3.78337 13.9298 3.79034 13.9298 3.82521C13.9298 3.86008 13.9507 3.9089 14.0204 3.9089C14.1041 3.9089 14.7666 3.44862 15.2269 2.57689C15.5338 1.99806 15.736 1.24489 15.736 0.428949C15.736 -0.554364 15.4431 -2.08164 14.0623 -3.05798ZM14.0623 -3.05798"/>
 </g>
 <path stroke="black" d="M0 -56.6929L56.6929 -56.6929"/>
 <g transform="matrix(1.000000,0.000000,0.000000,1.000000,38.267717,-66.614173)">
  <path fill="black" d="M-16.3733 0.373584M-14.9686 -1.92779C-14.6797 -1.92779 -13.9425 -1.94771 -13.4443 -2.15693C-12.7469 -2.45581 -12.6971 -3.0436 -12.6971 -3.18308C-12.6971 -3.62143 -13.0757 -4.0299 -13.7631 -4.0299C-14.869 -4.0299 -16.3733 -3.06353 -16.3733 -1.32007C-16.3733 -0.303876 -15.7855 0.483173 -14.8092 0.483173C-13.3846 0.483173 -12.5477 -0.572867 -12.5477 -0.692419C-12.5477 -0.752195 -12.6075 -0.821933 -12.6672 -0.821933C-12.7171 -0.821933 -12.737 -0.802008 -12.7968 -0.722307C-13.5838 0.263995 -14.6697 0.263995 -14.7893 0.263995C-15.5664 0.263995 -15.656 -0.572867 -15.656 -0.891671C-15.656 -1.01122 -15.6461 -1.32007 -15.4966 -1.92779ZM-15.4966 -1.92779M-15.4369 -2.14696C-15.0483 -3.66129 -14.0222 -3.81073 -13.7631 -3.81073C-13.2949 -3.81073 -13.0259 -3.52181 -13.0259 -3.18308C-13.0259 -2.14696 -14.6199 -2.14696 -15.0284 -2.14696ZM-15.0284 -2.14696"/>
  <path fill="black" d="M-11.3908 2.17241M-9.71704 -3.05798C-11.0421 -2.12348 -11.3908 -0.645024 -11.3908 0.421975C-11.3908 1.40529 -11.0979 2.93256 -9.71704 3.9089C-9.66125 3.9089 -9.57756 3.9089 -9.57756 3.82521C-9.57756 3.78337 -9.59849 3.76942 -9.6473 3.7206C-10.5748 2.88374 -10.9165 1.69819 -10.9165 0.428949C-10.9165 -1.45399 -10.1982 -2.37454 -9.62638 -2.8906C-9.59849 -2.9185 -9.57756 -2.93942 -9.57756 -2.97429C-9.57756 -3.05798 -9.66125 -3.05798 -9.71704 -3.05798ZM-9.71704 -3.05798M-8.32227 2.17241M-6.74618 -2.26296C-6.74618 -2.45125 -6.76013 -2.45822 -6.9554 -2.45822C-7.40172 -2.01887 -8.03634 -2.0119 -8.32227 -2.0119L-8.32227 -1.76084C-8.1549 -1.76084 -7.69462 -1.76084 -7.31106 -1.95611L-7.31106 1.60056C-7.31106 1.83069 -7.31106 1.92135 -8.00845 1.92135L-8.27345 1.92135L-8.27345 2.17241C-8.14792 2.16544 -7.29014 2.14452 -7.03211 2.14452C-6.81592 2.14452 -5.93722 2.16544 -5.78379 2.17241L-5.78379 1.92135L-6.0488 1.92135C-6.74618 1.92135 -6.74618 1.83069 -6.74618 1.60056ZM-6.74618 1.60056"/>
  <path fill="black" d="M-4.32711 2.17241M-3.6367 2.06083C-3.6367 2.44439 -3.70644 2.89072 -4.18066 3.33704C-4.20855 3.36494 -4.22947 3.38586 -4.22947 3.42073C-4.22947 3.46955 -4.17368 3.51836 -4.13184 3.51836C-4.03421 3.51836 -3.44143 2.96046 -3.44143 2.13057C-3.44143 1.69819 -3.6088 1.37042 -3.9296 1.37042C-4.15974 1.37042 -4.32711 1.55174 -4.32711 1.76793C-4.32711 1.99109 -4.16671 2.17241 -3.92262 2.17241C-3.75525 2.17241 -3.64367 2.06083 -3.6367 2.06083ZM-3.6367 2.06083"/>
  <path fill="black" d="M-1.9819 2.17241M-0.405813 -2.26296C-0.405813 -2.45125 -0.41976 -2.45822 -0.615028 -2.45822C-1.06135 -2.01887 -1.69597 -2.0119 -1.9819 -2.0119L-1.9819 -1.76084C-1.81453 -1.76084 -1.35426 -1.76084 -0.970694 -1.95611L-0.970694 1.60056C-0.970694 1.83069 -0.970694 1.92135 -1.66808 1.92135L-1.93309 1.92135L-1.93309 2.17241C-1.80756 2.16544 -0.949773 2.14452 -0.691741 2.14452C-0.475551 2.14452 0.403154 2.16544 0.556578 2.17241L0.556578 1.92135L0.291572 1.92135C-0.405813 1.92135 -0.405813 1.83069 -0.405813 1.60056ZM-0.405813 1.60056"/>
  <path fill="black" d="M2.01026 2.17241M2.70067 2.06083C2.70067 2.44439 2.63093 2.89072 2.15671 3.33704C2.12881 3.36494 2.10789 3.38586 2.10789 3.42073C2.10789 3.46955 2.16368 3.51836 2.20552 3.51836C2.30316 3.51836 2.89594 2.96046 2.89594 2.13057C2.89594 1.69819 2.72856 1.37042 2.40777 1.37042C2.17763 1.37042 2.01026 1.55174 2.01026 1.76793C2.01026 1.99109 2.17066 2.17241 2.41474 2.17241C2.58211 2.17241 2.69369 2.06083 2.70067 2.06083ZM2.70067 2.06083"/>
  <path fill="black" d="M4.05858 0.179898M5.38859 -2.13642C5.39357 -2.1414 5.4384 -2.23604 5.4384 -2.31076C5.4384 -2.49009 5.279 -2.60466 5.12956 -2.60466C4.92533 -2.60466 4.87053 -2.45024 4.84562 -2.37552L4.0785 -0.218608C4.05858 -0.158832 4.05858 -0.143888 4.05858 -0.138907C4.05858 -0.0592055 4.26779 -0.00939227 4.27277 -0.00939227C4.3176 -0.00939227 4.32757 -0.0342989 4.35745 -0.0940747ZM4.35745 -0.0940747"/>
  <path fill="black" d="M6.61786 2.17241M10.0141 -0.359096C10.0141 -0.903056 9.68635 -0.91003 9.66543 -0.91003C9.48411 -0.91003 9.28884 -0.721736 9.28884 -0.540416C9.28884 -0.421861 9.35858 -0.36607 9.4074 -0.324227C9.52595 -0.226593 9.66543 -0.045273 9.66543 0.233681C9.66543 0.547504 9.20516 2.04688 8.37527 2.04688C7.81039 2.04688 7.81039 1.54476 7.81039 1.42621C7.81039 1.10541 7.93592 0.714876 8.19395 0.0663086C8.24974 -0.0801422 8.29158 -0.18475 8.29158 -0.303305C8.29158 -0.665945 7.98473 -0.903056 7.62907 -0.903056C6.93168 -0.903056 6.61786 0.0523609 6.61786 0.163942C6.61786 0.254602 6.71549 0.254602 6.73641 0.254602C6.83405 0.254602 6.84102 0.219733 6.86194 0.143021C7.02931 -0.428835 7.32919 -0.707789 7.60814 -0.707789C7.7267 -0.707789 7.78249 -0.631076 7.78249 -0.463704C7.78249 -0.303305 7.7267 -0.156855 7.65696 0.00354396C7.35709 0.777641 7.28037 1.07752 7.28037 1.32858C7.28037 2.01899 7.82433 2.24215 8.35435 2.24215C9.52595 2.24215 10.0141 0.212759 10.0141 -0.359096ZM10.0141 -0.359096"/>
  <path fill="black" d="M10.9887 0.179898M12.3187 -2.13642C12.3237 -2.1414 12.3685 -2.23604 12.3685 -2.31076C12.3685 -2.49009 12.2091 -2.60466 12.0596 -2.60466C11.8554 -2.60466 11.8006 -2.45024 11.7757 -2.37552L11.0086 -0.218608C10.9887 -0.158832 10.9887 -0.143888 10.9887 -0.138907C10.9887 -0.0592055 11.1979 -0.00939227 11.2029 -0.00939227C11.2477 -0.00939227 11.2576 -0.0342989 11.2875 -0.0940747ZM11.2875 -0.0940747"/>
  <path fill="black" d="M13.7153 2.17241M13.8478 -3.05798C13.799 -3.05798 13.7153 -3.05798 13.7153 -2.97429C13.7153 -2.93942 13.7362 -2.9185 13.7781 -2.86968C14.3778 -2.31875 15.0473 -1.37728 15.0473 0.421975C15.0473 1.87951 14.594 2.98138 13.8408 3.66481C13.7223 3.78337 13.7153 3.79034 13.7153 3.82521C13.7153 3.86008 13.7362 3.9089 13.806 3.9089C13.8897 3.9089 14.5522 3.44862 15.0124 2.57689C15.3193 1.99806 15.5215 1.24489 15.5215 0.428949C15.5215 -0.554364 15.2286 -2.08164 13.8478 -3.05798ZM13.8478 -3.05798"/>
 </g>
 <g>
  <path fill="#fff" d="M3.9685 -0L3.9685 -0.00692634A3.9685 3.9685 0 0 0 -3.9685 -2.24837e-15A3.9685 3.9685 0 0 0 3.9685 0.00692634Z"/>
 </g>
 <path fill="black" d="M1.98425 -0L1.98425 -0.00346317A1.98425 1.98425 0 0 0 -1.98425 -1.12419e-15A1.98425 1.98425 0 0 0 1.98425 0.00346317Z"/>
 <g transform="matrix(1.000000,0.000000,0.000000,1.000000,-9.921260,9.921260)">
  <path fill="black" d="M-10.6424 0.373584M-6.26875 -3.33252C-6.26875 -3.8705 -6.52778 -4.0299 -6.70711 -4.0299C-6.95617 -4.0299 -7.19528 -3.77087 -7.19528 -3.5517C-7.19528 -3.42218 -7.14546 -3.36241 -7.03587 -3.25282C-6.82666 -3.05356 -6.69715 -2.79454 -6.69715 -2.43588C-6.69715 -2.01745 -7.30487 0.263995 -8.4705 0.263995C-8.97859 0.263995 -9.20773 -0.0846976 -9.20773 -0.602755C-9.20773 -1.16066 -8.93874 -1.88794 -8.6299 -2.71483C-8.56016 -2.8842 -8.51035 -3.02368 -8.51035 -3.21297C-8.51035 -3.66129 -8.82915 -4.0299 -9.32728 -4.0299C-10.2638 -4.0299 -10.6424 -2.58532 -10.6424 -2.49566C-10.6424 -2.39603 -10.5427 -2.39603 -10.5228 -2.39603C-10.4232 -2.39603 -10.4132 -2.41596 -10.3634 -2.57536C-10.0745 -3.58158 -9.64609 -3.81073 -9.35717 -3.81073C-9.27747 -3.81073 -9.1081 -3.81073 -9.1081 -3.49192C-9.1081 -3.24285 -9.20773 -2.97386 -9.27747 -2.79454C-9.71583 -1.63887 -9.84534 -1.18059 -9.84534 -0.752195C-9.84534 0.323771 -8.96863 0.483173 -8.51035 0.483173C-6.83662 0.483173 -6.26875 -2.81446 -6.26875 -3.33252ZM-6.26875 -3.33252"/>
  <path fill="black" d="M-5.30015 2.17241M-3.62643 -3.05798C-4.95146 -2.12348 -5.30015 -0.645024 -5.30015 0.421975C-5.30015 1.40529 -5.00725 2.93256 -3.62643 3.9089C-3.57064 3.9089 -3.48695 3.9089 -3.48695 3.82521C-3.48695 3.78337 -3.50788 3.76942 -3.55669 3.7206C-4.48421 2.88374 -4.82593 1.69819 -4.82593 0.428949C-4.82593 -1.45399 -4.10763 -2.37454 -3.53577 -2.8906C-3.50788 -2.9185 -3.48695 -2.93942 -3.48695 -2.97429C-3.48695 -3.05798 -3.57064 -3.05798 -3.62643 -3.05798ZM-3.62643 -3.05798M-2.62917 2.17241M0.606694 -0.0522468C0.606694 -0.81937 0.516034 -1.3703 0.195237 -1.85847C-0.0209519 -2.17927 -0.453331 -2.45822 -1.01124 -2.45822C-2.62917 -2.45822 -2.62917 -0.554364 -2.62917 -0.0522468C-2.62917 0.44987 -2.62917 2.31189 -1.01124 2.31189C0.606694 2.31189 0.606694 0.44987 0.606694 -0.0522468ZM0.606694 -0.0522468M-1.01124 2.11662C-1.33204 2.11662 -1.75744 1.92833 -1.89692 1.35647C-1.99455 0.945013 -1.99455 0.373158 -1.99455 -0.142907C-1.99455 -0.651998 -1.99455 -1.18201 -1.88994 -1.56557C-1.74349 -2.11651 -1.29717 -2.26296 -1.01124 -2.26296C-0.634651 -2.26296 -0.27201 -2.03282 -0.146481 -1.62834C-0.0348996 -1.25175 -0.0279258 -0.749632 -0.0279258 -0.142907C-0.0279258 0.373158 -0.0279258 0.889223 -0.118586 1.32858C-0.258063 1.9632 -0.732284 2.11662 -1.01124 2.11662ZM-1.01124 2.11662"/>
  <path fill="black" d="M1.7635 2.17241M2.45391 2.06083C2.45391 2.44439 2.38417 2.89072 1.90995 3.33704C1.88206 3.36494 1.86114 3.38586 1.86114 3.42073C1.86114 3.46955 1.91693 3.51836 1.95877 3.51836C2.0564 3.51836 2.64918 2.96046 2.64918 2.13057C2.64918 1.69819 2.48181 1.37042 2.16101 1.37042C1.93087 1.37042 1.7635 1.55174 1.7635 1.76793C1.7635 1.99109 1.9239 2.17241 2.16798 2.17241C2.33536 2.17241 2.44694 2.06083 2.45391 2.06083ZM2.45391 2.06083"/>
  <path fill="black" d="M3.7112 2.17241M6.94706 -0.0522468C6.94706 -0.81937 6.8564 -1.3703 6.53561 -1.85847C6.31942 -2.17927 5.88704 -2.45822 5.32913 -2.45822C3.7112 -2.45822 3.7112 -0.554364 3.7112 -0.0522468C3.7112 0.44987 3.7112 2.31189 5.32913 2.31189C6.94706 2.31189 6.94706 0.44987 6.94706 -0.0522468ZM6.94706 -0.0522468M5.32913 2.11662C5.00833 2.11662 4.58293 1.92833 4.44345 1.35647C4.34582 0.945013 4.34582 0.373158 4.34582 -0.142907C4.34582 -0.651998 4.34582 -1.18201 4.45043 -1.56557C4.59688 -2.11651 5.0432 -2.26296 5.32913 -2.26296C5.70572 -2.26296 6.06836 -2.03282 6.19389 -1.62834C6.30547 -1.25175 6.31244 -0.749632 6.31244 -0.142907C6.31244 0.373158 6.31244 0.889223 6.22178 1.32858C6.08231 1.9632 5.60808 2.11662 5.32913 2.11662ZM5.32913 2.11662M7.81182 2.17241M7.94432 -3.05798C7.89551 -3.05798 7.81182 -3.05798 7.81182 -2.97429C7.81182 -2.93942 7.83274 -2.9185 7.87458 -2.86968C8.47434 -2.31875 9.14383 -1.37728 9.14383 0.421975C9.14383 1.87951 8.69053 2.98138 7.93735 3.66481C7.81879 3.78337 7.81182 3.79034 7.81182 3.82521C7.81182 3.86008 7.83274 3.9089 7.90248 3.9089C7.98617 3.9089 8.64868 3.44862 9.10896 2.57689C9.41581 1.99806 9.61805 1.24489 9.61805 0.428949C9.61805 -0.554364 9.32515 -2.08164 7.94432 -3.05798ZM7.94432 -3.05798"/>
 </g>
 <g>
  <path fill="#fff" d="M3.9685 -56.6929L3.9685 -56.6998A3.9685 3.9685 0 0 0 -3.9685 -56.6929A3.9685 3.9685 0 0 0 3.9685 -56.686Z"/>
 </g>
 <path fill="black" d="M1.98425 -56.6929L1.98425 -56.6964A1.98425 1.98425 0 0 0 -1.98425 -56.6929A1.98425 1.98425 0 0 0 1.98425 -56.6895Z"/>
 <g transform="matrix(1.000000,0.000000,0.000000,1.000000,-9.921260,-46.771654)">
  <path fill="black" d="M-10.6424 0.373584M-6.26875 -3.33252C-6.26875 -3.8705 -6.52778 -4.0299 -6.70711 -4.0299C-6.95617 -4.0299 -7.19528 -3.77087 -7.19528 -3.5517C-7.19528 -3.42218 -7.14546 -3.36241 -7.03587 -3.25282C-6.82666 -3.05356 -6.69715 -2.79454 -6.69715 -2.43588C-6.69715 -2.01745 -7.30487 0.263995 -8.4705 0.263995C-8.97859 0.263995 -9.20773 -0.0846976 -9.20773 -0.602755C-9.20773 -1.16066 -8.93874 -1.88794 -8.6299 -2.71483C-8.56016 -2.8842 -8.51035 -3.02368 -8.51035 -3.21297C-8.51035 -3.66129 -8.82915 -4.0299 -9.32728 -4.0299C-10.2638 -4.0299 -10.6424 -2.58532 -10.6424 -2.49566C-10.6424 -2.39603 -10.5427 -2.39603 -10.5228 -2.39603C-10.4232 -2.39603 -10.4132 -2.41596 -10.3634 -2.57536C-10.0745 -3.58158 -9.64609 -3.81073 -9.35717 -3.81073C-9.27747 -3.81073 -9.1081 -3.81073 -9.1081 -3.49192C-9.1081 -3.24285 -9.20773 -2.97386 -9.27747 -2.79454C-9.71583 -1.63887 -9.84534 -1.18059 -9.84534 -0.752195C-9.84534 0.323771 -8.96863 0.483173 -8.51035 0.483173C-6.83662 0.483173 -6.26875 -2.81446 -6.26875 -3.33252ZM-6.26875 -3.33252"/>
  <path fill="black" d="M-5.30015 2.17241M-3.62643 -3.05798C-4.95146 -2.12348 -5.30015 -0.645024 -5.30015 0.421975C-5.30015 1.40529 -5.00725 2.93256 -3.62643 3.9089C-3.57064 3.9089 -3.48695 3.9089 -3.48695 3.82521C-3.48695 3.78337 -3.50788 3.76942 -3.55669 3.7206C-4.48421 2.88374 -4.82593 1.69819 -4.82593 0.428949C-4.82593 -1.45399 -4.10763 -2.37454 -3.53577 -2.8906C-3.50788 -2.9185 -3.48695 -2.93942 -3.48695 -2.97429C-3.48695 -3.05798 -3.57064 -3.05798 -3.62643 -3.05798ZM-3.62643 -3.05798M-2.62917 2.17241M0.606694 -0.0522468C0.606694 -0.81937 0.516034 -1.3703 0.195237 -1.85847C-0.0209519 -2.17927 -0.453331 -2.45822 -1.01124 -2.45822C-2.62917 -2.45822 -2.62917 -0.554364 -2.62917 -0.0522468C-2.62917 0.44987 -2.62917 2.31189 -1.01124 2.31189C0.606694 2.31189 0.606694 0.44987 0.606694 -0.0522468ZM0.606694 -0.0522468M-1.01124 2.11662C-1.33204 2.11662 -1.75744 1.92833 -1.89692 1.35647C-1.99455 0.945013 -1.99455 0.373158 -1.99455 -0.142907C-1.99455 -0.651998 -1.99455 -1.18201 -1.88994 -1.56557C-1.74349 -2.11651 -1.29717 -2.26296 -1.01124 -2.26296C-0.634651 -2.26296 -0.27201 -2.03282 -0.146481 -1.62834C-0.0348996 -1.25175 -0.0279258 -0.749632 -0.0279258 -0.142907C-0.0279258 0.373158 -0.0279258 0.889223 -0.118586 1.32858C-0.258063 1.9632 -0.732284 2.11662 -1.01124 2.11662ZM-1.01124 2.11662"/>
  <path fill="black" d="M1.7635 2.17241M2.45391 2.06083C2.45391 2.44439 2.38417 2.89072 1.90995 3.33704C1.88206 3.36494 1.86114 3.38586 1.86114 3.42073C1.86114 3.46955 1.91693 3.51836 1.95877 3.51836C2.0564 3.51836 2.64918 2.96046 2.64918 2.13057C2.64918 1.69819 2.48181 1.37042 2.16101 1.37042C1.93087 1.37042 1.7635 1.55174 1.7635 1.76793C1.7635 1.99109 1.9239 2.17241 2.16798 2.17241C2.33536 2.17241 2.44694 2.06083 2.45391 2.06083ZM2.45391 2.06083"/>
  <path fill="black" d="M4.10871 2.17241M5.6848 -2.26296C5.6848 -2.45125 5.67085 -2.45822 5.47558 -2.45822C5.02925 -2.01887 4.39463 -2.0119 4.10871 -2.0119L4.10871 -1.76084C4.27608 -1.76084 4.73635 -1.76084 5.11991 -1.95611L5.11991 1.60056C5.11991 1.83069 5.11991 1.92135 4.42253 1.92135L4.15752 1.92135L4.15752 2.17241C4.28305 2.16544 5.14084 2.14452 5.39887 2.14452C5.61506 2.14452 6.49376 2.16544 6.64719 2.17241L6.64719 1.92135L6.38218 1.92135C5.6848 1.92135 5.6848 1.83069 5.6848 1.60056ZM5.6848 1.60056M7.81182 2.17241M7.94432 -3.05798C7.89551 -3.05798 7.81182 -3.05798 7.81182 -2.97429C7.81182 -2.93942 7.83274 -2.9185 7.87458 -2.86968C8.47434 -2.31875 9.14383 -1.37728 9.14383 0.421975C9.14383 1.87951 8.69053 2.98138 7.93735 3.66481C7.81879 3.78337 7.81182 3.79034 7.81182 3.82521C7.81182 3.86008 7.83274 3.9089 7.90248 3.9089C7.98617 3.9089 8.64868 3.44862 9.10896 2.57689C9.41581 1.99806 9.61805 1.24489 9.61805 0.428949C9.61805 -0.554364 9.32515 -2.08164 7.94432 -3.05798ZM7.94432 -3.05798"/>
 </g>
 <g>
  <path fill="#fff" d="M60.6614 -0L60.6614 -0.00692634A3.9685 3.9685 0 0 0 52.7244 -2.24837e-15A3.9685 3.9685 0 0 0 60.6614 0.00692634Z"/>
 </g>
 <path fill="black" d="M58.6772 -0L58.6772 -0.00346317A1.98425 1.98425 0 0 0 54.7087 -1.12419e-15A1.98425 1.98425 0 0 0 58.6772 0.00346317Z"/>
 <g transform="matrix(1.000000,0.000000,0.000000,1.000000,56.692913,9.921260)">
  <path fill="black" d="M-10.6424 0.373584M-6.26875 -3.33252C-6.26875 -3.8705 -6.52778 -4.0299 -6.70711 -4.0299C-6.95617 -4.0299 -7.19528 -3.77087 -7.19528 -3.5517C-7.19528 -3.42218 -7.14546 -3.36241 -7.03587 -3.25282C-6.82666 -3.05356 -6.69715 -2.79454 -6.69715 -2.43588C-6.69715 -2.01745 -7.30487 0.263995 -8.4705 0.263995C-8.97859 0.263995 -9.20773 -0.0846976 -9.20773 -0.602755C-9.20773 -1.16066 -8.93874 -1.88794 -8.6299 -2.71483C-8.56016 -2.8842 -8.51035 -3.02368 -8.51035 -3.21297C-8.51035 -3.66129 -8.82915 -4.0299 -9.32728 -4.0299C-10.2638 -4.0299 -10.6424 -2.58532 -10.6424 -2.49566C-10.6424 -2.39603 -10.5427 -2.39603 -10.5228 -2.39603C-10.4232 -2.39603 -10.4132 -2.41596 -10.3634 -2.57536C-10.0745 -3.58158 -9.64609 -3.81073 -9.35717 -3.81073C-9.27747 -3.81073 -9.1081 -3.81073 -9.1081 -3.49192C-9.1081 -3.24285 -9.20773 -2.97386 -9.27747 -2.79454C-9.71583 -1.63887 -9.84534 -1.18059 -9.84534 -0.752195C-9.84534 0.323771 -8.96863 0.483173 -8.51035 0.483173C-6.83662 0.483173 -6.26875 -2.81446 -6.26875 -3.33252ZM-6.26875 -3.33252"/>
  <path fill="black" d="M-5.30015 2.17241M-3.62643 -3.05798C-4.95146 -2.12348 -5.30015 -0.645024 -5.30015 0.421975C-5.30015 1.40529 -5.00725 2.93256 -3.62643 3.9089C-3.57064 3.9089 -3.48695 3.9089 -3.48695 3.82521C-3.48695 3.78337 -3.50788 3.76942 -3.55669 3.7206C-4.48421 2.88374 -4.82593 1.69819 -4.82593 0.428949C-4.82593 -1.45399 -4.10763 -2.37454 -3.53577 -2.8906C-3.50788 -2.9185 -3.48695 -2.93942 -3.48695 -2.97429C-3.48695 -3.05798 -3.57064 -3.05798 -3.62643 -3.05798ZM-3.62643 -3.05798M-2.23166 2.17241M-0.655572 -2.26296C-0.655572 -2.45125 -0.66952 -2.45822 -0.864788 -2.45822C-1.31111 -2.01887 -1.94573 -2.0119 -2.23166 -2.0119L-2.23166 -1.76084C-2.06429 -1.76084 -1.60402 -1.76084 -1.22045 -1.95611L-1.22045 1.60056C-1.22045 1.83069 -1.22045 1.92135 -1.91784 1.92135L-2.18284 1.92135L-2.18284 2.17241C-2.05732 2.16544 -1.19953 2.14452 -0.9415 2.14452C-0.725311 2.14452 0.153394 2.16544 0.306819 2.17241L0.306819 1.92135L0.0418127 1.92135C-0.655572 1.92135 -0.655572 1.83069 -0.655572 1.60056ZM-0.655572 1.60056"/>
  <path fill="black" d="M1.7635 2.17241M2.45391 2.06083C2.45391 2.44439 2.38417 2.89072 1.90995 3.33704C1.88206 3.36494 1.86114 3.38586 1.86114 3.42073C1.86114 3.46955 1.91693 3.51836 1.95877 3.51836C2.0564 3.51836 2.64918 2.96046 2.64918 2.13057C2.64918 1.69819 2.48181 1.37042 2.16101 1.37042C1.93087 1.37042 1.7635 1.55174 1.7635 1.76793C1.7635 1.99109 1.9239 2.17241 2.16798 2.17241C2.33536 2.17241 2.44694 2.06083 2.45391 2.06083ZM2.45391 2.06083"/>
  <path fill="black" d="M3.7112 2.17241M6.94706 -0.0522468C6.94706 -0.81937 6.8564 -1.3703 6.53561 -1.85847C6.31942 -2.17927 5.88704 -2.45822 5.32913 -2.45822C3.7112 -2.45822 3.7112 -0.554364 3.7112 -0.0522468C3.7112 0.44987 3.7112 2.31189 5.32913 2.31189C6.94706 2.31189 6.94706 0.44987 6.94706 -0.0522468ZM6.94706 -0.0522468M5.32913 2.11662C5.00833 2.11662 4.58293 1.92833 4.44345 1.35647C4.34582 0.945013 4.34582 0.373158 4.34582 -0.142907C4.34582 -0.651998 4.34582 -1.18201 4.45043 -1.56557C4.59688 -2.11651 5.0432 -2.26296 5.32913 -2.26296C5.70572 -2.26296 6.06836 -2.03282 6.19389 -1.62834C6.30547 -1.25175 6.31244 -0.749632 6.31244 -0.142907C6.31244 0.373158 6.31244 0.889223 6.22178 1.32858C6.08231 1.9632 5.60808 2.11662 5.32913 2.11662ZM5.32913 2.11662M7.81182 2.17241M7.94432 -3.05798C7.89551 -3.05798 7.81182 -3.05798 7.81182 -2.97429C7.81182 -2.93942 7.83274 -2.9185 7.87458 -2.86968C8.47434 -2.31875 9.14383 -1.37728 9.14383 0.421975C9.14383 1.87951 8.69053 2.98138 7.93735 3.66481C7.81879 3.78337 7.81182 3.79034 7.81182 3.82521C7.81182 3.86008 7.83274 3.9089 7.90248 3.9089C7.98617 3.9089 8.64868 3.44862 9.10896 2.57689C9.41581 1.99806 9.61805 1.24489 9.61805 0.428949C9.61805 -0.554364 9.32515 -2.08164 7.94432 -3.05798ZM7.94432 -3.05798"/>
 </g>
 <g>
  <path fill="#fff" d="M60.6614 -56.6929L60.6614 -56.6998A3.9685 3.9685 0 0 0 52.7244 -56.6929A3.9685 3.9685 0 0 0 60.6614 -56.686Z"/>
 </g>
 <g stroke-width="0.801759">
  <path stroke="#ff1919" d="M60.6614 -56.6929L60.6614 -56.6998A3.9685 3.9685 0 0 0 52.7244 -56.6929A3.9685 3.9685 0 0 0 60.6614 -56.686Z"/>
 </g>
 <path fill="black" d="M58.6772 -56.6929L58.6772 -56.6964A1.98425 1.98425 0 0 0 54.7087 -56.6929A1.98425 1.98425 0 0 0 58.6772 -56.6895Z"/>
 <g transform="matrix(1.000000,0.000000,0.000000,1.000000,56.692913,-66.614173)">
  <path fill="black" d="M-10.6424 0.373584M-6.26875 -3.33252C-6.26875 -3.8705 -6.52778 -4.0299 -6.70711 -4.0299C-6.95617 -4.0299 -7.19528 -3.77087 -7.19528 -3.5517C-7.19528 -3.42218 -7.14546 -3.36241 -7.03587 -3.25282C-6.82666 -3.05356 -6.69715 -2.79454 -6.69715 -2.43588C-6.69715 -2.01745 -7.30487 0.263995 -8.4705 0.263995C-8.97859 0.263995 -9.20773 -0.0846976 -9.20773 -0.602755C-9.20773 -1.16066 -8.93874 -1.88794 -8.6299 -2.71483C-8.56016 -2.8842 -8.51035 -3.02368 -8.51035 -3.21297C-8.51035 -3.66129 -8.82915 -4.0299 -9.32728 -4.0299C-10.2638 -4.0299 -10.6424 -2.58532 -10.6424 -2.49566C-10.6424 -2.39603 -10.5427 -2.39603 -10.5228 -2.39603C-10.4232 -2.39603 -10.4132 -2.41596 -10.3634 -2.57536C-10.0745 -3.58158 -9.64609 -3.81073 -9.35717 -3.81073C-9.27747 -3.81073 -9.1081 -3.81073 -9.1081 -3.49192C-9.1081 -3.24285 -9.20773 -2.97386 -9.27747 -2.79454C-9.71583 -1.63887 -9.84534 -1.18059 -9.84534 -0.752195C-9.84534 0.323771 -8.96863 0.483173 -8.51035 0.483173C-6.83662 0.483173 -6.26875 -2.81446 -6.26875 -3.33252ZM-6.26875 -3.33252"/>
  <path fill="black" d="M-5.30015 2.17241M-3.62643 -3.05798C-4.95146 -2.12348 -5.30015 -0.645024 -5.30015 0.421975C-5.30015 1.40529 -5.00725 2.93256 -3.62643 3.9089C-3.57064 3.9089 -3.48695 3.9089 -3.48695 3.82521C-3.48695 3.78337 -3.50788 3.76942 -3.55669 3.7206C-4.48421 2.88374 -4.82593 1.69819 -4.82593 0.428949C-4.82593 -1.45399 -4.10763 -2.37454 -3.53577 -2.8906C-3.50788 -2.9185 -3.48695 -2.93942 -3.48695 -2.97429C-3.48695 -3.05798 -3.57064 -3.05798 -3.62643 -3.05798ZM-3.62643 -3.05798M-2.23166 2.17241M-0.655572 -2.26296C-0.655572 -2.45125 -0.66952 -2.45822 -0.864788 -2.45822C-1.31111 -2.01887 -1.94573 -2.0119 -2.23166 -2.0119L-2.23166 -1.76084C-2.06429 -1.76084 -1.60402 -1.76084 -1.22045 -1.95611L-1.22045 1.60056C-1.22045 1.83069 -1.22045 1.92135 -1.91784 1.92135L-2.18284 1.92135L-2.18284 2.17241C-2.05732 2.16544 -1.19953 2.14452 -0.9415 2.14452C-0.725311 2.14452 0.153394 2.16544 0.306819 2.17241L0.306819 1.92135L0.0418127 1.92135C-0.655572 1.92135 -0.655572 1.83069 -0.655572 1.60056ZM-0.655572 1.60056"/>
  <path fill="black" d="M1.7635 2.17241M2.45391 2.06083C2.45391 2.44439 2.38417 2.89072 1.90995 3.33704C1.88206 3.36494 1.86114 3.38586 1.86114 3.42073C1.86114 3.46955 1.91693 3.51836 1.95877 3.51836C2.0564 3.51836 2.64918 2.96046 2.64918 2.13057C2.64918 1.69819 2.48181 1.37042 2.16101 1.37042C1.93087 1.37042 1.7635 1.55174 1.7635 1.76793C1.7635 1.99109 1.9239 2.17241 2.16798 2.17241C2.33536 2.17241 2.44694 2.06083 2.45391 2.06083ZM2.45391 2.06083"/>
  <path fill="black" d="M4.10871 2.17241M5.6848 -2.26296C5.6848 -2.45125 5.67085 -2.45822 5.47558 -2.45822C5.02925 -2.01887 4.39463 -2.0119 4.10871 -2.0119L4.10871 -1.76084C4.27608 -1.76084 4.73635 -1.76084 5.11991 -1.95611L5.11991 1.60056C5.11991 1.83069 5.11991 1.92135 4.42253 1.92135L4.15752 1.92135L4.15752 2.17241C4.28305 2.16544 5.14084 2.14452 5.39887 2.14452C5.61506 2.14452 6.49376 2.16544 6.64719 2.17241L6.64719 1.92135L6.38218 1.92135C5.6848 1.92135 5.6848 1.83069 5.6848 1.60056ZM5.6848 1.60056M7.81182 2.17241M7.94432 -3.05798C7.89551 -3.05798 7.81182 -3.05798 7.81182 -2.97429C7.81182 -2.93942 7.83274 -2.9185 7.87458 -2.86968C8.47434 -2.31875 9.14383 -1.37728 9.14383 0.421975C9.14383 1.87951 8.69053 2.98138 7.93735 3.66481C7.81879 3.78337 7.81182 3.79034 7.81182 3.82521C7.81182 3.86008 7.83274 3.9089 7.90248 3.9089C7.98617 3.9089 8.64868 3.44862 9.10896 2.57689C9.41581 1.99806 9.61805 1.24489 9.61805 0.428949C9.61805 -0.554364 9.32515 -2.08164 7.94432 -3.05798ZM7.94432 -3.05798"/>
 </g>
</svg>
