<?xml version="1.0" encoding="utf-8"?>
<svg xmlns="http://www.w3.org/2000/svg" fill="none" version="1.1" stroke-miterlimit="10.000000" x="-15.5705pt" width="144.527pt" viewBox="-15.5705 -13.8132 144.527 84.3193" y="-13.8132pt" stroke-width="0.566929" height="84.3193pt">
 <g stroke-width="1.603518">
  <path d="M0 56.6929L0 32.7811" stroke="#f36b08"/>
  <g stroke-linecap="butt" stroke-dasharray="none">
   <path fill="#f36b08" d="M-2.2961 33.8897L0 28.3465L2.2961 33.8897L0 32.7811Z"/>
  </g>
 </g>
 <path d="M0 56.6929L0 -0" stroke="black"/>
 <g stroke-width="1.603518">
  <path d="M56.6929 -0L32.7811 -0" stroke="#f36b08"/>
  <g stroke-linecap="butt" stroke-dasharray="none">
   <path fill="#f36b08" d="M33.8897 2.2961L28.3465 -0L33.8897 -2.2961L32.7811 -0Z"/>
  </g>
 </g>
 <path d="M56.6929 -0L0 -0" stroke="black"/>
 <g stroke-width="1.603518">
  <path d="M56.6929 56.6929L32.7811 56.6929" stroke="#f36b08"/>
  <g stroke-linecap="butt" stroke-dasharray="none">
   <path fill="#f36b08" d="M33.8897 58.989L28.3465 56.6929L33.8897 54.3968L32.7811 56.6929Z"/>
  </g>
 </g>
 <path d="M56.6929 56.6929L0 56.6929" stroke="black"/>
 <g stroke-width="0.801759">
  <path d="M58.6772 28.3465L58.6772 28.343A1.98425 1.98425 0 0 0 54.7087 28.3465A1.98425 1.98425 0 0 0 58.6772 28.3499Z" stroke="#ff1919"/>
 </g>
 <path d="M56.6929 -0L56.6929 56.6929" stroke="black"/>
 <g stroke-width="1.603518">
  <path d="M113.386 -0L89.474 -0" stroke="#f36b08"/>
  <g stroke-linecap="butt" stroke-dasharray="none">
   <path fill="#f36b08" d="M90.5826 2.2961L85.0394 -0L90.5826 -2.2961L89.474 -0Z"/>
  </g>
 </g>
 <path d="M113.386 -0L56.6929 -0" stroke="black"/>
 <g stroke-width="0.801759">
  <path d="M87.0236 56.6929L87.0236 56.6895A1.98425 1.98425 0 0 0 83.0551 56.6929A1.98425 1.98425 0 0 0 87.0236 56.6964Z" stroke="#ff1919"/>
 </g>
 <path d="M56.6929 56.6929L113.386 56.6929" stroke="black"/>
 <g stroke-width="1.603518">
  <path d="M113.386 56.6929L113.386 32.7811" stroke="#f36b08"/>
  <g stroke-linecap="butt" stroke-dasharray="none">
   <path fill="#f36b08" d="M111.09 33.8897L113.386 28.3465L115.682 33.8897L113.386 32.7811Z"/>
  </g>
 </g>
 <path d="M113.386 56.6929L113.386 -0" stroke="black"/>
 <g>
  <path fill="#fff" d="M3.9685 -0L3.9685 -0.00692634A3.9685 3.9685 0 0 0 -3.9685 -2.24837e-15A3.9685 3.9685 0 0 0 3.9685 0.00692634Z"/>
 </g>
 <g stroke-width="0.801759">
  <path d="M3.9685 -0L3.9685 -0.00692634A3.9685 3.9685 0 0 0 -3.9685 -2.24837e-15A3.9685 3.9685 0 0 0 3.9685 0.00692634Z" stroke="#ff1919"/>
 </g>
 <path fill="black" d="M1.98425 -0L1.98425 -0.00346317A1.98425 1.98425 0 0 0 -1.98425 -1.12419e-15A1.98425 1.98425 0 0 0 1.98425 0.00346317Z"/>
 <g transform="matrix(1.000000,0.000000,0.000000,1.000000,-9.921260,-0.000000)">
  <path fill="black" d="M-4.36032 1.39755M0.0132785 -2.30856C0.0132785 -2.84654 -0.24575 -3.00594 -0.425078 -3.00594C-0.674144 -3.00594 -0.913247 -2.74691 -0.913247 -2.52773C-0.913247 -2.39822 -0.863434 -2.33844 -0.753845 -2.22886C-0.544629 -2.0296 -0.415115 -1.77057 -0.415115 -1.41192C-0.415115 -0.993488 -1.02284 1.28796 -2.18847 1.28796C-2.69656 1.28796 -2.9257 0.939264 -2.9257 0.421207C-2.9257 -0.136701 -2.65671 -0.863974 -2.34787 -1.69087C-2.27813 -1.86024 -2.22832 -1.99971 -2.22832 -2.189C-2.22832 -2.63732 -2.54712 -3.00594 -3.04525 -3.00594C-3.98174 -3.00594 -4.36032 -1.56136 -4.36032 -1.47169C-4.36032 -1.37207 -4.26069 -1.37207 -4.24077 -1.37207C-4.14114 -1.37207 -4.13118 -1.39199 -4.08137 -1.5514C-3.79245 -2.55762 -3.36406 -2.78676 -3.07514 -2.78676C-2.99544 -2.78676 -2.82607 -2.78676 -2.82607 -2.46796C-2.82607 -2.21889 -2.9257 -1.9499 -2.99544 -1.77057C-3.4338 -0.614908 -3.56331 -0.156626 -3.56331 0.271767C-3.56331 1.34773 -2.6866 1.50713 -2.22832 1.50713C-0.554592 1.50713 0.0132785 -1.7905 0.0132785 -2.30856ZM0.0132785 -2.30856"/>
  <path fill="black" d="M0.542523 2.89193M3.77839 0.667269C3.77839 -0.0998545 3.68773 -0.650789 3.36693 -1.13896C3.15074 -1.45975 2.71836 -1.73871 2.16046 -1.73871C0.542523 -1.73871 0.542523 0.165152 0.542523 0.667269C0.542523 1.16939 0.542523 3.0314 2.16046 3.0314C3.77839 3.0314 3.77839 1.16939 3.77839 0.667269ZM3.77839 0.667269M2.16046 2.83614C1.83966 2.83614 1.41425 2.64784 1.27478 2.07599C1.17714 1.66453 1.17714 1.09267 1.17714 0.576609C1.17714 0.0675178 1.17714 -0.462495 1.28175 -0.846056C1.4282 -1.39699 1.87453 -1.54344 2.16046 -1.54344C2.53704 -1.54344 2.89968 -1.3133 3.02521 -0.908821C3.13679 -0.532233 3.14377 -0.0301161 3.14377 0.576609C3.14377 1.09267 3.14377 1.60874 3.05311 2.04809C2.91363 2.68271 2.43941 2.83614 2.16046 2.83614ZM2.16046 2.83614"/>
 </g>
 <g>
  <path fill="#fff" d="M3.9685 56.6929L3.9685 56.686A3.9685 3.9685 0 0 0 -3.9685 56.6929A3.9685 3.9685 0 0 0 3.9685 56.6998Z"/>
 </g>
 <path fill="black" d="M1.98425 56.6929L1.98425 56.6895A1.98425 1.98425 0 0 0 -1.98425 56.6929A1.98425 1.98425 0 0 0 1.98425 56.6964Z"/>
 <g transform="matrix(1.000000,0.000000,0.000000,1.000000,-9.921260,56.692913)">
  <path fill="black" d="M-4.36032 1.39755M0.0132785 -2.30856C0.0132785 -2.84654 -0.24575 -3.00594 -0.425078 -3.00594C-0.674144 -3.00594 -0.913247 -2.74691 -0.913247 -2.52773C-0.913247 -2.39822 -0.863434 -2.33844 -0.753845 -2.22886C-0.544629 -2.0296 -0.415115 -1.77057 -0.415115 -1.41192C-0.415115 -0.993488 -1.02284 1.28796 -2.18847 1.28796C-2.69656 1.28796 -2.9257 0.939264 -2.9257 0.421207C-2.9257 -0.136701 -2.65671 -0.863974 -2.34787 -1.69087C-2.27813 -1.86024 -2.22832 -1.99971 -2.22832 -2.189C-2.22832 -2.63732 -2.54712 -3.00594 -3.04525 -3.00594C-3.98174 -3.00594 -4.36032 -1.56136 -4.36032 -1.47169C-4.36032 -1.37207 -4.26069 -1.37207 -4.24077 -1.37207C-4.14114 -1.37207 -4.13118 -1.39199 -4.08137 -1.5514C-3.79245 -2.55762 -3.36406 -2.78676 -3.07514 -2.78676C-2.99544 -2.78676 -2.82607 -2.78676 -2.82607 -2.46796C-2.82607 -2.21889 -2.9257 -1.9499 -2.99544 -1.77057C-3.4338 -0.614908 -3.56331 -0.156626 -3.56331 0.271767C-3.56331 1.34773 -2.6866 1.50713 -2.22832 1.50713C-0.554592 1.50713 0.0132785 -1.7905 0.0132785 -2.30856ZM0.0132785 -2.30856"/>
  <path fill="black" d="M0.940032 2.89193M2.51612 -1.54344C2.51612 -1.73173 2.50217 -1.73871 2.30691 -1.73871C1.86058 -1.29936 1.22596 -1.29238 0.940032 -1.29238L0.940032 -1.04132C1.1074 -1.04132 1.56768 -1.04132 1.95124 -1.23659L1.95124 2.32007C1.95124 2.55021 1.95124 2.64087 1.25386 2.64087L0.988849 2.64087L0.988849 2.89193C1.11438 2.88495 1.97216 2.86403 2.23019 2.86403C2.44638 2.86403 3.32509 2.88495 3.47851 2.89193L3.47851 2.64087L3.21351 2.64087C2.51612 2.64087 2.51612 2.55021 2.51612 2.32007ZM2.51612 2.32007"/>
 </g>
 <g>
  <path fill="#fff" d="M60.6614 -0L60.6614 -0.00692634A3.9685 3.9685 0 0 0 52.7244 -2.24837e-15A3.9685 3.9685 0 0 0 60.6614 0.00692634Z"/>
 </g>
 <path fill="black" d="M58.6772 -0L58.6772 -0.00346317A1.98425 1.98425 0 0 0 54.7087 -1.12419e-15A1.98425 1.98425 0 0 0 58.6772 0.00346317Z"/>
 <g transform="matrix(1.000000,0.000000,0.000000,1.000000,56.692913,-9.921260)">
  <path fill="black" d="M-4.36032 1.39755M0.0132785 -2.30856C0.0132785 -2.84654 -0.24575 -3.00594 -0.425078 -3.00594C-0.674144 -3.00594 -0.913247 -2.74691 -0.913247 -2.52773C-0.913247 -2.39822 -0.863434 -2.33844 -0.753845 -2.22886C-0.544629 -2.0296 -0.415115 -1.77057 -0.415115 -1.41192C-0.415115 -0.993488 -1.02284 1.28796 -2.18847 1.28796C-2.69656 1.28796 -2.9257 0.939264 -2.9257 0.421207C-2.9257 -0.136701 -2.65671 -0.863974 -2.34787 -1.69087C-2.27813 -1.86024 -2.22832 -1.99971 -2.22832 -2.189C-2.22832 -2.63732 -2.54712 -3.00594 -3.04525 -3.00594C-3.98174 -3.00594 -4.36032 -1.56136 -4.36032 -1.47169C-4.36032 -1.37207 -4.26069 -1.37207 -4.24077 -1.37207C-4.14114 -1.37207 -4.13118 -1.39199 -4.08137 -1.5514C-3.79245 -2.55762 -3.36406 -2.78676 -3.07514 -2.78676C-2.99544 -2.78676 -2.82607 -2.78676 -2.82607 -2.46796C-2.82607 -2.21889 -2.9257 -1.9499 -2.99544 -1.77057C-3.4338 -0.614908 -3.56331 -0.156626 -3.56331 0.271767C-3.56331 1.34773 -2.6866 1.50713 -2.22832 1.50713C-0.554592 1.50713 0.0132785 -1.7905 0.0132785 -2.30856ZM0.0132785 -2.30856"/>
  <path fill="black" d="M0.619235 2.89193M3.70168 1.62269L3.46457 1.62269C3.44364 1.77611 3.37391 2.18757 3.28325 2.25731C3.22745 2.29915 2.69047 2.29915 2.59283 2.29915L1.30965 2.29915C2.0419 1.65058 2.28598 1.45531 2.70442 1.12754C3.22048 0.716086 3.70168 0.283707 3.70168 -0.378808C3.70168 -1.22264 2.96245 -1.73871 2.0698 -1.73871C1.20504 -1.73871 0.619235 -1.13198 0.619235 -0.49039C0.619235 -0.134724 0.919111 -0.0998545 0.988849 -0.0998545C1.15622 -0.0998545 1.35846 -0.21841 1.35846 -0.469468C1.35846 -0.594998 1.30965 -0.839082 0.947006 -0.839082C1.1632 -1.33423 1.63742 -1.48765 1.96519 -1.48765C2.66257 -1.48765 3.02521 -0.94369 3.02521 -0.378808C3.02521 0.227916 2.59283 0.709112 2.36967 0.96017L0.688974 2.61995C0.619235 2.68271 0.619235 2.69666 0.619235 2.89193L3.49246 2.89193ZM3.49246 2.89193"/>
 </g>
 <g>
  <path fill="#fff" d="M60.6614 56.6929L60.6614 56.686A3.9685 3.9685 0 0 0 52.7244 56.6929A3.9685 3.9685 0 0 0 60.6614 56.6998Z"/>
 </g>
 <path fill="black" d="M58.6772 56.6929L58.6772 56.6895A1.98425 1.98425 0 0 0 54.7087 56.6929A1.98425 1.98425 0 0 0 58.6772 56.6964Z"/>
 <g transform="matrix(1.000000,0.000000,0.000000,1.000000,56.692913,66.614173)">
  <path fill="black" d="M-4.36032 1.39755M0.0132785 -2.30856C0.0132785 -2.84654 -0.24575 -3.00594 -0.425078 -3.00594C-0.674144 -3.00594 -0.913247 -2.74691 -0.913247 -2.52773C-0.913247 -2.39822 -0.863434 -2.33844 -0.753845 -2.22886C-0.544629 -2.0296 -0.415115 -1.77057 -0.415115 -1.41192C-0.415115 -0.993488 -1.02284 1.28796 -2.18847 1.28796C-2.69656 1.28796 -2.9257 0.939264 -2.9257 0.421207C-2.9257 -0.136701 -2.65671 -0.863974 -2.34787 -1.69087C-2.27813 -1.86024 -2.22832 -1.99971 -2.22832 -2.189C-2.22832 -2.63732 -2.54712 -3.00594 -3.04525 -3.00594C-3.98174 -3.00594 -4.36032 -1.56136 -4.36032 -1.47169C-4.36032 -1.37207 -4.26069 -1.37207 -4.24077 -1.37207C-4.14114 -1.37207 -4.13118 -1.39199 -4.08137 -1.5514C-3.79245 -2.55762 -3.36406 -2.78676 -3.07514 -2.78676C-2.99544 -2.78676 -2.82607 -2.78676 -2.82607 -2.46796C-2.82607 -2.21889 -2.9257 -1.9499 -2.99544 -1.77057C-3.4338 -0.614908 -3.56331 -0.156626 -3.56331 0.271767C-3.56331 1.34773 -2.6866 1.50713 -2.22832 1.50713C-0.554592 1.50713 0.0132785 -1.7905 0.0132785 -2.30856ZM0.0132785 -2.30856"/>
  <path fill="black" d="M0.55647 2.89193M2.08374 0.562661C2.6277 0.562661 3.01824 0.939249 3.01824 1.68545C3.01824 2.55021 2.51612 2.80824 2.11164 2.80824C1.83268 2.80824 1.21899 2.73153 0.926084 2.32007C1.25386 2.30612 1.33057 2.07599 1.33057 1.92954C1.33057 1.70637 1.1632 1.54597 0.947006 1.54597C0.751738 1.54597 0.55647 1.66453 0.55647 1.95046C0.55647 2.606 1.28175 3.0314 2.12559 3.0314C3.09495 3.0314 3.76444 2.38284 3.76444 1.68545C3.76444 1.14149 3.31811 0.59753 2.55099 0.437132C3.28325 0.172126 3.54825 -0.350913 3.54825 -0.776318C3.54825 -1.32725 2.91363 -1.73871 2.13953 -1.73871C1.36544 -1.73871 0.77266 -1.36212 0.77266 -0.804213C0.77266 -0.567102 0.926084 -0.434599 1.1353 -0.434599C1.35149 -0.434599 1.49097 -0.594998 1.49097 -0.790266C1.49097 -0.992507 1.35149 -1.13896 1.1353 -1.15291C1.37938 -1.45975 1.86058 -1.53647 2.11861 -1.53647C2.43244 -1.53647 2.87179 -1.38304 2.87179 -0.776318C2.87179 -0.483416 2.77415 -0.162619 2.59283 0.0535701C2.3627 0.318576 2.16743 0.332524 1.81874 0.353446C1.64439 0.367393 1.63044 0.367393 1.59557 0.374367C1.58163 0.374367 1.52584 0.388315 1.52584 0.465027C1.52584 0.562661 1.5886 0.562661 1.70716 0.562661ZM1.70716 0.562661"/>
 </g>
 <g>
  <path fill="#fff" d="M117.354 -0L117.354 -0.00692634A3.9685 3.9685 0 0 0 109.417 -2.24837e-15A3.9685 3.9685 0 0 0 117.354 0.00692634Z"/>
 </g>
 <path fill="black" d="M115.37 -0L115.37 -0.00346317A1.98425 1.98425 0 0 0 111.402 -1.12419e-15A1.98425 1.98425 0 0 0 115.37 0.00346317Z"/>
 <g transform="matrix(1.000000,0.000000,0.000000,1.000000,123.307087,-0.000000)">
  <path fill="black" d="M-4.36032 1.39755M0.0132785 -2.30856C0.0132785 -2.84654 -0.24575 -3.00594 -0.425078 -3.00594C-0.674144 -3.00594 -0.913247 -2.74691 -0.913247 -2.52773C-0.913247 -2.39822 -0.863434 -2.33844 -0.753845 -2.22886C-0.544629 -2.0296 -0.415115 -1.77057 -0.415115 -1.41192C-0.415115 -0.993488 -1.02284 1.28796 -2.18847 1.28796C-2.69656 1.28796 -2.9257 0.939264 -2.9257 0.421207C-2.9257 -0.136701 -2.65671 -0.863974 -2.34787 -1.69087C-2.27813 -1.86024 -2.22832 -1.99971 -2.22832 -2.189C-2.22832 -2.63732 -2.54712 -3.00594 -3.04525 -3.00594C-3.98174 -3.00594 -4.36032 -1.56136 -4.36032 -1.47169C-4.36032 -1.37207 -4.26069 -1.37207 -4.24077 -1.37207C-4.14114 -1.37207 -4.13118 -1.39199 -4.08137 -1.5514C-3.79245 -2.55762 -3.36406 -2.78676 -3.07514 -2.78676C-2.99544 -2.78676 -2.82607 -2.78676 -2.82607 -2.46796C-2.82607 -2.21889 -2.9257 -1.9499 -2.99544 -1.77057C-3.4338 -0.614908 -3.56331 -0.156626 -3.56331 0.271767C-3.56331 1.34773 -2.6866 1.50713 -2.22832 1.50713C-0.554592 1.50713 0.0132785 -1.7905 0.0132785 -2.30856ZM0.0132785 -2.30856"/>
  <path fill="black" d="M0.451863 2.89193M3.86905 1.74822L3.86905 1.49716L3.09495 1.49716L3.09495 -1.61318C3.09495 -1.75963 3.09495 -1.80845 2.94153 -1.80845C2.85784 -1.80845 2.82994 -1.80845 2.76021 -1.71081L0.451863 1.49716L0.451863 1.74822L2.50217 1.74822L2.50217 2.32007C2.50217 2.55718 2.50217 2.64087 1.93729 2.64087L1.749 2.64087L1.749 2.89193C2.09769 2.87798 2.54402 2.86403 2.79508 2.86403C3.05311 2.86403 3.49943 2.87798 3.84813 2.89193L3.84813 2.64087L3.65983 2.64087C3.09495 2.64087 3.09495 2.55718 3.09495 2.32007L3.09495 1.74822ZM3.09495 1.74822M2.55099 -1.05527L2.55099 1.49716L0.709895 1.49716ZM0.709895 1.49716"/>
 </g>
 <g>
  <path fill="#fff" d="M117.354 56.6929L117.354 56.686A3.9685 3.9685 0 0 0 109.417 56.6929A3.9685 3.9685 0 0 0 117.354 56.6998Z"/>
 </g>
 <path fill="black" d="M115.37 56.6929L115.37 56.6895A1.98425 1.98425 0 0 0 111.402 56.6929A1.98425 1.98425 0 0 0 115.37 56.6964Z"/>
 <g transform="matrix(1.000000,0.000000,0.000000,1.000000,123.307087,56.692913)">
  <path fill="black" d="M-4.36032 1.39755M0.0132785 -2.30856C0.0132785 -2.84654 -0.24575 -3.00594 -0.425078 -3.00594C-0.674144 -3.00594 -0.913247 -2.74691 -0.913247 -2.52773C-0.913247 -2.39822 -0.863434 -2.33844 -0.753845 -2.22886C-0.544629 -2.0296 -0.415115 -1.77057 -0.415115 -1.41192C-0.415115 -0.993488 -1.02284 1.28796 -2.18847 1.28796C-2.69656 1.28796 -2.9257 0.939264 -2.9257 0.421207C-2.9257 -0.136701 -2.65671 -0.863974 -2.34787 -1.69087C-2.27813 -1.86024 -2.22832 -1.99971 -2.22832 -2.189C-2.22832 -2.63732 -2.54712 -3.00594 -3.04525 -3.00594C-3.98174 -3.00594 -4.36032 -1.56136 -4.36032 -1.47169C-4.36032 -1.37207 -4.26069 -1.37207 -4.24077 -1.37207C-4.14114 -1.37207 -4.13118 -1.39199 -4.08137 -1.5514C-3.79245 -2.55762 -3.36406 -2.78676 -3.07514 -2.78676C-2.99544 -2.78676 -2.82607 -2.78676 -2.82607 -2.46796C-2.82607 -2.21889 -2.9257 -1.9499 -2.99544 -1.77057C-3.4338 -0.614908 -3.56331 -0.156626 -3.56331 0.271767C-3.56331 1.34773 -2.6866 1.50713 -2.22832 1.50713C-0.554592 1.50713 0.0132785 -1.7905 0.0132785 -2.30856ZM0.0132785 -2.30856"/>
  <path fill="black" d="M0.619235 2.89193M1.26083 -0.999481C1.6165 -0.908821 1.82571 -0.908821 1.93729 -0.908821C2.85784 -0.908821 3.4018 -1.53647 3.4018 -1.64107C3.4018 -1.71779 3.35298 -1.73871 3.31811 -1.73871C3.30417 -1.73871 3.29022 -1.73871 3.26232 -1.71779C3.09495 -1.65502 2.72534 -1.51555 2.20927 -1.51555C2.014 -1.51555 1.64439 -1.52949 1.19109 -1.70384C1.12135 -1.73871 1.1074 -1.73871 1.10043 -1.73871C1.00977 -1.73871 1.00977 -1.662 1.00977 -1.55041L1.00977 0.50687C1.00977 0.625426 1.00977 0.709112 1.12135 0.709112C1.18412 0.709112 1.19109 0.695164 1.26083 0.611478C1.5607 0.227916 1.98611 0.172126 2.23019 0.172126C2.64862 0.172126 2.83692 0.50687 2.87179 0.562661C2.99732 0.792798 3.03916 1.0578 3.03916 1.46229C3.03916 1.6715 3.03916 2.08296 2.82994 2.38981C2.6556 2.64087 2.35572 2.80824 2.014 2.80824C1.5607 2.80824 1.09346 2.55718 0.919111 2.09691C1.18412 2.11783 1.31662 1.94348 1.31662 1.75519C1.31662 1.45531 1.05859 1.39952 0.967928 1.39952C0.95398 1.39952 0.619235 1.39952 0.619235 1.77611C0.619235 2.40376 1.19109 3.0314 2.02795 3.0314C2.9206 3.0314 3.70168 2.36889 3.70168 1.49018C3.70168 0.702138 3.10193 -0.0231422 2.23717 -0.0231422C1.93032 -0.0231422 1.56768 0.0535701 1.26083 0.318576ZM1.26083 0.318576"/>
 </g>
</svg>
