<?xml version="1.0" encoding="utf-8"?>
<svg xmlns="http://www.w3.org/2000/svg" x="-5.5922pt" version="1.1" y="27.3465pt" stroke-miterlimit="10.000000" viewBox="-5.5922 27.3465 237.956 228.772" height="228.772pt" stroke-width="0.566929" fill="none" width="237.956pt">
 <g>
  <path fill="#d8d8d8" d="M5.66929 53.8583L5.66929 31.1811L51.0236 31.1811L51.0236 53.8583"/>
 </g>
 <g stroke-width="3.207035">
  <path stroke="#f36b08" d="M28.3465 56.6929L28.3465 51.3889"/>
  <g stroke-linecap="butt" stroke-dasharray="none">
   <path fill="#f36b08" d="M26.0504 48.063L28.3465 42.5197L30.6426 48.063L28.3465 46.9543Z"/>
  </g>
  <g stroke-linecap="butt" stroke-dasharray="none">
   <path fill="#f36b08" d="M23.7543 53.6062L28.3465 42.5197L32.9387 53.6062L28.3465 51.3889Z"/>
  </g>
 </g>
 <g>
  <path fill="#d8d8d8" d="M107.717 31.1811L107.717 53.8583L62.3622 53.8583L62.3622 31.1811"/>
 </g>
 <g stroke-width="3.207035">
  <path stroke="#f36b08" d="M85.0394 56.6929L85.0394 51.3889"/>
  <g stroke-linecap="butt" stroke-dasharray="none">
   <path fill="#f36b08" d="M82.7433 48.063L85.0394 42.5197L87.3355 48.063L85.0394 46.9543Z"/>
  </g>
  <g stroke-linecap="butt" stroke-dasharray="none">
   <path fill="#f36b08" d="M80.4472 53.6062L85.0394 42.5197L89.6316 53.6062L85.0394 51.3889Z"/>
  </g>
 </g>
 <g>
  <path fill="#d8d8d8" d="M164.409 31.1811L164.409 53.8583L119.055 53.8583L119.055 31.1811"/>
 </g>
 <g stroke-width="3.207035">
  <path stroke="#f36b08" d="M141.732 56.6929L141.732 51.3889"/>
  <g stroke-linecap="butt" stroke-dasharray="none">
   <path fill="#f36b08" d="M139.436 48.063L141.732 42.5197L144.028 48.063L141.732 46.9543Z"/>
  </g>
  <g stroke-linecap="butt" stroke-dasharray="none">
   <path fill="#f36b08" d="M137.14 53.6062L141.732 42.5197L146.324 53.6062L141.732 51.3889Z"/>
  </g>
 </g>
 <g>
  <path fill="#d8d8d8" d="M221.102 31.1811L221.102 53.8583L175.748 53.8583L175.748 31.1811"/>
 </g>
 <g stroke-width="3.207035">
  <path stroke="#f36b08" d="M198.425 56.6929L198.425 51.3889"/>
  <g stroke-linecap="butt" stroke-dasharray="none">
   <path fill="#f36b08" d="M196.129 48.063L198.425 42.5197L200.721 48.063L198.425 46.9543Z"/>
  </g>
  <g stroke-linecap="butt" stroke-dasharray="none">
   <path fill="#f36b08" d="M193.833 53.6062L198.425 42.5197L203.017 53.6062L198.425 51.3889Z"/>
  </g>
 </g>
 <g>
  <path fill="#d8d8d8" d="M5.66929 62.3622L51.0236 62.3622L51.0236 107.717L5.66929 107.717"/>
 </g>
 <g stroke-width="3.207035">
  <path stroke="#f36b08" d="M0 85.0394L19.4772 85.0394"/>
  <g stroke-linecap="butt" stroke-dasharray="none">
   <path fill="#f36b08" d="M22.8032 82.7433L28.3465 85.0394L22.8032 87.3355L23.9118 85.0394Z"/>
  </g>
  <g stroke-linecap="butt" stroke-dasharray="none">
   <path fill="#f36b08" d="M17.2599 80.4472L28.3465 85.0394L17.2599 89.6316L19.4772 85.0394Z"/>
  </g>
 </g>
 <g>
  <path fill="#d8d8d8" d="M107.717 107.717L62.3622 107.717L62.3622 62.3622L107.717 62.3622"/>
 </g>
 <g stroke-width="3.207035">
  <path stroke="#f36b08" d="M56.6929 85.0394L76.1701 85.0394"/>
  <g stroke-linecap="butt" stroke-dasharray="none">
   <path fill="#f36b08" d="M79.4961 82.7433L85.0394 85.0394L79.4961 87.3355L80.6047 85.0394Z"/>
  </g>
  <g stroke-linecap="butt" stroke-dasharray="none">
   <path fill="#f36b08" d="M73.9528 80.4472L85.0394 85.0394L73.9528 89.6316L76.1701 85.0394Z"/>
  </g>
 </g>
 <g>
  <path fill="#d8d8d8" d="M164.409 107.717L119.055 107.717L119.055 62.3622L164.409 62.3622"/>
 </g>
 <g stroke-width="3.207035">
  <path stroke="#f36b08" d="M170.079 85.0394L150.602 85.0394"/>
  <g stroke-linecap="butt" stroke-dasharray="none">
   <path fill="#f36b08" d="M147.276 87.3355L141.732 85.0394L147.276 82.7433L146.167 85.0394Z"/>
  </g>
  <g stroke-linecap="butt" stroke-dasharray="none">
   <path fill="#f36b08" d="M152.819 89.6316L141.732 85.0394L152.819 80.4472L150.602 85.0394Z"/>
  </g>
 </g>
 <g>
  <path fill="#d8d8d8" d="M221.102 107.717L221.102 62.3622L175.748 62.3622L175.748 107.717"/>
 </g>
 <g stroke-width="3.207035">
  <path stroke="#f36b08" d="M226.772 85.0394L207.294 85.0394"/>
  <g stroke-linecap="butt" stroke-dasharray="none">
   <path fill="#f36b08" d="M203.968 87.3355L198.425 85.0394L203.968 82.7433L202.86 85.0394Z"/>
  </g>
  <g stroke-linecap="butt" stroke-dasharray="none">
   <path fill="#f36b08" d="M209.512 89.6316L198.425 85.0394L209.512 80.4472L207.294 85.0394Z"/>
  </g>
 </g>
 <g>
  <path fill="#d8d8d8" d="M51.0236 164.409L51.0236 119.055L5.66929 119.055L5.66929 164.409"/>
 </g>
 <g stroke-width="3.207035">
  <path stroke="#f36b08" d="M0 141.732L19.4772 141.732"/>
  <g stroke-linecap="butt" stroke-dasharray="none">
   <path fill="#f36b08" d="M22.8032 139.436L28.3465 141.732L22.8032 144.028L23.9118 141.732Z"/>
  </g>
  <g stroke-linecap="butt" stroke-dasharray="none">
   <path fill="#f36b08" d="M17.2599 137.14L28.3465 141.732L17.2599 146.324L19.4772 141.732Z"/>
  </g>
 </g>
 <g>
  <path fill="#d8d8d8" d="M107.717 164.409L107.717 119.055L62.3622 119.055L62.3622 164.409"/>
 </g>
 <g stroke-width="3.207035">
  <path stroke="#f36b08" d="M56.6929 141.732L76.1701 141.732"/>
  <g stroke-linecap="butt" stroke-dasharray="none">
   <path fill="#f36b08" d="M79.4961 139.436L85.0394 141.732L79.4961 144.028L80.6047 141.732Z"/>
  </g>
  <g stroke-linecap="butt" stroke-dasharray="none">
   <path fill="#f36b08" d="M73.9528 137.14L85.0394 141.732L73.9528 146.324L76.1701 141.732Z"/>
  </g>
 </g>
 <g>
  <path fill="#d8d8d8" d="M164.409 119.055L119.055 119.055L119.055 164.409L164.409 164.409"/>
 </g>
 <g stroke-width="3.207035">
  <path stroke="#f36b08" d="M170.079 141.732L150.602 141.732"/>
  <g stroke-linecap="butt" stroke-dasharray="none">
   <path fill="#f36b08" d="M147.276 144.028L141.732 141.732L147.276 139.436L146.167 141.732Z"/>
  </g>
  <g stroke-linecap="butt" stroke-dasharray="none">
   <path fill="#f36b08" d="M152.819 146.324L141.732 141.732L152.819 137.14L150.602 141.732Z"/>
  </g>
 </g>
 <g>
  <path fill="#d8d8d8" d="M175.748 119.055L175.748 164.409L221.102 164.409L221.102 119.055"/>
 </g>
 <g stroke-width="3.207035">
  <path stroke="#f36b08" d="M226.772 141.732L207.294 141.732"/>
  <g stroke-linecap="butt" stroke-dasharray="none">
   <path fill="#f36b08" d="M203.968 144.028L198.425 141.732L203.968 139.436L202.86 141.732Z"/>
  </g>
  <g stroke-linecap="butt" stroke-dasharray="none">
   <path fill="#f36b08" d="M209.512 146.324L198.425 141.732L209.512 137.14L207.294 141.732Z"/>
  </g>
 </g>
 <g>
  <path fill="#d8d8d8" d="M51.0236 221.102L5.66929 221.102L5.66929 175.748L51.0236 175.748"/>
 </g>
 <g stroke-width="3.207035">
  <path stroke="#f36b08" d="M0 198.425L19.4772 198.425"/>
  <g stroke-linecap="butt" stroke-dasharray="none">
   <path fill="#f36b08" d="M22.8032 196.129L28.3465 198.425L22.8032 200.721L23.9118 198.425Z"/>
  </g>
  <g stroke-linecap="butt" stroke-dasharray="none">
   <path fill="#f36b08" d="M17.2599 193.833L28.3465 198.425L17.2599 203.017L19.4772 198.425Z"/>
  </g>
 </g>
 <g>
  <path fill="#d8d8d8" d="M107.717 175.748L107.717 221.102L62.3622 221.102L62.3622 175.748"/>
 </g>
 <g stroke-width="3.207035">
  <path stroke="#f36b08" d="M85.0394 170.079L85.0394 189.556"/>
  <g stroke-linecap="butt" stroke-dasharray="none">
   <path fill="#f36b08" d="M87.3355 192.882L85.0394 198.425L82.7433 192.882L85.0394 193.991Z"/>
  </g>
  <g stroke-linecap="butt" stroke-dasharray="none">
   <path fill="#f36b08" d="M89.6316 187.339L85.0394 198.425L80.4472 187.339L85.0394 189.556Z"/>
  </g>
 </g>
 <g>
  <path fill="#d8d8d8" d="M119.055 175.748L164.409 175.748L164.409 221.102L119.055 221.102"/>
 </g>
 <g stroke-width="3.207035">
  <path stroke="#f36b08" d="M141.732 170.079L141.732 189.556"/>
  <g stroke-linecap="butt" stroke-dasharray="none">
   <path fill="#f36b08" d="M144.028 192.882L141.732 198.425L139.436 192.882L141.732 193.991Z"/>
  </g>
  <g stroke-linecap="butt" stroke-dasharray="none">
   <path fill="#f36b08" d="M146.324 187.339L141.732 198.425L137.14 187.339L141.732 189.556Z"/>
  </g>
 </g>
 <g>
  <path fill="#d8d8d8" d="M175.748 221.102L221.102 221.102L221.102 175.748L175.748 175.748"/>
 </g>
 <g stroke-width="3.207035">
  <path stroke="#f36b08" d="M226.772 198.425L207.294 198.425"/>
  <g stroke-linecap="butt" stroke-dasharray="none">
   <path fill="#f36b08" d="M203.968 200.721L198.425 198.425L203.968 196.129L202.86 198.425Z"/>
  </g>
  <g stroke-linecap="butt" stroke-dasharray="none">
   <path fill="#f36b08" d="M209.512 203.017L198.425 198.425L209.512 193.833L207.294 198.425Z"/>
  </g>
 </g>
 <g>
  <path fill="#d8d8d8" d="M51.0236 252.283L51.0236 229.606L5.66929 229.606L5.66929 252.283"/>
 </g>
 <g stroke-width="3.207035">
  <path stroke="#f36b08" d="M28.3465 226.772L28.3465 232.076"/>
  <g stroke-linecap="butt" stroke-dasharray="none">
   <path fill="#f36b08" d="M30.6426 235.402L28.3465 240.945L26.0504 235.402L28.3465 236.51Z"/>
  </g>
  <g stroke-linecap="butt" stroke-dasharray="none">
   <path fill="#f36b08" d="M32.9387 229.858L28.3465 240.945L23.7543 229.858L28.3465 232.076Z"/>
  </g>
 </g>
 <g>
  <path fill="#d8d8d8" d="M62.3622 252.283L62.3622 229.606L107.717 229.606L107.717 252.283"/>
 </g>
 <g stroke-width="3.207035">
  <path stroke="#f36b08" d="M85.0394 226.772L85.0394 232.076"/>
  <g stroke-linecap="butt" stroke-dasharray="none">
   <path fill="#f36b08" d="M87.3355 235.402L85.0394 240.945L82.7433 235.402L85.0394 236.51Z"/>
  </g>
  <g stroke-linecap="butt" stroke-dasharray="none">
   <path fill="#f36b08" d="M89.6316 229.858L85.0394 240.945L80.4472 229.858L85.0394 232.076Z"/>
  </g>
 </g>
 <g>
  <path fill="#d8d8d8" d="M119.055 252.283L119.055 229.606L164.409 229.606L164.409 252.283"/>
 </g>
 <g stroke-width="3.207035">
  <path stroke="#f36b08" d="M141.732 226.772L141.732 232.076"/>
  <g stroke-linecap="butt" stroke-dasharray="none">
   <path fill="#f36b08" d="M144.028 235.402L141.732 240.945L139.436 235.402L141.732 236.51Z"/>
  </g>
  <g stroke-linecap="butt" stroke-dasharray="none">
   <path fill="#f36b08" d="M146.324 229.858L141.732 240.945L137.14 229.858L141.732 232.076Z"/>
  </g>
 </g>
 <g>
  <path fill="#d8d8d8" d="M221.102 229.606L221.102 252.283L175.748 252.283L175.748 229.606"/>
 </g>
 <g stroke-width="3.207035">
  <path stroke="#f36b08" d="M198.425 226.772L198.425 232.076"/>
  <g stroke-linecap="butt" stroke-dasharray="none">
   <path fill="#f36b08" d="M200.721 235.402L198.425 240.945L196.129 235.402L198.425 236.51Z"/>
  </g>
  <g stroke-linecap="butt" stroke-dasharray="none">
   <path fill="#f36b08" d="M203.017 229.858L198.425 240.945L193.833 229.858L198.425 232.076Z"/>
  </g>
 </g>
 <g stroke-width="3.207035">
  <path stroke="#f36b08" d="M0 56.6929L0 37.2157"/>
  <g stroke-linecap="butt" stroke-dasharray="none">
   <path fill="#f36b08" d="M-2.2961 33.8897L0 28.3465L2.2961 33.8897L0 32.7811Z"/>
  </g>
  <g stroke-linecap="butt" stroke-dasharray="none">
   <path fill="#f36b08" d="M-4.5922 39.433L0 28.3465L4.5922 39.433L0 37.2157Z"/>
  </g>
 </g>
 <path stroke="black" d="M0 56.6929L0 28.3465"/>
 <g stroke-width="3.207035">
  <path stroke="#f36b08" d="M56.6929 56.6929L56.6929 37.2157"/>
  <g stroke-linecap="butt" stroke-dasharray="none">
   <path fill="#f36b08" d="M54.3968 33.8897L56.6929 28.3465L58.989 33.8897L56.6929 32.7811Z"/>
  </g>
  <g stroke-linecap="butt" stroke-dasharray="none">
   <path fill="#f36b08" d="M52.1007 39.433L56.6929 28.3465L61.2851 39.433L56.6929 37.2157Z"/>
  </g>
 </g>
 <path stroke="black" d="M56.6929 56.6929L56.6929 28.3465"/>
 <g stroke-width="3.207035">
  <path stroke="#f36b08" d="M113.386 56.6929L113.386 37.2157"/>
  <g stroke-linecap="butt" stroke-dasharray="none">
   <path fill="#f36b08" d="M111.09 33.8897L113.386 28.3465L115.682 33.8897L113.386 32.7811Z"/>
  </g>
  <g stroke-linecap="butt" stroke-dasharray="none">
   <path fill="#f36b08" d="M108.794 39.433L113.386 28.3465L117.978 39.433L113.386 37.2157Z"/>
  </g>
 </g>
 <path stroke="black" d="M113.386 56.6929L113.386 28.3465"/>
 <g stroke-width="3.207035">
  <path stroke="#f36b08" d="M170.079 56.6929L170.079 37.2157"/>
  <g stroke-linecap="butt" stroke-dasharray="none">
   <path fill="#f36b08" d="M167.783 33.8897L170.079 28.3465L172.375 33.8897L170.079 32.7811Z"/>
  </g>
  <g stroke-linecap="butt" stroke-dasharray="none">
   <path fill="#f36b08" d="M165.487 39.433L170.079 28.3465L174.671 39.433L170.079 37.2157Z"/>
  </g>
 </g>
 <path stroke="black" d="M170.079 56.6929L170.079 28.3465"/>
 <g stroke-width="3.207035">
  <path stroke="#f36b08" d="M226.772 56.6929L226.772 37.2157"/>
  <g stroke-linecap="butt" stroke-dasharray="none">
   <path fill="#f36b08" d="M224.476 33.8897L226.772 28.3465L229.068 33.8897L226.772 32.7811Z"/>
  </g>
  <g stroke-linecap="butt" stroke-dasharray="none">
   <path fill="#f36b08" d="M222.179 39.433L226.772 28.3465L231.364 39.433L226.772 37.2157Z"/>
  </g>
 </g>
 <path stroke="black" d="M226.772 56.6929L226.772 28.3465"/>
 <path stroke="black" d="M0 56.6929L56.6929 56.6929"/>
 <path stroke="black" d="M0 56.6929L0 113.386"/>
 <path stroke="black" d="M56.6929 56.6929L113.386 56.6929"/>
 <path stroke="black" d="M56.6929 56.6929L56.6929 113.386"/>
 <path stroke="black" d="M113.386 56.6929L170.079 56.6929"/>
 <g stroke-width="3.207035">
  <path stroke="#f36b08" d="M113.386 113.386L113.386 93.9086"/>
  <g stroke-linecap="butt" stroke-dasharray="none">
   <path fill="#f36b08" d="M111.09 90.5826L113.386 85.0394L115.682 90.5826L113.386 89.474Z"/>
  </g>
  <g stroke-linecap="butt" stroke-dasharray="none">
   <path fill="#f36b08" d="M108.794 96.1259L113.386 85.0394L117.978 96.1259L113.386 93.9086Z"/>
  </g>
 </g>
 <path stroke="black" d="M113.386 113.386L113.386 56.6929"/>
 <path stroke="black" d="M170.079 56.6929L226.772 56.6929"/>
 <path stroke="black" d="M170.079 56.6929L170.079 113.386"/>
 <path stroke="black" d="M226.772 56.6929L226.772 113.386"/>
 <g stroke-width="3.207035">
  <path stroke="#f36b08" d="M0 113.386L19.4772 113.386"/>
  <g stroke-linecap="butt" stroke-dasharray="none">
   <path fill="#f36b08" d="M22.8032 111.09L28.3465 113.386L22.8032 115.682L23.9118 113.386Z"/>
  </g>
  <g stroke-linecap="butt" stroke-dasharray="none">
   <path fill="#f36b08" d="M17.2599 108.794L28.3465 113.386L17.2599 117.978L19.4772 113.386Z"/>
  </g>
 </g>
 <path stroke="black" d="M0 113.386L56.6929 113.386"/>
 <path stroke="black" d="M0 113.386L0 170.079"/>
 <g stroke-width="3.207035">
  <path stroke="#f36b08" d="M56.6929 113.386L76.1701 113.386"/>
  <g stroke-linecap="butt" stroke-dasharray="none">
   <path fill="#f36b08" d="M79.4961 111.09L85.0394 113.386L79.4961 115.682L80.6047 113.386Z"/>
  </g>
  <g stroke-linecap="butt" stroke-dasharray="none">
   <path fill="#f36b08" d="M73.9528 108.794L85.0394 113.386L73.9528 117.978L76.1701 113.386Z"/>
  </g>
 </g>
 <path stroke="black" d="M56.6929 113.386L113.386 113.386"/>
 <path stroke="black" d="M56.6929 113.386L56.6929 170.079"/>
 <g stroke-width="3.207035">
  <path stroke="#f36b08" d="M170.079 113.386L150.602 113.386"/>
  <g stroke-linecap="butt" stroke-dasharray="none">
   <path fill="#f36b08" d="M147.276 115.682L141.732 113.386L147.276 111.09L146.167 113.386Z"/>
  </g>
  <g stroke-linecap="butt" stroke-dasharray="none">
   <path fill="#f36b08" d="M152.819 117.978L141.732 113.386L152.819 108.794L150.602 113.386Z"/>
  </g>
 </g>
 <path stroke="black" d="M170.079 113.386L113.386 113.386"/>
 <g stroke-width="0.801759">
  <path stroke="#ff1919" d="M117.354 141.732L117.354 141.725A3.9685 3.9685 0 0 0 109.417 141.732A3.9685 3.9685 0 0 0 117.354 141.739Z"/>
 </g>
 <path stroke="black" d="M113.386 113.386L113.386 170.079"/>
 <g stroke-width="3.207035">
  <path stroke="#f36b08" d="M226.772 113.386L207.294 113.386"/>
  <g stroke-linecap="butt" stroke-dasharray="none">
   <path fill="#f36b08" d="M203.968 115.682L198.425 113.386L203.968 111.09L202.86 113.386Z"/>
  </g>
  <g stroke-linecap="butt" stroke-dasharray="none">
   <path fill="#f36b08" d="M209.512 117.978L198.425 113.386L209.512 108.794L207.294 113.386Z"/>
  </g>
 </g>
 <path stroke="black" d="M226.772 113.386L170.079 113.386"/>
 <path stroke="black" d="M170.079 113.386L170.079 170.079"/>
 <path stroke="black" d="M226.772 113.386L226.772 170.079"/>
 <g stroke-width="3.207035">
  <path stroke="#f36b08" d="M0 170.079L19.4772 170.079"/>
  <g stroke-linecap="butt" stroke-dasharray="none">
   <path fill="#f36b08" d="M22.8032 167.783L28.3465 170.079L22.8032 172.375L23.9118 170.079Z"/>
  </g>
  <g stroke-linecap="butt" stroke-dasharray="none">
   <path fill="#f36b08" d="M17.2599 165.487L28.3465 170.079L17.2599 174.671L19.4772 170.079Z"/>
  </g>
 </g>
 <path stroke="black" d="M0 170.079L56.6929 170.079"/>
 <path stroke="black" d="M0 170.079L0 226.772"/>
 <path stroke="black" d="M56.6929 170.079L113.386 170.079"/>
 <g stroke-width="3.207035">
  <path stroke="#f36b08" d="M56.6929 170.079L56.6929 189.556"/>
  <g stroke-linecap="butt" stroke-dasharray="none">
   <path fill="#f36b08" d="M58.989 192.882L56.6929 198.425L54.3968 192.882L56.6929 193.991Z"/>
  </g>
  <g stroke-linecap="butt" stroke-dasharray="none">
   <path fill="#f36b08" d="M61.2851 187.339L56.6929 198.425L52.1007 187.339L56.6929 189.556Z"/>
  </g>
 </g>
 <path stroke="black" d="M56.6929 170.079L56.6929 226.772"/>
 <path stroke="black" d="M113.386 170.079L170.079 170.079"/>
 <g stroke-width="3.207035">
  <path stroke="#f36b08" d="M113.386 170.079L113.386 189.556"/>
  <g stroke-linecap="butt" stroke-dasharray="none">
   <path fill="#f36b08" d="M115.682 192.882L113.386 198.425L111.09 192.882L113.386 193.991Z"/>
  </g>
  <g stroke-linecap="butt" stroke-dasharray="none">
   <path fill="#f36b08" d="M117.978 187.339L113.386 198.425L108.794 187.339L113.386 189.556Z"/>
  </g>
 </g>
 <path stroke="black" d="M113.386 170.079L113.386 226.772"/>
 <g stroke-width="3.207035">
  <path stroke="#f36b08" d="M226.772 170.079L207.294 170.079"/>
  <g stroke-linecap="butt" stroke-dasharray="none">
   <path fill="#f36b08" d="M203.968 172.375L198.425 170.079L203.968 167.783L202.86 170.079Z"/>
  </g>
  <g stroke-linecap="butt" stroke-dasharray="none">
   <path fill="#f36b08" d="M209.512 174.671L198.425 170.079L209.512 165.487L207.294 170.079Z"/>
  </g>
 </g>
 <path stroke="black" d="M226.772 170.079L170.079 170.079"/>
 <g stroke-width="3.207035">
  <path stroke="#f36b08" d="M170.079 170.079L170.079 189.556"/>
  <g stroke-linecap="butt" stroke-dasharray="none">
   <path fill="#f36b08" d="M172.375 192.882L170.079 198.425L167.783 192.882L170.079 193.991Z"/>
  </g>
  <g stroke-linecap="butt" stroke-dasharray="none">
   <path fill="#f36b08" d="M174.671 187.339L170.079 198.425L165.487 187.339L170.079 189.556Z"/>
  </g>
 </g>
 <path stroke="black" d="M170.079 170.079L170.079 226.772"/>
 <path stroke="black" d="M226.772 170.079L226.772 226.772"/>
 <path stroke="black" d="M0 226.772L56.6929 226.772"/>
 <g stroke-width="3.207035">
  <path stroke="#f36b08" d="M0 226.772L0 246.249"/>
  <g stroke-linecap="butt" stroke-dasharray="none">
   <path fill="#f36b08" d="M2.2961 249.575L0 255.118L-2.2961 249.575L0 250.683Z"/>
  </g>
  <g stroke-linecap="butt" stroke-dasharray="none">
   <path fill="#f36b08" d="M4.5922 244.032L0 255.118L-4.5922 244.032L0 246.249Z"/>
  </g>
 </g>
 <path stroke="black" d="M0 226.772L0 255.118"/>
 <path stroke="black" d="M56.6929 226.772L113.386 226.772"/>
 <g stroke-width="3.207035">
  <path stroke="#f36b08" d="M56.6929 226.772L56.6929 246.249"/>
  <g stroke-linecap="butt" stroke-dasharray="none">
   <path fill="#f36b08" d="M58.989 249.575L56.6929 255.118L54.3968 249.575L56.6929 250.683Z"/>
  </g>
  <g stroke-linecap="butt" stroke-dasharray="none">
   <path fill="#f36b08" d="M61.2851 244.032L56.6929 255.118L52.1007 244.032L56.6929 246.249Z"/>
  </g>
 </g>
 <path stroke="black" d="M56.6929 226.772L56.6929 255.118"/>
 <path stroke="black" d="M113.386 226.772L170.079 226.772"/>
 <g stroke-width="3.207035">
  <path stroke="#f36b08" d="M113.386 226.772L113.386 246.249"/>
  <g stroke-linecap="butt" stroke-dasharray="none">
   <path fill="#f36b08" d="M115.682 249.575L113.386 255.118L111.09 249.575L113.386 250.683Z"/>
  </g>
  <g stroke-linecap="butt" stroke-dasharray="none">
   <path fill="#f36b08" d="M117.978 244.032L113.386 255.118L108.794 244.032L113.386 246.249Z"/>
  </g>
 </g>
 <path stroke="black" d="M113.386 226.772L113.386 255.118"/>
 <path stroke="black" d="M170.079 226.772L226.772 226.772"/>
 <g stroke-width="3.207035">
  <path stroke="#f36b08" d="M170.079 226.772L170.079 246.249"/>
  <g stroke-linecap="butt" stroke-dasharray="none">
   <path fill="#f36b08" d="M172.375 249.575L170.079 255.118L167.783 249.575L170.079 250.683Z"/>
  </g>
  <g stroke-linecap="butt" stroke-dasharray="none">
   <path fill="#f36b08" d="M174.671 244.032L170.079 255.118L165.487 244.032L170.079 246.249Z"/>
  </g>
 </g>
 <path stroke="black" d="M170.079 226.772L170.079 255.118"/>
 <g stroke-width="3.207035">
  <path stroke="#f36b08" d="M226.772 226.772L226.772 246.249"/>
  <g stroke-linecap="butt" stroke-dasharray="none">
   <path fill="#f36b08" d="M229.068 249.575L226.772 255.118L224.476 249.575L226.772 250.683Z"/>
  </g>
  <g stroke-linecap="butt" stroke-dasharray="none">
   <path fill="#f36b08" d="M231.364 244.032L226.772 255.118L222.179 244.032L226.772 246.249Z"/>
  </g>
 </g>
 <path stroke="black" d="M226.772 226.772L226.772 255.118"/>
 <g>
  <path fill="#fff" d="M3.9685 56.6929L3.9685 56.686A3.9685 3.9685 0 0 0 -3.9685 56.6929A3.9685 3.9685 0 0 0 3.9685 56.6998Z"/>
 </g>
 <path fill="black" d="M1.98425 56.6929L1.98425 56.6895A1.98425 1.98425 0 0 0 -1.98425 56.6929A1.98425 1.98425 0 0 0 1.98425 56.6964Z"/>
 <g>
  <path fill="#fff" d="M60.6614 56.6929L60.6614 56.686A3.9685 3.9685 0 0 0 52.7244 56.6929A3.9685 3.9685 0 0 0 60.6614 56.6998Z"/>
 </g>
 <path fill="black" d="M58.6772 56.6929L58.6772 56.6895A1.98425 1.98425 0 0 0 54.7087 56.6929A1.98425 1.98425 0 0 0 58.6772 56.6964Z"/>
 <g>
  <path fill="#fff" d="M117.354 56.6929L117.354 56.686A3.9685 3.9685 0 0 0 109.417 56.6929A3.9685 3.9685 0 0 0 117.354 56.6998Z"/>
 </g>
 <path fill="black" d="M115.37 56.6929L115.37 56.6895A1.98425 1.98425 0 0 0 111.402 56.6929A1.98425 1.98425 0 0 0 115.37 56.6964Z"/>
 <g>
  <path fill="#fff" d="M174.047 56.6929L174.047 56.686A3.9685 3.9685 0 0 0 166.11 56.6929A3.9685 3.9685 0 0 0 174.047 56.6998Z"/>
 </g>
 <path fill="black" d="M172.063 56.6929L172.063 56.6895A1.98425 1.98425 0 0 0 168.094 56.6929A1.98425 1.98425 0 0 0 172.063 56.6964Z"/>
 <g>
  <path fill="#fff" d="M230.74 56.6929L230.74 56.686A3.9685 3.9685 0 0 0 222.803 56.6929A3.9685 3.9685 0 0 0 230.74 56.6998Z"/>
 </g>
 <path fill="black" d="M228.756 56.6929L228.756 56.6895A1.98425 1.98425 0 0 0 224.787 56.6929A1.98425 1.98425 0 0 0 228.756 56.6964Z"/>
 <g>
  <path fill="#fff" d="M3.9685 113.386L3.9685 113.379A3.9685 3.9685 0 0 0 -3.9685 113.386A3.9685 3.9685 0 0 0 3.9685 113.393Z"/>
 </g>
 <path fill="black" d="M1.98425 113.386L1.98425 113.382A1.98425 1.98425 0 0 0 -1.98425 113.386A1.98425 1.98425 0 0 0 1.98425 113.389Z"/>
 <g>
  <path fill="#fff" d="M60.6614 113.386L60.6614 113.379A3.9685 3.9685 0 0 0 52.7244 113.386A3.9685 3.9685 0 0 0 60.6614 113.393Z"/>
 </g>
 <path fill="black" d="M58.6772 113.386L58.6772 113.382A1.98425 1.98425 0 0 0 54.7087 113.386A1.98425 1.98425 0 0 0 58.6772 113.389Z"/>
 <g>
  <path fill="#fff" d="M117.354 113.386L117.354 113.379A3.9685 3.9685 0 0 0 109.417 113.386A3.9685 3.9685 0 0 0 117.354 113.393Z"/>
 </g>
 <path fill="black" d="M115.37 113.386L115.37 113.382A1.98425 1.98425 0 0 0 111.402 113.386A1.98425 1.98425 0 0 0 115.37 113.389Z"/>
 <g>
  <path fill="#fff" d="M174.047 113.386L174.047 113.379A3.9685 3.9685 0 0 0 166.11 113.386A3.9685 3.9685 0 0 0 174.047 113.393Z"/>
 </g>
 <path fill="black" d="M172.063 113.386L172.063 113.382A1.98425 1.98425 0 0 0 168.094 113.386A1.98425 1.98425 0 0 0 172.063 113.389Z"/>
 <g>
  <path fill="#fff" d="M230.74 113.386L230.74 113.379A3.9685 3.9685 0 0 0 222.803 113.386A3.9685 3.9685 0 0 0 230.74 113.393Z"/>
 </g>
 <path fill="black" d="M228.756 113.386L228.756 113.382A1.98425 1.98425 0 0 0 224.787 113.386A1.98425 1.98425 0 0 0 228.756 113.389Z"/>
 <g>
  <path fill="#fff" d="M3.9685 170.079L3.9685 170.072A3.9685 3.9685 0 0 0 -3.9685 170.079A3.9685 3.9685 0 0 0 3.9685 170.086Z"/>
 </g>
 <path fill="black" d="M1.98425 170.079L1.98425 170.075A1.98425 1.98425 0 0 0 -1.98425 170.079A1.98425 1.98425 0 0 0 1.98425 170.082Z"/>
 <g>
  <path fill="#fff" d="M60.6614 170.079L60.6614 170.072A3.9685 3.9685 0 0 0 52.7244 170.079A3.9685 3.9685 0 0 0 60.6614 170.086Z"/>
 </g>
 <path fill="black" d="M58.6772 170.079L58.6772 170.075A1.98425 1.98425 0 0 0 54.7087 170.079A1.98425 1.98425 0 0 0 58.6772 170.082Z"/>
 <g>
  <path fill="#fff" d="M117.354 170.079L117.354 170.072A3.9685 3.9685 0 0 0 109.417 170.079A3.9685 3.9685 0 0 0 117.354 170.086Z"/>
 </g>
 <path fill="black" d="M115.37 170.079L115.37 170.075A1.98425 1.98425 0 0 0 111.402 170.079A1.98425 1.98425 0 0 0 115.37 170.082Z"/>
 <g>
  <path fill="#fff" d="M174.047 170.079L174.047 170.072A3.9685 3.9685 0 0 0 166.11 170.079A3.9685 3.9685 0 0 0 174.047 170.086Z"/>
 </g>
 <path fill="black" d="M172.063 170.079L172.063 170.075A1.98425 1.98425 0 0 0 168.094 170.079A1.98425 1.98425 0 0 0 172.063 170.082Z"/>
 <g>
  <path fill="#fff" d="M230.74 170.079L230.74 170.072A3.9685 3.9685 0 0 0 222.803 170.079A3.9685 3.9685 0 0 0 230.74 170.086Z"/>
 </g>
 <path fill="black" d="M228.756 170.079L228.756 170.075A1.98425 1.98425 0 0 0 224.787 170.079A1.98425 1.98425 0 0 0 228.756 170.082Z"/>
 <g>
  <path fill="#fff" d="M3.9685 226.772L3.9685 226.765A3.9685 3.9685 0 0 0 -3.9685 226.772A3.9685 3.9685 0 0 0 3.9685 226.779Z"/>
 </g>
 <path fill="black" d="M1.98425 226.772L1.98425 226.768A1.98425 1.98425 0 0 0 -1.98425 226.772A1.98425 1.98425 0 0 0 1.98425 226.775Z"/>
 <g>
  <path fill="#fff" d="M60.6614 226.772L60.6614 226.765A3.9685 3.9685 0 0 0 52.7244 226.772A3.9685 3.9685 0 0 0 60.6614 226.779Z"/>
 </g>
 <path fill="black" d="M58.6772 226.772L58.6772 226.768A1.98425 1.98425 0 0 0 54.7087 226.772A1.98425 1.98425 0 0 0 58.6772 226.775Z"/>
 <g>
  <path fill="#fff" d="M117.354 226.772L117.354 226.765A3.9685 3.9685 0 0 0 109.417 226.772A3.9685 3.9685 0 0 0 117.354 226.779Z"/>
 </g>
 <path fill="black" d="M115.37 226.772L115.37 226.768A1.98425 1.98425 0 0 0 111.402 226.772A1.98425 1.98425 0 0 0 115.37 226.775Z"/>
 <g>
  <path fill="#fff" d="M174.047 226.772L174.047 226.765A3.9685 3.9685 0 0 0 166.11 226.772A3.9685 3.9685 0 0 0 174.047 226.779Z"/>
 </g>
 <path fill="black" d="M172.063 226.772L172.063 226.768A1.98425 1.98425 0 0 0 168.094 226.772A1.98425 1.98425 0 0 0 172.063 226.775Z"/>
 <g>
  <path fill="#fff" d="M230.74 226.772L230.74 226.765A3.9685 3.9685 0 0 0 222.803 226.772A3.9685 3.9685 0 0 0 230.74 226.779Z"/>
 </g>
 <path fill="black" d="M228.756 226.772L228.756 226.768A1.98425 1.98425 0 0 0 224.787 226.772A1.98425 1.98425 0 0 0 228.756 226.775Z"/>
</svg>
