<?xml version="1.0" encoding="utf-8"?>
<svg xmlns="http://www.w3.org/2000/svg" fill="none" version="1.1" viewBox="-1 -1 170.123 186.252" x="-1pt" y="-1pt" width="170.123pt" height="186.252pt" stroke-width="0.566929" stroke-miterlimit="10.000000">
 <g transform="matrix(1.000000,0.000000,0.000000,1.000000,18.425197,18.425197)">
  <path d="M1.84252 0L1.84252 -0.0032158A1.84252 1.84252 0 0 0 -1.84252 -1.04389e-15A1.84252 1.84252 0 0 0 1.84252 0.0032158Z" fill="black"/>
  <path d="M38.6929 0L38.6929 -0.0032158A1.84252 1.84252 0 0 0 35.0079 -1.04389e-15A1.84252 1.84252 0 0 0 38.6929 0.0032158Z" fill="black"/>
  <path d="M75.5433 0L75.5433 -0.0032158A1.84252 1.84252 0 0 0 71.8583 -1.04389e-15A1.84252 1.84252 0 0 0 75.5433 0.0032158Z" fill="black"/>
  <path d="M112.394 0L112.394 -0.0032158A1.84252 1.84252 0 0 0 108.709 -1.04389e-15A1.84252 1.84252 0 0 0 112.394 0.0032158Z" fill="black"/>
  <path d="M149.244 0L149.244 -0.0032158A1.84252 1.84252 0 0 0 145.559 -1.04389e-15A1.84252 1.84252 0 0 0 149.244 0.0032158Z" fill="black"/>
  <path d="M1.84252 36.8504L1.84252 36.8472A1.84252 1.84252 0 0 0 -1.84252 36.8504A1.84252 1.84252 0 0 0 1.84252 36.8536Z" fill="black"/>
  <path d="M38.6929 36.8504L38.6929 36.8472A1.84252 1.84252 0 0 0 35.0079 36.8504A1.84252 1.84252 0 0 0 38.6929 36.8536Z" fill="black"/>
  <path d="M75.5433 36.8504L75.5433 36.8472A1.84252 1.84252 0 0 0 71.8583 36.8504A1.84252 1.84252 0 0 0 75.5433 36.8536Z" fill="black"/>
  <path d="M112.394 36.8504L112.394 36.8472A1.84252 1.84252 0 0 0 108.709 36.8504A1.84252 1.84252 0 0 0 112.394 36.8536Z" fill="black"/>
  <path d="M149.244 36.8504L149.244 36.8472A1.84252 1.84252 0 0 0 145.559 36.8504A1.84252 1.84252 0 0 0 149.244 36.8536Z" fill="black"/>
  <path d="M1.84252 73.7008L1.84252 73.6976A1.84252 1.84252 0 0 0 -1.84252 73.7008A1.84252 1.84252 0 0 0 1.84252 73.704Z" fill="black"/>
  <path d="M38.6929 73.7008L38.6929 73.6976A1.84252 1.84252 0 0 0 35.0079 73.7008A1.84252 1.84252 0 0 0 38.6929 73.704Z" fill="black"/>
  <path d="M75.5433 73.7008L75.5433 73.6976A1.84252 1.84252 0 0 0 71.8583 73.7008A1.84252 1.84252 0 0 0 75.5433 73.704Z" fill="black"/>
  <path d="M112.394 73.7008L112.394 73.6976A1.84252 1.84252 0 0 0 108.709 73.7008A1.84252 1.84252 0 0 0 112.394 73.704Z" fill="black"/>
  <path d="M149.244 73.7008L149.244 73.6976A1.84252 1.84252 0 0 0 145.559 73.7008A1.84252 1.84252 0 0 0 149.244 73.704Z" fill="black"/>
  <path d="M1.84252 110.551L1.84252 110.548A1.84252 1.84252 0 0 0 -1.84252 110.551A1.84252 1.84252 0 0 0 1.84252 110.554Z" fill="black"/>
  <path d="M38.6929 110.551L38.6929 110.548A1.84252 1.84252 0 0 0 35.0079 110.551A1.84252 1.84252 0 0 0 38.6929 110.554Z" fill="black"/>
  <g stroke-width="0.801759">
   <path d="M76.4646 110.551L76.4646 110.546A2.76378 2.76378 0 0 0 70.937 110.551A2.76378 2.76378 0 0 0 76.4646 110.556Z" stroke="#1919e5"/>
  </g>
  <path d="M112.394 110.551L112.394 110.548A1.84252 1.84252 0 0 0 108.709 110.551A1.84252 1.84252 0 0 0 112.394 110.554Z" fill="black"/>
  <path d="M149.244 110.551L149.244 110.548A1.84252 1.84252 0 0 0 145.559 110.551A1.84252 1.84252 0 0 0 149.244 110.554Z" fill="black"/>
  <path d="M1.84252 147.402L1.84252 147.398A1.84252 1.84252 0 0 0 -1.84252 147.402A1.84252 1.84252 0 0 0 1.84252 147.405Z" fill="black"/>
  <path d="M38.6929 147.402L38.6929 147.398A1.84252 1.84252 0 0 0 35.0079 147.402A1.84252 1.84252 0 0 0 38.6929 147.405Z" fill="black"/>
  <path d="M75.5433 147.402L75.5433 147.398A1.84252 1.84252 0 0 0 71.8583 147.402A1.84252 1.84252 0 0 0 75.5433 147.405Z" fill="black"/>
  <path d="M112.394 147.402L112.394 147.398A1.84252 1.84252 0 0 0 108.709 147.402A1.84252 1.84252 0 0 0 112.394 147.405Z" fill="black"/>
  <path d="M149.244 147.402L149.244 147.398A1.84252 1.84252 0 0 0 145.559 147.402A1.84252 1.84252 0 0 0 149.244 147.405Z" fill="black"/>
  <g stroke-width="0.801759">
   <path d="M20.2677 0L20.2677 -0.0032158A1.84252 1.84252 0 0 0 16.5827 -1.04389e-15A1.84252 1.84252 0 0 0 20.2677 0.0032158Z" fill="#f00"/>
  </g>
  <path d="M0 0L36.8504 0" stroke="black"/>
  <g stroke-width="0.801759">
   <path d="M1.84252 18.4252L1.84252 18.422A1.84252 1.84252 0 0 0 -1.84252 18.4252A1.84252 1.84252 0 0 0 1.84252 18.4284Z" fill="#f00"/>
  </g>
  <path d="M0 0L0 36.8504" stroke="black"/>
  <g stroke-width="0.801759">
   <path d="M57.1181 0L57.1181 -0.0032158A1.84252 1.84252 0 0 0 53.4331 -1.04389e-15A1.84252 1.84252 0 0 0 57.1181 0.0032158Z" fill="#f00"/>
  </g>
  <path d="M36.8504 0L73.7008 0" stroke="black"/>
  <g stroke-width="0.801759">
   <path d="M38.6929 18.4252L38.6929 18.422A1.84252 1.84252 0 0 0 35.0079 18.4252A1.84252 1.84252 0 0 0 38.6929 18.4284Z" fill="#f00"/>
  </g>
  <path d="M36.8504 0L36.8504 36.8504" stroke="black"/>
  <g stroke-width="0.801759">
   <path d="M93.9685 0L93.9685 -0.0032158A1.84252 1.84252 0 0 0 90.2835 -1.04389e-15A1.84252 1.84252 0 0 0 93.9685 0.0032158Z" fill="#f00"/>
  </g>
  <path d="M73.7008 0L110.551 0" stroke="black"/>
  <g stroke-width="0.801759">
   <path d="M75.5433 18.4252L75.5433 18.422A1.84252 1.84252 0 0 0 71.8583 18.4252A1.84252 1.84252 0 0 0 75.5433 18.4284Z" fill="#f00"/>
  </g>
  <path d="M73.7008 0L73.7008 36.8504" stroke="black"/>
  <g stroke-width="0.801759">
   <path d="M130.819 0L130.819 -0.0032158A1.84252 1.84252 0 0 0 127.134 -1.04389e-15A1.84252 1.84252 0 0 0 130.819 0.0032158Z" fill="#f00"/>
  </g>
  <path d="M110.551 0L147.402 0" stroke="black"/>
  <g stroke-width="0.801759">
   <path d="M112.394 18.4252L112.394 18.422A1.84252 1.84252 0 0 0 108.709 18.4252A1.84252 1.84252 0 0 0 112.394 18.4284Z" fill="#f00"/>
  </g>
  <path d="M110.551 0L110.551 36.8504" stroke="black"/>
  <g stroke-width="0.801759">
   <path d="M149.244 18.4252L149.244 18.422A1.84252 1.84252 0 0 0 145.559 18.4252A1.84252 1.84252 0 0 0 149.244 18.4284Z" fill="#f00"/>
  </g>
  <path d="M147.402 0L147.402 36.8504" stroke="black"/>
  <g stroke-width="0.801759">
   <path d="M20.2677 36.8504L20.2677 36.8472A1.84252 1.84252 0 0 0 16.5827 36.8504A1.84252 1.84252 0 0 0 20.2677 36.8536Z" fill="#f00"/>
  </g>
  <path d="M0 36.8504L36.8504 36.8504" stroke="black"/>
  <g stroke-width="0.801759">
   <path d="M1.84252 55.2756L1.84252 55.2724A1.84252 1.84252 0 0 0 -1.84252 55.2756A1.84252 1.84252 0 0 0 1.84252 55.2788Z" fill="#f00"/>
  </g>
  <path d="M0 36.8504L0 73.7008" stroke="black"/>
  <g stroke-width="0.801759">
   <path d="M57.1181 36.8504L57.1181 36.8472A1.84252 1.84252 0 0 0 53.4331 36.8504A1.84252 1.84252 0 0 0 57.1181 36.8536Z" fill="#f00"/>
  </g>
  <path d="M36.8504 36.8504L73.7008 36.8504" stroke="black"/>
  <g stroke-width="0.801759">
   <path d="M38.6929 55.2756L38.6929 55.2724A1.84252 1.84252 0 0 0 35.0079 55.2756A1.84252 1.84252 0 0 0 38.6929 55.2788Z" fill="#f00"/>
  </g>
  <path d="M36.8504 36.8504L36.8504 73.7008" stroke="black"/>
  <g stroke-width="0.801759">
   <path d="M93.9685 36.8504L93.9685 36.8472A1.84252 1.84252 0 0 0 90.2835 36.8504A1.84252 1.84252 0 0 0 93.9685 36.8536Z" fill="#f00"/>
  </g>
  <path d="M73.7008 36.8504L110.551 36.8504" stroke="black"/>
  <g stroke-width="0.801759">
   <path d="M75.5433 55.2756L75.5433 55.2724A1.84252 1.84252 0 0 0 71.8583 55.2756A1.84252 1.84252 0 0 0 75.5433 55.2788Z" fill="#f00"/>
  </g>
  <path d="M73.7008 36.8504L73.7008 73.7008" stroke="black"/>
  <g stroke-width="0.801759">
   <path d="M130.819 36.8504L130.819 36.8472A1.84252 1.84252 0 0 0 127.134 36.8504A1.84252 1.84252 0 0 0 130.819 36.8536Z" fill="#f00"/>
  </g>
  <path d="M110.551 36.8504L147.402 36.8504" stroke="black"/>
  <g stroke-width="0.801759">
   <path d="M112.394 55.2756L112.394 55.2724A1.84252 1.84252 0 0 0 108.709 55.2756A1.84252 1.84252 0 0 0 112.394 55.2788Z" fill="#f00"/>
  </g>
  <path d="M110.551 36.8504L110.551 73.7008" stroke="black"/>
  <g stroke-width="0.801759">
   <path d="M149.244 55.2756L149.244 55.2724A1.84252 1.84252 0 0 0 145.559 55.2756A1.84252 1.84252 0 0 0 149.244 55.2788Z" fill="#f00"/>
  </g>
  <path d="M147.402 36.8504L147.402 73.7008" stroke="black"/>
  <g stroke-width="0.801759">
   <path d="M20.2677 73.7008L20.2677 73.6976A1.84252 1.84252 0 0 0 16.5827 73.7008A1.84252 1.84252 0 0 0 20.2677 73.704Z" fill="#f00"/>
  </g>
  <path d="M0 73.7008L36.8504 73.7008" stroke="black"/>
  <g stroke-width="0.801759">
   <path d="M1.84252 92.126L1.84252 92.1228A1.84252 1.84252 0 0 0 -1.84252 92.126A1.84252 1.84252 0 0 0 1.84252 92.1292Z" fill="#f00"/>
  </g>
  <path d="M0 73.7008L0 110.551" stroke="black"/>
  <g stroke-width="0.801759">
   <path d="M57.1181 73.7008L57.1181 73.6976A1.84252 1.84252 0 0 0 53.4331 73.7008A1.84252 1.84252 0 0 0 57.1181 73.704Z" fill="#f00"/>
  </g>
  <path d="M36.8504 73.7008L73.7008 73.7008" stroke="black"/>
  <g stroke-width="0.801759">
   <path d="M38.6929 92.126L38.6929 92.1228A1.84252 1.84252 0 0 0 35.0079 92.126A1.84252 1.84252 0 0 0 38.6929 92.1292Z" fill="#f00"/>
  </g>
  <path d="M36.8504 73.7008L36.8504 110.551" stroke="black"/>
  <g stroke-width="0.801759">
   <path d="M93.9685 73.7008L93.9685 73.6976A1.84252 1.84252 0 0 0 90.2835 73.7008A1.84252 1.84252 0 0 0 93.9685 73.704Z" fill="#f00"/>
  </g>
  <path d="M73.7008 73.7008L110.551 73.7008" stroke="black"/>
  <g stroke-width="0.801759">
   <path d="M75.5433 92.126L75.5433 92.1228A1.84252 1.84252 0 0 0 71.8583 92.126A1.84252 1.84252 0 0 0 75.5433 92.1292Z" fill="#f00"/>
  </g>
  <path d="M73.7008 73.7008L73.7008 110.551" stroke="black"/>
  <g stroke-width="0.801759">
   <path d="M130.819 73.7008L130.819 73.6976A1.84252 1.84252 0 0 0 127.134 73.7008A1.84252 1.84252 0 0 0 130.819 73.704Z" fill="#f00"/>
  </g>
  <path d="M110.551 73.7008L147.402 73.7008" stroke="black"/>
  <g stroke-width="0.801759">
   <path d="M112.394 92.126L112.394 92.1228A1.84252 1.84252 0 0 0 108.709 92.126A1.84252 1.84252 0 0 0 112.394 92.1292Z" fill="#f00"/>
  </g>
  <path d="M110.551 73.7008L110.551 110.551" stroke="black"/>
  <g stroke-width="0.801759">
   <path d="M149.244 92.126L149.244 92.1228A1.84252 1.84252 0 0 0 145.559 92.126A1.84252 1.84252 0 0 0 149.244 92.1292Z" fill="#f00"/>
  </g>
  <path d="M147.402 73.7008L147.402 110.551" stroke="black"/>
  <g stroke-width="0.801759">
   <path d="M20.2677 110.551L20.2677 110.548A1.84252 1.84252 0 0 0 16.5827 110.551A1.84252 1.84252 0 0 0 20.2677 110.554Z" fill="#f00"/>
  </g>
  <path d="M0 110.551L36.8504 110.551" stroke="black"/>
  <g stroke-width="0.801759">
   <path d="M1.84252 128.976L1.84252 128.973A1.84252 1.84252 0 0 0 -1.84252 128.976A1.84252 1.84252 0 0 0 1.84252 128.98Z" fill="#f00"/>
  </g>
  <path d="M0 110.551L0 147.402" stroke="black"/>
  <g stroke-width="0.801759">
   <path d="M57.1181 110.551L57.1181 110.548A1.84252 1.84252 0 0 0 53.4331 110.551A1.84252 1.84252 0 0 0 57.1181 110.554Z" fill="#f00"/>
  </g>
  <path d="M36.8504 110.551L73.7008 110.551" stroke="black"/>
  <g stroke-width="0.801759">
   <path d="M38.6929 128.976L38.6929 128.973A1.84252 1.84252 0 0 0 35.0079 128.976A1.84252 1.84252 0 0 0 38.6929 128.98Z" fill="#f00"/>
  </g>
  <path d="M36.8504 110.551L36.8504 147.402" stroke="black"/>
  <g stroke-width="0.801759">
   <path d="M93.9685 110.551L93.9685 110.548A1.84252 1.84252 0 0 0 90.2835 110.551A1.84252 1.84252 0 0 0 93.9685 110.554Z" fill="#f00"/>
  </g>
  <path d="M73.7008 110.551L110.551 110.551" stroke="black"/>
  <g stroke-width="0.801759">
   <path d="M75.5433 128.976L75.5433 128.973A1.84252 1.84252 0 0 0 71.8583 128.976A1.84252 1.84252 0 0 0 75.5433 128.98Z" fill="#f00"/>
  </g>
  <path d="M73.7008 110.551L73.7008 147.402" stroke="black"/>
  <g stroke-width="0.801759">
   <path d="M130.819 110.551L130.819 110.548A1.84252 1.84252 0 0 0 127.134 110.551A1.84252 1.84252 0 0 0 130.819 110.554Z" fill="#f00"/>
  </g>
  <path d="M110.551 110.551L147.402 110.551" stroke="black"/>
  <g stroke-width="0.801759">
   <path d="M112.394 128.976L112.394 128.973A1.84252 1.84252 0 0 0 108.709 128.976A1.84252 1.84252 0 0 0 112.394 128.98Z" fill="#f00"/>
  </g>
  <path d="M110.551 110.551L110.551 147.402" stroke="black"/>
  <g stroke-width="0.801759">
   <path d="M149.244 128.976L149.244 128.973A1.84252 1.84252 0 0 0 145.559 128.976A1.84252 1.84252 0 0 0 149.244 128.98Z" fill="#f00"/>
  </g>
  <path d="M147.402 110.551L147.402 147.402" stroke="black"/>
  <g stroke-width="0.801759">
   <path d="M20.2677 147.402L20.2677 147.398A1.84252 1.84252 0 0 0 16.5827 147.402A1.84252 1.84252 0 0 0 20.2677 147.405Z" fill="#f00"/>
  </g>
  <path d="M0 147.402L36.8504 147.402" stroke="black"/>
  <g stroke-width="0.801759">
   <path d="M57.1181 147.402L57.1181 147.398A1.84252 1.84252 0 0 0 53.4331 147.402A1.84252 1.84252 0 0 0 57.1181 147.405Z" fill="#f00"/>
  </g>
  <path d="M36.8504 147.402L73.7008 147.402" stroke="black"/>
  <g stroke-width="0.801759">
   <path d="M93.9685 147.402L93.9685 147.398A1.84252 1.84252 0 0 0 90.2835 147.402A1.84252 1.84252 0 0 0 93.9685 147.405Z" fill="#f00"/>
  </g>
  <path d="M73.7008 147.402L110.551 147.402" stroke="black"/>
  <g stroke-width="0.801759">
   <path d="M130.819 147.402L130.819 147.398A1.84252 1.84252 0 0 0 127.134 147.402A1.84252 1.84252 0 0 0 130.819 147.405Z" fill="#f00"/>
  </g>
  <path d="M110.551 147.402L147.402 147.402" stroke="black"/>
  <g stroke-width="1.603518">
   <path d="M110.551 36.8504L78.1354 36.8504" stroke="#090"/>
   <g stroke-linecap="butt" stroke-dasharray="none">
    <path d="M79.2441 39.1465L73.7008 36.8504L79.2441 34.5543L78.1354 36.8504Z" fill="#090"/>
   </g>
  </g>
  <g stroke-width="1.603518">
   <path d="M147.402 147.402L147.402 114.986" stroke="#090"/>
   <g stroke-linecap="butt" stroke-dasharray="none">
    <path d="M145.105 116.094L147.402 110.551L149.698 116.094L147.402 114.986Z" fill="#090"/>
   </g>
  </g>
  <g stroke-width="1.603518">
   <path d="M36.8504 0L36.8504 32.4158" stroke="#090"/>
   <g stroke-linecap="butt" stroke-dasharray="none">
    <path d="M39.1465 31.3071L36.8504 36.8504L34.5543 31.3071L36.8504 32.4158Z" fill="#090"/>
   </g>
  </g>
  <g stroke-width="1.603518">
   <path d="M73.7008 147.402L41.285 147.402" stroke="#090"/>
   <g stroke-linecap="butt" stroke-dasharray="none">
    <path d="M42.3937 149.698L36.8504 147.402L42.3937 145.105L41.285 147.402Z" fill="#090"/>
   </g>
  </g>
  <g stroke-width="1.603518">
   <path d="M36.8504 147.402L36.8504 114.986" stroke="#090"/>
   <g stroke-linecap="butt" stroke-dasharray="none">
    <path d="M34.5543 116.094L36.8504 110.551L39.1465 116.094L36.8504 114.986Z" fill="#090"/>
   </g>
  </g>
  <g stroke-width="1.603518">
   <path d="M0 110.551L0 78.1354" stroke="#090"/>
   <g stroke-linecap="butt" stroke-dasharray="none">
    <path d="M-2.2961 79.2441L0 73.7008L2.2961 79.2441L0 78.1354Z" fill="#090"/>
   </g>
  </g>
  <g stroke-width="1.603518">
   <path d="M147.402 110.551L114.986 110.551" stroke="#090"/>
   <g stroke-linecap="butt" stroke-dasharray="none">
    <path d="M116.094 112.847L110.551 110.551L116.094 108.255L114.986 110.551Z" fill="#090"/>
   </g>
  </g>
  <g stroke-width="1.603518">
   <path d="M36.8504 73.7008L69.2662 73.7008" stroke="#090"/>
   <g stroke-linecap="butt" stroke-dasharray="none">
    <path d="M68.1575 71.4047L73.7008 73.7008L68.1575 75.9969L69.2662 73.7008Z" fill="#090"/>
   </g>
  </g>
  <g stroke-width="1.603518">
   <path d="M36.8504 110.551L69.2662 110.551" stroke="#090"/>
   <g stroke-linecap="butt" stroke-dasharray="none">
    <path d="M68.1575 108.255L73.7008 110.551L68.1575 112.847L69.2662 110.551Z" fill="#090"/>
   </g>
  </g>
  <g stroke-width="1.603518">
   <path d="M110.551 73.7008L110.551 41.285" stroke="#090"/>
   <g stroke-linecap="butt" stroke-dasharray="none">
    <path d="M108.255 42.3937L110.551 36.8504L112.847 42.3937L110.551 41.285Z" fill="#090"/>
   </g>
  </g>
  <g stroke-width="1.603518">
   <path d="M110.551 110.551L78.1354 110.551" stroke="#090"/>
   <g stroke-linecap="butt" stroke-dasharray="none">
    <path d="M79.2441 112.847L73.7008 110.551L79.2441 108.255L78.1354 110.551Z" fill="#090"/>
   </g>
  </g>
  <g stroke-width="1.603518">
   <path d="M0 36.8504L0 4.43462" stroke="#090"/>
   <g stroke-linecap="butt" stroke-dasharray="none">
    <path d="M-2.2961 5.54328L0 -0L2.2961 5.54328L0 4.43462Z" fill="#090"/>
   </g>
  </g>
  <g stroke-width="1.603518">
   <path d="M73.7008 73.7008L73.7008 106.117" stroke="#090"/>
   <g stroke-linecap="butt" stroke-dasharray="none">
    <path d="M75.9969 105.008L73.7008 110.551L71.4047 105.008L73.7008 106.117Z" fill="#090"/>
   </g>
  </g>
  <g stroke-width="1.603518">
   <path d="M110.551 0L110.551 32.4158" stroke="#090"/>
   <g stroke-linecap="butt" stroke-dasharray="none">
    <path d="M112.847 31.3071L110.551 36.8504L108.255 31.3071L110.551 32.4158Z" fill="#090"/>
   </g>
  </g>
  <g stroke-width="1.603518">
   <path d="M0 -0L32.4158 -0" stroke="#090"/>
   <g stroke-linecap="butt" stroke-dasharray="none">
    <path d="M31.3071 -2.2961L36.8504 -0L31.3071 2.2961L32.4158 -0Z" fill="#090"/>
   </g>
  </g>
  <g stroke-width="1.603518">
   <path d="M73.7008 0L73.7008 32.4158" stroke="#090"/>
   <g stroke-linecap="butt" stroke-dasharray="none">
    <path d="M75.9969 31.3071L73.7008 36.8504L71.4047 31.3071L73.7008 32.4158Z" fill="#090"/>
   </g>
  </g>
  <g stroke-width="1.603518">
   <path d="M147.402 0L147.402 32.4158" stroke="#090"/>
   <g stroke-linecap="butt" stroke-dasharray="none">
    <path d="M149.698 31.3071L147.402 36.8504L145.105 31.3071L147.402 32.4158Z" fill="#090"/>
   </g>
  </g>
  <g stroke-width="1.603518">
   <path d="M147.402 36.8504L147.402 69.2662" stroke="#090"/>
   <g stroke-linecap="butt" stroke-dasharray="none">
    <path d="M149.698 68.1575L147.402 73.7008L145.105 68.1575L147.402 69.2662Z" fill="#090"/>
   </g>
  </g>
  <g stroke-width="1.603518">
   <path d="M0 73.7008L0 41.285" stroke="#090"/>
   <g stroke-linecap="butt" stroke-dasharray="none">
    <path d="M-2.2961 42.3937L0 36.8504L2.2961 42.3937L0 41.285Z" fill="#090"/>
   </g>
  </g>
  <g stroke-width="1.603518">
   <path d="M147.402 73.7008L147.402 106.117" stroke="#090"/>
   <g stroke-linecap="butt" stroke-dasharray="none">
    <path d="M149.698 105.008L147.402 110.551L145.105 105.008L147.402 106.117Z" fill="#090"/>
   </g>
  </g>
  <g stroke-width="1.603518">
   <path d="M36.8504 36.8504L36.8504 69.2662" stroke="#090"/>
   <g stroke-linecap="butt" stroke-dasharray="none">
    <path d="M39.1465 68.1575L36.8504 73.7008L34.5543 68.1575L36.8504 69.2662Z" fill="#090"/>
   </g>
  </g>
  <g stroke-width="1.603518">
   <path d="M110.551 147.402L142.967 147.402" stroke="#090"/>
   <g stroke-linecap="butt" stroke-dasharray="none">
    <path d="M141.858 145.105L147.402 147.402L141.858 149.698L142.967 147.402Z" fill="#090"/>
   </g>
  </g>
  <g stroke-width="1.603518">
   <path d="M0 147.402L32.4158 147.402" stroke="#090"/>
   <g stroke-linecap="butt" stroke-dasharray="none">
    <path d="M31.3071 145.105L36.8504 147.402L31.3071 149.698L32.4158 147.402Z" fill="#090"/>
   </g>
  </g>
  <g stroke-width="1.603518">
   <path d="M73.7008 36.8504L41.285 36.8504" stroke="#090"/>
   <g stroke-linecap="butt" stroke-dasharray="none">
    <path d="M42.3937 39.1465L36.8504 36.8504L42.3937 34.5543L41.285 36.8504Z" fill="#090"/>
   </g>
  </g>
  <g stroke-width="1.603518">
   <path d="M92.126 128.976L124.542 128.976" stroke="#1919e5"/>
   <g stroke-linecap="butt" stroke-dasharray="none">
    <path d="M123.433 126.68L128.976 128.976L123.433 131.272L124.542 128.976Z" fill="#1919e5"/>
   </g>
  </g>
  <g stroke-width="1.603518">
   <path d="M18.4252 92.126L50.841 92.126" stroke="#1919e5"/>
   <g stroke-linecap="butt" stroke-dasharray="none">
    <path d="M49.7323 89.8299L55.2756 92.126L49.7323 94.4221L50.841 92.126Z" fill="#1919e5"/>
   </g>
  </g>
  <g stroke-width="1.603518">
   <path d="M128.976 18.4252L128.976 50.841" stroke="#1919e5"/>
   <g stroke-linecap="butt" stroke-dasharray="none">
    <path d="M131.272 49.7323L128.976 55.2756L126.68 49.7323L128.976 50.841Z" fill="#1919e5"/>
   </g>
  </g>
  <g stroke-width="1.603518">
   <path d="M55.2756 -18.4252L55.2756 13.9906" stroke="#1919e5"/>
   <g stroke-linecap="butt" stroke-dasharray="none">
    <path d="M57.5717 12.8819L55.2756 18.4252L52.9795 12.8819L55.2756 13.9906Z" fill="#1919e5"/>
   </g>
  </g>
  <g stroke-width="1.603518">
   <path d="M92.126 55.2756L59.7102 55.2756" stroke="#1919e5"/>
   <g stroke-linecap="butt" stroke-dasharray="none">
    <path d="M60.8189 57.5717L55.2756 55.2756L60.8189 52.9795L59.7102 55.2756Z" fill="#1919e5"/>
   </g>
  </g>
  <g stroke-width="1.603518">
   <path d="M-18.4252 128.976L13.9906 128.976" stroke="#1919e5"/>
   <g stroke-linecap="butt" stroke-dasharray="none">
    <path d="M12.8819 126.68L18.4252 128.976L12.8819 131.272L13.9906 128.976Z" fill="#1919e5"/>
   </g>
  </g>
  <g stroke-width="1.603518">
   <path d="M18.4252 128.976L18.4252 96.5606" stroke="#1919e5"/>
   <g stroke-linecap="butt" stroke-dasharray="none">
    <path d="M16.1291 97.6693L18.4252 92.126L20.7213 97.6693L18.4252 96.5606Z" fill="#1919e5"/>
   </g>
  </g>
  <g stroke-width="1.603518">
   <path d="M92.126 165.827L92.126 133.411" stroke="#1919e5"/>
   <g stroke-linecap="butt" stroke-dasharray="none">
    <path d="M89.8299 134.52L92.126 128.976L94.4221 134.52L92.126 133.411Z" fill="#1919e5"/>
   </g>
  </g>
  <g stroke-width="1.603518">
   <path d="M18.4252 92.126L18.4252 59.7102" stroke="#1919e5"/>
   <g stroke-linecap="butt" stroke-dasharray="none">
    <path d="M16.1291 60.8189L18.4252 55.2756L20.7213 60.8189L18.4252 59.7102Z" fill="#1919e5"/>
   </g>
  </g>
  <g stroke-width="1.603518">
   <path d="M92.126 128.976L59.7102 128.976" stroke="#1919e5"/>
   <g stroke-linecap="butt" stroke-dasharray="none">
    <path d="M60.8189 131.272L55.2756 128.976L60.8189 126.68L59.7102 128.976Z" fill="#1919e5"/>
   </g>
  </g>
  <g stroke-width="1.603518">
   <path d="M128.976 92.126L96.5606 92.126" stroke="#1919e5"/>
   <g stroke-linecap="butt" stroke-dasharray="none">
    <path d="M97.6693 94.4221L92.126 92.126L97.6693 89.8299L96.5606 92.126Z" fill="#1919e5"/>
   </g>
  </g>
  <g stroke-width="1.603518">
   <path d="M128.976 -18.4252L128.976 13.9906" stroke="#1919e5"/>
   <g stroke-linecap="butt" stroke-dasharray="none">
    <path d="M131.272 12.8819L128.976 18.4252L126.68 12.8819L128.976 13.9906Z" fill="#1919e5"/>
   </g>
  </g>
  <g stroke-width="1.603518">
   <path d="M128.976 55.2756L128.976 87.6914" stroke="#1919e5"/>
   <g stroke-linecap="butt" stroke-dasharray="none">
    <path d="M131.272 86.5827L128.976 92.126L126.68 86.5827L128.976 87.6914Z" fill="#1919e5"/>
   </g>
  </g>
  <g stroke-width="1.603518">
   <path d="M92.126 92.126L92.126 59.7102" stroke="#1919e5"/>
   <g stroke-linecap="butt" stroke-dasharray="none">
    <path d="M89.8299 60.8189L92.126 55.2756L94.4221 60.8189L92.126 59.7102Z" fill="#1919e5"/>
   </g>
  </g>
  <g stroke-width="1.603518">
   <path d="M18.4252 55.2756L18.4252 22.8598" stroke="#1919e5"/>
   <g stroke-linecap="butt" stroke-dasharray="none">
    <path d="M16.1291 23.9685L18.4252 18.4252L20.7213 23.9685L18.4252 22.8598Z" fill="#1919e5"/>
   </g>
  </g>
  <g stroke-width="1.603518">
   <path d="M92.126 -18.4252L92.126 13.9906" stroke="#1919e5"/>
   <g stroke-linecap="butt" stroke-dasharray="none">
    <path d="M94.4221 12.8819L92.126 18.4252L89.8299 12.8819L92.126 13.9906Z" fill="#1919e5"/>
   </g>
  </g>
 </g>
</svg>
