<?xml version="1.0" encoding="utf-8"?>
<svg xmlns="http://www.w3.org/2000/svg" fill="none" viewBox="-20.8425 -105.882 71.4488 98.378" width="71.4488pt" version="1.1" x="-20.8425pt" height="98.378pt" stroke-miterlimit="10.000000" y="-105.882pt" stroke-width="0.566929">
 <g transform="matrix(1.000000,0.000000,0.000000,1.000000,0.000000,-99.212598)">
  <path fill="black" d="M-4.14545 2.49066M-1.01718 -1.4944L-0.160393 -1.4944C0.03886 -1.4944 0.138486 -1.4944 0.138486 -1.69365C0.138486 -1.80324 0.03886 -1.80324 -0.130505 -1.80324L-0.957404 -1.80324L-0.748189 -2.93898C-0.708338 -3.14819 -0.568861 -3.85554 -0.509085 -3.97509C-0.419421 -4.16438 -0.250057 -4.31382 -0.0408411 -4.31382C-0.000990548 -4.31382 0.258038 -4.31382 0.447328 -4.1345C0.00897209 -4.09465 -0.0906543 -3.74595 -0.0906543 -3.59651C-0.0906543 -3.36737 0.0886732 -3.24782 0.277963 -3.24782C0.536992 -3.24782 0.825909 -3.467 0.825909 -3.84558C0.825909 -4.30386 0.367627 -4.533 -0.0408411 -4.533C-0.379571 -4.533 -1.00722 -4.35367 -1.3061 -3.36737C-1.36587 -3.15816 -1.39576 -3.05853 -1.63486 -1.80324L-2.32229 -1.80324C-2.51158 -1.80324 -2.62116 -1.80324 -2.62116 -1.61395C-2.62116 -1.4944 -2.5315 -1.4944 -2.34221 -1.4944L-1.68468 -1.4944L-2.43187 2.44085C-2.6112 3.40722 -2.78057 4.31382 -3.29862 4.31382C-3.33847 4.31382 -3.58754 4.31382 -3.77683 4.1345C-3.31855 4.10461 -3.22889 3.74595 -3.22889 3.59651C-3.22889 3.36737 -3.40821 3.24782 -3.5975 3.24782C-3.85653 3.24782 -4.14545 3.467 -4.14545 3.84558C-4.14545 4.2939 -3.70709 4.533 -3.29862 4.533C-2.75068 4.533 -2.35217 3.94521 -2.17285 3.56663C-1.85404 2.93898 -1.6249 1.7335 -1.61494 1.66376ZM-1.61494 1.66376"/>
  <path fill="black" d="M0.964249 3.98504M2.54034 -0.450327C2.54034 -0.63862 2.52639 -0.645594 2.33112 -0.645594C1.8848 -0.206242 1.25018 -0.199268 0.964249 -0.199268L0.964249 0.0517905C1.13162 0.0517905 1.59189 0.0517905 1.97546 -0.143477L1.97546 3.41319C1.97546 3.64332 1.97546 3.73398 1.27807 3.73398L1.01307 3.73398L1.01307 3.98504C1.13859 3.97807 1.99638 3.95715 2.25441 3.95715C2.4706 3.95715 3.3493 3.97807 3.50273 3.98504L3.50273 3.73398L3.23772 3.73398C2.54034 3.73398 2.54034 3.64332 2.54034 3.41319ZM2.54034 3.41319"/>
 </g>
 <g transform="matrix(1.000000,0.000000,0.000000,1.000000,14.173228,-99.212598)">
  <path fill="black" d="M-4.14545 2.49066M-1.01718 -1.4944L-0.160393 -1.4944C0.03886 -1.4944 0.138486 -1.4944 0.138486 -1.69365C0.138486 -1.80324 0.03886 -1.80324 -0.130505 -1.80324L-0.957404 -1.80324L-0.748189 -2.93898C-0.708338 -3.14819 -0.568861 -3.85554 -0.509085 -3.97509C-0.419421 -4.16438 -0.250057 -4.31382 -0.0408411 -4.31382C-0.000990548 -4.31382 0.258038 -4.31382 0.447328 -4.1345C0.00897209 -4.09465 -0.0906543 -3.74595 -0.0906543 -3.59651C-0.0906543 -3.36737 0.0886732 -3.24782 0.277963 -3.24782C0.536992 -3.24782 0.825909 -3.467 0.825909 -3.84558C0.825909 -4.30386 0.367627 -4.533 -0.0408411 -4.533C-0.379571 -4.533 -1.00722 -4.35367 -1.3061 -3.36737C-1.36587 -3.15816 -1.39576 -3.05853 -1.63486 -1.80324L-2.32229 -1.80324C-2.51158 -1.80324 -2.62116 -1.80324 -2.62116 -1.61395C-2.62116 -1.4944 -2.5315 -1.4944 -2.34221 -1.4944L-1.68468 -1.4944L-2.43187 2.44085C-2.6112 3.40722 -2.78057 4.31382 -3.29862 4.31382C-3.33847 4.31382 -3.58754 4.31382 -3.77683 4.1345C-3.31855 4.10461 -3.22889 3.74595 -3.22889 3.59651C-3.22889 3.36737 -3.40821 3.24782 -3.5975 3.24782C-3.85653 3.24782 -4.14545 3.467 -4.14545 3.84558C-4.14545 4.2939 -3.70709 4.533 -3.29862 4.533C-2.75068 4.533 -2.35217 3.94521 -2.17285 3.56663C-1.85404 2.93898 -1.6249 1.7335 -1.61494 1.66376ZM-1.61494 1.66376"/>
  <path fill="black" d="M0.643452 3.98504M3.72589 2.7158L3.48878 2.7158C3.46786 2.86923 3.39812 3.28068 3.30746 3.35042C3.25167 3.39226 2.71468 3.39226 2.61705 3.39226L1.33386 3.39226C2.06612 2.7437 2.3102 2.54843 2.72863 2.22066C3.2447 1.8092 3.72589 1.37682 3.72589 0.714306C3.72589 -0.12953 2.98666 -0.645594 2.09401 -0.645594C1.22925 -0.645594 0.643452 -0.0388695 0.643452 0.602725C0.643452 0.958391 0.943327 0.99326 1.01307 0.99326C1.18044 0.99326 1.38268 0.874705 1.38268 0.623646C1.38268 0.498117 1.33386 0.254032 0.971222 0.254032C1.18741 -0.241111 1.66163 -0.394536 1.9894 -0.394536C2.68679 -0.394536 3.04943 0.149424 3.04943 0.714306C3.04943 1.32103 2.61705 1.80223 2.39389 2.05328L0.71319 3.71306C0.643452 3.77583 0.643452 3.78977 0.643452 3.98504L3.51668 3.98504ZM3.51668 3.98504"/>
 </g>
 <g transform="matrix(1.000000,0.000000,0.000000,1.000000,28.346457,-99.212598)">
  <path fill="black" d="M-4.14545 2.49066M-1.01718 -1.4944L-0.160393 -1.4944C0.03886 -1.4944 0.138486 -1.4944 0.138486 -1.69365C0.138486 -1.80324 0.03886 -1.80324 -0.130505 -1.80324L-0.957404 -1.80324L-0.748189 -2.93898C-0.708338 -3.14819 -0.568861 -3.85554 -0.509085 -3.97509C-0.419421 -4.16438 -0.250057 -4.31382 -0.0408411 -4.31382C-0.000990548 -4.31382 0.258038 -4.31382 0.447328 -4.1345C0.00897209 -4.09465 -0.0906543 -3.74595 -0.0906543 -3.59651C-0.0906543 -3.36737 0.0886732 -3.24782 0.277963 -3.24782C0.536992 -3.24782 0.825909 -3.467 0.825909 -3.84558C0.825909 -4.30386 0.367627 -4.533 -0.0408411 -4.533C-0.379571 -4.533 -1.00722 -4.35367 -1.3061 -3.36737C-1.36587 -3.15816 -1.39576 -3.05853 -1.63486 -1.80324L-2.32229 -1.80324C-2.51158 -1.80324 -2.62116 -1.80324 -2.62116 -1.61395C-2.62116 -1.4944 -2.5315 -1.4944 -2.34221 -1.4944L-1.68468 -1.4944L-2.43187 2.44085C-2.6112 3.40722 -2.78057 4.31382 -3.29862 4.31382C-3.33847 4.31382 -3.58754 4.31382 -3.77683 4.1345C-3.31855 4.10461 -3.22889 3.74595 -3.22889 3.59651C-3.22889 3.36737 -3.40821 3.24782 -3.5975 3.24782C-3.85653 3.24782 -4.14545 3.467 -4.14545 3.84558C-4.14545 4.2939 -3.70709 4.533 -3.29862 4.533C-2.75068 4.533 -2.35217 3.94521 -2.17285 3.56663C-1.85404 2.93898 -1.6249 1.7335 -1.61494 1.66376ZM-1.61494 1.66376"/>
  <path fill="black" d="M0.580687 3.98504M2.10796 1.65578C2.65192 1.65578 3.04246 2.03236 3.04246 2.77857C3.04246 3.64332 2.54034 3.90135 2.13586 3.90135C1.8569 3.90135 1.2432 3.82464 0.950301 3.41319C1.27807 3.39924 1.35478 3.1691 1.35478 3.02265C1.35478 2.79949 1.18741 2.63909 0.971222 2.63909C0.775955 2.63909 0.580687 2.75764 0.580687 3.04357C0.580687 3.69911 1.30597 4.12452 2.1498 4.12452C3.11917 4.12452 3.78866 3.47595 3.78866 2.77857C3.78866 2.2346 3.34233 1.69064 2.57521 1.53025C3.30746 1.26524 3.57247 0.742201 3.57247 0.316797C3.57247 -0.234137 2.93785 -0.645594 2.16375 -0.645594C1.38965 -0.645594 0.796876 -0.269006 0.796876 0.288901C0.796876 0.526012 0.950301 0.658515 1.15952 0.658515C1.37571 0.658515 1.51518 0.498117 1.51518 0.302849C1.51518 0.100607 1.37571 -0.0458433 1.15952 -0.059791C1.4036 -0.36664 1.8848 -0.443353 2.14283 -0.443353C2.45665 -0.443353 2.896 -0.289928 2.896 0.316797C2.896 0.609698 2.79837 0.930495 2.61705 1.14668C2.38691 1.41169 2.19165 1.42564 1.84295 1.44656C1.66861 1.46051 1.65466 1.46051 1.61979 1.46748C1.60584 1.46748 1.55005 1.48143 1.55005 1.55814C1.55005 1.65578 1.61282 1.65578 1.73137 1.65578ZM1.73137 1.65578"/>
 </g>
 <g transform="matrix(1.000000,0.000000,0.000000,1.000000,42.519685,-99.212598)">
  <path fill="black" d="M-4.14545 2.49066M-1.01718 -1.4944L-0.160393 -1.4944C0.03886 -1.4944 0.138486 -1.4944 0.138486 -1.69365C0.138486 -1.80324 0.03886 -1.80324 -0.130505 -1.80324L-0.957404 -1.80324L-0.748189 -2.93898C-0.708338 -3.14819 -0.568861 -3.85554 -0.509085 -3.97509C-0.419421 -4.16438 -0.250057 -4.31382 -0.0408411 -4.31382C-0.000990548 -4.31382 0.258038 -4.31382 0.447328 -4.1345C0.00897209 -4.09465 -0.0906543 -3.74595 -0.0906543 -3.59651C-0.0906543 -3.36737 0.0886732 -3.24782 0.277963 -3.24782C0.536992 -3.24782 0.825909 -3.467 0.825909 -3.84558C0.825909 -4.30386 0.367627 -4.533 -0.0408411 -4.533C-0.379571 -4.533 -1.00722 -4.35367 -1.3061 -3.36737C-1.36587 -3.15816 -1.39576 -3.05853 -1.63486 -1.80324L-2.32229 -1.80324C-2.51158 -1.80324 -2.62116 -1.80324 -2.62116 -1.61395C-2.62116 -1.4944 -2.5315 -1.4944 -2.34221 -1.4944L-1.68468 -1.4944L-2.43187 2.44085C-2.6112 3.40722 -2.78057 4.31382 -3.29862 4.31382C-3.33847 4.31382 -3.58754 4.31382 -3.77683 4.1345C-3.31855 4.10461 -3.22889 3.74595 -3.22889 3.59651C-3.22889 3.36737 -3.40821 3.24782 -3.5975 3.24782C-3.85653 3.24782 -4.14545 3.467 -4.14545 3.84558C-4.14545 4.2939 -3.70709 4.533 -3.29862 4.533C-2.75068 4.533 -2.35217 3.94521 -2.17285 3.56663C-1.85404 2.93898 -1.6249 1.7335 -1.61494 1.66376ZM-1.61494 1.66376"/>
  <path fill="black" d="M0.476079 3.98504M3.89326 2.84133L3.89326 2.59027L3.11917 2.59027L3.11917 -0.520065C3.11917 -0.666516 3.11917 -0.715333 2.96574 -0.715333C2.88206 -0.715333 2.85416 -0.715333 2.78442 -0.617699L0.476079 2.59027L0.476079 2.84133L2.52639 2.84133L2.52639 3.41319C2.52639 3.6503 2.52639 3.73398 1.96151 3.73398L1.77321 3.73398L1.77321 3.98504C2.12191 3.97109 2.56823 3.95715 2.81929 3.95715C3.07732 3.95715 3.52365 3.97109 3.87234 3.98504L3.87234 3.73398L3.68405 3.73398C3.11917 3.73398 3.11917 3.6503 3.11917 3.41319L3.11917 2.84133ZM3.11917 2.84133M2.57521 0.0378428L2.57521 2.59027L0.734112 2.59027ZM0.734112 2.59027"/>
 </g>
 <g transform="matrix(1.000000,0.000000,0.000000,1.000000,-14.173228,-85.039370)">
  <path fill="black" d="M-4.09584 1.39755M-2.69111 -0.903824C-2.40219 -0.903824 -1.66495 -0.92375 -1.16682 -1.13297C-0.469437 -1.43184 -0.419624 -2.01964 -0.419624 -2.15912C-0.419624 -2.59747 -0.798204 -3.00594 -1.48563 -3.00594C-2.59148 -3.00594 -4.09584 -2.03957 -4.09584 -0.296103C-4.09584 0.720086 -3.50804 1.50713 -2.5317 1.50713C-1.10705 1.50713 -0.270184 0.451095 -0.270184 0.331543C-0.270184 0.271767 -0.32996 0.202029 -0.389736 0.202029C-0.439549 0.202029 -0.459474 0.221954 -0.51925 0.301655C-1.3063 1.28796 -2.39223 1.28796 -2.51178 1.28796C-3.28886 1.28796 -3.37853 0.451095 -3.37853 0.13229C-3.37853 0.0127385 -3.36857 -0.296103 -3.21913 -0.903824ZM-3.21913 -0.903824M-3.15935 -1.123C-2.77081 -2.63732 -1.74466 -2.78676 -1.48563 -2.78676C-1.01738 -2.78676 -0.748391 -2.49785 -0.748391 -2.15912C-0.748391 -1.123 -2.34241 -1.123 -2.75088 -1.123ZM-2.75088 -1.123"/>
  <path fill="black" d="M0.844899 2.89193M2.42099 -1.54344C2.42099 -1.73173 2.40704 -1.73871 2.21177 -1.73871C1.76545 -1.29936 1.13083 -1.29238 0.844899 -1.29238L0.844899 -1.04132C1.01227 -1.04132 1.47255 -1.04132 1.85611 -1.23659L1.85611 2.32007C1.85611 2.55021 1.85611 2.64087 1.15872 2.64087L0.893716 2.64087L0.893716 2.89193C1.01925 2.88495 1.87703 2.86403 2.13506 2.86403C2.35125 2.86403 3.22996 2.88495 3.38338 2.89193L3.38338 2.64087L3.11837 2.64087C2.42099 2.64087 2.42099 2.55021 2.42099 2.32007ZM2.42099 2.32007"/>
 </g>
 <g transform="matrix(1.000000,0.000000,0.000000,1.000000,-14.173228,-70.866142)">
  <path fill="black" d="M-4.09584 1.39755M-2.69111 -0.903824C-2.40219 -0.903824 -1.66495 -0.92375 -1.16682 -1.13297C-0.469437 -1.43184 -0.419624 -2.01964 -0.419624 -2.15912C-0.419624 -2.59747 -0.798204 -3.00594 -1.48563 -3.00594C-2.59148 -3.00594 -4.09584 -2.03957 -4.09584 -0.296103C-4.09584 0.720086 -3.50804 1.50713 -2.5317 1.50713C-1.10705 1.50713 -0.270184 0.451095 -0.270184 0.331543C-0.270184 0.271767 -0.32996 0.202029 -0.389736 0.202029C-0.439549 0.202029 -0.459474 0.221954 -0.51925 0.301655C-1.3063 1.28796 -2.39223 1.28796 -2.51178 1.28796C-3.28886 1.28796 -3.37853 0.451095 -3.37853 0.13229C-3.37853 0.0127385 -3.36857 -0.296103 -3.21913 -0.903824ZM-3.21913 -0.903824M-3.15935 -1.123C-2.77081 -2.63732 -1.74466 -2.78676 -1.48563 -2.78676C-1.01738 -2.78676 -0.748391 -2.49785 -0.748391 -2.15912C-0.748391 -1.123 -2.34241 -1.123 -2.75088 -1.123ZM-2.75088 -1.123"/>
  <path fill="black" d="M0.524102 2.89193M3.60654 1.62269L3.36943 1.62269C3.34851 1.77611 3.27877 2.18757 3.18811 2.25731C3.13232 2.29915 2.59534 2.29915 2.4977 2.29915L1.21451 2.29915C1.94677 1.65058 2.19085 1.45531 2.60928 1.12754C3.12535 0.716086 3.60654 0.283707 3.60654 -0.378808C3.60654 -1.22264 2.86732 -1.73871 1.97466 -1.73871C1.10991 -1.73871 0.524102 -1.13198 0.524102 -0.49039C0.524102 -0.134724 0.823978 -0.0998545 0.893716 -0.0998545C1.06109 -0.0998545 1.26333 -0.21841 1.26333 -0.469468C1.26333 -0.594998 1.21451 -0.839082 0.851873 -0.839082C1.06806 -1.33423 1.54228 -1.48765 1.87006 -1.48765C2.56744 -1.48765 2.93008 -0.94369 2.93008 -0.378808C2.93008 0.227916 2.4977 0.709112 2.27454 0.96017L0.593841 2.61995C0.524102 2.68271 0.524102 2.69666 0.524102 2.89193L3.39733 2.89193ZM3.39733 2.89193"/>
 </g>
 <g transform="matrix(1.000000,0.000000,0.000000,1.000000,-14.173228,-56.692913)">
  <path fill="black" d="M-4.09584 1.39755M-2.69111 -0.903824C-2.40219 -0.903824 -1.66495 -0.92375 -1.16682 -1.13297C-0.469437 -1.43184 -0.419624 -2.01964 -0.419624 -2.15912C-0.419624 -2.59747 -0.798204 -3.00594 -1.48563 -3.00594C-2.59148 -3.00594 -4.09584 -2.03957 -4.09584 -0.296103C-4.09584 0.720086 -3.50804 1.50713 -2.5317 1.50713C-1.10705 1.50713 -0.270184 0.451095 -0.270184 0.331543C-0.270184 0.271767 -0.32996 0.202029 -0.389736 0.202029C-0.439549 0.202029 -0.459474 0.221954 -0.51925 0.301655C-1.3063 1.28796 -2.39223 1.28796 -2.51178 1.28796C-3.28886 1.28796 -3.37853 0.451095 -3.37853 0.13229C-3.37853 0.0127385 -3.36857 -0.296103 -3.21913 -0.903824ZM-3.21913 -0.903824M-3.15935 -1.123C-2.77081 -2.63732 -1.74466 -2.78676 -1.48563 -2.78676C-1.01738 -2.78676 -0.748391 -2.49785 -0.748391 -2.15912C-0.748391 -1.123 -2.34241 -1.123 -2.75088 -1.123ZM-2.75088 -1.123"/>
  <path fill="black" d="M0.461338 2.89193M1.98861 0.562661C2.53257 0.562661 2.92311 0.939249 2.92311 1.68545C2.92311 2.55021 2.42099 2.80824 2.01651 2.80824C1.73755 2.80824 1.12385 2.73153 0.830952 2.32007C1.15872 2.30612 1.23543 2.07599 1.23543 1.92954C1.23543 1.70637 1.06806 1.54597 0.851873 1.54597C0.656605 1.54597 0.461338 1.66453 0.461338 1.95046C0.461338 2.606 1.18662 3.0314 2.03045 3.0314C2.99982 3.0314 3.66931 2.38284 3.66931 1.68545C3.66931 1.14149 3.22298 0.59753 2.45586 0.437132C3.18811 0.172126 3.45312 -0.350913 3.45312 -0.776318C3.45312 -1.32725 2.8185 -1.73871 2.0444 -1.73871C1.2703 -1.73871 0.677527 -1.36212 0.677527 -0.804213C0.677527 -0.567102 0.830952 -0.434599 1.04017 -0.434599C1.25636 -0.434599 1.39583 -0.594998 1.39583 -0.790266C1.39583 -0.992507 1.25636 -1.13896 1.04017 -1.15291C1.28425 -1.45975 1.76545 -1.53647 2.02348 -1.53647C2.3373 -1.53647 2.77666 -1.38304 2.77666 -0.776318C2.77666 -0.483416 2.67902 -0.162619 2.4977 0.0535701C2.26756 0.318576 2.0723 0.332524 1.7236 0.353446C1.54926 0.367393 1.53531 0.367393 1.50044 0.374367C1.48649 0.374367 1.4307 0.388315 1.4307 0.465027C1.4307 0.562661 1.49347 0.562661 1.61202 0.562661ZM1.61202 0.562661"/>
 </g>
 <g transform="matrix(1.000000,0.000000,0.000000,1.000000,-14.173228,-42.519685)">
  <path fill="black" d="M-4.09584 1.39755M-2.69111 -0.903824C-2.40219 -0.903824 -1.66495 -0.92375 -1.16682 -1.13297C-0.469437 -1.43184 -0.419624 -2.01964 -0.419624 -2.15912C-0.419624 -2.59747 -0.798204 -3.00594 -1.48563 -3.00594C-2.59148 -3.00594 -4.09584 -2.03957 -4.09584 -0.296103C-4.09584 0.720086 -3.50804 1.50713 -2.5317 1.50713C-1.10705 1.50713 -0.270184 0.451095 -0.270184 0.331543C-0.270184 0.271767 -0.32996 0.202029 -0.389736 0.202029C-0.439549 0.202029 -0.459474 0.221954 -0.51925 0.301655C-1.3063 1.28796 -2.39223 1.28796 -2.51178 1.28796C-3.28886 1.28796 -3.37853 0.451095 -3.37853 0.13229C-3.37853 0.0127385 -3.36857 -0.296103 -3.21913 -0.903824ZM-3.21913 -0.903824M-3.15935 -1.123C-2.77081 -2.63732 -1.74466 -2.78676 -1.48563 -2.78676C-1.01738 -2.78676 -0.748391 -2.49785 -0.748391 -2.15912C-0.748391 -1.123 -2.34241 -1.123 -2.75088 -1.123ZM-2.75088 -1.123"/>
  <path fill="black" d="M0.35673 2.89193M3.77392 1.74822L3.77392 1.49716L2.99982 1.49716L2.99982 -1.61318C2.99982 -1.75963 2.99982 -1.80845 2.84639 -1.80845C2.76271 -1.80845 2.73481 -1.80845 2.66507 -1.71081L0.35673 1.49716L0.35673 1.74822L2.40704 1.74822L2.40704 2.32007C2.40704 2.55718 2.40704 2.64087 1.84216 2.64087L1.65387 2.64087L1.65387 2.89193C2.00256 2.87798 2.44888 2.86403 2.69994 2.86403C2.95798 2.86403 3.4043 2.87798 3.75299 2.89193L3.75299 2.64087L3.5647 2.64087C2.99982 2.64087 2.99982 2.55718 2.99982 2.32007L2.99982 1.74822ZM2.99982 1.74822M2.45586 -1.05527L2.45586 1.49716L0.614762 1.49716ZM0.614762 1.49716"/>
 </g>
 <g transform="matrix(1.000000,0.000000,0.000000,1.000000,-14.173228,-28.346457)">
  <path fill="black" d="M-4.09584 1.39755M-2.69111 -0.903824C-2.40219 -0.903824 -1.66495 -0.92375 -1.16682 -1.13297C-0.469437 -1.43184 -0.419624 -2.01964 -0.419624 -2.15912C-0.419624 -2.59747 -0.798204 -3.00594 -1.48563 -3.00594C-2.59148 -3.00594 -4.09584 -2.03957 -4.09584 -0.296103C-4.09584 0.720086 -3.50804 1.50713 -2.5317 1.50713C-1.10705 1.50713 -0.270184 0.451095 -0.270184 0.331543C-0.270184 0.271767 -0.32996 0.202029 -0.389736 0.202029C-0.439549 0.202029 -0.459474 0.221954 -0.51925 0.301655C-1.3063 1.28796 -2.39223 1.28796 -2.51178 1.28796C-3.28886 1.28796 -3.37853 0.451095 -3.37853 0.13229C-3.37853 0.0127385 -3.36857 -0.296103 -3.21913 -0.903824ZM-3.21913 -0.903824M-3.15935 -1.123C-2.77081 -2.63732 -1.74466 -2.78676 -1.48563 -2.78676C-1.01738 -2.78676 -0.748391 -2.49785 -0.748391 -2.15912C-0.748391 -1.123 -2.34241 -1.123 -2.75088 -1.123ZM-2.75088 -1.123"/>
  <path fill="black" d="M0.524102 2.89193M1.1657 -0.999481C1.52136 -0.908821 1.73058 -0.908821 1.84216 -0.908821C2.76271 -0.908821 3.30667 -1.53647 3.30667 -1.64107C3.30667 -1.71779 3.25785 -1.73871 3.22298 -1.73871C3.20903 -1.73871 3.19509 -1.73871 3.16719 -1.71779C2.99982 -1.65502 2.6302 -1.51555 2.11414 -1.51555C1.91887 -1.51555 1.54926 -1.52949 1.09596 -1.70384C1.02622 -1.73871 1.01227 -1.73871 1.0053 -1.73871C0.914638 -1.73871 0.914638 -1.662 0.914638 -1.55041L0.914638 0.50687C0.914638 0.625426 0.914638 0.709112 1.02622 0.709112C1.08898 0.709112 1.09596 0.695164 1.1657 0.611478C1.46557 0.227916 1.89098 0.172126 2.13506 0.172126C2.55349 0.172126 2.74179 0.50687 2.77666 0.562661C2.90218 0.792798 2.94403 1.0578 2.94403 1.46229C2.94403 1.6715 2.94403 2.08296 2.73481 2.38981C2.56047 2.64087 2.26059 2.80824 1.91887 2.80824C1.46557 2.80824 0.998324 2.55718 0.823978 2.09691C1.08898 2.11783 1.22149 1.94348 1.22149 1.75519C1.22149 1.45531 0.963455 1.39952 0.872795 1.39952C0.858847 1.39952 0.524102 1.39952 0.524102 1.77611C0.524102 2.40376 1.09596 3.0314 1.93282 3.0314C2.82547 3.0314 3.60654 2.36889 3.60654 1.49018C3.60654 0.702138 3.00679 -0.0231422 2.14204 -0.0231422C1.83519 -0.0231422 1.47255 0.0535701 1.1657 0.318576ZM1.1657 0.318576"/>
 </g>
 <g transform="matrix(1.000000,0.000000,0.000000,1.000000,-14.173228,-14.173228)">
  <path fill="black" d="M-4.09584 1.39755M-2.69111 -0.903824C-2.40219 -0.903824 -1.66495 -0.92375 -1.16682 -1.13297C-0.469437 -1.43184 -0.419624 -2.01964 -0.419624 -2.15912C-0.419624 -2.59747 -0.798204 -3.00594 -1.48563 -3.00594C-2.59148 -3.00594 -4.09584 -2.03957 -4.09584 -0.296103C-4.09584 0.720086 -3.50804 1.50713 -2.5317 1.50713C-1.10705 1.50713 -0.270184 0.451095 -0.270184 0.331543C-0.270184 0.271767 -0.32996 0.202029 -0.389736 0.202029C-0.439549 0.202029 -0.459474 0.221954 -0.51925 0.301655C-1.3063 1.28796 -2.39223 1.28796 -2.51178 1.28796C-3.28886 1.28796 -3.37853 0.451095 -3.37853 0.13229C-3.37853 0.0127385 -3.36857 -0.296103 -3.21913 -0.903824ZM-3.21913 -0.903824M-3.15935 -1.123C-2.77081 -2.63732 -1.74466 -2.78676 -1.48563 -2.78676C-1.01738 -2.78676 -0.748391 -2.49785 -0.748391 -2.15912C-0.748391 -1.123 -2.34241 -1.123 -2.75088 -1.123ZM-2.75088 -1.123"/>
  <path fill="black" d="M0.461338 2.89193M1.13083 0.611478C1.13083 0.0396224 1.17964 -0.476442 1.44465 -0.901847C1.68176 -1.27843 2.05835 -1.53647 2.50468 -1.53647C2.71389 -1.53647 2.99284 -1.48068 3.13232 -1.29238C2.95798 -1.27843 2.81152 -1.15988 2.81152 -0.957638C2.81152 -0.783292 2.93008 -0.629867 3.1393 -0.629867C3.34851 -0.629867 3.47404 -0.769344 3.47404 -0.971586C3.47404 -1.37607 3.18114 -1.73871 2.49073 -1.73871C1.48649 -1.73871 0.461338 -0.818161 0.461338 0.681216C0.461338 2.48744 1.31215 3.0314 2.07927 3.0314C2.93008 3.0314 3.66931 2.38284 3.66931 1.46926C3.66931 0.583583 2.96495 -0.0719592 2.14901 -0.0719592C1.5911 -0.0719592 1.28425 0.297655 1.13083 0.611478ZM1.13083 0.611478M2.07927 2.80824C1.73058 2.80824 1.4586 2.606 1.31215 2.29915C1.20754 2.08993 1.15175 1.74124 1.15175 1.32281C1.15175 0.646347 1.55623 0.123309 2.11414 0.123309C2.43494 0.123309 2.65113 0.248838 2.82547 0.50687C2.99284 0.771876 2.99982 1.06478 2.99982 1.46926C2.99982 1.86677 2.99982 2.15967 2.81152 2.43165C2.64415 2.67574 2.42099 2.80824 2.07927 2.80824ZM2.07927 2.80824"/>
 </g>
 <path d="M-19.8425 -92.126L49.6063 -92.126" stroke="black"/>
 <path d="M-7.08661 -8.50394L-7.08661 -104.882" stroke="black"/>
 <g transform="matrix(1.000000,0.000000,0.000000,1.000000,0.000000,-85.039370)">
  <path fill="black" d="M-1.60399 3.21018M0.438356 -3.16591C0.438356 -3.40502 0.438356 -3.42494 0.209215 -3.42494C-0.408468 -2.78733 -1.28518 -2.78733 -1.60399 -2.78733L-1.60399 -2.47849C-1.40473 -2.47849 -0.816936 -2.47849 -0.298879 -2.73752L-0.298879 2.42313C-0.298879 2.78178 -0.328767 2.90133 -1.2254 2.90133L-1.54421 2.90133L-1.54421 3.21018C-1.19552 3.18029 -0.328767 3.18029 0.0697385 3.18029C0.468244 3.18029 1.33499 3.18029 1.68369 3.21018L1.68369 2.90133L1.36488 2.90133C0.468244 2.90133 0.438356 2.79174 0.438356 2.42313ZM0.438356 2.42313"/>
 </g>
 <g transform="matrix(1.000000,0.000000,0.000000,1.000000,0.000000,-70.866142)">
  <path fill="black" d="M-0.52691 0.525799M0.52913 -0.00222068C0.52913 -0.291137 0.290027 -0.530241 0.00111034 -0.530241C-0.287806 -0.530241 -0.52691 -0.291137 -0.52691 -0.00222068C-0.52691 0.286696 -0.287806 0.525799 0.00111034 0.525799C0.290027 0.525799 0.52913 0.286696 0.52913 -0.00222068ZM0.52913 -0.00222068"/>
 </g>
 <g transform="matrix(1.000000,0.000000,0.000000,1.000000,0.000000,-56.692913)">
  <path fill="black" d="M-1.60399 3.21018M0.438356 -3.16591C0.438356 -3.40502 0.438356 -3.42494 0.209215 -3.42494C-0.408468 -2.78733 -1.28518 -2.78733 -1.60399 -2.78733L-1.60399 -2.47849C-1.40473 -2.47849 -0.816936 -2.47849 -0.298879 -2.73752L-0.298879 2.42313C-0.298879 2.78178 -0.328767 2.90133 -1.2254 2.90133L-1.54421 2.90133L-1.54421 3.21018C-1.19552 3.18029 -0.328767 3.18029 0.0697385 3.18029C0.468244 3.18029 1.33499 3.18029 1.68369 3.21018L1.68369 2.90133L1.36488 2.90133C0.468244 2.90133 0.438356 2.79174 0.438356 2.42313ZM0.438356 2.42313"/>
 </g>
 <g transform="matrix(1.000000,0.000000,0.000000,1.000000,0.000000,-42.519685)">
  <path fill="black" d="M-0.52691 0.525799M0.52913 -0.00222068C0.52913 -0.291137 0.290027 -0.530241 0.00111034 -0.530241C-0.287806 -0.530241 -0.52691 -0.291137 -0.52691 -0.00222068C-0.52691 0.286696 -0.287806 0.525799 0.00111034 0.525799C0.290027 0.525799 0.52913 0.286696 0.52913 -0.00222068ZM0.52913 -0.00222068"/>
 </g>
 <g transform="matrix(1.000000,0.000000,0.000000,1.000000,0.000000,-28.346457)">
  <path fill="black" d="M-0.52691 0.525799M0.52913 -0.00222068C0.52913 -0.291137 0.290027 -0.530241 0.00111034 -0.530241C-0.287806 -0.530241 -0.52691 -0.291137 -0.52691 -0.00222068C-0.52691 0.286696 -0.287806 0.525799 0.00111034 0.525799C0.290027 0.525799 0.52913 0.286696 0.52913 -0.00222068ZM0.52913 -0.00222068"/>
 </g>
 <g transform="matrix(1.000000,0.000000,0.000000,1.000000,0.000000,-14.173228)">
  <path fill="black" d="M-1.60399 3.21018M0.438356 -3.16591C0.438356 -3.40502 0.438356 -3.42494 0.209215 -3.42494C-0.408468 -2.78733 -1.28518 -2.78733 -1.60399 -2.78733L-1.60399 -2.47849C-1.40473 -2.47849 -0.816936 -2.47849 -0.298879 -2.73752L-0.298879 2.42313C-0.298879 2.78178 -0.328767 2.90133 -1.2254 2.90133L-1.54421 2.90133L-1.54421 3.21018C-1.19552 3.18029 -0.328767 3.18029 0.0697385 3.18029C0.468244 3.18029 1.33499 3.18029 1.68369 3.21018L1.68369 2.90133L1.36488 2.90133C0.468244 2.90133 0.438356 2.79174 0.438356 2.42313ZM0.438356 2.42313"/>
 </g>
 <g transform="matrix(1.000000,0.000000,0.000000,1.000000,14.173228,-85.039370)">
  <path fill="black" d="M-1.60399 3.21018M0.438356 -3.16591C0.438356 -3.40502 0.438356 -3.42494 0.209215 -3.42494C-0.408468 -2.78733 -1.28518 -2.78733 -1.60399 -2.78733L-1.60399 -2.47849C-1.40473 -2.47849 -0.816936 -2.47849 -0.298879 -2.73752L-0.298879 2.42313C-0.298879 2.78178 -0.328767 2.90133 -1.2254 2.90133L-1.54421 2.90133L-1.54421 3.21018C-1.19552 3.18029 -0.328767 3.18029 0.0697385 3.18029C0.468244 3.18029 1.33499 3.18029 1.68369 3.21018L1.68369 2.90133L1.36488 2.90133C0.468244 2.90133 0.438356 2.79174 0.438356 2.42313ZM0.438356 2.42313"/>
 </g>
 <g transform="matrix(1.000000,0.000000,0.000000,1.000000,14.173228,-70.866142)">
  <path fill="black" d="M-1.60399 3.21018M0.438356 -3.16591C0.438356 -3.40502 0.438356 -3.42494 0.209215 -3.42494C-0.408468 -2.78733 -1.28518 -2.78733 -1.60399 -2.78733L-1.60399 -2.47849C-1.40473 -2.47849 -0.816936 -2.47849 -0.298879 -2.73752L-0.298879 2.42313C-0.298879 2.78178 -0.328767 2.90133 -1.2254 2.90133L-1.54421 2.90133L-1.54421 3.21018C-1.19552 3.18029 -0.328767 3.18029 0.0697385 3.18029C0.468244 3.18029 1.33499 3.18029 1.68369 3.21018L1.68369 2.90133L1.36488 2.90133C0.468244 2.90133 0.438356 2.79174 0.438356 2.42313ZM0.438356 2.42313"/>
 </g>
 <g transform="matrix(1.000000,0.000000,0.000000,1.000000,14.173228,-56.692913)">
  <path fill="black" d="M-0.52691 0.525799M0.52913 -0.00222068C0.52913 -0.291137 0.290027 -0.530241 0.00111034 -0.530241C-0.287806 -0.530241 -0.52691 -0.291137 -0.52691 -0.00222068C-0.52691 0.286696 -0.287806 0.525799 0.00111034 0.525799C0.290027 0.525799 0.52913 0.286696 0.52913 -0.00222068ZM0.52913 -0.00222068"/>
 </g>
 <g transform="matrix(1.000000,0.000000,0.000000,1.000000,14.173228,-42.519685)">
  <path fill="black" d="M-1.60399 3.21018M0.438356 -3.16591C0.438356 -3.40502 0.438356 -3.42494 0.209215 -3.42494C-0.408468 -2.78733 -1.28518 -2.78733 -1.60399 -2.78733L-1.60399 -2.47849C-1.40473 -2.47849 -0.816936 -2.47849 -0.298879 -2.73752L-0.298879 2.42313C-0.298879 2.78178 -0.328767 2.90133 -1.2254 2.90133L-1.54421 2.90133L-1.54421 3.21018C-1.19552 3.18029 -0.328767 3.18029 0.0697385 3.18029C0.468244 3.18029 1.33499 3.18029 1.68369 3.21018L1.68369 2.90133L1.36488 2.90133C0.468244 2.90133 0.438356 2.79174 0.438356 2.42313ZM0.438356 2.42313"/>
 </g>
 <g transform="matrix(1.000000,0.000000,0.000000,1.000000,14.173228,-28.346457)">
  <path fill="black" d="M-0.52691 0.525799M0.52913 -0.00222068C0.52913 -0.291137 0.290027 -0.530241 0.00111034 -0.530241C-0.287806 -0.530241 -0.52691 -0.291137 -0.52691 -0.00222068C-0.52691 0.286696 -0.287806 0.525799 0.00111034 0.525799C0.290027 0.525799 0.52913 0.286696 0.52913 -0.00222068ZM0.52913 -0.00222068"/>
 </g>
 <g transform="matrix(1.000000,0.000000,0.000000,1.000000,14.173228,-14.173228)">
  <path fill="black" d="M-0.52691 0.525799M0.52913 -0.00222068C0.52913 -0.291137 0.290027 -0.530241 0.00111034 -0.530241C-0.287806 -0.530241 -0.52691 -0.291137 -0.52691 -0.00222068C-0.52691 0.286696 -0.287806 0.525799 0.00111034 0.525799C0.290027 0.525799 0.52913 0.286696 0.52913 -0.00222068ZM0.52913 -0.00222068"/>
 </g>
 <g transform="matrix(1.000000,0.000000,0.000000,1.000000,28.346457,-85.039370)">
  <path fill="black" d="M-0.52691 0.525799M0.52913 -0.00222068C0.52913 -0.291137 0.290027 -0.530241 0.00111034 -0.530241C-0.287806 -0.530241 -0.52691 -0.291137 -0.52691 -0.00222068C-0.52691 0.286696 -0.287806 0.525799 0.00111034 0.525799C0.290027 0.525799 0.52913 0.286696 0.52913 -0.00222068ZM0.52913 -0.00222068"/>
 </g>
 <g transform="matrix(1.000000,0.000000,0.000000,1.000000,28.346457,-70.866142)">
  <path fill="black" d="M-1.60399 3.21018M0.438356 -3.16591C0.438356 -3.40502 0.438356 -3.42494 0.209215 -3.42494C-0.408468 -2.78733 -1.28518 -2.78733 -1.60399 -2.78733L-1.60399 -2.47849C-1.40473 -2.47849 -0.816936 -2.47849 -0.298879 -2.73752L-0.298879 2.42313C-0.298879 2.78178 -0.328767 2.90133 -1.2254 2.90133L-1.54421 2.90133L-1.54421 3.21018C-1.19552 3.18029 -0.328767 3.18029 0.0697385 3.18029C0.468244 3.18029 1.33499 3.18029 1.68369 3.21018L1.68369 2.90133L1.36488 2.90133C0.468244 2.90133 0.438356 2.79174 0.438356 2.42313ZM0.438356 2.42313"/>
 </g>
 <g transform="matrix(1.000000,0.000000,0.000000,1.000000,28.346457,-56.692913)">
  <path fill="black" d="M-1.60399 3.21018M0.438356 -3.16591C0.438356 -3.40502 0.438356 -3.42494 0.209215 -3.42494C-0.408468 -2.78733 -1.28518 -2.78733 -1.60399 -2.78733L-1.60399 -2.47849C-1.40473 -2.47849 -0.816936 -2.47849 -0.298879 -2.73752L-0.298879 2.42313C-0.298879 2.78178 -0.328767 2.90133 -1.2254 2.90133L-1.54421 2.90133L-1.54421 3.21018C-1.19552 3.18029 -0.328767 3.18029 0.0697385 3.18029C0.468244 3.18029 1.33499 3.18029 1.68369 3.21018L1.68369 2.90133L1.36488 2.90133C0.468244 2.90133 0.438356 2.79174 0.438356 2.42313ZM0.438356 2.42313"/>
 </g>
 <g transform="matrix(1.000000,0.000000,0.000000,1.000000,28.346457,-42.519685)">
  <path fill="black" d="M-0.52691 0.525799M0.52913 -0.00222068C0.52913 -0.291137 0.290027 -0.530241 0.00111034 -0.530241C-0.287806 -0.530241 -0.52691 -0.291137 -0.52691 -0.00222068C-0.52691 0.286696 -0.287806 0.525799 0.00111034 0.525799C0.290027 0.525799 0.52913 0.286696 0.52913 -0.00222068ZM0.52913 -0.00222068"/>
 </g>
 <g transform="matrix(1.000000,0.000000,0.000000,1.000000,28.346457,-28.346457)">
  <path fill="black" d="M-1.60399 3.21018M0.438356 -3.16591C0.438356 -3.40502 0.438356 -3.42494 0.209215 -3.42494C-0.408468 -2.78733 -1.28518 -2.78733 -1.60399 -2.78733L-1.60399 -2.47849C-1.40473 -2.47849 -0.816936 -2.47849 -0.298879 -2.73752L-0.298879 2.42313C-0.298879 2.78178 -0.328767 2.90133 -1.2254 2.90133L-1.54421 2.90133L-1.54421 3.21018C-1.19552 3.18029 -0.328767 3.18029 0.0697385 3.18029C0.468244 3.18029 1.33499 3.18029 1.68369 3.21018L1.68369 2.90133L1.36488 2.90133C0.468244 2.90133 0.438356 2.79174 0.438356 2.42313ZM0.438356 2.42313"/>
 </g>
 <g transform="matrix(1.000000,0.000000,0.000000,1.000000,28.346457,-14.173228)">
  <path fill="black" d="M-0.52691 0.525799M0.52913 -0.00222068C0.52913 -0.291137 0.290027 -0.530241 0.00111034 -0.530241C-0.287806 -0.530241 -0.52691 -0.291137 -0.52691 -0.00222068C-0.52691 0.286696 -0.287806 0.525799 0.00111034 0.525799C0.290027 0.525799 0.52913 0.286696 0.52913 -0.00222068ZM0.52913 -0.00222068"/>
 </g>
 <g transform="matrix(1.000000,0.000000,0.000000,1.000000,42.519685,-85.039370)">
  <path fill="black" d="M-0.52691 0.525799M0.52913 -0.00222068C0.52913 -0.291137 0.290027 -0.530241 0.00111034 -0.530241C-0.287806 -0.530241 -0.52691 -0.291137 -0.52691 -0.00222068C-0.52691 0.286696 -0.287806 0.525799 0.00111034 0.525799C0.290027 0.525799 0.52913 0.286696 0.52913 -0.00222068ZM0.52913 -0.00222068"/>
 </g>
 <g transform="matrix(1.000000,0.000000,0.000000,1.000000,42.519685,-70.866142)">
  <path fill="black" d="M-0.52691 0.525799M0.52913 -0.00222068C0.52913 -0.291137 0.290027 -0.530241 0.00111034 -0.530241C-0.287806 -0.530241 -0.52691 -0.291137 -0.52691 -0.00222068C-0.52691 0.286696 -0.287806 0.525799 0.00111034 0.525799C0.290027 0.525799 0.52913 0.286696 0.52913 -0.00222068ZM0.52913 -0.00222068"/>
 </g>
 <g transform="matrix(1.000000,0.000000,0.000000,1.000000,42.519685,-56.692913)">
  <path fill="black" d="M-0.52691 0.525799M0.52913 -0.00222068C0.52913 -0.291137 0.290027 -0.530241 0.00111034 -0.530241C-0.287806 -0.530241 -0.52691 -0.291137 -0.52691 -0.00222068C-0.52691 0.286696 -0.287806 0.525799 0.00111034 0.525799C0.290027 0.525799 0.52913 0.286696 0.52913 -0.00222068ZM0.52913 -0.00222068"/>
 </g>
 <g transform="matrix(1.000000,0.000000,0.000000,1.000000,42.519685,-42.519685)">
  <path fill="black" d="M-1.60399 3.21018M0.438356 -3.16591C0.438356 -3.40502 0.438356 -3.42494 0.209215 -3.42494C-0.408468 -2.78733 -1.28518 -2.78733 -1.60399 -2.78733L-1.60399 -2.47849C-1.40473 -2.47849 -0.816936 -2.47849 -0.298879 -2.73752L-0.298879 2.42313C-0.298879 2.78178 -0.328767 2.90133 -1.2254 2.90133L-1.54421 2.90133L-1.54421 3.21018C-1.19552 3.18029 -0.328767 3.18029 0.0697385 3.18029C0.468244 3.18029 1.33499 3.18029 1.68369 3.21018L1.68369 2.90133L1.36488 2.90133C0.468244 2.90133 0.438356 2.79174 0.438356 2.42313ZM0.438356 2.42313"/>
 </g>
 <g transform="matrix(1.000000,0.000000,0.000000,1.000000,42.519685,-28.346457)">
  <path fill="black" d="M-1.60399 3.21018M0.438356 -3.16591C0.438356 -3.40502 0.438356 -3.42494 0.209215 -3.42494C-0.408468 -2.78733 -1.28518 -2.78733 -1.60399 -2.78733L-1.60399 -2.47849C-1.40473 -2.47849 -0.816936 -2.47849 -0.298879 -2.73752L-0.298879 2.42313C-0.298879 2.78178 -0.328767 2.90133 -1.2254 2.90133L-1.54421 2.90133L-1.54421 3.21018C-1.19552 3.18029 -0.328767 3.18029 0.0697385 3.18029C0.468244 3.18029 1.33499 3.18029 1.68369 3.21018L1.68369 2.90133L1.36488 2.90133C0.468244 2.90133 0.438356 2.79174 0.438356 2.42313ZM0.438356 2.42313"/>
 </g>
 <g transform="matrix(1.000000,0.000000,0.000000,1.000000,42.519685,-14.173228)">
  <path fill="black" d="M-1.60399 3.21018M0.438356 -3.16591C0.438356 -3.40502 0.438356 -3.42494 0.209215 -3.42494C-0.408468 -2.78733 -1.28518 -2.78733 -1.60399 -2.78733L-1.60399 -2.47849C-1.40473 -2.47849 -0.816936 -2.47849 -0.298879 -2.73752L-0.298879 2.42313C-0.298879 2.78178 -0.328767 2.90133 -1.2254 2.90133L-1.54421 2.90133L-1.54421 3.21018C-1.19552 3.18029 -0.328767 3.18029 0.0697385 3.18029C0.468244 3.18029 1.33499 3.18029 1.68369 3.21018L1.68369 2.90133L1.36488 2.90133C0.468244 2.90133 0.438356 2.79174 0.438356 2.42313ZM0.438356 2.42313"/>
 </g>
 <g stroke-width="0.801759">
  <path d="M48.189 -99.2126L48.189 -99.2225A5.66929 5.66929 0 0 0 36.8504 -99.2126A5.66929 5.66929 0 0 0 48.189 -99.2027Z" stroke="#ff1919"/>
 </g>
 <g stroke-width="0.801759">
  <path d="M19.8425 -42.5197L19.8425 -42.5296A5.66929 5.66929 0 0 0 8.50394 -42.5197A5.66929 5.66929 0 0 0 19.8425 -42.5098Z" stroke="#f36b08"/>
 </g>
 <g stroke-width="0.801759">
  <path d="M34.0157 -28.3465L34.0157 -28.3564A5.66929 5.66929 0 0 0 22.6772 -28.3465A5.66929 5.66929 0 0 0 34.0157 -28.3366Z" stroke="#f36b08"/>
 </g>
 <g stroke-width="0.801759">
  <path d="M5.66929 -14.1732L5.66928 -14.1831A5.66929 5.66929 0 0 0 -5.66929 -14.1732A5.66929 5.66929 0 0 0 5.66928 -14.1633Z" stroke="#f36b08"/>
 </g>
</svg>
