<?xml version="1.0" encoding="utf-8"?>
<svg xmlns="http://www.w3.org/2000/svg" fill="none" viewBox="-15.5705 -13.8132 144.527 84.3193" width="144.527pt" version="1.1" x="-15.5705pt" height="84.3193pt" stroke-miterlimit="10.000000" y="-13.8132pt" stroke-width="0.566929">
 <g stroke-width="3.207035">
  <path d="M0 -0L0 19.4772" stroke="#f36b08"/>
  <g stroke-linecap="butt" stroke-dasharray="none">
   <path fill="#f36b08" d="M2.2961 22.8032L0 28.3465L-2.2961 22.8032L0 23.9118Z"/>
  </g>
  <g stroke-linecap="butt" stroke-dasharray="none">
   <path fill="#f36b08" d="M4.5922 17.2599L0 28.3465L-4.5922 17.2599L0 19.4772Z"/>
  </g>
 </g>
 <path d="M0 -0L0 56.6929" stroke="black"/>
 <g transform="matrix(1.000000,0.000000,0.000000,1.000000,9.921260,28.346457)">
  <path fill="black" d="M-4.09584 1.39755M-2.69111 -0.903824C-2.40219 -0.903824 -1.66495 -0.92375 -1.16682 -1.13297C-0.469437 -1.43184 -0.419624 -2.01964 -0.419624 -2.15912C-0.419624 -2.59747 -0.798204 -3.00594 -1.48563 -3.00594C-2.59148 -3.00594 -4.09584 -2.03957 -4.09584 -0.296103C-4.09584 0.720086 -3.50804 1.50713 -2.5317 1.50713C-1.10705 1.50713 -0.270184 0.451095 -0.270184 0.331543C-0.270184 0.271767 -0.32996 0.202029 -0.389736 0.202029C-0.439549 0.202029 -0.459474 0.221954 -0.51925 0.301655C-1.3063 1.28796 -2.39223 1.28796 -2.51178 1.28796C-3.28886 1.28796 -3.37853 0.451095 -3.37853 0.13229C-3.37853 0.0127385 -3.36857 -0.296103 -3.21913 -0.903824ZM-3.21913 -0.903824M-3.15935 -1.123C-2.77081 -2.63732 -1.74466 -2.78676 -1.48563 -2.78676C-1.01738 -2.78676 -0.748391 -2.49785 -0.748391 -2.15912C-0.748391 -1.123 -2.34241 -1.123 -2.75088 -1.123ZM-2.75088 -1.123"/>
  <path fill="black" d="M0.844899 2.89193M2.42099 -1.54344C2.42099 -1.73173 2.40704 -1.73871 2.21177 -1.73871C1.76545 -1.29936 1.13083 -1.29238 0.844899 -1.29238L0.844899 -1.04132C1.01227 -1.04132 1.47255 -1.04132 1.85611 -1.23659L1.85611 2.32007C1.85611 2.55021 1.85611 2.64087 1.15872 2.64087L0.893716 2.64087L0.893716 2.89193C1.01925 2.88495 1.87703 2.86403 2.13506 2.86403C2.35125 2.86403 3.22996 2.88495 3.38338 2.89193L3.38338 2.64087L3.11837 2.64087C2.42099 2.64087 2.42099 2.55021 2.42099 2.32007ZM2.42099 2.32007"/>
 </g>
 <g stroke-width="3.207035">
  <path d="M56.6929 -0L37.2157 -0" stroke="#f36b08"/>
  <g stroke-linecap="butt" stroke-dasharray="none">
   <path fill="#f36b08" d="M33.8897 2.2961L28.3465 -0L33.8897 -2.2961L32.7811 -0Z"/>
  </g>
  <g stroke-linecap="butt" stroke-dasharray="none">
   <path fill="#f36b08" d="M39.433 4.5922L28.3465 -0L39.433 -4.5922L37.2157 -0Z"/>
  </g>
 </g>
 <path d="M56.6929 -0L0 -0" stroke="black"/>
 <g transform="matrix(1.000000,0.000000,0.000000,1.000000,28.346457,-9.921260)">
  <path fill="black" d="M-4.09584 1.39755M-2.69111 -0.903824C-2.40219 -0.903824 -1.66495 -0.92375 -1.16682 -1.13297C-0.469437 -1.43184 -0.419624 -2.01964 -0.419624 -2.15912C-0.419624 -2.59747 -0.798204 -3.00594 -1.48563 -3.00594C-2.59148 -3.00594 -4.09584 -2.03957 -4.09584 -0.296103C-4.09584 0.720086 -3.50804 1.50713 -2.5317 1.50713C-1.10705 1.50713 -0.270184 0.451095 -0.270184 0.331543C-0.270184 0.271767 -0.32996 0.202029 -0.389736 0.202029C-0.439549 0.202029 -0.459474 0.221954 -0.51925 0.301655C-1.3063 1.28796 -2.39223 1.28796 -2.51178 1.28796C-3.28886 1.28796 -3.37853 0.451095 -3.37853 0.13229C-3.37853 0.0127385 -3.36857 -0.296103 -3.21913 -0.903824ZM-3.21913 -0.903824M-3.15935 -1.123C-2.77081 -2.63732 -1.74466 -2.78676 -1.48563 -2.78676C-1.01738 -2.78676 -0.748391 -2.49785 -0.748391 -2.15912C-0.748391 -1.123 -2.34241 -1.123 -2.75088 -1.123ZM-2.75088 -1.123"/>
  <path fill="black" d="M0.524102 2.89193M3.60654 1.62269L3.36943 1.62269C3.34851 1.77611 3.27877 2.18757 3.18811 2.25731C3.13232 2.29915 2.59534 2.29915 2.4977 2.29915L1.21451 2.29915C1.94677 1.65058 2.19085 1.45531 2.60928 1.12754C3.12535 0.716086 3.60654 0.283707 3.60654 -0.378808C3.60654 -1.22264 2.86732 -1.73871 1.97466 -1.73871C1.10991 -1.73871 0.524102 -1.13198 0.524102 -0.49039C0.524102 -0.134724 0.823978 -0.0998545 0.893716 -0.0998545C1.06109 -0.0998545 1.26333 -0.21841 1.26333 -0.469468C1.26333 -0.594998 1.21451 -0.839082 0.851873 -0.839082C1.06806 -1.33423 1.54228 -1.48765 1.87006 -1.48765C2.56744 -1.48765 2.93008 -0.94369 2.93008 -0.378808C2.93008 0.227916 2.4977 0.709112 2.27454 0.96017L0.593841 2.61995C0.524102 2.68271 0.524102 2.69666 0.524102 2.89193L3.39733 2.89193ZM3.39733 2.89193"/>
 </g>
 <g stroke-width="0.801759">
  <path d="M32.315 56.6929L32.315 56.686A3.9685 3.9685 0 0 0 24.378 56.6929A3.9685 3.9685 0 0 0 32.315 56.6998Z" stroke="#ff1919"/>
 </g>
 <path d="M0 56.6929L56.6929 56.6929" stroke="black"/>
 <g transform="matrix(1.000000,0.000000,0.000000,1.000000,28.346457,46.771654)">
  <path fill="black" d="M-4.09584 1.39755M-2.69111 -0.903824C-2.40219 -0.903824 -1.66495 -0.92375 -1.16682 -1.13297C-0.469437 -1.43184 -0.419624 -2.01964 -0.419624 -2.15912C-0.419624 -2.59747 -0.798204 -3.00594 -1.48563 -3.00594C-2.59148 -3.00594 -4.09584 -2.03957 -4.09584 -0.296103C-4.09584 0.720086 -3.50804 1.50713 -2.5317 1.50713C-1.10705 1.50713 -0.270184 0.451095 -0.270184 0.331543C-0.270184 0.271767 -0.32996 0.202029 -0.389736 0.202029C-0.439549 0.202029 -0.459474 0.221954 -0.51925 0.301655C-1.3063 1.28796 -2.39223 1.28796 -2.51178 1.28796C-3.28886 1.28796 -3.37853 0.451095 -3.37853 0.13229C-3.37853 0.0127385 -3.36857 -0.296103 -3.21913 -0.903824ZM-3.21913 -0.903824M-3.15935 -1.123C-2.77081 -2.63732 -1.74466 -2.78676 -1.48563 -2.78676C-1.01738 -2.78676 -0.748391 -2.49785 -0.748391 -2.15912C-0.748391 -1.123 -2.34241 -1.123 -2.75088 -1.123ZM-2.75088 -1.123"/>
  <path fill="black" d="M0.461338 2.89193M1.98861 0.562661C2.53257 0.562661 2.92311 0.939249 2.92311 1.68545C2.92311 2.55021 2.42099 2.80824 2.01651 2.80824C1.73755 2.80824 1.12385 2.73153 0.830952 2.32007C1.15872 2.30612 1.23543 2.07599 1.23543 1.92954C1.23543 1.70637 1.06806 1.54597 0.851873 1.54597C0.656605 1.54597 0.461338 1.66453 0.461338 1.95046C0.461338 2.606 1.18662 3.0314 2.03045 3.0314C2.99982 3.0314 3.66931 2.38284 3.66931 1.68545C3.66931 1.14149 3.22298 0.59753 2.45586 0.437132C3.18811 0.172126 3.45312 -0.350913 3.45312 -0.776318C3.45312 -1.32725 2.8185 -1.73871 2.0444 -1.73871C1.2703 -1.73871 0.677527 -1.36212 0.677527 -0.804213C0.677527 -0.567102 0.830952 -0.434599 1.04017 -0.434599C1.25636 -0.434599 1.39583 -0.594998 1.39583 -0.790266C1.39583 -0.992507 1.25636 -1.13896 1.04017 -1.15291C1.28425 -1.45975 1.76545 -1.53647 2.02348 -1.53647C2.3373 -1.53647 2.77666 -1.38304 2.77666 -0.776318C2.77666 -0.483416 2.67902 -0.162619 2.4977 0.0535701C2.26756 0.318576 2.0723 0.332524 1.7236 0.353446C1.54926 0.367393 1.53531 0.367393 1.50044 0.374367C1.48649 0.374367 1.4307 0.388315 1.4307 0.465027C1.4307 0.562661 1.49347 0.562661 1.61202 0.562661ZM1.61202 0.562661"/>
 </g>
 <g stroke-width="3.207035">
  <path d="M56.6929 56.6929L56.6929 37.2157" stroke="#f36b08"/>
  <g stroke-linecap="butt" stroke-dasharray="none">
   <path fill="#f36b08" d="M54.3968 33.8897L56.6929 28.3465L58.989 33.8897L56.6929 32.7811Z"/>
  </g>
  <g stroke-linecap="butt" stroke-dasharray="none">
   <path fill="#f36b08" d="M52.1007 39.433L56.6929 28.3465L61.2851 39.433L56.6929 37.2157Z"/>
  </g>
 </g>
 <path d="M56.6929 56.6929L56.6929 -0" stroke="black"/>
 <g transform="matrix(1.000000,0.000000,0.000000,1.000000,66.614173,28.346457)">
  <path fill="black" d="M-4.09584 1.39755M-2.69111 -0.903824C-2.40219 -0.903824 -1.66495 -0.92375 -1.16682 -1.13297C-0.469437 -1.43184 -0.419624 -2.01964 -0.419624 -2.15912C-0.419624 -2.59747 -0.798204 -3.00594 -1.48563 -3.00594C-2.59148 -3.00594 -4.09584 -2.03957 -4.09584 -0.296103C-4.09584 0.720086 -3.50804 1.50713 -2.5317 1.50713C-1.10705 1.50713 -0.270184 0.451095 -0.270184 0.331543C-0.270184 0.271767 -0.32996 0.202029 -0.389736 0.202029C-0.439549 0.202029 -0.459474 0.221954 -0.51925 0.301655C-1.3063 1.28796 -2.39223 1.28796 -2.51178 1.28796C-3.28886 1.28796 -3.37853 0.451095 -3.37853 0.13229C-3.37853 0.0127385 -3.36857 -0.296103 -3.21913 -0.903824ZM-3.21913 -0.903824M-3.15935 -1.123C-2.77081 -2.63732 -1.74466 -2.78676 -1.48563 -2.78676C-1.01738 -2.78676 -0.748391 -2.49785 -0.748391 -2.15912C-0.748391 -1.123 -2.34241 -1.123 -2.75088 -1.123ZM-2.75088 -1.123"/>
  <path fill="black" d="M0.35673 2.89193M3.77392 1.74822L3.77392 1.49716L2.99982 1.49716L2.99982 -1.61318C2.99982 -1.75963 2.99982 -1.80845 2.84639 -1.80845C2.76271 -1.80845 2.73481 -1.80845 2.66507 -1.71081L0.35673 1.49716L0.35673 1.74822L2.40704 1.74822L2.40704 2.32007C2.40704 2.55718 2.40704 2.64087 1.84216 2.64087L1.65387 2.64087L1.65387 2.89193C2.00256 2.87798 2.44888 2.86403 2.69994 2.86403C2.95798 2.86403 3.4043 2.87798 3.75299 2.89193L3.75299 2.64087L3.5647 2.64087C2.99982 2.64087 2.99982 2.55718 2.99982 2.32007L2.99982 1.74822ZM2.99982 1.74822M2.45586 -1.05527L2.45586 1.49716L0.614762 1.49716ZM0.614762 1.49716"/>
 </g>
 <g stroke-width="3.207035">
  <path d="M113.386 -0L93.9086 -0" stroke="#f36b08"/>
  <g stroke-linecap="butt" stroke-dasharray="none">
   <path fill="#f36b08" d="M90.5826 2.2961L85.0394 -0L90.5826 -2.2961L89.474 -0Z"/>
  </g>
  <g stroke-linecap="butt" stroke-dasharray="none">
   <path fill="#f36b08" d="M96.1259 4.5922L85.0394 -0L96.1259 -4.5922L93.9086 -0Z"/>
  </g>
 </g>
 <path d="M113.386 -0L56.6929 -0" stroke="black"/>
 <g transform="matrix(1.000000,0.000000,0.000000,1.000000,85.039370,-9.921260)">
  <path fill="black" d="M-4.09584 1.39755M-2.69111 -0.903824C-2.40219 -0.903824 -1.66495 -0.92375 -1.16682 -1.13297C-0.469437 -1.43184 -0.419624 -2.01964 -0.419624 -2.15912C-0.419624 -2.59747 -0.798204 -3.00594 -1.48563 -3.00594C-2.59148 -3.00594 -4.09584 -2.03957 -4.09584 -0.296103C-4.09584 0.720086 -3.50804 1.50713 -2.5317 1.50713C-1.10705 1.50713 -0.270184 0.451095 -0.270184 0.331543C-0.270184 0.271767 -0.32996 0.202029 -0.389736 0.202029C-0.439549 0.202029 -0.459474 0.221954 -0.51925 0.301655C-1.3063 1.28796 -2.39223 1.28796 -2.51178 1.28796C-3.28886 1.28796 -3.37853 0.451095 -3.37853 0.13229C-3.37853 0.0127385 -3.36857 -0.296103 -3.21913 -0.903824ZM-3.21913 -0.903824M-3.15935 -1.123C-2.77081 -2.63732 -1.74466 -2.78676 -1.48563 -2.78676C-1.01738 -2.78676 -0.748391 -2.49785 -0.748391 -2.15912C-0.748391 -1.123 -2.34241 -1.123 -2.75088 -1.123ZM-2.75088 -1.123"/>
  <path fill="black" d="M0.524102 2.89193M1.1657 -0.999481C1.52136 -0.908821 1.73058 -0.908821 1.84216 -0.908821C2.76271 -0.908821 3.30667 -1.53647 3.30667 -1.64107C3.30667 -1.71779 3.25785 -1.73871 3.22298 -1.73871C3.20903 -1.73871 3.19509 -1.73871 3.16719 -1.71779C2.99982 -1.65502 2.6302 -1.51555 2.11414 -1.51555C1.91887 -1.51555 1.54926 -1.52949 1.09596 -1.70384C1.02622 -1.73871 1.01227 -1.73871 1.0053 -1.73871C0.914638 -1.73871 0.914638 -1.662 0.914638 -1.55041L0.914638 0.50687C0.914638 0.625426 0.914638 0.709112 1.02622 0.709112C1.08898 0.709112 1.09596 0.695164 1.1657 0.611478C1.46557 0.227916 1.89098 0.172126 2.13506 0.172126C2.55349 0.172126 2.74179 0.50687 2.77666 0.562661C2.90218 0.792798 2.94403 1.0578 2.94403 1.46229C2.94403 1.6715 2.94403 2.08296 2.73481 2.38981C2.56047 2.64087 2.26059 2.80824 1.91887 2.80824C1.46557 2.80824 0.998324 2.55718 0.823978 2.09691C1.08898 2.11783 1.22149 1.94348 1.22149 1.75519C1.22149 1.45531 0.963455 1.39952 0.872795 1.39952C0.858847 1.39952 0.524102 1.39952 0.524102 1.77611C0.524102 2.40376 1.09596 3.0314 1.93282 3.0314C2.82547 3.0314 3.60654 2.36889 3.60654 1.49018C3.60654 0.702138 3.00679 -0.0231422 2.14204 -0.0231422C1.83519 -0.0231422 1.47255 0.0535701 1.1657 0.318576ZM1.1657 0.318576"/>
 </g>
 <g stroke-width="3.207035">
  <path d="M113.386 56.6929L93.9086 56.6929" stroke="#f36b08"/>
  <g stroke-linecap="butt" stroke-dasharray="none">
   <path fill="#f36b08" d="M90.5826 58.989L85.0394 56.6929L90.5826 54.3968L89.474 56.6929Z"/>
  </g>
  <g stroke-linecap="butt" stroke-dasharray="none">
   <path fill="#f36b08" d="M96.1259 61.2851L85.0394 56.6929L96.1259 52.1007L93.9086 56.6929Z"/>
  </g>
 </g>
 <path d="M113.386 56.6929L56.6929 56.6929" stroke="black"/>
 <g transform="matrix(1.000000,0.000000,0.000000,1.000000,85.039370,46.771654)">
  <path fill="black" d="M-4.09584 1.39755M-2.69111 -0.903824C-2.40219 -0.903824 -1.66495 -0.92375 -1.16682 -1.13297C-0.469437 -1.43184 -0.419624 -2.01964 -0.419624 -2.15912C-0.419624 -2.59747 -0.798204 -3.00594 -1.48563 -3.00594C-2.59148 -3.00594 -4.09584 -2.03957 -4.09584 -0.296103C-4.09584 0.720086 -3.50804 1.50713 -2.5317 1.50713C-1.10705 1.50713 -0.270184 0.451095 -0.270184 0.331543C-0.270184 0.271767 -0.32996 0.202029 -0.389736 0.202029C-0.439549 0.202029 -0.459474 0.221954 -0.51925 0.301655C-1.3063 1.28796 -2.39223 1.28796 -2.51178 1.28796C-3.28886 1.28796 -3.37853 0.451095 -3.37853 0.13229C-3.37853 0.0127385 -3.36857 -0.296103 -3.21913 -0.903824ZM-3.21913 -0.903824M-3.15935 -1.123C-2.77081 -2.63732 -1.74466 -2.78676 -1.48563 -2.78676C-1.01738 -2.78676 -0.748391 -2.49785 -0.748391 -2.15912C-0.748391 -1.123 -2.34241 -1.123 -2.75088 -1.123ZM-2.75088 -1.123"/>
  <path fill="black" d="M0.461338 2.89193M1.13083 0.611478C1.13083 0.0396224 1.17964 -0.476442 1.44465 -0.901847C1.68176 -1.27843 2.05835 -1.53647 2.50468 -1.53647C2.71389 -1.53647 2.99284 -1.48068 3.13232 -1.29238C2.95798 -1.27843 2.81152 -1.15988 2.81152 -0.957638C2.81152 -0.783292 2.93008 -0.629867 3.1393 -0.629867C3.34851 -0.629867 3.47404 -0.769344 3.47404 -0.971586C3.47404 -1.37607 3.18114 -1.73871 2.49073 -1.73871C1.48649 -1.73871 0.461338 -0.818161 0.461338 0.681216C0.461338 2.48744 1.31215 3.0314 2.07927 3.0314C2.93008 3.0314 3.66931 2.38284 3.66931 1.46926C3.66931 0.583583 2.96495 -0.0719592 2.14901 -0.0719592C1.5911 -0.0719592 1.28425 0.297655 1.13083 0.611478ZM1.13083 0.611478M2.07927 2.80824C1.73058 2.80824 1.4586 2.606 1.31215 2.29915C1.20754 2.08993 1.15175 1.74124 1.15175 1.32281C1.15175 0.646347 1.55623 0.123309 2.11414 0.123309C2.43494 0.123309 2.65113 0.248838 2.82547 0.50687C2.99284 0.771876 2.99982 1.06478 2.99982 1.46926C2.99982 1.86677 2.99982 2.15967 2.81152 2.43165C2.64415 2.67574 2.42099 2.80824 2.07927 2.80824ZM2.07927 2.80824"/>
 </g>
 <g stroke-width="0.801759">
  <path d="M117.354 28.3465L117.354 28.3395A3.9685 3.9685 0 0 0 109.417 28.3465A3.9685 3.9685 0 0 0 117.354 28.3534Z" stroke="#ff1919"/>
 </g>
 <path d="M113.386 -0L113.386 56.6929" stroke="black"/>
 <g transform="matrix(1.000000,0.000000,0.000000,1.000000,123.307087,28.346457)">
  <path fill="black" d="M-4.09584 1.39755M-2.69111 -0.903824C-2.40219 -0.903824 -1.66495 -0.92375 -1.16682 -1.13297C-0.469437 -1.43184 -0.419624 -2.01964 -0.419624 -2.15912C-0.419624 -2.59747 -0.798204 -3.00594 -1.48563 -3.00594C-2.59148 -3.00594 -4.09584 -2.03957 -4.09584 -0.296103C-4.09584 0.720086 -3.50804 1.50713 -2.5317 1.50713C-1.10705 1.50713 -0.270184 0.451095 -0.270184 0.331543C-0.270184 0.271767 -0.32996 0.202029 -0.389736 0.202029C-0.439549 0.202029 -0.459474 0.221954 -0.51925 0.301655C-1.3063 1.28796 -2.39223 1.28796 -2.51178 1.28796C-3.28886 1.28796 -3.37853 0.451095 -3.37853 0.13229C-3.37853 0.0127385 -3.36857 -0.296103 -3.21913 -0.903824ZM-3.21913 -0.903824M-3.15935 -1.123C-2.77081 -2.63732 -1.74466 -2.78676 -1.48563 -2.78676C-1.01738 -2.78676 -0.748391 -2.49785 -0.748391 -2.15912C-0.748391 -1.123 -2.34241 -1.123 -2.75088 -1.123ZM-2.75088 -1.123"/>
  <path fill="black" d="M0.572919 2.89193M3.81576 -1.32028C3.8855 -1.40396 3.8855 -1.41791 3.8855 -1.59923L2.05835 -1.59923C1.7794 -1.59923 1.70268 -1.60621 1.45162 -1.62713C1.08898 -1.65502 1.07504 -1.70384 1.05411 -1.8224L0.817004 -1.8224L0.572919 -0.329992L0.81003 -0.329992C0.823978 -0.434599 0.893716 -0.894873 1.0053 -0.964612C1.06109 -1.00645 1.62597 -1.00645 1.73058 -1.00645L3.25088 -1.00645C3.02771 -0.713553 2.67205 -0.281175 2.5256 -0.0859069C1.61202 1.1136 1.52834 2.22244 1.52834 2.63389C1.52834 2.71061 1.52834 3.0314 1.85611 3.0314C2.19085 3.0314 2.19085 2.71758 2.19085 2.62692L2.19085 2.34797C2.19085 0.99504 2.46981 0.374367 2.76968 -0.00222068ZM2.76968 -0.00222068"/>
 </g>
 <g>
  <path fill="#fff" d="M3.9685 -0L3.9685 -0.00692634A3.9685 3.9685 0 0 0 -3.9685 -2.24837e-15A3.9685 3.9685 0 0 0 3.9685 0.00692634Z"/>
 </g>
 <path fill="black" d="M1.98425 -0L1.98425 -0.00346317A1.98425 1.98425 0 0 0 -1.98425 -1.12419e-15A1.98425 1.98425 0 0 0 1.98425 0.00346317Z"/>
 <g transform="matrix(1.000000,0.000000,0.000000,1.000000,-9.921260,-0.000000)">
  <path fill="black" d="M-4.36032 1.39755M0.0132785 -2.30856C0.0132785 -2.84654 -0.24575 -3.00594 -0.425078 -3.00594C-0.674144 -3.00594 -0.913247 -2.74691 -0.913247 -2.52773C-0.913247 -2.39822 -0.863434 -2.33844 -0.753845 -2.22886C-0.544629 -2.0296 -0.415115 -1.77057 -0.415115 -1.41192C-0.415115 -0.993488 -1.02284 1.28796 -2.18847 1.28796C-2.69656 1.28796 -2.9257 0.939264 -2.9257 0.421207C-2.9257 -0.136701 -2.65671 -0.863974 -2.34787 -1.69087C-2.27813 -1.86024 -2.22832 -1.99971 -2.22832 -2.189C-2.22832 -2.63732 -2.54712 -3.00594 -3.04525 -3.00594C-3.98174 -3.00594 -4.36032 -1.56136 -4.36032 -1.47169C-4.36032 -1.37207 -4.26069 -1.37207 -4.24077 -1.37207C-4.14114 -1.37207 -4.13118 -1.39199 -4.08137 -1.5514C-3.79245 -2.55762 -3.36406 -2.78676 -3.07514 -2.78676C-2.99544 -2.78676 -2.82607 -2.78676 -2.82607 -2.46796C-2.82607 -2.21889 -2.9257 -1.9499 -2.99544 -1.77057C-3.4338 -0.614908 -3.56331 -0.156626 -3.56331 0.271767C-3.56331 1.34773 -2.6866 1.50713 -2.22832 1.50713C-0.554592 1.50713 0.0132785 -1.7905 0.0132785 -2.30856ZM0.0132785 -2.30856"/>
  <path fill="black" d="M0.940032 2.89193M2.51612 -1.54344C2.51612 -1.73173 2.50217 -1.73871 2.30691 -1.73871C1.86058 -1.29936 1.22596 -1.29238 0.940032 -1.29238L0.940032 -1.04132C1.1074 -1.04132 1.56768 -1.04132 1.95124 -1.23659L1.95124 2.32007C1.95124 2.55021 1.95124 2.64087 1.25386 2.64087L0.988849 2.64087L0.988849 2.89193C1.11438 2.88495 1.97216 2.86403 2.23019 2.86403C2.44638 2.86403 3.32509 2.88495 3.47851 2.89193L3.47851 2.64087L3.21351 2.64087C2.51612 2.64087 2.51612 2.55021 2.51612 2.32007ZM2.51612 2.32007"/>
 </g>
 <g>
  <path fill="#fff" d="M3.9685 56.6929L3.9685 56.686A3.9685 3.9685 0 0 0 -3.9685 56.6929A3.9685 3.9685 0 0 0 3.9685 56.6998Z"/>
 </g>
 <g stroke-width="0.801759">
  <path d="M3.9685 56.6929L3.9685 56.686A3.9685 3.9685 0 0 0 -3.9685 56.6929A3.9685 3.9685 0 0 0 3.9685 56.6998Z" stroke="#ff1919"/>
 </g>
 <path fill="black" d="M1.98425 56.6929L1.98425 56.6895A1.98425 1.98425 0 0 0 -1.98425 56.6929A1.98425 1.98425 0 0 0 1.98425 56.6964Z"/>
 <g transform="matrix(1.000000,0.000000,0.000000,1.000000,-9.921260,56.692913)">
  <path fill="black" d="M-4.36032 1.39755M0.0132785 -2.30856C0.0132785 -2.84654 -0.24575 -3.00594 -0.425078 -3.00594C-0.674144 -3.00594 -0.913247 -2.74691 -0.913247 -2.52773C-0.913247 -2.39822 -0.863434 -2.33844 -0.753845 -2.22886C-0.544629 -2.0296 -0.415115 -1.77057 -0.415115 -1.41192C-0.415115 -0.993488 -1.02284 1.28796 -2.18847 1.28796C-2.69656 1.28796 -2.9257 0.939264 -2.9257 0.421207C-2.9257 -0.136701 -2.65671 -0.863974 -2.34787 -1.69087C-2.27813 -1.86024 -2.22832 -1.99971 -2.22832 -2.189C-2.22832 -2.63732 -2.54712 -3.00594 -3.04525 -3.00594C-3.98174 -3.00594 -4.36032 -1.56136 -4.36032 -1.47169C-4.36032 -1.37207 -4.26069 -1.37207 -4.24077 -1.37207C-4.14114 -1.37207 -4.13118 -1.39199 -4.08137 -1.5514C-3.79245 -2.55762 -3.36406 -2.78676 -3.07514 -2.78676C-2.99544 -2.78676 -2.82607 -2.78676 -2.82607 -2.46796C-2.82607 -2.21889 -2.9257 -1.9499 -2.99544 -1.77057C-3.4338 -0.614908 -3.56331 -0.156626 -3.56331 0.271767C-3.56331 1.34773 -2.6866 1.50713 -2.22832 1.50713C-0.554592 1.50713 0.0132785 -1.7905 0.0132785 -2.30856ZM0.0132785 -2.30856"/>
  <path fill="black" d="M0.619235 2.89193M3.70168 1.62269L3.46457 1.62269C3.44364 1.77611 3.37391 2.18757 3.28325 2.25731C3.22745 2.29915 2.69047 2.29915 2.59283 2.29915L1.30965 2.29915C2.0419 1.65058 2.28598 1.45531 2.70442 1.12754C3.22048 0.716086 3.70168 0.283707 3.70168 -0.378808C3.70168 -1.22264 2.96245 -1.73871 2.0698 -1.73871C1.20504 -1.73871 0.619235 -1.13198 0.619235 -0.49039C0.619235 -0.134724 0.919111 -0.0998545 0.988849 -0.0998545C1.15622 -0.0998545 1.35846 -0.21841 1.35846 -0.469468C1.35846 -0.594998 1.30965 -0.839082 0.947006 -0.839082C1.1632 -1.33423 1.63742 -1.48765 1.96519 -1.48765C2.66257 -1.48765 3.02521 -0.94369 3.02521 -0.378808C3.02521 0.227916 2.59283 0.709112 2.36967 0.96017L0.688974 2.61995C0.619235 2.68271 0.619235 2.69666 0.619235 2.89193L3.49246 2.89193ZM3.49246 2.89193"/>
 </g>
 <g>
  <path fill="#fff" d="M60.6614 -0L60.6614 -0.00692634A3.9685 3.9685 0 0 0 52.7244 -2.24837e-15A3.9685 3.9685 0 0 0 60.6614 0.00692634Z"/>
 </g>
 <path fill="black" d="M58.6772 -0L58.6772 -0.00346317A1.98425 1.98425 0 0 0 54.7087 -1.12419e-15A1.98425 1.98425 0 0 0 58.6772 0.00346317Z"/>
 <g transform="matrix(1.000000,0.000000,0.000000,1.000000,56.692913,-9.921260)">
  <path fill="black" d="M-4.36032 1.39755M0.0132785 -2.30856C0.0132785 -2.84654 -0.24575 -3.00594 -0.425078 -3.00594C-0.674144 -3.00594 -0.913247 -2.74691 -0.913247 -2.52773C-0.913247 -2.39822 -0.863434 -2.33844 -0.753845 -2.22886C-0.544629 -2.0296 -0.415115 -1.77057 -0.415115 -1.41192C-0.415115 -0.993488 -1.02284 1.28796 -2.18847 1.28796C-2.69656 1.28796 -2.9257 0.939264 -2.9257 0.421207C-2.9257 -0.136701 -2.65671 -0.863974 -2.34787 -1.69087C-2.27813 -1.86024 -2.22832 -1.99971 -2.22832 -2.189C-2.22832 -2.63732 -2.54712 -3.00594 -3.04525 -3.00594C-3.98174 -3.00594 -4.36032 -1.56136 -4.36032 -1.47169C-4.36032 -1.37207 -4.26069 -1.37207 -4.24077 -1.37207C-4.14114 -1.37207 -4.13118 -1.39199 -4.08137 -1.5514C-3.79245 -2.55762 -3.36406 -2.78676 -3.07514 -2.78676C-2.99544 -2.78676 -2.82607 -2.78676 -2.82607 -2.46796C-2.82607 -2.21889 -2.9257 -1.9499 -2.99544 -1.77057C-3.4338 -0.614908 -3.56331 -0.156626 -3.56331 0.271767C-3.56331 1.34773 -2.6866 1.50713 -2.22832 1.50713C-0.554592 1.50713 0.0132785 -1.7905 0.0132785 -2.30856ZM0.0132785 -2.30856"/>
  <path fill="black" d="M0.55647 2.89193M2.08374 0.562661C2.6277 0.562661 3.01824 0.939249 3.01824 1.68545C3.01824 2.55021 2.51612 2.80824 2.11164 2.80824C1.83268 2.80824 1.21899 2.73153 0.926084 2.32007C1.25386 2.30612 1.33057 2.07599 1.33057 1.92954C1.33057 1.70637 1.1632 1.54597 0.947006 1.54597C0.751738 1.54597 0.55647 1.66453 0.55647 1.95046C0.55647 2.606 1.28175 3.0314 2.12559 3.0314C3.09495 3.0314 3.76444 2.38284 3.76444 1.68545C3.76444 1.14149 3.31811 0.59753 2.55099 0.437132C3.28325 0.172126 3.54825 -0.350913 3.54825 -0.776318C3.54825 -1.32725 2.91363 -1.73871 2.13953 -1.73871C1.36544 -1.73871 0.77266 -1.36212 0.77266 -0.804213C0.77266 -0.567102 0.926084 -0.434599 1.1353 -0.434599C1.35149 -0.434599 1.49097 -0.594998 1.49097 -0.790266C1.49097 -0.992507 1.35149 -1.13896 1.1353 -1.15291C1.37938 -1.45975 1.86058 -1.53647 2.11861 -1.53647C2.43244 -1.53647 2.87179 -1.38304 2.87179 -0.776318C2.87179 -0.483416 2.77415 -0.162619 2.59283 0.0535701C2.3627 0.318576 2.16743 0.332524 1.81874 0.353446C1.64439 0.367393 1.63044 0.367393 1.59557 0.374367C1.58163 0.374367 1.52584 0.388315 1.52584 0.465027C1.52584 0.562661 1.5886 0.562661 1.70716 0.562661ZM1.70716 0.562661"/>
 </g>
 <g>
  <path fill="#fff" d="M60.6614 56.6929L60.6614 56.686A3.9685 3.9685 0 0 0 52.7244 56.6929A3.9685 3.9685 0 0 0 60.6614 56.6998Z"/>
 </g>
 <path fill="black" d="M58.6772 56.6929L58.6772 56.6895A1.98425 1.98425 0 0 0 54.7087 56.6929A1.98425 1.98425 0 0 0 58.6772 56.6964Z"/>
 <g transform="matrix(1.000000,0.000000,0.000000,1.000000,56.692913,66.614173)">
  <path fill="black" d="M-4.36032 1.39755M0.0132785 -2.30856C0.0132785 -2.84654 -0.24575 -3.00594 -0.425078 -3.00594C-0.674144 -3.00594 -0.913247 -2.74691 -0.913247 -2.52773C-0.913247 -2.39822 -0.863434 -2.33844 -0.753845 -2.22886C-0.544629 -2.0296 -0.415115 -1.77057 -0.415115 -1.41192C-0.415115 -0.993488 -1.02284 1.28796 -2.18847 1.28796C-2.69656 1.28796 -2.9257 0.939264 -2.9257 0.421207C-2.9257 -0.136701 -2.65671 -0.863974 -2.34787 -1.69087C-2.27813 -1.86024 -2.22832 -1.99971 -2.22832 -2.189C-2.22832 -2.63732 -2.54712 -3.00594 -3.04525 -3.00594C-3.98174 -3.00594 -4.36032 -1.56136 -4.36032 -1.47169C-4.36032 -1.37207 -4.26069 -1.37207 -4.24077 -1.37207C-4.14114 -1.37207 -4.13118 -1.39199 -4.08137 -1.5514C-3.79245 -2.55762 -3.36406 -2.78676 -3.07514 -2.78676C-2.99544 -2.78676 -2.82607 -2.78676 -2.82607 -2.46796C-2.82607 -2.21889 -2.9257 -1.9499 -2.99544 -1.77057C-3.4338 -0.614908 -3.56331 -0.156626 -3.56331 0.271767C-3.56331 1.34773 -2.6866 1.50713 -2.22832 1.50713C-0.554592 1.50713 0.0132785 -1.7905 0.0132785 -2.30856ZM0.0132785 -2.30856"/>
  <path fill="black" d="M0.451863 2.89193M3.86905 1.74822L3.86905 1.49716L3.09495 1.49716L3.09495 -1.61318C3.09495 -1.75963 3.09495 -1.80845 2.94153 -1.80845C2.85784 -1.80845 2.82994 -1.80845 2.76021 -1.71081L0.451863 1.49716L0.451863 1.74822L2.50217 1.74822L2.50217 2.32007C2.50217 2.55718 2.50217 2.64087 1.93729 2.64087L1.749 2.64087L1.749 2.89193C2.09769 2.87798 2.54402 2.86403 2.79508 2.86403C3.05311 2.86403 3.49943 2.87798 3.84813 2.89193L3.84813 2.64087L3.65983 2.64087C3.09495 2.64087 3.09495 2.55718 3.09495 2.32007L3.09495 1.74822ZM3.09495 1.74822M2.55099 -1.05527L2.55099 1.49716L0.709895 1.49716ZM0.709895 1.49716"/>
 </g>
 <g>
  <path fill="#fff" d="M117.354 -0L117.354 -0.00692634A3.9685 3.9685 0 0 0 109.417 -2.24837e-15A3.9685 3.9685 0 0 0 117.354 0.00692634Z"/>
 </g>
 <path fill="black" d="M115.37 -0L115.37 -0.00346317A1.98425 1.98425 0 0 0 111.402 -1.12419e-15A1.98425 1.98425 0 0 0 115.37 0.00346317Z"/>
 <g transform="matrix(1.000000,0.000000,0.000000,1.000000,123.307087,-0.000000)">
  <path fill="black" d="M-4.36032 1.39755M0.0132785 -2.30856C0.0132785 -2.84654 -0.24575 -3.00594 -0.425078 -3.00594C-0.674144 -3.00594 -0.913247 -2.74691 -0.913247 -2.52773C-0.913247 -2.39822 -0.863434 -2.33844 -0.753845 -2.22886C-0.544629 -2.0296 -0.415115 -1.77057 -0.415115 -1.41192C-0.415115 -0.993488 -1.02284 1.28796 -2.18847 1.28796C-2.69656 1.28796 -2.9257 0.939264 -2.9257 0.421207C-2.9257 -0.136701 -2.65671 -0.863974 -2.34787 -1.69087C-2.27813 -1.86024 -2.22832 -1.99971 -2.22832 -2.189C-2.22832 -2.63732 -2.54712 -3.00594 -3.04525 -3.00594C-3.98174 -3.00594 -4.36032 -1.56136 -4.36032 -1.47169C-4.36032 -1.37207 -4.26069 -1.37207 -4.24077 -1.37207C-4.14114 -1.37207 -4.13118 -1.39199 -4.08137 -1.5514C-3.79245 -2.55762 -3.36406 -2.78676 -3.07514 -2.78676C-2.99544 -2.78676 -2.82607 -2.78676 -2.82607 -2.46796C-2.82607 -2.21889 -2.9257 -1.9499 -2.99544 -1.77057C-3.4338 -0.614908 -3.56331 -0.156626 -3.56331 0.271767C-3.56331 1.34773 -2.6866 1.50713 -2.22832 1.50713C-0.554592 1.50713 0.0132785 -1.7905 0.0132785 -2.30856ZM0.0132785 -2.30856"/>
  <path fill="black" d="M0.619235 2.89193M1.26083 -0.999481C1.6165 -0.908821 1.82571 -0.908821 1.93729 -0.908821C2.85784 -0.908821 3.4018 -1.53647 3.4018 -1.64107C3.4018 -1.71779 3.35298 -1.73871 3.31811 -1.73871C3.30417 -1.73871 3.29022 -1.73871 3.26232 -1.71779C3.09495 -1.65502 2.72534 -1.51555 2.20927 -1.51555C2.014 -1.51555 1.64439 -1.52949 1.19109 -1.70384C1.12135 -1.73871 1.1074 -1.73871 1.10043 -1.73871C1.00977 -1.73871 1.00977 -1.662 1.00977 -1.55041L1.00977 0.50687C1.00977 0.625426 1.00977 0.709112 1.12135 0.709112C1.18412 0.709112 1.19109 0.695164 1.26083 0.611478C1.5607 0.227916 1.98611 0.172126 2.23019 0.172126C2.64862 0.172126 2.83692 0.50687 2.87179 0.562661C2.99732 0.792798 3.03916 1.0578 3.03916 1.46229C3.03916 1.6715 3.03916 2.08296 2.82994 2.38981C2.6556 2.64087 2.35572 2.80824 2.014 2.80824C1.5607 2.80824 1.09346 2.55718 0.919111 2.09691C1.18412 2.11783 1.31662 1.94348 1.31662 1.75519C1.31662 1.45531 1.05859 1.39952 0.967928 1.39952C0.95398 1.39952 0.619235 1.39952 0.619235 1.77611C0.619235 2.40376 1.19109 3.0314 2.02795 3.0314C2.9206 3.0314 3.70168 2.36889 3.70168 1.49018C3.70168 0.702138 3.10193 -0.0231422 2.23717 -0.0231422C1.93032 -0.0231422 1.56768 0.0535701 1.26083 0.318576ZM1.26083 0.318576"/>
 </g>
 <g>
  <path fill="#fff" d="M117.354 56.6929L117.354 56.686A3.9685 3.9685 0 0 0 109.417 56.6929A3.9685 3.9685 0 0 0 117.354 56.6998Z"/>
 </g>
 <path fill="black" d="M115.37 56.6929L115.37 56.6895A1.98425 1.98425 0 0 0 111.402 56.6929A1.98425 1.98425 0 0 0 115.37 56.6964Z"/>
 <g transform="matrix(1.000000,0.000000,0.000000,1.000000,123.307087,56.692913)">
  <path fill="black" d="M-4.36032 1.39755M0.0132785 -2.30856C0.0132785 -2.84654 -0.24575 -3.00594 -0.425078 -3.00594C-0.674144 -3.00594 -0.913247 -2.74691 -0.913247 -2.52773C-0.913247 -2.39822 -0.863434 -2.33844 -0.753845 -2.22886C-0.544629 -2.0296 -0.415115 -1.77057 -0.415115 -1.41192C-0.415115 -0.993488 -1.02284 1.28796 -2.18847 1.28796C-2.69656 1.28796 -2.9257 0.939264 -2.9257 0.421207C-2.9257 -0.136701 -2.65671 -0.863974 -2.34787 -1.69087C-2.27813 -1.86024 -2.22832 -1.99971 -2.22832 -2.189C-2.22832 -2.63732 -2.54712 -3.00594 -3.04525 -3.00594C-3.98174 -3.00594 -4.36032 -1.56136 -4.36032 -1.47169C-4.36032 -1.37207 -4.26069 -1.37207 -4.24077 -1.37207C-4.14114 -1.37207 -4.13118 -1.39199 -4.08137 -1.5514C-3.79245 -2.55762 -3.36406 -2.78676 -3.07514 -2.78676C-2.99544 -2.78676 -2.82607 -2.78676 -2.82607 -2.46796C-2.82607 -2.21889 -2.9257 -1.9499 -2.99544 -1.77057C-3.4338 -0.614908 -3.56331 -0.156626 -3.56331 0.271767C-3.56331 1.34773 -2.6866 1.50713 -2.22832 1.50713C-0.554592 1.50713 0.0132785 -1.7905 0.0132785 -2.30856ZM0.0132785 -2.30856"/>
  <path fill="black" d="M0.55647 2.89193M1.22596 0.611478C1.22596 0.0396224 1.27478 -0.476442 1.53978 -0.901847C1.77689 -1.27843 2.15348 -1.53647 2.59981 -1.53647C2.80902 -1.53647 3.08798 -1.48068 3.22745 -1.29238C3.05311 -1.27843 2.90666 -1.15988 2.90666 -0.957638C2.90666 -0.783292 3.02521 -0.629867 3.23443 -0.629867C3.44364 -0.629867 3.56917 -0.769344 3.56917 -0.971586C3.56917 -1.37607 3.27627 -1.73871 2.58586 -1.73871C1.58163 -1.73871 0.55647 -0.818161 0.55647 0.681216C0.55647 2.48744 1.40728 3.0314 2.1744 3.0314C3.02521 3.0314 3.76444 2.38284 3.76444 1.46926C3.76444 0.583583 3.06008 -0.0719592 2.24414 -0.0719592C1.68623 -0.0719592 1.37938 0.297655 1.22596 0.611478ZM1.22596 0.611478M2.1744 2.80824C1.82571 2.80824 1.55373 2.606 1.40728 2.29915C1.30267 2.08993 1.24688 1.74124 1.24688 1.32281C1.24688 0.646347 1.65136 0.123309 2.20927 0.123309C2.53007 0.123309 2.74626 0.248838 2.9206 0.50687C3.08798 0.771876 3.09495 1.06478 3.09495 1.46926C3.09495 1.86677 3.09495 2.15967 2.90666 2.43165C2.73928 2.67574 2.51612 2.80824 2.1744 2.80824ZM2.1744 2.80824"/>
 </g>
</svg>
