<?xml version="1.0" encoding="utf-8"?>
<svg xmlns="http://www.w3.org/2000/svg" fill="none" version="1.1" viewBox="-1 -1 167.827 167.827" x="-1pt" y="-1pt" width="167.827pt" height="167.827pt" stroke-width="0.566929" stroke-miterlimit="10.000000">
 <g transform="matrix(1.000000,0.000000,0.000000,1.000000,18.425197,18.425197)">
  <path d="M1.84252 0L1.84252 -0.0032158A1.84252 1.84252 0 0 0 -1.84252 -1.04389e-15A1.84252 1.84252 0 0 0 1.84252 0.0032158Z" fill="black"/>
  <path d="M38.6929 0L38.6929 -0.0032158A1.84252 1.84252 0 0 0 35.0079 -1.04389e-15A1.84252 1.84252 0 0 0 38.6929 0.0032158Z" fill="black"/>
  <path d="M75.5433 0L75.5433 -0.0032158A1.84252 1.84252 0 0 0 71.8583 -1.04389e-15A1.84252 1.84252 0 0 0 75.5433 0.0032158Z" fill="black"/>
  <path d="M112.394 0L112.394 -0.0032158A1.84252 1.84252 0 0 0 108.709 -1.04389e-15A1.84252 1.84252 0 0 0 112.394 0.0032158Z" fill="black"/>
  <path d="M1.84252 36.8504L1.84252 36.8472A1.84252 1.84252 0 0 0 -1.84252 36.8504A1.84252 1.84252 0 0 0 1.84252 36.8536Z" fill="black"/>
  <path d="M38.6929 36.8504L38.6929 36.8472A1.84252 1.84252 0 0 0 35.0079 36.8504A1.84252 1.84252 0 0 0 38.6929 36.8536Z" fill="black"/>
  <path d="M75.5433 36.8504L75.5433 36.8472A1.84252 1.84252 0 0 0 71.8583 36.8504A1.84252 1.84252 0 0 0 75.5433 36.8536Z" fill="black"/>
  <g stroke-width="0.801759">
   <path d="M113.315 36.8504L113.315 36.8456A2.76378 2.76378 0 0 0 107.787 36.8504A2.76378 2.76378 0 0 0 113.315 36.8552Z" stroke="#1919e5"/>
  </g>
  <path d="M1.84252 73.7008L1.84252 73.6976A1.84252 1.84252 0 0 0 -1.84252 73.7008A1.84252 1.84252 0 0 0 1.84252 73.704Z" fill="black"/>
  <path d="M38.6929 73.7008L38.6929 73.6976A1.84252 1.84252 0 0 0 35.0079 73.7008A1.84252 1.84252 0 0 0 38.6929 73.704Z" fill="black"/>
  <path d="M75.5433 73.7008L75.5433 73.6976A1.84252 1.84252 0 0 0 71.8583 73.7008A1.84252 1.84252 0 0 0 75.5433 73.704Z" fill="black"/>
  <path d="M112.394 73.7008L112.394 73.6976A1.84252 1.84252 0 0 0 108.709 73.7008A1.84252 1.84252 0 0 0 112.394 73.704Z" fill="black"/>
  <path d="M1.84252 110.551L1.84252 110.548A1.84252 1.84252 0 0 0 -1.84252 110.551A1.84252 1.84252 0 0 0 1.84252 110.554Z" fill="black"/>
  <path d="M38.6929 110.551L38.6929 110.548A1.84252 1.84252 0 0 0 35.0079 110.551A1.84252 1.84252 0 0 0 38.6929 110.554Z" fill="black"/>
  <path d="M75.5433 110.551L75.5433 110.548A1.84252 1.84252 0 0 0 71.8583 110.551A1.84252 1.84252 0 0 0 75.5433 110.554Z" fill="black"/>
  <path d="M112.394 110.551L112.394 110.548A1.84252 1.84252 0 0 0 108.709 110.551A1.84252 1.84252 0 0 0 112.394 110.554Z" fill="black"/>
  <g stroke-width="0.801759">
   <path d="M20.2677 0L20.2677 -0.0032158A1.84252 1.84252 0 0 0 16.5827 -1.04389e-15A1.84252 1.84252 0 0 0 20.2677 0.0032158Z" fill="#f00"/>
  </g>
  <path d="M0 0L36.8504 0" stroke="black"/>
  <g stroke-width="0.801759">
   <path d="M1.84252 18.4252L1.84252 18.422A1.84252 1.84252 0 0 0 -1.84252 18.4252A1.84252 1.84252 0 0 0 1.84252 18.4284Z" fill="#f00"/>
  </g>
  <path d="M0 0L0 36.8504" stroke="black"/>
  <g stroke-width="0.801759">
   <path d="M57.1181 0L57.1181 -0.0032158A1.84252 1.84252 0 0 0 53.4331 -1.04389e-15A1.84252 1.84252 0 0 0 57.1181 0.0032158Z" fill="#f00"/>
  </g>
  <path d="M36.8504 0L73.7008 0" stroke="black"/>
  <g stroke-width="0.801759">
   <path d="M38.6929 18.4252L38.6929 18.422A1.84252 1.84252 0 0 0 35.0079 18.4252A1.84252 1.84252 0 0 0 38.6929 18.4284Z" fill="#f00"/>
  </g>
  <path d="M36.8504 0L36.8504 36.8504" stroke="black"/>
  <g stroke-width="0.801759">
   <path d="M93.9685 0L93.9685 -0.0032158A1.84252 1.84252 0 0 0 90.2835 -1.04389e-15A1.84252 1.84252 0 0 0 93.9685 0.0032158Z" fill="#f00"/>
  </g>
  <path d="M73.7008 0L110.551 0" stroke="black"/>
  <g stroke-width="0.801759">
   <path d="M75.5433 18.4252L75.5433 18.422A1.84252 1.84252 0 0 0 71.8583 18.4252A1.84252 1.84252 0 0 0 75.5433 18.4284Z" fill="#f00"/>
  </g>
  <path d="M73.7008 0L73.7008 36.8504" stroke="black"/>
  <g stroke-width="0.801759">
   <path d="M130.819 0L130.819 -0.0032158A1.84252 1.84252 0 0 0 127.134 -1.04389e-15A1.84252 1.84252 0 0 0 130.819 0.0032158Z" fill="#f00"/>
  </g>
  <path d="M110.551 0L147.402 0" stroke="black"/>
  <g stroke-width="0.801759">
   <path d="M112.394 18.4252L112.394 18.422A1.84252 1.84252 0 0 0 108.709 18.4252A1.84252 1.84252 0 0 0 112.394 18.4284Z" fill="#f00"/>
  </g>
  <path d="M110.551 0L110.551 36.8504" stroke="black"/>
  <g stroke-width="0.801759">
   <path d="M20.2677 36.8504L20.2677 36.8472A1.84252 1.84252 0 0 0 16.5827 36.8504A1.84252 1.84252 0 0 0 20.2677 36.8536Z" fill="#f00"/>
  </g>
  <path d="M0 36.8504L36.8504 36.8504" stroke="black"/>
  <g stroke-width="0.801759">
   <path d="M1.84252 55.2756L1.84252 55.2724A1.84252 1.84252 0 0 0 -1.84252 55.2756A1.84252 1.84252 0 0 0 1.84252 55.2788Z" fill="#f00"/>
  </g>
  <path d="M0 36.8504L0 73.7008" stroke="black"/>
  <g stroke-width="0.801759">
   <path d="M57.1181 36.8504L57.1181 36.8472A1.84252 1.84252 0 0 0 53.4331 36.8504A1.84252 1.84252 0 0 0 57.1181 36.8536Z" fill="#f00"/>
  </g>
  <path d="M36.8504 36.8504L73.7008 36.8504" stroke="black"/>
  <g stroke-width="0.801759">
   <path d="M38.6929 55.2756L38.6929 55.2724A1.84252 1.84252 0 0 0 35.0079 55.2756A1.84252 1.84252 0 0 0 38.6929 55.2788Z" fill="#f00"/>
  </g>
  <path d="M36.8504 36.8504L36.8504 73.7008" stroke="black"/>
  <g stroke-width="0.801759">
   <path d="M93.9685 36.8504L93.9685 36.8472A1.84252 1.84252 0 0 0 90.2835 36.8504A1.84252 1.84252 0 0 0 93.9685 36.8536Z" fill="#f00"/>
  </g>
  <path d="M73.7008 36.8504L110.551 36.8504" stroke="black"/>
  <g stroke-width="0.801759">
   <path d="M75.5433 55.2756L75.5433 55.2724A1.84252 1.84252 0 0 0 71.8583 55.2756A1.84252 1.84252 0 0 0 75.5433 55.2788Z" fill="#f00"/>
  </g>
  <path d="M73.7008 36.8504L73.7008 73.7008" stroke="black"/>
  <g stroke-width="0.801759">
   <path d="M130.819 36.8504L130.819 36.8472A1.84252 1.84252 0 0 0 127.134 36.8504A1.84252 1.84252 0 0 0 130.819 36.8536Z" fill="#f00"/>
  </g>
  <path d="M110.551 36.8504L147.402 36.8504" stroke="black"/>
  <g stroke-width="0.801759">
   <path d="M112.394 55.2756L112.394 55.2724A1.84252 1.84252 0 0 0 108.709 55.2756A1.84252 1.84252 0 0 0 112.394 55.2788Z" fill="#f00"/>
  </g>
  <path d="M110.551 36.8504L110.551 73.7008" stroke="black"/>
  <g stroke-width="0.801759">
   <path d="M20.2677 73.7008L20.2677 73.6976A1.84252 1.84252 0 0 0 16.5827 73.7008A1.84252 1.84252 0 0 0 20.2677 73.704Z" fill="#f00"/>
  </g>
  <path d="M0 73.7008L36.8504 73.7008" stroke="black"/>
  <g stroke-width="0.801759">
   <path d="M1.84252 92.126L1.84252 92.1228A1.84252 1.84252 0 0 0 -1.84252 92.126A1.84252 1.84252 0 0 0 1.84252 92.1292Z" fill="#f00"/>
  </g>
  <path d="M0 73.7008L0 110.551" stroke="black"/>
  <g stroke-width="0.801759">
   <path d="M57.1181 73.7008L57.1181 73.6976A1.84252 1.84252 0 0 0 53.4331 73.7008A1.84252 1.84252 0 0 0 57.1181 73.704Z" fill="#f00"/>
  </g>
  <path d="M36.8504 73.7008L73.7008 73.7008" stroke="black"/>
  <g stroke-width="0.801759">
   <path d="M38.6929 92.126L38.6929 92.1228A1.84252 1.84252 0 0 0 35.0079 92.126A1.84252 1.84252 0 0 0 38.6929 92.1292Z" fill="#f00"/>
  </g>
  <path d="M36.8504 73.7008L36.8504 110.551" stroke="black"/>
  <g stroke-width="0.801759">
   <path d="M93.9685 73.7008L93.9685 73.6976A1.84252 1.84252 0 0 0 90.2835 73.7008A1.84252 1.84252 0 0 0 93.9685 73.704Z" fill="#f00"/>
  </g>
  <path d="M73.7008 73.7008L110.551 73.7008" stroke="black"/>
  <g stroke-width="0.801759">
   <path d="M75.5433 92.126L75.5433 92.1228A1.84252 1.84252 0 0 0 71.8583 92.126A1.84252 1.84252 0 0 0 75.5433 92.1292Z" fill="#f00"/>
  </g>
  <path d="M73.7008 73.7008L73.7008 110.551" stroke="black"/>
  <g stroke-width="0.801759">
   <path d="M130.819 73.7008L130.819 73.6976A1.84252 1.84252 0 0 0 127.134 73.7008A1.84252 1.84252 0 0 0 130.819 73.704Z" fill="#f00"/>
  </g>
  <path d="M110.551 73.7008L147.402 73.7008" stroke="black"/>
  <g stroke-width="0.801759">
   <path d="M112.394 92.126L112.394 92.1228A1.84252 1.84252 0 0 0 108.709 92.126A1.84252 1.84252 0 0 0 112.394 92.1292Z" fill="#f00"/>
  </g>
  <path d="M110.551 73.7008L110.551 110.551" stroke="black"/>
  <g stroke-width="0.801759">
   <path d="M21.189 110.551L21.189 110.546A2.76378 2.76378 0 0 0 15.6614 110.551A2.76378 2.76378 0 0 0 21.189 110.556Z" stroke="#f00"/>
  </g>
  <path d="M0 110.551L36.8504 110.551" stroke="black"/>
  <g stroke-width="0.801759">
   <path d="M1.84252 128.976L1.84252 128.973A1.84252 1.84252 0 0 0 -1.84252 128.976A1.84252 1.84252 0 0 0 1.84252 128.98Z" fill="#f00"/>
  </g>
  <path d="M0 110.551L0 147.402" stroke="black"/>
  <g stroke-width="0.801759">
   <path d="M58.0394 110.551L58.0394 110.546A2.76378 2.76378 0 0 0 52.5118 110.551A2.76378 2.76378 0 0 0 58.0394 110.556Z" stroke="#f00"/>
  </g>
  <path d="M36.8504 110.551L73.7008 110.551" stroke="black"/>
  <g stroke-width="0.801759">
   <path d="M38.6929 128.976L38.6929 128.973A1.84252 1.84252 0 0 0 35.0079 128.976A1.84252 1.84252 0 0 0 38.6929 128.98Z" fill="#f00"/>
  </g>
  <path d="M36.8504 110.551L36.8504 147.402" stroke="black"/>
  <g stroke-width="0.801759">
   <path d="M93.9685 110.551L93.9685 110.548A1.84252 1.84252 0 0 0 90.2835 110.551A1.84252 1.84252 0 0 0 93.9685 110.554Z" fill="#f00"/>
  </g>
  <path d="M73.7008 110.551L110.551 110.551" stroke="black"/>
  <g stroke-width="0.801759">
   <path d="M75.5433 128.976L75.5433 128.973A1.84252 1.84252 0 0 0 71.8583 128.976A1.84252 1.84252 0 0 0 75.5433 128.98Z" fill="#f00"/>
  </g>
  <path d="M73.7008 110.551L73.7008 147.402" stroke="black"/>
  <g stroke-width="0.801759">
   <path d="M130.819 110.551L130.819 110.548A1.84252 1.84252 0 0 0 127.134 110.551A1.84252 1.84252 0 0 0 130.819 110.554Z" fill="#f00"/>
  </g>
  <path d="M110.551 110.551L147.402 110.551" stroke="black"/>
  <g stroke-width="0.801759">
   <path d="M112.394 128.976L112.394 128.973A1.84252 1.84252 0 0 0 108.709 128.976A1.84252 1.84252 0 0 0 112.394 128.98Z" fill="#f00"/>
  </g>
  <path d="M110.551 110.551L110.551 147.402" stroke="black"/>
  <g stroke-width="0.801759">
   <path d="M21.189 55.2756L21.189 55.2708A2.76378 2.76378 0 0 0 15.6614 55.2756A2.76378 2.76378 0 0 0 21.189 55.2804Z" stroke="#090"/>
  </g>
  <g stroke-width="1.603518">
   <path d="M147.402 73.7008L114.986 73.7008" stroke="#090"/>
   <g stroke-linecap="butt" stroke-dasharray="none">
    <path d="M116.094 75.9969L110.551 73.7008L116.094 71.4047L114.986 73.7008Z" fill="#090"/>
   </g>
  </g>
  <g stroke-width="1.603518">
   <path d="M36.8504 36.8504L69.2662 36.8504" stroke="#090"/>
   <g stroke-linecap="butt" stroke-dasharray="none">
    <path d="M68.1575 34.5543L73.7008 36.8504L68.1575 39.1465L69.2662 36.8504Z" fill="#090"/>
   </g>
  </g>
  <g stroke-width="1.603518">
   <path d="M110.551 73.7008L110.551 41.285" stroke="#090"/>
   <g stroke-linecap="butt" stroke-dasharray="none">
    <path d="M108.255 42.3937L110.551 36.8504L112.847 42.3937L110.551 41.285Z" fill="#090"/>
   </g>
  </g>
  <g stroke-width="1.603518">
   <path d="M36.8504 0L36.8504 32.4158" stroke="#090"/>
   <g stroke-linecap="butt" stroke-dasharray="none">
    <path d="M39.1465 31.3071L36.8504 36.8504L34.5543 31.3071L36.8504 32.4158Z" fill="#090"/>
   </g>
  </g>
  <g stroke-width="1.603518">
   <path d="M36.8504 110.551L36.8504 78.1354" stroke="#090"/>
   <g stroke-linecap="butt" stroke-dasharray="none">
    <path d="M34.5543 79.2441L36.8504 73.7008L39.1465 79.2441L36.8504 78.1354Z" fill="#090"/>
   </g>
  </g>
  <g stroke-width="1.603518">
   <path d="M73.7008 110.551L106.117 110.551" stroke="#090"/>
   <g stroke-linecap="butt" stroke-dasharray="none">
    <path d="M105.008 108.255L110.551 110.551L105.008 112.847L106.117 110.551Z" fill="#090"/>
   </g>
  </g>
  <g stroke-width="1.603518">
   <path d="M36.8504 73.7008L36.8504 41.285" stroke="#090"/>
   <g stroke-linecap="butt" stroke-dasharray="none">
    <path d="M34.5543 42.3937L36.8504 36.8504L39.1465 42.3937L36.8504 41.285Z" fill="#090"/>
   </g>
  </g>
  <g stroke-width="1.603518">
   <path d="M73.7008 73.7008L41.285 73.7008" stroke="#090"/>
   <g stroke-linecap="butt" stroke-dasharray="none">
    <path d="M42.3937 75.9969L36.8504 73.7008L42.3937 71.4047L41.285 73.7008Z" fill="#090"/>
   </g>
  </g>
  <g stroke-width="1.603518">
   <path d="M0 36.8504L0 69.2662" stroke="#090"/>
   <g stroke-linecap="butt" stroke-dasharray="none">
    <path d="M2.2961 68.1575L0 73.7008L-2.2961 68.1575L0 69.2662Z" fill="#090"/>
   </g>
  </g>
  <g stroke-width="1.603518">
   <path d="M0 147.402L0 114.986" stroke="#090"/>
   <g stroke-linecap="butt" stroke-dasharray="none">
    <path d="M-2.2961 116.094L0 110.551L2.2961 116.094L0 114.986Z" fill="#090"/>
   </g>
  </g>
  <g stroke-width="1.603518">
   <path d="M73.7008 147.402L73.7008 114.986" stroke="#090"/>
   <g stroke-linecap="butt" stroke-dasharray="none">
    <path d="M71.4047 116.094L73.7008 110.551L75.9969 116.094L73.7008 114.986Z" fill="#090"/>
   </g>
  </g>
  <g stroke-width="1.603518">
   <path d="M110.551 147.402L110.551 114.986" stroke="#090"/>
   <g stroke-linecap="butt" stroke-dasharray="none">
    <path d="M108.255 116.094L110.551 110.551L112.847 116.094L110.551 114.986Z" fill="#090"/>
   </g>
  </g>
  <g stroke-width="1.603518">
   <path d="M0 110.551L0 78.1354" stroke="#090"/>
   <g stroke-linecap="butt" stroke-dasharray="none">
    <path d="M-2.2961 79.2441L0 73.7008L2.2961 79.2441L0 78.1354Z" fill="#090"/>
   </g>
  </g>
  <g stroke-width="1.603518">
   <path d="M110.551 110.551L110.551 78.1354" stroke="#090"/>
   <g stroke-linecap="butt" stroke-dasharray="none">
    <path d="M108.255 79.2441L110.551 73.7008L112.847 79.2441L110.551 78.1354Z" fill="#090"/>
   </g>
  </g>
  <g stroke-width="1.603518">
   <path d="M73.7008 36.8504L73.7008 4.43462" stroke="#090"/>
   <g stroke-linecap="butt" stroke-dasharray="none">
    <path d="M71.4047 5.54328L73.7008 -0L75.9969 5.54328L73.7008 4.43462Z" fill="#090"/>
   </g>
  </g>
  <g stroke-width="1.603518">
   <path d="M92.126 18.4252L92.126 -13.9906" stroke="#1919e5"/>
   <g stroke-linecap="butt" stroke-dasharray="none">
    <path d="M89.8299 -12.8819L92.126 -18.4252L94.4221 -12.8819L92.126 -13.9906Z" fill="#1919e5"/>
   </g>
  </g>
  <g stroke-width="1.603518">
   <path d="M18.4252 18.4252L-13.9906 18.4252" stroke="#1919e5"/>
   <g stroke-linecap="butt" stroke-dasharray="none">
    <path d="M-12.8819 20.7213L-18.4252 18.4252L-12.8819 16.1291L-13.9906 18.4252Z" fill="#1919e5"/>
   </g>
  </g>
  <g stroke-width="1.603518">
   <path d="M92.126 18.4252L92.126 50.841" stroke="#1919e5"/>
   <g stroke-linecap="butt" stroke-dasharray="none">
    <path d="M94.4221 49.7323L92.126 55.2756L89.8299 49.7323L92.126 50.841Z" fill="#1919e5"/>
   </g>
  </g>
  <g stroke-width="1.603518">
   <path d="M18.4252 128.976L50.841 128.976" stroke="#1919e5"/>
   <g stroke-linecap="butt" stroke-dasharray="none">
    <path d="M49.7323 126.68L55.2756 128.976L49.7323 131.272L50.841 128.976Z" fill="#1919e5"/>
   </g>
  </g>
  <g stroke-width="1.603518">
   <path d="M92.126 55.2756L92.126 87.6914" stroke="#1919e5"/>
   <g stroke-linecap="butt" stroke-dasharray="none">
    <path d="M94.4221 86.5827L92.126 92.126L89.8299 86.5827L92.126 87.6914Z" fill="#1919e5"/>
   </g>
  </g>
  <g stroke-width="1.603518">
   <path d="M92.126 55.2756L59.7102 55.2756" stroke="#1919e5"/>
   <g stroke-linecap="butt" stroke-dasharray="none">
    <path d="M60.8189 57.5717L55.2756 55.2756L60.8189 52.9795L59.7102 55.2756Z" fill="#1919e5"/>
   </g>
  </g>
  <g stroke-width="1.603518">
   <path d="M18.4252 55.2756L18.4252 22.8598" stroke="#1919e5"/>
   <g stroke-linecap="butt" stroke-dasharray="none">
    <path d="M16.1291 23.9685L18.4252 18.4252L20.7213 23.9685L18.4252 22.8598Z" fill="#1919e5"/>
   </g>
  </g>
  <g stroke-width="1.603518">
   <path d="M18.4252 18.4252L18.4252 -13.9906" stroke="#1919e5"/>
   <g stroke-linecap="butt" stroke-dasharray="none">
    <path d="M16.1291 -12.8819L18.4252 -18.4252L20.7213 -12.8819L18.4252 -13.9906Z" fill="#1919e5"/>
   </g>
  </g>
  <g stroke-width="1.603518">
   <path d="M18.4252 55.2756L18.4252 87.6914" stroke="#1919e5"/>
   <g stroke-linecap="butt" stroke-dasharray="none">
    <path d="M20.7213 86.5827L18.4252 92.126L16.1291 86.5827L18.4252 87.6914Z" fill="#1919e5"/>
   </g>
  </g>
  <g stroke-width="1.603518">
   <path d="M128.976 18.4252L128.976 -13.9906" stroke="#1919e5"/>
   <g stroke-linecap="butt" stroke-dasharray="none">
    <path d="M126.68 -12.8819L128.976 -18.4252L131.272 -12.8819L128.976 -13.9906Z" fill="#1919e5"/>
   </g>
  </g>
  <g stroke-width="1.603518">
   <path d="M128.976 18.4252L96.5606 18.4252" stroke="#1919e5"/>
   <g stroke-linecap="butt" stroke-dasharray="none">
    <path d="M97.6693 20.7213L92.126 18.4252L97.6693 16.1291L96.5606 18.4252Z" fill="#1919e5"/>
   </g>
  </g>
  <g stroke-width="1.603518">
   <path d="M128.976 18.4252L128.976 50.841" stroke="#1919e5"/>
   <g stroke-linecap="butt" stroke-dasharray="none">
    <path d="M131.272 49.7323L128.976 55.2756L126.68 49.7323L128.976 50.841Z" fill="#1919e5"/>
   </g>
  </g>
  <g stroke-width="1.603518">
   <path d="M92.126 92.126L59.7102 92.126" stroke="#1919e5"/>
   <g stroke-linecap="butt" stroke-dasharray="none">
    <path d="M60.8189 94.4221L55.2756 92.126L60.8189 89.8299L59.7102 92.126Z" fill="#1919e5"/>
   </g>
  </g>
  <g stroke-width="1.603518">
   <path d="M55.2756 -18.4252L55.2756 13.9906" stroke="#1919e5"/>
   <g stroke-linecap="butt" stroke-dasharray="none">
    <path d="M57.5717 12.8819L55.2756 18.4252L52.9795 12.8819L55.2756 13.9906Z" fill="#1919e5"/>
   </g>
  </g>
  <g stroke-width="1.603518">
   <path d="M128.976 128.976L128.976 96.5606" stroke="#1919e5"/>
   <g stroke-linecap="butt" stroke-dasharray="none">
    <path d="M126.68 97.6693L128.976 92.126L131.272 97.6693L128.976 96.5606Z" fill="#1919e5"/>
   </g>
  </g>
 </g>
</svg>
